<svg xmlns="http://www.w3.org/2000/svg" viewBox="0 0 200 200" style="width:100%;height:100%"><defs><radialGradient id="bgggj5o5rd" cx="50%" cy="50%" r="60%"><stop offset="0%" stop-color="#2a1a5a" stop-opacity=".5"/><stop offset="60%" stop-color="#1a1240" stop-opacity=".3"/><stop offset="100%" stop-color="#06040f"/></radialGradient></defs><rect width="200" height="200" fill="url(#bgggj5o5rd)"/><circle cx="136" cy="165" r="1.4" fill="#fff" opacity="0.83"/><circle cx="15" cy="29" r="0.5" fill="#fff" opacity="0.85"/><circle cx="125" cy="194" r="1.0" fill="#fff" opacity="0.81"/><circle cx="44" cy="56" r="0.5" fill="#fff" opacity="0.56"/><circle cx="86" cy="108" r="0.4" fill="#fff" opacity="0.86"/><circle cx="56" cy="182" r="0.3" fill="#fff" opacity="0.73"/><circle cx="19" cy="80" r="1.2" fill="#fff" opacity="0.45"/><circle cx="107" cy="0" r="1.5" fill="#fff" opacity="0.30"/><circle cx="197" cy="119" r="0.8" fill="#fff" opacity="0.27"/><circle cx="145" cy="24" r="1.5" fill="#fff" opacity="0.88"/><circle cx="146" cy="138" r="1.5" fill="#fff" opacity="0.68"/><circle cx="68" cy="44" r="0.4" fill="#fff" opacity="0.76"/><circle cx="199" cy="155" r="1.7" fill="#fff" opacity="0.71"/><circle cx="59" cy="171" r="0.4" fill="#fff" opacity="0.87"/><circle cx="196" cy="192" r="0.4" fill="#fff" opacity="0.71"/><circle cx="169" cy="27" r="0.3" fill="#fff" opacity="0.34"/><circle cx="115" cy="99" r="0.7" fill="#fff" opacity="0.62"/><circle cx="123" cy="13" r="0.9" fill="#fff" opacity="0.79"/><circle cx="114" cy="154" r="0.6" fill="#fff" opacity="0.47"/><circle cx="100" cy="50" r="0.6" fill="#fff" opacity="0.38"/><circle cx="135" cy="199" r="0.5" fill="#fff" opacity="0.38"/><circle cx="183" cy="13" r="0.4" fill="#fff" opacity="0.50"/><circle cx="33" cy="111" r="1.5" fill="#fff" opacity="0.21"/><circle cx="38" cy="108" r="0.8" fill="#fff" opacity="0.40"/><circle cx="55" cy="133" r="1.0" fill="#fff" opacity="0.85"/><circle cx="53" cy="102" r="0.6" fill="#fff" opacity="0.86"/><circle cx="63" cy="101" r="0.4" fill="#fff" opacity="0.84"/><circle cx="10" cy="195" r="1.0" fill="#fff" opacity="0.55"/><circle cx="18" cy="89" r="1.2" fill="#fff" opacity="0.43"/><circle cx="54" cy="28" r="0.4" fill="#fff" opacity="0.29"/><circle cx="62" cy="164" r="0.9" fill="#fff" opacity="0.51"/><circle cx="153" cy="133" r="0.7" fill="#fff" opacity="0.39"/><circle cx="107" cy="149" r="1.4" fill="#fff" opacity="0.71"/><circle cx="137" cy="95" r="1.1" fill="#fff" opacity="0.66"/><circle cx="29" cy="76" r="1.7" fill="#fff" opacity="0.63"/><circle cx="184" cy="153" r="1.3" fill="#fff" opacity="0.38"/><circle cx="93" cy="188" r="1.3" fill="#fff" opacity="0.49"/><circle cx="106" cy="13" r="1.6" fill="#fff" opacity="0.48"/><circle cx="107" cy="106" r="0.7" fill="#fff" opacity="0.81"/><circle cx="183" cy="17" r="0.4" fill="#fff" opacity="0.48"/><circle cx="35" cy="29" r="0.6" fill="#fff" opacity="0.83"/><circle cx="109" cy="33" r="1.0" fill="#fff" opacity="0.75"/><circle cx="103" cy="141" r="1.0" fill="#fff" opacity="0.86"/><circle cx="68" cy="154" r="1.1" fill="#fff" opacity="0.48"/><circle cx="76" cy="73" r="1.6" fill="#fff" opacity="0.24"/><circle cx="108" cy="162" r="0.8" fill="#fff" opacity="0.49"/><circle cx="112" cy="129" r="0.7" fill="#fff" opacity="0.32"/><circle cx="162" cy="141" r="1.6" fill="#fff" opacity="0.76"/><circle cx="103" cy="15" r="0.4" fill="#fff" opacity="0.70"/><circle cx="103" cy="43" r="1.2" fill="#fff" opacity="0.83"/><circle cx="122" cy="21" r="0.4" fill="#fff" opacity="0.57"/><circle cx="1" cy="2" r="0.4" fill="#fff" opacity="0.51"/><circle cx="176" cy="61" r="0.7" fill="#fff" opacity="0.34"/><circle cx="137" cy="64" r="0.4" fill="#fff" opacity="0.63"/><circle cx="91" cy="160" r="0.9" fill="#fff" opacity="0.29"/><circle cx="107" cy="25" r="1.3" fill="#fff" opacity="0.83"/><circle cx="51" cy="60" r="0.9" fill="#fff" opacity="0.88"/><circle cx="30" cy="18" r="1.0" fill="#fff" opacity="0.45"/><circle cx="89" cy="160" r="1.6" fill="#fff" opacity="0.79"/><circle cx="98" cy="171" r="0.6" fill="#fff" opacity="0.63"/><circle cx="141" cy="178" r="0.6" fill="#fff" opacity="0.29"/><circle cx="76" cy="108" r="1.2" fill="#fff" opacity="0.62"/><circle cx="178" cy="153" r="0.3" fill="#fff" opacity="0.41"/><circle cx="147" cy="81" r="0.4" fill="#fff" opacity="0.20"/><circle cx="196" cy="58" r="1.3" fill="#fff" opacity="0.43"/><circle cx="8" cy="6" r="0.9" fill="#fff" opacity="0.49"/><circle cx="187" cy="85" r="0.8" fill="#fff" opacity="0.75"/><circle cx="86" cy="173" r="0.4" fill="#fff" opacity="0.47"/><circle cx="86" cy="181" r="1.0" fill="#fff" opacity="0.79"/><circle cx="10" cy="131" r="1.0" fill="#fff" opacity="0.30"/></svg>