<svg xmlns="http://www.w3.org/2000/svg" viewBox="0 0 520 380" width="100%" style="max-width:520px;height:auto;background:#fff;border:1px solid #d8dce6;border-radius:8px;font-family:system-ui,sans-serif"><rect x="0" y="0" width="520" height="380" fill="#fbfcff"/><text x="260" y="20" text-anchor="middle" font-size="14" font-weight="700" fill="#1D3095">Contour map — reading the highest contour</text><path d="M66.7 79.7L67.5 78.2M67.5 78.2L69.7 74.0M66.7 79.7L63.7 85.3M63.7 85.3L61.1 91.0M61.1 91.0L58.7 96.7M56.3 102.3L58.3 97.6M58.3 97.6L58.7 96.7M56.3 102.3L54.0 108.0M54.0 108.0L52.1 113.7M52.1 113.7L50.3 119.3M48.6 125.0L49.2 123.2M49.2 123.2L50.3 119.3M48.6 125.0L46.9 130.7M46.9 130.7L45.5 136.3M45.5 136.3L44.2 142.0M44.2 142.0L43.1 147.7M43.1 147.7L42.1 153.3M42.1 153.3L41.3 159.0M41.3 159.0L40.6 164.7M40.6 164.7L40.0 170.3M40.0 170.6L40.0 170.3M40.0 216.7L40.4 221.3M40.4 221.3L41.1 227.0M41.1 227.0L41.9 232.7M41.9 232.7L42.8 238.3M42.8 238.3L43.9 244.0M43.9 244.0L45.2 249.7M45.2 249.7L46.6 255.3M46.6 255.3L48.2 261.0M48.2 261.0L49.2 264.1M49.2 264.1L49.9 266.7M49.9 266.7L51.6 272.3M51.6 272.3L53.6 278.0M53.6 278.0L55.7 283.7M55.7 283.7L58.1 289.3M58.1 289.3L58.3 289.8M58.3 289.8L60.5 295.0M60.5 295.0L63.1 300.7M63.1 300.7L66.0 306.3M66.0 306.3L67.5 309.1M67.5 309.1L68.9 312.0M68.9 312.0L72.1 317.7M72.1 317.7L75.5 323.3M75.5 323.3L76.7 325.1M76.7 325.1L79.1 329.0M79.1 329.0L82.9 334.7M82.9 334.7L85.8 338.7M85.8 338.7L87.0 340.3M87.0 340.3L91.2 346.0" fill="none" stroke="#5b6b8c" stroke-width="1.5"/><text x="39" y="193.68" text-anchor="middle" font-size="11" font-weight="700" fill="#334">1,000</text><path d="M128.1 74.0L124.0 79.7M444.7 74.0L448.9 79.7M120.1 85.3L122.5 81.8M122.5 81.8L124.0 79.7M448.9 79.7L452.5 85.1M452.5 85.1L452.6 85.3M120.1 85.3L116.5 91.0M452.6 85.3L456.3 91.0M113.3 96.7L113.3 96.6M113.3 96.6L116.5 91.0M456.3 91.0L459.6 96.7M113.3 96.7L110.2 102.3M459.6 96.7L461.7 100.7M461.7 100.7L462.6 102.3M110.2 102.3L107.3 108.0M462.6 102.3L465.5 108.0M107.3 108.0L104.8 113.7M465.5 108.0L468.1 113.7M102.4 119.3L104.2 115.2M104.2 115.2L104.8 113.7M468.1 113.7L470.4 119.3M102.4 119.3L100.1 125.0M470.4 119.3L470.8 120.5M470.8 120.5L472.6 125.0M100.1 125.0L98.1 130.7M472.6 125.0L474.7 130.7M98.1 130.7L96.4 136.3M474.7 130.7L476.5 136.3M94.8 142.0L95.0 141.4M95.0 141.4L96.4 136.3M476.5 136.3L478.1 142.0M94.8 142.0L93.3 147.7M478.1 142.0L479.4 147.7M93.3 147.7L92.0 153.3M479.4 147.7L480.0 150.3M92.0 153.3L90.9 159.0M90.9 159.0L90.0 164.7M90.0 164.7L89.2 170.3M89.2 170.3L88.7 176.0M88.7 176.0L88.2 181.7M88.2 181.7L88.0 187.3M88.0 187.3L87.9 193.0M87.9 193.0L87.9 198.7M87.9 198.7L88.2 204.3M88.2 204.3L88.5 210.0M88.5 210.0L89.1 215.7M89.1 215.7L89.8 221.3M89.8 221.3L90.7 227.0M90.7 227.0L91.7 232.7M91.7 232.7L93.0 238.3M479.7 238.3L480.0 237.1M93.0 238.3L94.4 244.0M479.7 238.3L478.4 244.0M94.4 244.0L95.0 246.0M95.0 246.0L96.0 249.7M478.4 244.0L476.9 249.7M96.0 249.7L97.7 255.3M476.9 249.7L475.1 255.3M97.7 255.3L99.6 261.0M475.1 255.3L473.1 261.0M99.6 261.0L101.8 266.7M473.1 261.0L470.9 266.7M101.8 266.7L104.2 272.2M104.2 272.2L104.2 272.3M468.7 272.3L470.8 266.9M470.8 266.9L470.9 266.7M104.2 272.3L106.7 278.0M468.7 272.3L466.1 278.0M106.7 278.0L109.4 283.7M466.1 278.0L463.3 283.7M109.4 283.7L112.5 289.3M460.3 289.3L461.7 286.7M461.7 286.7L463.3 283.7M112.5 289.3L113.3 290.7M113.3 290.7L115.7 295.0M460.3 289.3L457.1 295.0M115.7 295.0L119.2 300.7M457.1 295.0L453.6 300.7M119.2 300.7L122.5 305.5M122.5 305.5L123.0 306.3M449.8 306.3L452.5 302.2M452.5 302.2L453.6 300.7M123.0 306.3L127.0 312.0M449.8 306.3L445.8 312.0M127.0 312.0L131.5 317.7M441.4 317.7L443.3 315.1M443.3 315.1L445.8 312.0M131.5 317.7L131.7 317.9M131.7 317.9L136.1 323.3M441.4 317.7L436.7 323.3M136.1 323.3L140.8 328.5M140.8 328.5L141.3 329.0M431.6 329.0L434.2 326.1M434.2 326.1L436.7 323.3M141.3 329.0L146.7 334.7M431.6 329.0L426.0 334.7M146.7 334.7L150.0 337.8M150.0 337.8L152.7 340.3M420.1 340.3L425.0 335.7M425.0 335.7L426.0 334.7M152.7 340.3L159.2 345.9M159.2 345.9L159.2 346.0M413.6 346.0L415.8 344.1M415.8 344.1L420.1 340.3" fill="none" stroke="#c8cfdf" stroke-width="0.8"/><path d="M167.1 74.0L161.7 79.7M405.7 74.0L406.7 75.0M406.7 75.0L411.1 79.7M156.7 85.3L159.2 82.5M159.2 82.5L161.7 79.7M411.1 79.7L415.8 85.1M415.8 85.1L416.0 85.3M156.7 85.3L152.2 91.0M416.0 85.3L420.6 91.0M148.0 96.7L150.0 94.0M150.0 94.0L152.2 91.0M420.6 91.0L424.7 96.7M148.0 96.7L144.2 102.3M424.7 96.7L425.0 97.1M425.0 97.1L428.6 102.3M140.8 108.0L140.8 107.9M140.8 107.9L144.2 102.3M428.6 102.3L432.1 108.0M140.8 108.0L137.5 113.7M432.1 108.0L434.2 111.8M434.2 111.8L435.2 113.7M137.5 113.7L134.6 119.3M435.2 113.7L438.2 119.3M134.6 119.3L132.0 125.0M438.2 119.3L440.8 125.0M129.6 130.7L131.7 125.9M131.7 125.9L132.0 125.0M440.8 125.0L443.2 130.7M129.6 130.7L127.4 136.3M443.2 130.7L443.3 131.1M443.3 131.1L445.4 136.3M127.4 136.3L125.5 142.0M445.4 136.3L447.3 142.0M125.5 142.0L123.8 147.7M447.3 142.0L449.0 147.7M122.3 153.3L122.5 152.7M122.5 152.7L123.8 147.7M449.0 147.7L450.5 153.3M122.3 153.3L121.0 159.0M450.5 153.3L451.8 159.0M121.0 159.0L119.9 164.7M451.8 159.0L452.5 162.9M452.5 162.9L452.9 164.7M119.9 164.7L119.0 170.3M452.9 164.7L453.8 170.3M119.0 170.3L118.3 176.0M453.8 170.3L454.5 176.0M118.3 176.0L117.8 181.7M454.5 176.0L455.0 181.7M117.8 181.7L117.5 187.3M455.0 181.7L455.3 187.3M117.5 187.3L117.4 193.0M455.3 187.3L455.4 193.0M117.4 193.0L117.4 198.7M455.4 193.0L455.4 198.7M117.4 198.7L117.7 204.3M455.4 198.7L455.1 204.3M117.7 204.3L118.1 210.0M455.1 204.3L454.6 210.0M118.1 210.0L118.8 215.7M454.6 210.0L454.0 215.7M118.8 215.7L119.6 221.3M454.0 215.7L453.1 221.3M119.6 221.3L120.7 227.0M452.0 227.0L452.5 224.5M452.5 224.5L453.1 221.3M120.7 227.0L122.0 232.7M452.0 227.0L450.8 232.7M122.0 232.7L122.5 234.6M122.5 234.6L123.4 238.3M450.8 232.7L449.4 238.3M123.4 238.3L125.0 244.0M449.4 238.3L447.8 244.0M125.0 244.0L126.9 249.7M447.8 244.0L445.9 249.7M126.9 249.7L129.0 255.3M445.9 249.7L443.7 255.3M129.0 255.3L131.4 261.0M441.4 261.0L443.3 256.2M443.3 256.2L443.7 255.3M131.4 261.0L131.7 261.5M131.7 261.5L134.0 266.7M441.4 261.0L438.8 266.7M134.0 266.7L136.8 272.3M438.8 266.7L436.0 272.3M136.8 272.3L140.0 278.0M432.8 278.0L434.2 275.6M434.2 275.6L436.0 272.3M140.0 278.0L140.8 279.4M140.8 279.4L143.4 283.7M432.8 278.0L429.5 283.7M143.4 283.7L147.1 289.3M429.5 283.7L425.7 289.3M147.1 289.3L150.0 293.4M150.0 293.4L151.2 295.0M421.6 295.0L425.0 290.3M425.0 290.3L425.7 289.3M151.2 295.0L155.6 300.7M421.6 295.0L417.2 300.7M155.6 300.7L159.2 304.8M159.2 304.8L160.5 306.3M412.3 306.3L415.8 302.3M415.8 302.3L417.2 300.7M160.5 306.3L165.8 312.0M412.3 306.3L407.0 312.0M165.8 312.0L168.3 314.5M168.3 314.5L171.6 317.7M401.2 317.7L406.7 312.3M406.7 312.3L407.0 312.0M171.6 317.7L177.5 322.9M177.5 322.9L178.1 323.3M394.7 323.3L397.5 321.0M397.5 321.0L401.2 317.7M178.1 323.3L185.2 329.0M387.6 329.0L388.3 328.4M388.3 328.4L394.7 323.3M185.2 329.0L186.7 330.1M186.7 330.1L193.3 334.7M387.6 329.0L379.5 334.7M193.3 334.7L195.8 336.3M195.8 336.3L202.5 340.3M370.3 340.3L379.2 334.9M379.2 334.9L379.5 334.7M202.5 340.3L205.0 341.7M205.0 341.7L213.3 346.0M359.5 346.0L360.8 345.4M360.8 345.4L370.0 340.5M370.0 340.5L370.3 340.3" fill="none" stroke="#c8cfdf" stroke-width="0.8"/><path d="M195.4 79.7L195.8 79.3M195.8 79.3L203.0 74.0M369.8 74.0L370.0 74.1M370.0 74.1L377.4 79.7M195.4 79.7L188.7 85.3M377.4 79.7L379.2 81.1M379.2 81.1L384.1 85.3M182.8 91.0L186.7 87.2M186.7 87.2L188.7 85.3M384.1 85.3L388.3 89.3M388.3 89.3L390.1 91.0M177.4 96.7L177.5 96.6M177.5 96.6L182.8 91.0M390.1 91.0L395.4 96.7M177.4 96.7L172.6 102.3M395.4 96.7L397.5 99.1M397.5 99.1L400.2 102.3M168.3 108.0L168.3 108.0M168.3 108.0L172.6 102.3M400.2 102.3L404.5 108.0M168.3 108.0L164.4 113.7M404.5 108.0L406.7 111.1M406.7 111.1L408.4 113.7M164.4 113.7L160.8 119.3M408.4 113.7L412.0 119.3M157.7 125.0L159.2 122.3M159.2 122.3L160.8 119.3M412.0 119.3L415.1 125.0M157.7 125.0L154.8 130.7M415.1 125.0L415.8 126.4M415.8 126.4L418.0 130.7M154.8 130.7L152.2 136.3M418.0 130.7L420.6 136.3M150.0 142.0L150.0 141.9M150.0 141.9L152.2 136.3M420.6 136.3L422.9 142.0M150.0 142.0L147.9 147.7M422.9 142.0L424.9 147.7M147.9 147.7L146.1 153.3M424.9 147.7L425.0 148.1M425.0 148.1L426.6 153.3M146.1 153.3L144.6 159.0M426.6 153.3L428.2 159.0M144.6 159.0L143.4 164.7M428.2 159.0L429.4 164.7M143.4 164.7L142.3 170.3M429.4 164.7L430.5 170.3M142.3 170.3L141.6 176.0M430.5 170.3L431.3 176.0M141.6 176.0L141.0 181.7M431.3 176.0L431.9 181.7M140.6 187.3L140.8 184.2M140.8 184.2L141.0 181.7M431.9 181.7L432.2 187.3M140.6 187.3L140.5 193.0M432.2 187.3L432.3 193.0M140.5 193.0L140.6 198.7M432.3 193.0L432.3 198.7M140.6 198.7L140.8 203.3M140.8 203.3L140.9 204.3M432.3 198.7L432.0 204.3M140.9 204.3L141.4 210.0M432.0 204.3L431.4 210.0M141.4 210.0L142.1 215.7M431.4 210.0L430.7 215.7M142.1 215.7L143.1 221.3M430.7 215.7L429.7 221.3M143.1 221.3L144.3 227.0M429.7 221.3L428.5 227.0M144.3 227.0L145.7 232.7M428.5 227.0L427.0 232.7M145.7 232.7L147.5 238.3M427.0 232.7L425.3 238.3M147.5 238.3L149.4 244.0M423.4 244.0L425.0 239.2M425.0 239.2L425.3 238.3M149.4 244.0L150.0 245.4M150.0 245.4L151.6 249.7M423.4 244.0L421.2 249.7M151.6 249.7L154.1 255.3M421.2 249.7L418.7 255.3M154.1 255.3L156.9 261.0M418.7 255.3L415.8 261.0M156.9 261.0L159.2 265.1M159.2 265.1L160.1 266.7M412.8 266.7L415.8 261.0M415.8 261.0L415.8 261.0M160.1 266.7L163.5 272.3M412.8 266.7L409.3 272.3M163.5 272.3L167.3 278.0M405.5 278.0L406.7 276.3M406.7 276.3L409.3 272.3M167.3 278.0L168.3 279.4M168.3 279.4L171.5 283.7M405.5 278.0L401.3 283.7M171.5 283.7L176.2 289.3M396.6 289.3L397.5 288.2M397.5 288.2L401.3 283.7M176.2 289.3L177.5 290.8M177.5 290.8L181.4 295.0M396.6 289.3L391.4 295.0M181.4 295.0L186.7 300.2M186.7 300.2L187.2 300.7M385.6 300.7L388.3 298.1M388.3 298.1L391.4 295.0M187.2 300.7L193.7 306.3M379.1 306.3L379.2 306.3M379.2 306.3L385.6 300.7M193.7 306.3L195.8 308.1M195.8 308.1L201.1 312.0M379.1 306.3L371.7 312.0M201.1 312.0L205.0 314.8M205.0 314.8L209.6 317.7M363.3 317.7L370.0 313.3M370.0 313.3L371.7 312.0M209.6 317.7L214.2 320.5M214.2 320.5L219.6 323.3M353.3 323.3L360.8 319.2M360.8 319.2L363.3 317.7M219.6 323.3L223.3 325.3M223.3 325.3L231.9 329.0M340.9 329.0L342.5 328.4M342.5 328.4L351.7 324.2M351.7 324.2L353.3 323.3M231.9 329.0L232.5 329.3M232.5 329.3L241.7 332.6M241.7 332.6L249.0 334.7M323.9 334.7L324.2 334.6M324.2 334.6L333.3 331.8M333.3 331.8L340.9 329.0M249.0 334.7L250.8 335.2M250.8 335.2L260.0 337.2M260.0 337.2L269.2 338.6M269.2 338.6L278.3 339.4M278.3 339.4L287.5 339.6M287.5 339.6L296.7 339.2M296.7 339.2L305.8 338.3M305.8 338.3L315.0 336.8M315.0 336.8L323.9 334.7" fill="none" stroke="#c8cfdf" stroke-width="0.8"/><path d="M233.3 79.7L241.7 76.1M241.7 76.1L247.9 74.0M325.0 74.0L333.3 77.0M333.3 77.0L339.4 79.7M222.5 85.3L223.3 84.9M223.3 84.9L232.5 80.0M232.5 80.0L233.3 79.7M339.4 79.7L342.5 81.1M342.5 81.1L350.2 85.3M213.8 91.0L214.2 90.7M214.2 90.7L222.5 85.3M350.2 85.3L351.7 86.2M351.7 86.2L359.0 91.0M213.8 91.0L206.4 96.7M359.0 91.0L360.8 92.3M360.8 92.3L366.4 96.7M200.0 102.3L205.0 97.8M205.0 97.8L206.4 96.7M366.4 96.7L370.0 99.7M370.0 99.7L372.8 102.3M194.3 108.0L195.8 106.4M195.8 106.4L200.0 102.3M372.8 102.3L378.5 108.0M194.3 108.0L189.4 113.7M378.5 108.0L379.2 108.8M379.2 108.8L383.4 113.7M185.0 119.3L186.7 117.1M186.7 117.1L189.4 113.7M383.4 113.7L387.8 119.3M185.0 119.3L181.0 125.0M387.8 119.3L388.3 120.0M388.3 120.0L391.8 125.0M181.0 125.0L177.5 130.7M391.8 125.0L395.3 130.7M174.4 136.3L177.5 130.7M177.5 130.7L177.5 130.7M395.3 130.7L397.5 134.8M397.5 134.8L398.3 136.3M174.4 136.3L171.7 142.0M398.3 136.3L401.1 142.0M171.7 142.0L169.3 147.7M401.1 142.0L403.5 147.7M167.3 153.3L168.3 150.4M168.3 150.4L169.3 147.7M403.5 147.7L405.5 153.3M167.3 153.3L165.5 159.0M405.5 153.3L406.7 156.9M406.7 156.9L407.3 159.0M165.5 159.0L164.0 164.7M407.3 159.0L408.8 164.7M164.0 164.7L162.8 170.3M408.8 164.7L410.0 170.3M162.8 170.3L161.8 176.0M410.0 170.3L411.0 176.0M161.8 176.0L161.2 181.7M411.0 176.0L411.6 181.7M161.2 181.7L160.8 187.3M411.6 181.7L412.0 187.3M160.8 187.3L160.6 193.0M412.0 187.3L412.2 193.0M160.6 193.0L160.7 198.7M412.2 193.0L412.1 198.7M160.7 198.7L161.1 204.3M412.1 198.7L411.8 204.3M161.1 204.3L161.7 210.0M411.8 204.3L411.1 210.0M161.7 210.0L162.5 215.7M411.1 210.0L410.3 215.7M162.5 215.7L163.7 221.3M410.3 215.7L409.1 221.3M163.7 221.3L165.1 227.0M409.1 221.3L407.7 227.0M165.1 227.0L166.8 232.7M406.0 232.7L406.7 230.4M406.7 230.4L407.7 227.0M166.8 232.7L168.3 237.0M168.3 237.0L168.8 238.3M406.0 232.7L404.0 238.3M168.8 238.3L171.1 244.0M404.0 238.3L401.7 244.0M171.1 244.0L173.8 249.7M401.7 244.0L399.0 249.7M173.8 249.7L176.8 255.3M396.0 255.3L397.5 252.6M397.5 252.6L399.0 249.7M176.8 255.3L177.5 256.6M177.5 256.6L180.2 261.0M396.0 255.3L392.6 261.0M180.2 261.0L184.0 266.7M392.6 261.0L388.8 266.7M184.0 266.7L186.7 270.3M186.7 270.3L188.3 272.3M384.5 272.3L388.3 267.4M388.3 267.4L388.8 266.7M188.3 272.3L193.1 278.0M384.5 272.3L379.7 278.0M193.1 278.0L195.8 280.9M195.8 280.9L198.6 283.7M374.2 283.7L379.2 278.6M379.2 278.6L379.7 278.0M198.6 283.7L204.7 289.3M368.0 289.3L370.0 287.6M370.0 287.6L374.2 283.7M204.7 289.3L205.0 289.6M205.0 289.6L211.9 295.0M368.0 289.3L360.9 295.0M211.9 295.0L214.2 296.6M214.2 296.6L220.3 300.7M352.5 300.7L360.8 295.1M360.8 295.1L360.9 295.0M220.3 300.7L223.3 302.5M223.3 302.5L230.6 306.3M342.3 306.3L342.5 306.3M342.5 306.3L351.7 301.2M351.7 301.2L352.5 300.7M230.6 306.3L232.5 307.3M232.5 307.3L241.7 311.2M241.7 311.2L243.9 312.0M328.9 312.0L333.3 310.4M333.3 310.4L342.3 306.3M243.9 312.0L250.8 314.3M250.8 314.3L260.0 316.7M260.0 316.7L265.7 317.7M307.3 317.7L315.0 316.2M315.0 316.2L324.2 313.7M324.2 313.7L328.9 312.0M265.7 317.7L269.2 318.3M269.2 318.3L278.3 319.2M278.3 319.2L287.5 319.5M287.5 319.5L296.7 319.0M296.7 319.0L305.8 317.9M305.8 317.9L307.3 317.7" fill="none" stroke="#c8cfdf" stroke-width="0.8"/><path d="M256.9 91.0L260.0 90.1M260.0 90.1L269.2 88.2M269.2 88.2L278.3 87.1M278.3 87.1L287.5 86.8M287.5 86.8L296.7 87.3M296.7 87.3L305.8 88.5M305.8 88.5L315.0 90.7M315.0 90.7L316.1 91.0M241.5 96.7L241.7 96.6M241.7 96.6L250.8 92.8M250.8 92.8L256.9 91.0M316.1 91.0L324.2 93.7M324.2 93.7L331.2 96.7M230.9 102.3L232.5 101.3M232.5 101.3L241.5 96.7M331.2 96.7L333.3 97.6M333.3 97.6L341.9 102.3M222.5 108.0L223.3 107.3M223.3 107.3L230.9 102.3M341.9 102.3L342.5 102.7M342.5 102.7L350.3 108.0M222.5 108.0L215.5 113.7M350.3 108.0L351.7 109.0M351.7 109.0L357.2 113.7M209.6 119.3L214.2 114.9M214.2 114.9L215.5 113.7M357.2 113.7L360.8 116.9M360.8 116.9L363.2 119.3M204.5 125.0L205.0 124.4M205.0 124.4L209.6 119.3M363.2 119.3L368.3 125.0M204.5 125.0L200.1 130.7M368.3 125.0L370.0 127.1M370.0 127.1L372.8 130.7M200.1 130.7L196.2 136.3M372.8 130.7L376.6 136.3M192.8 142.0L195.8 136.9M195.8 136.9L196.2 136.3M376.6 136.3L379.2 140.6M379.2 140.6L380.0 142.0M192.8 142.0L189.9 147.7M380.0 142.0L382.9 147.7M189.9 147.7L187.4 153.3M382.9 147.7L385.4 153.3M185.3 159.0L186.7 155.2M186.7 155.2L187.4 153.3M385.4 153.3L387.5 159.0M185.3 159.0L183.5 164.7M387.5 159.0L388.3 161.5M388.3 161.5L389.3 164.7M183.5 164.7L182.1 170.3M389.3 164.7L390.7 170.3M182.1 170.3L181.0 176.0M390.7 170.3L391.9 176.0M181.0 176.0L180.2 181.7M391.9 176.0L392.6 181.7M180.2 181.7L179.7 187.3M392.6 181.7L393.1 187.3M179.7 187.3L179.5 193.0M393.1 187.3L393.3 193.0M179.5 193.0L179.6 198.7M393.3 193.0L393.2 198.7M179.6 198.7L180.0 204.3M393.2 198.7L392.8 204.3M180.0 204.3L180.7 210.0M392.8 204.3L392.1 210.0M180.7 210.0L181.8 215.7M392.1 210.0L391.0 215.7M181.8 215.7L183.1 221.3M391.0 215.7L389.7 221.3M183.1 221.3L184.8 227.0M388.0 227.0L388.3 225.9M388.3 225.9L389.7 221.3M184.8 227.0L186.7 232.2M186.7 232.2L186.8 232.7M388.0 227.0L386.0 232.7M186.8 232.7L189.3 238.3M386.0 232.7L383.5 238.3M189.3 238.3L192.1 244.0M383.5 238.3L380.7 244.0M192.1 244.0L195.3 249.7M377.5 249.7L379.2 246.8M379.2 246.8L380.7 244.0M195.3 249.7L195.8 250.5M195.8 250.5L199.1 255.3M377.5 249.7L373.7 255.3M199.1 255.3L203.4 261.0M369.5 261.0L370.0 260.3M370.0 260.3L373.7 255.3M203.4 261.0L205.0 263.0M205.0 263.0L208.3 266.7M369.5 261.0L364.5 266.7M208.3 266.7L214.0 272.3M358.8 272.3L360.8 270.4M360.8 270.4L364.5 266.7M214.0 272.3L214.2 272.5M214.2 272.5L220.7 278.0M358.8 272.3L352.1 278.0M220.7 278.0L223.3 280.0M223.3 280.0L228.8 283.7M344.1 283.7L351.7 278.4M351.7 278.4L352.1 278.0M228.8 283.7L232.5 286.0M232.5 286.0L238.8 289.3M334.1 289.3L342.5 284.7M342.5 284.7L344.1 283.7M238.8 289.3L241.7 290.8M241.7 290.8L250.8 294.5M250.8 294.5L252.4 295.0M320.3 295.0L324.2 293.7M324.2 293.7L333.3 289.8M333.3 289.8L334.1 289.3M252.4 295.0L260.0 297.3M260.0 297.3L269.2 299.2M269.2 299.2L278.3 300.3M278.3 300.3L287.5 300.6M287.5 300.6L296.7 300.1M296.7 300.1L305.8 298.8M305.8 298.8L315.0 296.7M315.0 296.7L320.3 295.0" fill="none" stroke="#5b6b8c" stroke-width="1.5"/><text x="179" y="193.68" text-anchor="middle" font-size="11" font-weight="700" fill="#334">1,500</text><path d="M266.2 108.0L269.2 107.3M269.2 107.3L278.3 105.9M278.3 105.9L287.5 105.6M287.5 105.6L296.7 106.2M296.7 106.2L305.8 107.7M305.8 107.7L306.9 108.0M249.6 113.7L250.8 113.0M250.8 113.0L260.0 109.6M260.0 109.6L266.2 108.0M306.9 108.0L315.0 110.3M315.0 110.3L323.3 113.7M239.2 119.3L241.7 117.8M241.7 117.8L249.6 113.7M323.3 113.7L324.2 114.1M324.2 114.1L333.3 119.1M333.3 119.1L333.7 119.3M231.2 125.0L232.5 124.0M232.5 124.0L239.2 119.3M333.7 119.3L341.6 125.0M231.2 125.0L224.8 130.7M341.6 125.0L342.5 125.7M342.5 125.7L347.9 130.7M219.6 136.3L223.3 132.1M223.3 132.1L224.8 130.7M347.9 130.7L351.7 134.5M351.7 134.5L353.3 136.3M219.6 136.3L215.0 142.0M353.3 136.3L357.7 142.0M211.3 147.7L214.2 143.2M214.2 143.2L215.0 142.0M357.7 142.0L360.8 146.5M360.8 146.5L361.6 147.7M211.3 147.7L208.1 153.3M361.6 147.7L364.7 153.3M208.1 153.3L205.4 159.0M364.7 153.3L367.4 159.0M203.2 164.7L205.0 159.9M205.0 159.9L205.4 159.0M367.4 159.0L369.6 164.7M203.2 164.7L201.5 170.3M369.6 164.7L370.0 165.9M370.0 165.9L371.4 170.3M201.5 170.3L200.1 176.0M371.4 170.3L372.7 176.0M200.1 176.0L199.1 181.7M372.7 176.0L373.7 181.7M199.1 181.7L198.5 187.3M373.7 181.7L374.3 187.3M198.5 187.3L198.3 193.0M374.3 187.3L374.5 193.0M198.3 193.0L198.4 198.7M374.5 193.0L374.4 198.7M198.4 198.7L198.9 204.3M374.4 198.7L373.9 204.3M198.9 204.3L199.8 210.0M373.9 204.3L373.0 210.0M199.8 210.0L201.1 215.7M373.0 210.0L371.7 215.7M201.1 215.7L202.7 221.3M371.7 215.7L370.1 221.3M202.7 221.3L204.8 227.0M368.0 227.0L370.0 221.6M370.0 221.6L370.1 221.3M204.8 227.0L205.0 227.4M205.0 227.4L207.4 232.7M368.0 227.0L365.4 232.7M207.4 232.7L210.5 238.3M365.4 232.7L362.4 238.3M210.5 238.3L214.0 244.0M358.7 244.0L360.8 240.8M360.8 240.8L362.4 238.3M214.0 244.0L214.2 244.2M214.2 244.2L218.4 249.7M358.7 244.0L354.4 249.7M218.4 249.7L223.3 255.2M223.3 255.2L223.4 255.3M349.3 255.3L351.7 252.9M351.7 252.9L354.4 249.7M223.4 255.3L229.6 261.0M349.3 255.3L343.3 261.0M229.6 261.0L232.5 263.4M232.5 263.4L237.2 266.7M335.7 266.7L342.5 261.6M342.5 261.6L343.3 261.0M237.2 266.7L241.7 269.6M241.7 269.6L246.9 272.3M326.0 272.3L333.3 268.3M333.3 268.3L335.7 266.7M246.9 272.3L250.8 274.3M250.8 274.3L260.0 277.8M260.0 277.8L260.9 278.0M311.7 278.0L315.0 277.0M315.0 277.0L324.2 273.3M324.2 273.3L326.0 272.3M260.9 278.0L269.2 280.1M269.2 280.1L278.3 281.4M278.3 281.4L287.5 281.8M287.5 281.8L296.7 281.2M296.7 281.2L305.8 279.6M305.8 279.6L311.7 278.0" fill="none" stroke="#c8cfdf" stroke-width="0.8"/><path d="M261.0 130.7L269.2 128.0M269.2 128.0L278.3 126.2M278.3 126.2L287.5 125.7M287.5 125.7L296.7 126.5M296.7 126.5L305.8 128.6M305.8 128.6L311.5 130.7M250.0 136.3L250.8 135.8M250.8 135.8L260.0 131.0M260.0 131.0L261.0 130.7M311.5 130.7L315.0 132.0M315.0 132.0L322.8 136.3M250.0 136.3L242.3 142.0M322.8 136.3L324.2 137.2M324.2 137.2L330.4 142.0M236.5 147.7L241.7 142.5M241.7 142.5L242.3 142.0M330.4 142.0L333.3 144.6M333.3 144.6L336.3 147.7M231.7 153.3L232.5 152.3M232.5 152.3L236.5 147.7M336.3 147.7L341.0 153.3M231.7 153.3L228.1 159.0M341.0 153.3L342.5 155.4M342.5 155.4L344.8 159.0M228.1 159.0L225.0 164.7M344.8 159.0L347.8 164.7M222.6 170.3L223.3 168.4M223.3 168.4L225.0 164.7M347.8 164.7L350.2 170.3M222.6 170.3L220.8 176.0M350.2 170.3L351.7 174.8M351.7 174.8L352.0 176.0M220.8 176.0L219.6 181.7M352.0 176.0L353.3 181.7M219.6 181.7L218.8 187.3M353.3 181.7L354.0 187.3M218.8 187.3L218.5 193.0M354.0 187.3L354.3 193.0M218.5 193.0L218.7 198.7M354.3 193.0L354.1 198.7M218.7 198.7L219.3 204.3M354.1 198.7L353.5 204.3M219.3 204.3L220.5 210.0M353.5 204.3L352.4 210.0M220.5 210.0L222.1 215.7M350.7 215.7L351.7 212.5M351.7 212.5L352.4 210.0M222.1 215.7L223.3 218.9M223.3 218.9L224.3 221.3M350.7 215.7L348.4 221.3M224.3 221.3L227.3 227.0M348.4 221.3L345.6 227.0M227.3 227.0L230.8 232.7M342.1 232.7L342.5 232.0M342.5 232.0L345.6 227.0M230.8 232.7L232.5 235.0M232.5 235.0L235.3 238.3M342.1 232.7L337.5 238.3M235.3 238.3L240.8 244.0M332.0 244.0L333.3 242.8M333.3 242.8L337.5 238.3M240.8 244.0L241.7 244.8M241.7 244.8L248.0 249.7M332.0 244.0L324.9 249.7M248.0 249.7L250.8 251.6M250.8 251.6L258.0 255.3M315.0 255.3L324.2 250.2M324.2 250.2L324.9 249.7M258.0 255.3L260.0 256.3M260.0 256.3L269.2 259.4M269.2 259.4L277.4 261.0M295.3 261.0L296.7 260.9M296.7 260.9L305.8 258.8M305.8 258.8L315.0 255.4M315.0 255.4L315.0 255.3M277.4 261.0L278.3 261.2M278.3 261.2L287.5 261.6M287.5 261.6L295.3 261.0" fill="none" stroke="#c8cfdf" stroke-width="0.8"/><path d="M271.5 153.3L278.3 151.3M278.3 151.3L287.5 150.6M287.5 150.6L296.7 151.8M296.7 151.8L301.1 153.3M260.8 159.0L269.2 154.1M269.2 154.1L271.5 153.3M301.1 153.3L305.8 155.2M305.8 155.2L311.8 159.0M254.7 164.7L260.0 159.5M260.0 159.5L260.8 159.0M311.8 159.0L315.0 161.4M315.0 161.4L318.1 164.7M250.1 170.3L250.8 169.3M250.8 169.3L254.7 164.7M318.1 164.7L322.6 170.3M250.1 170.3L247.2 176.0M322.6 170.3L324.2 172.9M324.2 172.9L325.7 176.0M247.2 176.0L245.1 181.7M325.7 176.0L327.7 181.7M245.1 181.7L243.8 187.3M327.7 181.7L328.9 187.3M243.8 187.3L243.3 193.0M328.9 187.3L329.4 193.0M243.3 193.0L243.6 198.7M329.4 193.0L329.1 198.7M243.6 198.7L244.7 204.3M329.1 198.7L328.0 204.3M244.7 204.3L246.6 210.0M328.0 204.3L326.2 210.0M246.6 210.0L249.4 215.7M323.5 215.7L324.2 214.5M324.2 214.5L326.2 210.0M249.4 215.7L250.8 218.0M250.8 218.0L253.5 221.3M323.5 215.7L319.3 221.3M253.5 221.3L259.1 227.0M313.7 227.0L315.0 226.0M315.0 226.0L319.3 221.3M259.1 227.0L260.0 227.8M260.0 227.8L268.1 232.7M304.7 232.7L305.8 232.2M305.8 232.2L313.7 227.0M268.1 232.7L269.2 233.2M269.2 233.2L278.3 236.0M278.3 236.0L287.5 236.8M287.5 236.8L296.7 235.5M296.7 235.5L304.7 232.7" fill="none" stroke="#c8cfdf" stroke-width="0.8"/><text x="260" y="370" text-anchor="middle" font-size="10" fill="#888">NOT TO SCALE</text></svg>
