<svg xmlns="http://www.w3.org/2000/svg" viewBox="0 0 520 380" width="100%" style="max-width:520px;height:auto;background:#fff;border:1px solid #d8dce6;border-radius:8px;font-family:system-ui,sans-serif"><rect x="0" y="0" width="520" height="380" fill="#fbfcff"/><text x="260" y="20" text-anchor="middle" font-size="14" font-weight="700" fill="#1D3095">Height systems: h = H + N</text><path d="M 40 300 L 96.25 300 L 152.5 300 L 208.75 300 L 265 300 L 321.25 300 L 377.5 300 L 433.75 300 L 490 300" fill="none" stroke="#888" stroke-width="1.6"/><text x="490" y="314" text-anchor="end" font-size="11" fill="#888">Ellipsoid</text><path d="M 40 260 L 96.25 263.7852003507497 L 152.5 259.76650342628966 L 208.75 256.0898795293396 L 265 258.14159128234496 L 321.25 262.9158761605035 L 377.5 263.4183956323531 L 433.75 258.91295749435625 L 490 256.0000391737972" fill="none" stroke="#0a7a5a" stroke-width="1.6"/><text x="490" y="254" text-anchor="end" font-size="11" fill="#0a7a5a">Geoid</text><path d="M 40 110 L 96.25 116.07916862496036 L 152.5 105.23147473182355 L 208.75 101.36968152803175 L 265 110.15132510435916 L 321.25 118.71127704828338 L 377.5 114.50918770812096 L 433.75 103.70112781165813 L 490 102.12093042780414" fill="none" stroke="#7a5230" stroke-width="1.8"/><text x="490" y="104" text-anchor="end" font-size="11" fill="#7a5230">Terrain</text><line x1="218.4" y1="300" x2="218.4" y2="260" stroke="#1D3095" stroke-width="1.6"/><line x1="214.4" y1="300" x2="222.4" y2="300" stroke="#1D3095" stroke-width="1.2"/><line x1="214.4" y1="260" x2="222.4" y2="260" stroke="#1D3095" stroke-width="1.2"/><line x1="218.4" y1="260" x2="218.4" y2="110" stroke="#c0392b" stroke-width="1.6"/><line x1="214.4" y1="260" x2="222.4" y2="260" stroke="#c0392b" stroke-width="1.2"/><line x1="214.4" y1="110" x2="222.4" y2="110" stroke="#c0392b" stroke-width="1.2"/><line x1="244.4" y1="300" x2="244.4" y2="110" stroke="#111" stroke-width="1.6"/><line x1="240.4" y1="300" x2="248.4" y2="300" stroke="#111" stroke-width="1.2"/><line x1="240.4" y1="110" x2="248.4" y2="110" stroke="#111" stroke-width="1.2"/><circle cx="218.4" cy="110" r="3.5" fill="#1D3095"/><circle cx="218.4" cy="260" r="3.5" fill="#1D3095"/><circle cx="218.4" cy="300" r="3.5" fill="#1D3095"/><text x="210.4" y="284" text-anchor="end" font-size="12" font-weight="700" fill="#1D3095">N</text><text x="210.4" y="189" text-anchor="end" font-size="12" font-weight="700" fill="#c0392b">H</text><text x="250.4" y="209" font-size="12" font-weight="700" fill="#111">h</text><line x1="66" y1="300" x2="66" y2="330" stroke="#999" stroke-width="1.2"/><path d="M 66 336 L 62 328 L 70 328 Z" fill="#999"/><text x="72" y="326" font-size="11" fill="#999">r</text><text x="260" y="138" text-anchor="middle" font-size="10" fill="#555">h = H + N</text></svg>
