<svg xmlns="http://www.w3.org/2000/svg" viewBox="0 0 520 380" width="100%" style="max-width:520px;height:auto;background:#fff;border:1px solid #d8dce6;border-radius:8px;font-family:system-ui,sans-serif"><rect x="0" y="0" width="520" height="380" fill="#fbfcff"/><text x="260" y="20" text-anchor="middle" font-size="14" font-weight="700" fill="#1D3095">Horizontal curve elements</text><path d="M 183.46224524396752 170.08834938316267 A 106.4 106.4 0 0 1 336.5377547560325 170.08834938316267" fill="none" stroke="#1D3095" stroke-width="2.5"/><line x1="183.46224524396752" y1="170.08834938316267" x2="260" y2="90.83118418382273" stroke="#888" stroke-width="1.4" stroke-dasharray="5 4"/><line x1="336.5377547560325" y1="170.08834938316267" x2="260" y2="90.83118418382273" stroke="#888" stroke-width="1.4" stroke-dasharray="5 4"/><line x1="183.46224524396752" y1="170.08834938316267" x2="336.5377547560325" y2="170.08834938316267" stroke="#0a7a5a" stroke-width="1.6"/><line x1="260" y1="244" x2="183.46224524396752" y2="170.08834938316267" stroke="#bbb" stroke-width="1"/><line x1="260" y1="244" x2="336.5377547560325" y2="170.08834938316267" stroke="#bbb" stroke-width="1"/><line x1="260" y1="90.83118418382273" x2="260" y2="170.08834938316267" stroke="#c0392b" stroke-width="1" stroke-dasharray="3 3"/><circle cx="183.46224524396752" cy="170.08834938316267" r="3.5" fill="#1D3095"/><text x="189.46224524396752" y="164.08834938316267" font-size="12" font-weight="600" fill="#111">PC</text><circle cx="336.5377547560325" cy="170.08834938316267" r="3.5" fill="#1D3095"/><text x="342.5377547560325" y="164.08834938316267" font-size="12" font-weight="600" fill="#111">PT</text><circle cx="260" cy="90.83118418382273" r="3.5" fill="#1D3095"/><text x="266" y="84.83118418382273" font-size="12" font-weight="600" fill="#111">PI</text><circle cx="260" cy="244" r="3.5" fill="#999"/><text x="266" y="238" font-size="12" font-weight="600" fill="#111">O</text><text x="211.66036541724264" y="120.73454959706672" text-anchor="middle" font-size="11" fill="#334"><tspan>T = 621.32'</tspan></text><text x="260" y="186.08834938316267" text-anchor="middle" font-size="11" fill="#0a7a5a">LC = 863.21'</text><text x="268" y="117.21559209191136" font-size="10" fill="#c0392b">E = 263.73'</text><text x="268" y="156.84417469158132" font-size="10" fill="#c0392b">M = 183.20'</text><text x="260" y="259" text-anchor="middle" font-size="11" fill="#333">R = 600.00'</text><text x="260" y="68.83118418382273" text-anchor="middle" font-size="11" fill="#333">I = 92°00'00"</text><text x="179.46224524396752" y="188.08834938316267" text-anchor="end" font-size="10" fill="#1D3095" font-weight="700">∠(T,LC) = I/2</text></svg>
