<svg xmlns="http://www.w3.org/2000/svg" viewBox="0 0 560 420" role="img" aria-label="Latitude and departure as the north-south and east-west components of a traverse leg">
  <style>
    .axis{stroke:#94a3b8;stroke-width:1.4}
    .leg{stroke:#1d3095;stroke-width:3}
    .comp{stroke:#bd1218;stroke-width:2;stroke-dasharray:6 4}
    .lbl{font:600 15px 'Segoe UI',sans-serif;fill:#0b1220}
    .val{font:600 13px 'Segoe UI',sans-serif;fill:#1d3095}
    .red{font:600 13px 'Segoe UI',sans-serif;fill:#bd1218}
    .note{font:13px 'Segoe UI',sans-serif;fill:#334155}
  </style>
  <rect width="560" height="420" fill="#ffffff"/>
  <!-- station A at lower-left -->
  <g transform="translate(120,330)">
    <!-- north arrow -->
    <line class="axis" x1="0" y1="0" x2="0" y2="-260"/>
    <polygon points="0,-262 -6,-250 6,-250" fill="#94a3b8"/>
    <text class="lbl" x="-6" y="-268">N</text>
    <line class="axis" x1="0" y1="0" x2="320" y2="0"/>
    <text class="lbl" x="326" y="5">E</text>
    <!-- traverse leg A->B, azimuth ~ N57E, distance to (250,-160) -->
    <line class="leg" x1="0" y1="0" x2="250" y2="-160"/>
    <polygon points="250,-160 236,-156 244,-144" fill="#1d3095"/>
    <circle cx="0" cy="0" r="5" fill="#0b1220"/>
    <circle cx="250" cy="-160" r="5" fill="#0b1220"/>
    <text class="lbl" x="-18" y="20">A</text>
    <text class="lbl" x="258" y="-162">B</text>
    <!-- components: latitude (vertical) and departure (horizontal) -->
    <line class="comp" x1="0" y1="0" x2="0" y2="-160"/>
    <line class="comp" x1="0" y1="-160" x2="250" y2="-160"/>
    <text class="red" x="-96" y="-78">Latitude</text>
    <text class="red" x="-96" y="-60">= D&#183;cos(Az)</text>
    <text class="red" x="70" y="-168">Departure = D&#183;sin(Az)</text>
    <!-- azimuth arc from North -->
    <path d="M 0 -70 A 70 70 0 0 1 43.6 -54.8" fill="none" stroke="#64748b" stroke-width="1.4"/>
    <text class="val" x="14" y="-58">Az</text>
    <text class="val" x="120" y="-96" transform="rotate(-32.6 120 -96)">Distance D</text>
  </g>
  <!-- key -->
  <g transform="translate(300,300)">
    <text class="lbl" x="0" y="0">Sign convention</text>
    <text class="note" x="0" y="22">Latitude  +N / &#8722;S    (cos)</text>
    <text class="note" x="0" y="42">Departure +E / &#8722;W    (sin)</text>
    <text class="note" x="0" y="66">Closed traverse:</text>
    <text class="note" x="0" y="86">&#931;Lat = 0 and &#931;Dep = 0</text>
  </g>
</svg>
