<svg xmlns="http://www.w3.org/2000/svg" viewBox="0 0 640 320" role="img" aria-label="The normal (Gaussian) distribution of random errors, showing that about 68.3% of errors fall within one standard deviation, 95.4% within two, and 99.7% within three.">
  <style>
    .ttl{font:700 15px 'Segoe UI',sans-serif;fill:#0b1220}
    .ax{stroke:#94a3b8;stroke-width:1.5}
    .tick{stroke:#cbd5e1;stroke-width:1}
    .lab{font:12px 'Segoe UI',sans-serif;fill:#334155}
    .pct{font:600 12px 'Segoe UI',sans-serif;fill:#0b1220}
    .curve{fill:none;stroke:#1d3095;stroke-width:2.5}
  </style>
  <rect width="640" height="320" fill="#ffffff"/>
  <text class="ttl" x="20" y="26">Normal distribution of random errors (68–95–99.7)</text>

  <!-- bands: center x=320, sigma=70px, baseline y=250 -->
  <!-- ±3σ band -->
  <rect x="110" y="150" width="420" height="100" fill="#eef2ff"/>
  <!-- ±2σ band -->
  <rect x="180" y="150" width="280" height="100" fill="#c7d2fe"/>
  <!-- ±1σ band -->
  <rect x="250" y="150" width="140" height="100" fill="#a5b4fc"/>

  <!-- axis -->
  <line class="ax" x1="80" y1="250" x2="560" y2="250"/>
  <!-- sigma ticks -->
  <g class="tick">
    <line x1="250" y1="150" x2="250" y2="256"/><line x1="390" y1="150" x2="390" y2="256"/>
    <line x1="180" y1="150" x2="180" y2="256"/><line x1="460" y1="150" x2="460" y2="256"/>
    <line x1="110" y1="150" x2="110" y2="256"/><line x1="530" y1="150" x2="530" y2="256"/>
    <line x1="320" y1="90"  x2="320" y2="256" stroke="#64748b" stroke-dasharray="3 3"/>
  </g>

  <!-- bell curve (approx via cubic path), peak at (320,95) meeting baseline at ~x=90 and 550 -->
  <path class="curve" d="M 90 250 C 200 250, 250 100, 320 95 C 390 100, 440 250, 550 250"/>

  <!-- percentages -->
  <text class="pct" x="320" y="190" text-anchor="middle">68.3%</text>
  <text class="pct" x="215" y="140" text-anchor="middle">95.4%</text>
  <text class="pct" x="145" y="122" text-anchor="middle">99.7%</text>

  <!-- x labels -->
  <g class="lab" text-anchor="middle">
    <text x="320" y="272">μ</text>
    <text x="250" y="272">−1σ</text><text x="390" y="272">+1σ</text>
    <text x="180" y="272">−2σ</text><text x="460" y="272">+2σ</text>
    <text x="110" y="272">−3σ</text><text x="530" y="272">+3σ</text>
  </g>
  <text class="lab" x="320" y="300" text-anchor="middle">Error size (deviation from the true value) →</text>
</svg>
