<svg xmlns="http://www.w3.org/2000/svg" viewBox="0 0 560 400" role="img" aria-label="Vertical aerial photograph scale as the ratio of focal length to flying height above the terrain">
  <style>text{stroke:none;paint-order:fill}
    .ground{fill:#eef2f7;stroke:#7c8a99;stroke-width:1.6}
    .ray{stroke:#bd1218;stroke-width:1.4;stroke-dasharray:4 3}
    .dimline{stroke:#1d3095;stroke-width:1.4}
    .lens{fill:#111827}
    .lbl{font:700 14px Arial,Helvetica,sans-serif;fill:#111827}
    .dim{font:700 13px Arial,Helvetica,sans-serif;fill:#1d3095}
    .note{font:700 13px Arial,Helvetica,sans-serif;fill:#111827}
  </style>
  <rect width="560" height="400" fill="#ffffff"/>
  <!-- ground/terrain -->
  <rect class="ground" x="60" y="320" width="360" height="30"/>
  <text class="note" x="180" y="372">Ground (terrain / datum)</text>
  <!-- flying height H (lens to ground) -->
  <line class="dimline" x1="240" y1="90" x2="240" y2="320"/>
  <line class="dimline" x1="234" y1="90" x2="246" y2="90"/>
  <line class="dimline" x1="234" y1="320" x2="246" y2="320"/>
  <text class="dim" x="250" y="210">H = flying height</text>
  <text class="note" x="250" y="228">above ground</text>
  <!-- image plane just below lens (focal length f) -->
  <rect x="180" y="110" width="120" height="8" fill="#64748b" stroke="#94a3b8"/>
  <line class="dimline" x1="330" y1="90" x2="330" y2="114"/>
  <line class="dimline" x1="324" y1="90" x2="336" y2="90"/>
  <line class="dimline" x1="324" y1="114" x2="336" y2="114"/>
  <text class="dim" x="340" y="106">f = focal length</text>
  <!-- lens -->
  <circle class="lens" cx="240" cy="90" r="7"/>
  <text class="lbl" x="252" y="86">lens (perspective center)</text>
  <!-- rays from ground extent through lens to image plane -->
  <line class="ray" x1="80" y1="320" x2="240" y2="90"/>
  <line class="ray" x1="400" y1="320" x2="240" y2="90"/>
  <line class="ray" x1="240" y1="90" x2="188" y2="114"/>
  <line class="ray" x1="240" y1="90" x2="292" y2="114"/>
  <!-- formula -->
  <g transform="translate(360,250)">
    <text class="lbl" x="0" y="0">Photo scale</text>
    <text class="note" x="0" y="24">S = f / H'</text>
    <text class="note" x="0" y="46">H' = flying height above</text>
    <text class="note" x="0" y="62">the ground being imaged</text>
    <text class="note" x="0" y="86">Scale = 1 : (H'/f)</text>
    <text class="note" x="0" y="112">Ground dist = photo dist / S</text>
  </g>
</svg>
