<svg xmlns="http://www.w3.org/2000/svg" viewBox="0 0 520 380" width="100%" style="max-width:520px;height:auto;background:#fff;border:1px solid #d8dce6;border-radius:8px;font-family:system-ui,sans-serif"><rect x="0" y="0" width="520" height="380" fill="#fbfcff"/><text x="260" y="20" text-anchor="middle" font-size="14" font-weight="700" fill="#1D3095">Recorded plat — lots &amp; monuments</text><rect x="60" y="176" width="90.40034438226431" height="108" fill="#1D309508" stroke="#1D3095" stroke-width="1.6"/><text x="105.20017219113215" y="234" text-anchor="middle" font-size="13" font-weight="700" fill="#1D3095">1</text><text x="105.20017219113215" y="302" text-anchor="middle" font-size="10" fill="#333">50.00'</text><rect x="150.4003443822643" y="176" width="90.40034438226431" height="108" fill="#1D309508" stroke="#1D3095" stroke-width="1.6"/><text x="195.60051657339648" y="234" text-anchor="middle" font-size="13" font-weight="700" fill="#1D3095">2</text><text x="195.60051657339648" y="302" text-anchor="middle" font-size="10" fill="#333">50.00'</text><rect x="240.80068876452862" y="176" width="90.40034438226431" height="108" fill="#1D309508" stroke="#1D3095" stroke-width="1.6"/><text x="286.00086095566076" y="234" text-anchor="middle" font-size="13" font-weight="700" fill="#1D3095">3</text><text x="286.00086095566076" y="302" text-anchor="middle" font-size="10" fill="#333">50.00'</text><rect x="331.20103314679295" y="176" width="90.40034438226431" height="108" fill="#1D309508" stroke="#1D3095" stroke-width="1.6"/><text x="376.4012053379251" y="234" text-anchor="middle" font-size="13" font-weight="700" fill="#1D3095">4</text><text x="376.4012053379251" y="302" text-anchor="middle" font-size="10" fill="#333">50.00'</text><rect x="421.60137752905723" y="176" width="58.39862247094274" height="108" fill="#1D309508" stroke="#1D3095" stroke-width="1.6"/><text x="450.8006887645286" y="234" text-anchor="middle" font-size="13" font-weight="700" fill="#1D3095">5</text><text x="450.8006887645286" y="302" text-anchor="middle" font-size="10" fill="#333">30±</text><line x1="60" y1="284" x2="480" y2="284" stroke="#333" stroke-width="2.5"/><rect x="56" y="280" width="8" height="8" fill="#c0392b"/><rect x="476" y="280" width="8" height="8" fill="#c0392b"/><text x="60" y="318" text-anchor="middle" font-size="11" font-weight="700" fill="#c0392b">A</text><text x="480" y="318" text-anchor="middle" font-size="11" font-weight="700" fill="#c0392b">B</text><text x="270" y="334" text-anchor="middle" font-size="11" font-style="italic" fill="#555">First Street</text></svg>
