<?xml version="1.0" encoding="iso-8859-1"?>
<!-- Generator: Adobe Illustrator 29.3.1, SVG Export Plug-In . SVG Version: 9.03 Build 55982)  -->
<svg version="1.1" id="Layer_1" xmlns="http://www.w3.org/2000/svg" xmlns:xlink="http://www.w3.org/1999/xlink" x="0px" y="0px"
	 width="662px" height="220px" viewBox="0 0 662 220" enable-background="new 0 0 662 220" xml:space="preserve">
<line fill="none" stroke="#000000" stroke-width="0.7511" stroke-linecap="round" stroke-linejoin="round" stroke-miterlimit="10" x1="56.3" y1="104.7" x2="560.6" y2="104.7"/>
<path stroke="#000000" stroke-width="0.1202" stroke-linejoin="bevel" stroke-miterlimit="10" d="M46.2,63v3.2
	c0,0.3-0.2,0.5-0.5,0.5c-0.3,0-0.5-0.2-0.5-0.5V63c0-0.3,0.2-0.5,0.5-0.5C46,62.4,46.2,62.7,46.2,63L46.2,63z M46.2,70.4v3.2
	c0,0.3-0.2,0.5-0.5,0.5c-0.3,0-0.5-0.2-0.5-0.5v-3.2c0-0.3,0.2-0.5,0.5-0.5C46,69.9,46.2,70.1,46.2,70.4L46.2,70.4z M46.2,77.8V81
	c0,0.3-0.2,0.5-0.5,0.5c-0.3,0-0.5-0.2-0.5-0.5v-3.2c0-0.3,0.2-0.5,0.5-0.5C46,77.3,46.2,77.5,46.2,77.8L46.2,77.8z M46.2,85.2v3.2
	c0,0.3-0.2,0.5-0.5,0.5c-0.3,0-0.5-0.2-0.5-0.5v-3.2c0-0.3,0.2-0.5,0.5-0.5C46,84.7,46.2,84.9,46.2,85.2L46.2,85.2z M46.2,92.6v3.2
	c0,0.3-0.2,0.5-0.5,0.5c-0.3,0-0.5-0.2-0.5-0.5v-3.2c0-0.3,0.2-0.5,0.5-0.5C46,92.1,46.2,92.3,46.2,92.6L46.2,92.6z M46.2,100v3.2
	c0,0.3-0.2,0.5-0.5,0.5c-0.3,0-0.5-0.2-0.5-0.5V100c0-0.3,0.2-0.5,0.5-0.5C46,99.5,46.2,99.8,46.2,100L46.2,100z M46.2,107.5v3.2
	c0,0.3-0.2,0.5-0.5,0.5c-0.3,0-0.5-0.2-0.5-0.5v-3.2c0-0.3,0.2-0.5,0.5-0.5C46,106.9,46.2,107.2,46.2,107.5L46.2,107.5z M46.2,114.9
	v3.2c0,0.3-0.2,0.5-0.5,0.5c-0.3,0-0.5-0.2-0.5-0.5v-3.2c0-0.3,0.2-0.5,0.5-0.5C46,114.3,46.2,114.6,46.2,114.9L46.2,114.9z
	 M46.2,122.3v3.2c0,0.3-0.2,0.5-0.5,0.5c-0.3,0-0.5-0.2-0.5-0.5v-3.2c0-0.3,0.2-0.5,0.5-0.5C46,121.8,46.2,122,46.2,122.3
	L46.2,122.3z M46.2,129.7v3.2c0,0.3-0.2,0.5-0.5,0.5c-0.3,0-0.5-0.2-0.5-0.5v-3.2c0-0.3,0.2-0.5,0.5-0.5
	C46,129.2,46.2,129.4,46.2,129.7L46.2,129.7z M46.2,137.1v3.2c0,0.3-0.2,0.5-0.5,0.5c-0.3,0-0.5-0.2-0.5-0.5v-3.2
	c0-0.3,0.2-0.5,0.5-0.5C46,136.6,46.2,136.8,46.2,137.1L46.2,137.1z M46.2,144.5v3.2c0,0.3-0.2,0.5-0.5,0.5c-0.3,0-0.5-0.2-0.5-0.5
	v-3.2c0-0.3,0.2-0.5,0.5-0.5C46,144,46.2,144.3,46.2,144.5L46.2,144.5z"/>
<path fill-rule="evenodd" clip-rule="evenodd" fill="#FFFFFF" d="M45.7,96.2c-5.3,0-9.5,4.3-9.5,9.5c0,5.3,4.3,9.5,9.5,9.5
	c5.3,0,9.5-4.3,9.5-9.5C55.2,100.5,51,96.2,45.7,96.2"/>
<path fill="none" stroke="#000000" stroke-width="0.7511" stroke-linecap="round" stroke-linejoin="round" stroke-miterlimit="10" d="
	M45.7,96.2c-5.3,0-9.5,4.3-9.5,9.5c0,5.3,4.3,9.5,9.5,9.5c5.3,0,9.5-4.3,9.5-9.5C55.2,100.5,51,96.2,45.7,96.2"/>
<path fill-rule="evenodd" clip-rule="evenodd" fill="#FFFFFF" d="M570.1,94.2c-5.3,0-9.5,4.3-9.5,9.5c0,5.3,4.3,9.5,9.5,9.5
	c5.2,0,9.5-4.3,9.5-9.5C579.6,98.5,575.3,94.2,570.1,94.2"/>
<path fill="none" stroke="#000000" stroke-width="0.7511" stroke-linecap="round" stroke-linejoin="round" stroke-miterlimit="10" d="
	M570.1,94.1c-5.3,0-9.5,4.3-9.5,9.5c0,5.3,4.3,9.5,9.5,9.5c5.2,0,9.5-4.3,9.5-9.5C579.6,98.4,575.3,94.1,570.1,94.1"/>
<g>
	<g>
		<g>
			<path d="M63.7,120.7v4.4h2c0.5,0,0.8-0.1,1-0.3c0.2-0.2,0.4-0.6,0.4-1.2h0.3v3.8h-0.3c0-0.4-0.1-0.8-0.2-1
				c-0.1-0.2-0.3-0.4-0.4-0.5c-0.2-0.1-0.5-0.2-0.8-0.2h-2v3.5c0,0.6,0,0.9,0.1,1.1c0.1,0.1,0.2,0.3,0.3,0.4
				c0.2,0.1,0.5,0.2,0.8,0.2h0.4v0.3h-4.8V131h0.4c0.5,0,0.8-0.1,1-0.4c0.1-0.2,0.2-0.6,0.2-1.3V122c0-0.6,0-0.9-0.1-1.1
				c-0.1-0.1-0.2-0.3-0.3-0.4c-0.2-0.1-0.5-0.2-0.8-0.2h-0.4V120h8.4l0.1,2.5h-0.3c-0.1-0.5-0.3-0.9-0.5-1.2
				c-0.2-0.2-0.4-0.4-0.7-0.5c-0.3-0.1-0.7-0.2-1.3-0.2H63.7z"/>
			<path d="M79.4,128.2l0.3,0.1l-1,3.1H70V131h0.4c0.5,0,0.8-0.2,1-0.5c0.1-0.2,0.2-0.6,0.2-1.2V122c0-0.7-0.1-1.1-0.2-1.3
				c-0.2-0.2-0.5-0.4-1-0.4H70V120h5.1v0.3c-0.6,0-1,0-1.3,0.2s-0.4,0.3-0.5,0.4s-0.1,0.6-0.1,1.3v7.1c0,0.5,0,0.8,0.1,0.9
				c0.1,0.1,0.2,0.2,0.3,0.3s0.6,0.1,1.3,0.1h0.8c0.9,0,1.5-0.1,1.8-0.2c0.3-0.1,0.7-0.4,1-0.7C78.8,129.4,79.1,128.9,79.4,128.2z"
				/>
			<path d="M86.2,119.8c1.5,0,2.7,0.6,3.8,1.7c1.1,1.1,1.6,2.5,1.6,4.2c0,1.7-0.5,3.1-1.6,4.3s-2.4,1.7-3.9,1.7
				c-1.5,0-2.8-0.6-3.9-1.7s-1.6-2.5-1.6-4.3c0-1.8,0.6-3.2,1.8-4.4C83.5,120.3,84.8,119.8,86.2,119.8z M86.1,120.4
				c-1,0-1.8,0.4-2.4,1.1c-0.8,0.9-1.1,2.3-1.1,4.1c0,1.8,0.4,3.3,1.2,4.2c0.6,0.8,1.4,1.1,2.4,1.1c1.1,0,1.9-0.4,2.6-1.2
				s1-2.1,1-3.9c0-1.9-0.4-3.4-1.1-4.3C88,120.8,87.1,120.4,86.1,120.4z"/>
			<path d="M108.2,120v0.3c-0.3,0-0.5,0.1-0.7,0.2c-0.2,0.1-0.4,0.3-0.5,0.6c-0.1,0.2-0.3,0.7-0.5,1.4l-3.1,9.1h-0.3l-2.6-7.2
				l-2.5,7.2h-0.3l-3.3-9.3c-0.2-0.7-0.4-1.1-0.5-1.2c-0.1-0.2-0.3-0.4-0.5-0.5c-0.2-0.1-0.4-0.2-0.8-0.2V120h4.2v0.3h-0.2
				c-0.3,0-0.5,0.1-0.7,0.2c-0.2,0.1-0.2,0.3-0.2,0.5c0,0.2,0.1,0.6,0.4,1.3l2.2,6.3l1.9-5.4l-0.3-0.9l-0.3-0.8
				c-0.1-0.3-0.2-0.5-0.4-0.7c-0.1-0.1-0.2-0.2-0.3-0.3c-0.1-0.1-0.3-0.2-0.4-0.2c-0.1,0-0.3,0-0.5,0V120h4.4v0.3h-0.3
				c-0.3,0-0.5,0.1-0.7,0.2s-0.2,0.3-0.2,0.5c0,0.3,0.1,0.8,0.4,1.5l2.2,6.1l2.1-6.2c0.2-0.7,0.4-1.2,0.4-1.4c0-0.1,0-0.2-0.1-0.4
				s-0.2-0.2-0.3-0.2c-0.2-0.1-0.5-0.1-0.8-0.1V120H108.2z"/>
			<path d="M122.3,128.2l0.3,0.1l-1,3.1h-8.7V131h0.4c0.5,0,0.8-0.2,1-0.5c0.1-0.2,0.2-0.6,0.2-1.2V122c0-0.7-0.1-1.1-0.2-1.3
				c-0.2-0.2-0.5-0.4-1-0.4h-0.4V120h5.1v0.3c-0.6,0-1,0-1.3,0.2s-0.4,0.3-0.5,0.4s-0.1,0.6-0.1,1.3v7.1c0,0.5,0,0.8,0.1,0.9
				c0.1,0.1,0.2,0.2,0.3,0.3s0.6,0.1,1.3,0.1h0.8c0.9,0,1.5-0.1,1.8-0.2c0.3-0.1,0.7-0.4,1-0.7C121.7,129.4,122,128.9,122.3,128.2z"
				/>
			<path d="M128.1,131v0.3h-4.8V131h0.4c0.5,0,0.8-0.1,1-0.4c0.1-0.2,0.2-0.6,0.2-1.3V122c0-0.6,0-0.9-0.1-1.1
				c-0.1-0.1-0.2-0.3-0.3-0.4c-0.2-0.1-0.5-0.2-0.8-0.2h-0.4V120h4.8v0.3h-0.4c-0.5,0-0.8,0.1-1,0.4c-0.1,0.2-0.2,0.6-0.2,1.3v7.3
				c0,0.6,0,0.9,0.1,1.1c0.1,0.1,0.2,0.3,0.3,0.4c0.2,0.1,0.5,0.2,0.8,0.2H128.1z"/>
			<path d="M128.3,120h3l6.9,8.4V122c0-0.7-0.1-1.1-0.2-1.3c-0.2-0.2-0.5-0.3-1-0.3h-0.4V120h3.9v0.3h-0.4c-0.5,0-0.8,0.1-1,0.4
				c-0.1,0.2-0.2,0.6-0.2,1.2v9.5h-0.3l-7.4-9.1v6.9c0,0.7,0.1,1.1,0.2,1.3c0.2,0.2,0.5,0.3,1,0.3h0.4v0.3H129V131h0.4
				c0.5,0,0.8-0.1,1-0.4c0.1-0.2,0.2-0.6,0.2-1.2v-7.8c-0.3-0.4-0.6-0.6-0.7-0.8c-0.2-0.1-0.4-0.2-0.7-0.3c-0.2,0-0.4-0.1-0.7-0.1
				V120z"/>
			<path d="M144.4,120.7v4.4h2.5c0.6,0,1.1-0.1,1.3-0.3c0.3-0.3,0.4-0.7,0.5-1.3h0.3v3.9h-0.3c-0.1-0.5-0.2-0.9-0.2-1.1
				c-0.1-0.2-0.3-0.3-0.5-0.5c-0.2-0.1-0.6-0.2-1-0.2h-2.5v3.7c0,0.5,0,0.8,0.1,0.9c0,0.1,0.1,0.2,0.2,0.3c0.1,0.1,0.3,0.1,0.6,0.1
				h1.9c0.6,0,1.1,0,1.4-0.1s0.6-0.3,0.8-0.5c0.3-0.3,0.7-0.9,1.1-1.6h0.3l-1,2.8h-8.7V131h0.4c0.3,0,0.5-0.1,0.8-0.2
				c0.2-0.1,0.3-0.2,0.4-0.4s0.1-0.5,0.1-1.1V122c0-0.7-0.1-1.2-0.2-1.3c-0.2-0.2-0.5-0.3-1-0.3h-0.4V120h8.7l0.1,2.5h-0.3
				c-0.1-0.6-0.2-1-0.4-1.2c-0.1-0.2-0.3-0.4-0.6-0.5c-0.2-0.1-0.6-0.1-1.2-0.1H144.4z"/>
			<path d="M63.8,141.1v4.4h2.5c0.6,0,1.1-0.1,1.3-0.3c0.3-0.3,0.4-0.7,0.5-1.3h0.3v3.9H68c-0.1-0.5-0.2-0.9-0.2-1.1
				c-0.1-0.2-0.3-0.3-0.5-0.5c-0.2-0.1-0.6-0.2-1-0.2h-2.5v3.7c0,0.5,0,0.8,0.1,0.9c0,0.1,0.1,0.2,0.2,0.3c0.1,0.1,0.3,0.1,0.6,0.1
				h1.9c0.6,0,1.1,0,1.4-0.1s0.6-0.3,0.8-0.5c0.3-0.3,0.7-0.9,1.1-1.6h0.3l-1,2.8h-8.7v-0.3H61c0.3,0,0.5-0.1,0.8-0.2
				c0.2-0.1,0.3-0.2,0.4-0.4s0.1-0.5,0.1-1.1v-7.3c0-0.7-0.1-1.2-0.2-1.3c-0.2-0.2-0.5-0.3-1-0.3h-0.4v-0.3h8.7l0.1,2.5H69
				c-0.1-0.6-0.2-1-0.4-1.2c-0.1-0.2-0.3-0.4-0.6-0.5c-0.2-0.1-0.6-0.1-1.2-0.1H63.8z"/>
			<path d="M80.3,148.6l0.3,0.1l-1,3.1h-8.7v-0.3h0.4c0.5,0,0.8-0.2,1-0.5c0.1-0.2,0.2-0.6,0.2-1.2v-7.3c0-0.7-0.1-1.1-0.2-1.3
				c-0.2-0.2-0.5-0.4-1-0.4h-0.4v-0.3H76v0.3c-0.6,0-1,0-1.3,0.2s-0.4,0.3-0.5,0.4s-0.1,0.6-0.1,1.3v7.1c0,0.5,0,0.8,0.1,0.9
				c0.1,0.1,0.2,0.2,0.3,0.3s0.6,0.1,1.3,0.1h0.8c0.9,0,1.5-0.1,1.8-0.2c0.3-0.1,0.7-0.4,1-0.7C79.7,149.8,80,149.3,80.3,148.6z"/>
			<path d="M84.5,141.1v4.4H87c0.6,0,1.1-0.1,1.3-0.3c0.3-0.3,0.4-0.7,0.5-1.3H89v3.9h-0.3c-0.1-0.5-0.2-0.9-0.2-1.1
				c-0.1-0.2-0.3-0.3-0.5-0.5c-0.2-0.1-0.6-0.2-1-0.2h-2.5v3.7c0,0.5,0,0.8,0.1,0.9c0,0.1,0.1,0.2,0.2,0.3c0.1,0.1,0.3,0.1,0.6,0.1
				h1.9c0.6,0,1.1,0,1.4-0.1s0.6-0.3,0.8-0.5c0.3-0.3,0.7-0.9,1.1-1.6h0.3l-1,2.8h-8.7v-0.3h0.4c0.3,0,0.5-0.1,0.8-0.2
				c0.2-0.1,0.3-0.2,0.4-0.4s0.1-0.5,0.1-1.1v-7.3c0-0.7-0.1-1.2-0.2-1.3c-0.2-0.2-0.5-0.3-1-0.3h-0.4v-0.3H90l0.1,2.5h-0.3
				c-0.1-0.6-0.2-1-0.4-1.2c-0.1-0.2-0.3-0.4-0.6-0.5c-0.2-0.1-0.6-0.1-1.2-0.1H84.5z"/>
			<path d="M103.4,140.4v0.3c-0.4,0.1-0.7,0.2-0.9,0.4c-0.3,0.3-0.6,0.7-0.8,1.2l-3.9,9.6h-0.3l-4.2-9.7c-0.2-0.5-0.4-0.8-0.5-0.9
				c-0.1-0.2-0.3-0.3-0.5-0.4c-0.2-0.1-0.5-0.2-0.8-0.2v-0.3h4.6v0.3c-0.5,0-0.9,0.1-1,0.3s-0.2,0.3-0.2,0.5c0,0.3,0.1,0.7,0.4,1.3
				l2.9,6.6l2.7-6.5c0.3-0.6,0.4-1.1,0.4-1.3c0-0.2-0.1-0.3-0.2-0.5c-0.2-0.1-0.4-0.3-0.8-0.3c0,0-0.1,0-0.1,0v-0.3H103.4z"/>
			<path d="M105.7,150.1c0.3,0,0.5,0.1,0.7,0.3s0.3,0.4,0.3,0.7c0,0.3-0.1,0.5-0.3,0.7c-0.2,0.2-0.4,0.3-0.6,0.3
				c-0.3,0-0.5-0.1-0.7-0.3c-0.2-0.2-0.3-0.4-0.3-0.7c0-0.3,0.1-0.5,0.3-0.7C105.2,150.2,105.4,150.1,105.7,150.1z"/>
			<path d="M114,141.5l2.7-1.3h0.3v9.5c0,0.6,0,1,0.1,1.2c0.1,0.2,0.2,0.3,0.3,0.4c0.2,0.1,0.5,0.1,1,0.1v0.3h-4.2v-0.3
				c0.5,0,0.9-0.1,1-0.1s0.3-0.2,0.3-0.3c0.1-0.1,0.1-0.5,0.1-1.2v-6.1c0-0.8,0-1.3-0.1-1.6c0-0.2-0.1-0.3-0.2-0.4s-0.2-0.1-0.4-0.1
				c-0.2,0-0.5,0.1-0.9,0.3L114,141.5z"/>
			<path d="M121.5,154.5v-0.4c0.6-0.2,1-0.5,1.3-0.9c0.3-0.4,0.5-0.8,0.5-1.3c0-0.1,0-0.2-0.1-0.3c0,0-0.1-0.1-0.1-0.1
				c-0.1,0-0.2,0.1-0.4,0.2c-0.1,0-0.2,0.1-0.3,0.1c-0.3,0-0.5-0.1-0.6-0.2c-0.2-0.2-0.2-0.4-0.2-0.7c0-0.3,0.1-0.5,0.3-0.7
				c0.2-0.2,0.5-0.3,0.8-0.3c0.4,0,0.7,0.2,1,0.5c0.3,0.3,0.4,0.7,0.4,1.3c0,0.6-0.2,1.1-0.6,1.6
				C122.9,153.9,122.3,154.2,121.5,154.5z"/>
			<path d="M132.6,149.5l-0.8,2.2h-6.6v-0.3c1.9-1.8,3.3-3.2,4.1-4.4c0.8-1.1,1.2-2.2,1.2-3.1c0-0.7-0.2-1.3-0.7-1.8
				c-0.4-0.5-1-0.7-1.6-0.7c-0.6,0-1,0.2-1.5,0.5c-0.4,0.3-0.8,0.8-1,1.4h-0.3c0.1-1,0.5-1.8,1.1-2.4c0.6-0.5,1.3-0.8,2.1-0.8
				c0.9,0,1.7,0.3,2.3,0.9s0.9,1.3,0.9,2.1c0,0.6-0.1,1.1-0.4,1.7c-0.4,0.9-1.1,1.8-2,2.8c-1.4,1.5-2.2,2.4-2.6,2.7h2.9
				c0.6,0,1,0,1.3-0.1c0.2,0,0.5-0.1,0.7-0.3s0.4-0.3,0.5-0.6H132.6z"/>
			<path d="M141,149.5l-0.8,2.2h-6.6v-0.3c1.9-1.8,3.3-3.2,4.1-4.4c0.8-1.1,1.2-2.2,1.2-3.1c0-0.7-0.2-1.3-0.7-1.8
				c-0.4-0.5-1-0.7-1.6-0.7c-0.6,0-1,0.2-1.5,0.5c-0.4,0.3-0.8,0.8-1,1.4H134c0.1-1,0.5-1.8,1.1-2.4c0.6-0.5,1.3-0.8,2.1-0.8
				c0.9,0,1.7,0.3,2.3,0.9s0.9,1.3,0.9,2.1c0,0.6-0.1,1.1-0.4,1.7c-0.4,0.9-1.1,1.8-2,2.8c-1.4,1.5-2.2,2.4-2.6,2.7h2.9
				c0.6,0,1,0,1.3-0.1c0.2,0,0.5-0.1,0.7-0.3s0.4-0.3,0.5-0.6H141z"/>
			<path d="M145,146c-0.9-0.7-1.5-1.3-1.7-1.8s-0.4-0.9-0.4-1.4c0-0.7,0.3-1.4,0.8-1.9c0.6-0.5,1.3-0.8,2.2-0.8
				c0.9,0,1.6,0.2,2.2,0.7s0.8,1.1,0.8,1.7c0,0.4-0.1,0.8-0.4,1.3s-0.9,1-1.9,1.5c1,0.8,1.6,1.3,1.9,1.8c0.4,0.6,0.6,1.2,0.6,1.8
				c0,0.8-0.3,1.5-0.9,2c-0.6,0.6-1.4,0.8-2.4,0.8c-1.1,0-1.9-0.3-2.5-1c-0.5-0.5-0.7-1.1-0.7-1.8c0-0.5,0.2-1,0.5-1.5
				C143.6,147.2,144.2,146.6,145,146z M145.4,146.3c-0.5,0.4-0.8,0.8-1,1.3c-0.2,0.5-0.3,1-0.3,1.5c0,0.7,0.2,1.3,0.6,1.7
				s0.9,0.6,1.5,0.6c0.6,0,1.1-0.2,1.4-0.5c0.4-0.3,0.5-0.7,0.5-1.2c0-0.4-0.1-0.8-0.3-1.1C147.4,148.1,146.6,147.3,145.4,146.3z
				 M146.3,145.1c0.7-0.6,1.1-1.1,1.3-1.4c0.2-0.3,0.3-0.7,0.3-1.2c0-0.6-0.2-1-0.5-1.4c-0.3-0.3-0.8-0.5-1.3-0.5s-1,0.2-1.4,0.5
				s-0.5,0.7-0.5,1.1c0,0.3,0.1,0.6,0.2,0.9s0.4,0.6,0.6,0.8L146.3,145.1z"/>
			<path d="M152.4,150.1c0.3,0,0.5,0.1,0.7,0.3s0.3,0.4,0.3,0.7c0,0.3-0.1,0.5-0.3,0.7c-0.2,0.2-0.4,0.3-0.6,0.3
				c-0.3,0-0.5-0.1-0.7-0.3c-0.2-0.2-0.3-0.4-0.3-0.7c0-0.3,0.1-0.5,0.3-0.7C151.9,150.2,152.1,150.1,152.4,150.1z"/>
			<path d="M162.4,147.5v1.2h-1.5v3h-1.4v-3h-4.8v-1.1l5.2-7.5h0.9v7.3H162.4z M159.5,147.5V142l-3.9,5.6H159.5z"/>
			<path d="M164.7,140.4h6v0.3l-3.7,11.2H166l3.4-10.1h-3.1c-0.6,0-1.1,0.1-1.3,0.2c-0.5,0.3-0.8,0.6-1.1,1.2l-0.2-0.1L164.7,140.4z
				"/>
		</g>
	</g>
</g>
<g>
	<g>
		<g>
			<path d="M13.6,193.3l-1.3-2.7v-0.3h9.5c0.6,0,1,0,1.2-0.1s0.3-0.2,0.4-0.3s0.1-0.5,0.1-1h0.3v4.2h-0.3c0-0.5-0.1-0.9-0.1-1
				c-0.1-0.2-0.2-0.3-0.3-0.3c-0.1-0.1-0.5-0.1-1.2-0.1h-6.1c-0.8,0-1.3,0-1.6,0.1c-0.2,0-0.3,0.1-0.4,0.2s-0.1,0.2-0.1,0.4
				c0,0.2,0.1,0.5,0.3,0.9L13.6,193.3z"/>
			<path d="M21.6,178.9l2.2,0.8v6.7h-0.3c-1.8-2-3.2-3.3-4.4-4.1c-1.1-0.8-2.2-1.2-3.1-1.2c-0.7,0-1.3,0.2-1.8,0.7
				c-0.5,0.4-0.7,1-0.7,1.6c0,0.6,0.2,1.1,0.5,1.5c0.3,0.4,0.8,0.8,1.4,1v0.3c-1-0.1-1.8-0.5-2.4-1.1c-0.5-0.6-0.8-1.3-0.8-2.2
				c0-0.9,0.3-1.7,0.9-2.3s1.3-0.9,2.1-0.9c0.6,0,1.1,0.1,1.7,0.4c0.9,0.4,1.8,1.1,2.8,2c1.5,1.4,2.4,2.2,2.7,2.6v-2.9
				c0-0.6,0-1-0.1-1.3s-0.1-0.5-0.3-0.7c-0.1-0.2-0.3-0.4-0.6-0.5V178.9z"/>
			<path d="M17.1,173.3l-2.4,0.4l-1,0.2c-0.1,0-0.3,0-0.4,0c-0.3,0-0.6-0.1-0.8-0.2s-0.2-0.4-0.2-0.6c0-0.2,0.1-0.4,0.2-0.6
				s0.4-0.2,0.6-0.2c0.5,0,1,0.1,1.5,0.2l2.4,0.5V173.3z M17.1,176.3l-2.5,0.5c-0.7,0.1-1.1,0.2-1.4,0.2c-0.4,0-0.6-0.1-0.8-0.2
				c-0.2-0.1-0.2-0.3-0.2-0.6c0-0.2,0.1-0.4,0.2-0.6c0.2-0.2,0.4-0.2,0.7-0.2c0.2,0,0.7,0.1,1.5,0.2l2.4,0.4V176.3z"/>
			<path d="M12.2,159.1h3.9v0.3c-0.7,0.1-1.3,0.3-1.8,0.5s-0.8,0.6-1.1,1.1s-0.4,1-0.4,1.5c0,0.6,0.2,1.1,0.5,1.4
				c0.4,0.4,0.8,0.6,1.2,0.6c0.3,0,0.7-0.1,0.9-0.4c0.4-0.3,1-1.2,1.7-2.5c0.6-1.1,1-1.8,1.3-2.2c0.3-0.4,0.7-0.7,1.1-0.9
				s0.8-0.3,1.3-0.3c0.9,0,1.6,0.3,2.2,1c0.6,0.7,0.9,1.5,0.9,2.6c0,0.3,0,0.6-0.1,0.9c0,0.2-0.1,0.5-0.3,1.1
				c-0.2,0.5-0.3,0.9-0.3,1c0,0.1,0,0.2,0.1,0.3s0.3,0.1,0.5,0.2v0.3h-3.9v-0.3c0.8-0.1,1.4-0.3,1.8-0.6c0.4-0.2,0.7-0.6,1-1.1
				c0.3-0.5,0.4-1.1,0.4-1.7c0-0.7-0.2-1.2-0.5-1.6s-0.8-0.6-1.3-0.6c-0.3,0-0.6,0.1-0.8,0.2c-0.3,0.2-0.5,0.4-0.8,0.7
				c-0.2,0.2-0.5,0.8-1.1,1.8c-0.5,1-1,1.7-1.3,2.1c-0.3,0.4-0.7,0.7-1.1,0.9c-0.4,0.2-0.8,0.3-1.3,0.3c-0.8,0-1.5-0.3-2.1-0.9
				c-0.6-0.6-0.9-1.4-0.9-2.4c0-0.6,0.1-1.2,0.4-1.9c0.1-0.3,0.2-0.5,0.2-0.7c0-0.1,0-0.3-0.1-0.4c-0.1-0.1-0.3-0.2-0.5-0.2V159.1z"
				/>
			<path d="M13.1,153.9h4.4v-2.5c0-0.6-0.1-1.1-0.3-1.3c-0.3-0.3-0.7-0.4-1.3-0.5v-0.3h3.9v0.3c-0.5,0.1-0.9,0.2-1.1,0.2
				c-0.2,0.1-0.3,0.3-0.5,0.5s-0.2,0.6-0.2,1v2.5h3.7c0.5,0,0.8,0,0.9-0.1c0.1,0,0.2-0.1,0.3-0.2c0.1-0.1,0.1-0.3,0.1-0.6V151
				c0-0.6,0-1.1-0.1-1.4s-0.3-0.6-0.5-0.8c-0.3-0.3-0.9-0.7-1.6-1.1v-0.3l2.8,1v8.7h-0.3v-0.4c0-0.3-0.1-0.5-0.2-0.8
				c-0.1-0.2-0.2-0.3-0.4-0.4s-0.5-0.1-1.1-0.1h-7.3c-0.7,0-1.2,0.1-1.3,0.2c-0.2,0.2-0.3,0.5-0.3,1v0.4h-0.3v-8.7l2.5-0.1v0.3
				c-0.6,0.1-1,0.2-1.2,0.4s-0.4,0.4-0.5,0.6c-0.1,0.2-0.1,0.6-0.1,1.2V153.9z"/>
			<path d="M12.5,131.1h0.3c0,0.3,0.1,0.5,0.2,0.7s0.3,0.4,0.6,0.5c0.2,0.1,0.7,0.3,1.4,0.5L24,136v0.3l-7.2,2.6l7.2,2.6v0.3
				l-9.3,3.4c-0.7,0.2-1.1,0.4-1.2,0.5c-0.2,0.1-0.4,0.3-0.5,0.5c-0.1,0.2-0.2,0.5-0.2,0.8h-0.3v-4.2h0.3v0.2c0,0.3,0.1,0.5,0.2,0.7
				s0.3,0.2,0.5,0.2c0.2,0,0.6-0.1,1.3-0.4l6.3-2.2l-5.4-1.9l-0.9,0.3l-0.8,0.3c-0.3,0.1-0.5,0.2-0.7,0.4c-0.1,0.1-0.2,0.2-0.3,0.3
				c-0.1,0.1-0.2,0.3-0.2,0.4c0,0.1,0,0.3,0,0.5h-0.3V137h0.3v0.3c0,0.3,0.1,0.5,0.2,0.7s0.3,0.2,0.5,0.2c0.3,0,0.8-0.1,1.5-0.4
				l6.1-2.2l-6.2-2.1c-0.7-0.2-1.2-0.4-1.4-0.4c-0.1,0-0.2,0-0.4,0.1c-0.1,0.1-0.2,0.2-0.2,0.3c-0.1,0.2-0.1,0.5-0.1,0.8h-0.3V131.1
				z"/>
			<path d="M13.1,127.4h4.4v-2.5c0-0.6-0.1-1.1-0.3-1.3c-0.3-0.3-0.7-0.4-1.3-0.5v-0.3h3.9v0.3c-0.5,0.1-0.9,0.2-1.1,0.2
				c-0.2,0.1-0.3,0.3-0.5,0.5c-0.1,0.2-0.2,0.6-0.2,1v2.5h3.7c0.5,0,0.8,0,0.9-0.1c0.1,0,0.2-0.1,0.3-0.2c0.1-0.1,0.1-0.3,0.1-0.6
				v-1.9c0-0.6,0-1.1-0.1-1.4c-0.1-0.3-0.3-0.6-0.5-0.8c-0.3-0.3-0.9-0.7-1.6-1.1v-0.3l2.8,1v8.7h-0.3v-0.4c0-0.3-0.1-0.5-0.2-0.8
				c-0.1-0.2-0.2-0.3-0.4-0.4c-0.2-0.1-0.5-0.1-1.1-0.1h-7.3c-0.7,0-1.2,0.1-1.3,0.2c-0.2,0.2-0.3,0.5-0.3,1v0.4h-0.3v-8.7l2.5-0.1
				v0.3c-0.6,0.1-1,0.2-1.2,0.4c-0.2,0.1-0.4,0.4-0.5,0.6c-0.1,0.2-0.1,0.6-0.1,1.2V127.4z"/>
			<path d="M23.8,109v3l-5.3,3.8c0,0.3,0,0.5,0,0.7c0,0.1,0,0.1,0,0.2c0,0.1,0,0.2,0,0.3h3.3c0.7,0,1.1-0.1,1.3-0.2
				c0.2-0.2,0.4-0.5,0.4-0.9v-0.4h0.3v4.8h-0.3v-0.4c0-0.5-0.2-0.8-0.5-1c-0.2-0.1-0.6-0.2-1.2-0.2h-7.3c-0.7,0-1.1,0.1-1.3,0.2
				c-0.2,0.2-0.4,0.5-0.4,1v0.4h-0.3v-4.1c0-1.2,0.1-2.1,0.3-2.6c0.2-0.6,0.5-1.1,1-1.4c0.5-0.4,1-0.6,1.7-0.6
				c0.7,0,1.3,0.2,1.8,0.7c0.5,0.5,0.9,1.2,1.1,2.1l3.2-2.3c0.7-0.5,1.2-1,1.5-1.4c0.2-0.4,0.4-0.9,0.5-1.5H23.8z M18,117
				c0-0.1,0-0.2,0-0.3c0-0.1,0-0.1,0-0.2c0-1.1-0.2-1.9-0.7-2.4s-1.1-0.8-1.8-0.8c-0.7,0-1.3,0.2-1.7,0.7c-0.4,0.4-0.7,1-0.7,1.8
				c0,0.3,0.1,0.8,0.2,1.3H18z"/>
			<path d="M27.1,99.6h0.3c-0.4,0.8-0.9,1.5-1.5,2.1c-0.8,0.8-1.7,1.4-2.8,1.8c-1.1,0.4-2.2,0.6-3.4,0.6c-1.7,0-3.3-0.4-4.7-1.3
				c-1.4-0.8-2.4-2-3-3.3h0.3c0.4,0.7,0.9,1.2,1.5,1.7s1.5,0.8,2.5,1c1,0.2,2,0.3,3.1,0.3c1.2,0,2.3-0.1,3.2-0.3
				c0.8-0.1,1.4-0.3,1.8-0.5c0.5-0.2,0.9-0.5,1.3-0.8S26.7,100.2,27.1,99.6z"/>
			<path d="M13.1,95.7h4.4v-2.5c0-0.6-0.1-1.1-0.3-1.3c-0.3-0.3-0.7-0.4-1.3-0.5v-0.3h3.9v0.3c-0.5,0.1-0.9,0.2-1.1,0.2
				c-0.2,0.1-0.3,0.3-0.5,0.5c-0.1,0.2-0.2,0.6-0.2,1v2.5h3.7c0.5,0,0.8,0,0.9-0.1c0.1,0,0.2-0.1,0.3-0.2c0.1-0.1,0.1-0.3,0.1-0.6
				v-1.9c0-0.6,0-1.1-0.1-1.4c-0.1-0.3-0.3-0.6-0.5-0.8c-0.3-0.3-0.9-0.7-1.6-1.1v-0.3l2.8,1v8.7h-0.3v-0.4c0-0.3-0.1-0.5-0.2-0.8
				c-0.1-0.2-0.2-0.3-0.4-0.4c-0.2-0.1-0.5-0.1-1.1-0.1h-7.3c-0.7,0-1.2,0.1-1.3,0.2c-0.2,0.2-0.3,0.5-0.3,1v0.4h-0.3v-8.7l2.5-0.1
				v0.3c-0.6,0.1-1,0.2-1.2,0.4c-0.2,0.1-0.4,0.4-0.5,0.6c-0.1,0.2-0.1,0.6-0.1,1.2V95.7z"/>
			<path d="M17.5,81.9l3.6-2.4c1-0.7,1.6-1.2,1.9-1.5c0.3-0.3,0.4-0.7,0.4-1.2h0.3v4.8h-0.3c0-0.3,0-0.6-0.1-0.7
				c0-0.1-0.1-0.2-0.2-0.3c-0.1-0.1-0.2-0.1-0.3-0.1c-0.1,0-0.3,0-0.4,0.1c-0.1,0-0.3,0.2-0.7,0.5l-2.9,1.9l3,2.4
				c0.3,0.2,0.5,0.4,0.6,0.4c0.1,0,0.2,0.1,0.3,0.1c0.2,0,0.3-0.1,0.4-0.2s0.2-0.4,0.2-0.9h0.3v4h-0.3c0-0.3-0.1-0.5-0.2-0.7
				c-0.1-0.3-0.3-0.7-0.6-1s-0.6-0.7-1.1-1.1l-3.4-2.7L15,85.5c-0.9,0.6-1.5,1.1-1.7,1.5c-0.3,0.4-0.4,0.9-0.4,1.5h-0.3v-5.2h0.3
				c0,0.4,0.1,0.7,0.2,0.9s0.3,0.2,0.4,0.2c0.2,0,0.5-0.1,0.9-0.4l2.6-1.7l-2.5-2c-0.3-0.2-0.5-0.4-0.6-0.4s-0.2-0.1-0.3-0.1
				s-0.2,0-0.3,0.1c-0.1,0.1-0.2,0.2-0.2,0.3c0,0.1-0.1,0.4-0.1,0.8h-0.3v-4h0.3c0,0.3,0.1,0.6,0.1,0.8c0.1,0.3,0.3,0.6,0.5,0.8
				s0.6,0.6,1.2,1.1L17.5,81.9z"/>
			<path d="M23.5,71.3h0.3v4.8h-0.3v-0.4c0-0.5-0.1-0.8-0.4-1c-0.2-0.1-0.6-0.2-1.3-0.2h-7.3c-0.6,0-0.9,0-1.1,0.1
				c-0.1,0.1-0.3,0.2-0.4,0.3c-0.1,0.2-0.2,0.5-0.2,0.8v0.4h-0.3v-4.8h0.3v0.4c0,0.5,0.1,0.8,0.4,1c0.2,0.1,0.6,0.2,1.3,0.2h7.3
				c0.6,0,0.9,0,1.1-0.1c0.1-0.1,0.3-0.2,0.4-0.3c0.1-0.2,0.2-0.5,0.2-0.8V71.3z"/>
			<path d="M12.2,63.1h3.9v0.3c-0.7,0.1-1.3,0.3-1.8,0.5s-0.8,0.6-1.1,1.1c-0.3,0.5-0.4,1-0.4,1.5c0,0.6,0.2,1.1,0.5,1.4
				c0.4,0.4,0.8,0.6,1.2,0.6c0.3,0,0.7-0.1,0.9-0.4c0.4-0.3,1-1.2,1.7-2.5c0.6-1.1,1-1.8,1.3-2.2c0.3-0.4,0.7-0.7,1.1-0.9
				c0.4-0.2,0.8-0.3,1.3-0.3c0.9,0,1.6,0.3,2.2,1c0.6,0.7,0.9,1.5,0.9,2.6c0,0.3,0,0.6-0.1,0.9c0,0.2-0.1,0.5-0.3,1.1
				c-0.2,0.5-0.3,0.9-0.3,1c0,0.1,0,0.2,0.1,0.3s0.3,0.1,0.5,0.2v0.3h-3.9v-0.3c0.8-0.1,1.4-0.3,1.8-0.6c0.4-0.2,0.7-0.6,1-1.1
				s0.4-1.1,0.4-1.7c0-0.7-0.2-1.2-0.5-1.6c-0.4-0.4-0.8-0.6-1.3-0.6c-0.3,0-0.6,0.1-0.8,0.2c-0.3,0.2-0.5,0.4-0.8,0.7
				c-0.2,0.2-0.5,0.8-1.1,1.8c-0.5,1-1,1.7-1.3,2.1c-0.3,0.4-0.7,0.7-1.1,0.9c-0.4,0.2-0.8,0.3-1.3,0.3c-0.8,0-1.5-0.3-2.1-0.9
				c-0.6-0.6-0.9-1.4-0.9-2.4c0-0.6,0.1-1.2,0.4-1.9c0.1-0.3,0.2-0.5,0.2-0.7c0-0.1,0-0.3-0.1-0.4c-0.1-0.1-0.3-0.2-0.5-0.2V63.1z"
				/>
			<path d="M12.5,51.5l2.6-0.1v0.3c-0.5,0.1-0.8,0.1-1,0.2c-0.3,0.2-0.6,0.4-0.7,0.7c-0.2,0.3-0.2,0.7-0.2,1.1v1.6h8.6
				c0.7,0,1.1-0.1,1.3-0.2c0.2-0.2,0.3-0.5,0.3-1v-0.4h0.3v4.8h-0.3v-0.4c0-0.5-0.1-0.8-0.4-1C22.8,57,22.4,57,21.8,57h-8.6v1.4
				c0,0.5,0,0.9,0.1,1.1c0.1,0.3,0.3,0.5,0.6,0.7s0.7,0.3,1.2,0.4v0.3l-2.6-0.1V51.5z"/>
			<path d="M23.5,45.7h0.3v4.8h-0.3v-0.4c0-0.5-0.1-0.8-0.4-1c-0.2-0.1-0.6-0.2-1.3-0.2h-7.3c-0.6,0-0.9,0-1.1,0.1
				c-0.1,0.1-0.3,0.2-0.4,0.3c-0.1,0.2-0.2,0.5-0.2,0.8v0.4h-0.3v-4.8h0.3v0.4c0,0.5,0.1,0.8,0.4,1c0.2,0.1,0.6,0.2,1.3,0.2h7.3
				c0.6,0,0.9,0,1.1-0.1c0.1-0.1,0.3-0.2,0.4-0.3c0.1-0.2,0.2-0.5,0.2-0.8V45.7z"/>
			<path d="M12.5,45.5v-3.1l8.4-6.9h-6.5c-0.7,0-1.1,0.1-1.3,0.2c-0.2,0.2-0.3,0.5-0.3,1v0.4h-0.3v-3.9h0.3v0.4c0,0.5,0.1,0.8,0.4,1
				c0.2,0.1,0.6,0.2,1.2,0.2h9.5v0.3l-9.1,7.4h6.9c0.7,0,1.1-0.1,1.3-0.2c0.2-0.2,0.3-0.5,0.3-1V41h0.3v3.9h-0.3v-0.4
				c0-0.5-0.1-0.8-0.4-1c-0.2-0.1-0.6-0.2-1.2-0.2H14c-0.4,0.3-0.6,0.6-0.8,0.7c-0.1,0.2-0.2,0.4-0.3,0.7c0,0.2-0.1,0.4-0.1,0.7
				H12.5z"/>
			<path d="M12.2,22.6l3.6-0.3v0.3c-0.9,0.3-1.6,0.7-2,1.1c-0.6,0.7-1,1.5-1,2.6c0,1.4,0.6,2.5,1.7,3.3c1,0.6,2.1,0.9,3.4,0.9
				c1.1,0,2.1-0.2,2.9-0.6c0.9-0.4,1.5-1,1.9-1.6c0.4-0.7,0.6-1.4,0.6-2.1c0-0.4-0.1-0.8-0.2-1.2s-0.3-0.8-0.5-1.1h-3.3
				c-0.6,0-0.9,0-1.1,0.1c-0.2,0.1-0.3,0.2-0.4,0.4c-0.1,0.2-0.1,0.5-0.1,1h-0.3V21h0.3v0.2c0,0.4,0.1,0.7,0.4,0.9
				c0.2,0.1,0.6,0.2,1.2,0.2H23c0.3,0.6,0.6,1.3,0.8,1.9c0.2,0.6,0.2,1.3,0.2,2.1c0,2.2-0.7,3.8-2.1,5c-1,0.8-2.3,1.3-3.6,1.3
				c-1,0-1.9-0.2-2.8-0.7c-1.1-0.6-1.9-1.3-2.5-2.3c-0.5-0.8-0.7-1.8-0.7-2.9c0-0.4,0-0.8,0.1-1.1s0.2-0.8,0.4-1.4
				c0.1-0.3,0.2-0.5,0.2-0.6s0-0.2-0.1-0.3c-0.1-0.1-0.3-0.1-0.6-0.1V22.6z"/>
			<path d="M12.3,20.3H12c0.4-0.8,0.9-1.5,1.5-2.1c0.8-0.8,1.8-1.4,2.8-1.8c1.1-0.4,2.2-0.6,3.4-0.6c1.7,0,3.3,0.4,4.7,1.3
				c1.4,0.8,2.4,2,3,3.3h-0.3c-0.4-0.7-0.9-1.2-1.5-1.7c-0.6-0.4-1.5-0.8-2.5-1c-1-0.2-2.1-0.3-3.1-0.3c-1.2,0-2.3,0.1-3.2,0.3
				c-0.8,0.1-1.4,0.3-1.8,0.5s-0.9,0.5-1.3,0.8S12.7,19.8,12.3,20.3z"/>
		</g>
	</g>
</g>
<g>
	<g>
		<g>
			<path d="M260.5,194.5h3l6.9,8.4v-6.5c0-0.7-0.1-1.1-0.2-1.3c-0.2-0.2-0.5-0.3-1-0.3h-0.4v-0.3h3.9v0.3h-0.4c-0.5,0-0.8,0.1-1,0.4
				c-0.1,0.2-0.2,0.6-0.2,1.2v9.5h-0.3l-7.4-9.1v6.9c0,0.7,0.1,1.1,0.2,1.3c0.2,0.2,0.5,0.3,1,0.3h0.4v0.3h-3.9v-0.3h0.4
				c0.5,0,0.8-0.1,1-0.4c0.1-0.2,0.2-0.6,0.2-1.2V196c-0.3-0.4-0.6-0.6-0.7-0.8c-0.2-0.1-0.4-0.2-0.7-0.3c-0.2,0-0.4-0.1-0.7-0.1
				V194.5z"/>
			<path d="M279.1,194.2c1.5,0,2.7,0.6,3.8,1.7c1.1,1.1,1.6,2.5,1.6,4.2c0,1.7-0.5,3.1-1.6,4.3c-1.1,1.1-2.4,1.7-3.9,1.7
				c-1.5,0-2.8-0.6-3.9-1.7s-1.6-2.5-1.6-4.3c0-1.8,0.6-3.2,1.8-4.4C276.4,194.7,277.7,194.2,279.1,194.2z M279,194.8
				c-1,0-1.8,0.4-2.4,1.1c-0.8,0.9-1.1,2.3-1.1,4.1c0,1.8,0.4,3.3,1.2,4.2c0.6,0.8,1.4,1.1,2.4,1.1c1.1,0,1.9-0.4,2.6-1.2
				c0.7-0.8,1-2.1,1-3.9c0-1.9-0.4-3.4-1.1-4.3C280.9,195.2,280.1,194.8,279,194.8z"/>
			<path d="M295,194.5l0.1,2.6h-0.3c-0.1-0.5-0.1-0.8-0.2-1c-0.2-0.3-0.4-0.6-0.7-0.7c-0.3-0.2-0.7-0.2-1.1-0.2h-1.6v8.6
				c0,0.7,0.1,1.1,0.2,1.3c0.2,0.2,0.5,0.3,1,0.3h0.4v0.3H288v-0.3h0.4c0.5,0,0.8-0.1,1-0.4c0.1-0.2,0.2-0.6,0.2-1.2v-8.6h-1.4
				c-0.5,0-0.9,0-1.1,0.1c-0.3,0.1-0.5,0.3-0.7,0.6c-0.2,0.3-0.3,0.7-0.4,1.2h-0.3l0.1-2.6H295z"/>
			<path d="M309.7,194.5l0.1,2.6h-0.3c-0.1-0.5-0.1-0.8-0.2-1c-0.2-0.3-0.4-0.6-0.7-0.7c-0.3-0.2-0.7-0.2-1.1-0.2h-1.6v8.6
				c0,0.7,0.1,1.1,0.2,1.3c0.2,0.2,0.5,0.3,1,0.3h0.4v0.3h-4.8v-0.3h0.4c0.5,0,0.8-0.1,1-0.4c0.1-0.2,0.2-0.6,0.2-1.2v-8.6h-1.4
				c-0.5,0-0.9,0-1.1,0.1c-0.3,0.1-0.5,0.3-0.7,0.6c-0.2,0.3-0.3,0.7-0.4,1.2h-0.3l0.1-2.6H309.7z"/>
			<path d="M316.4,194.2c1.5,0,2.7,0.6,3.8,1.7c1.1,1.1,1.6,2.5,1.6,4.2c0,1.7-0.5,3.1-1.6,4.3c-1.1,1.1-2.4,1.7-3.9,1.7
				c-1.5,0-2.8-0.6-3.9-1.7s-1.6-2.5-1.6-4.3c0-1.8,0.6-3.2,1.8-4.4C313.7,194.7,314.9,194.2,316.4,194.2z M316.2,194.8
				c-1,0-1.8,0.4-2.4,1.1c-0.8,0.9-1.1,2.3-1.1,4.1c0,1.8,0.4,3.3,1.2,4.2c0.6,0.8,1.4,1.1,2.4,1.1c1.1,0,1.9-0.4,2.6-1.2
				c0.7-0.8,1-2.1,1-3.9c0-1.9-0.4-3.4-1.1-4.3C318.1,195.2,317.3,194.8,316.2,194.8z"/>
			<path d="M334.5,194.2v3.9h-0.3c-0.1-0.7-0.3-1.3-0.5-1.8c-0.3-0.4-0.6-0.8-1.1-1.1c-0.5-0.3-1-0.4-1.5-0.4c-0.6,0-1,0.2-1.4,0.5
				c-0.4,0.4-0.6,0.8-0.6,1.2c0,0.3,0.1,0.7,0.4,0.9c0.3,0.4,1.2,1,2.4,1.7c1,0.6,1.8,1,2.2,1.3c0.4,0.3,0.7,0.7,0.9,1.1
				c0.2,0.4,0.3,0.8,0.3,1.3c0,0.9-0.3,1.6-1,2.2c-0.7,0.6-1.5,0.9-2.5,0.9c-0.3,0-0.6,0-0.9-0.1c-0.2,0-0.5-0.1-1.1-0.3
				c-0.5-0.2-0.9-0.3-1-0.3c-0.1,0-0.2,0-0.3,0.1c-0.1,0.1-0.1,0.3-0.2,0.5h-0.3v-3.9h0.3c0.1,0.8,0.3,1.4,0.6,1.8s0.6,0.7,1.1,1
				s1,0.4,1.6,0.4c0.7,0,1.2-0.2,1.6-0.5s0.6-0.8,0.6-1.3c0-0.3-0.1-0.6-0.2-0.8s-0.4-0.5-0.7-0.8c-0.2-0.2-0.8-0.5-1.8-1.1
				c-1-0.5-1.6-1-2.1-1.3s-0.7-0.7-0.9-1.1s-0.3-0.8-0.3-1.3c0-0.8,0.3-1.5,0.9-2.1s1.4-0.9,2.4-0.9c0.6,0,1.2,0.1,1.9,0.4
				c0.3,0.1,0.5,0.2,0.7,0.2c0.1,0,0.3,0,0.4-0.1c0.1-0.1,0.2-0.3,0.2-0.5H334.5z"/>
			<path d="M346.5,194.2l0.3,3.8h-0.3c-0.3-1.1-0.8-2-1.5-2.5c-0.6-0.5-1.4-0.8-2.3-0.8c-0.7,0-1.4,0.2-2,0.6s-1.1,1-1.4,1.8
				c-0.3,0.8-0.5,1.9-0.5,3.1c0,1,0.2,1.9,0.5,2.6c0.3,0.7,0.8,1.3,1.5,1.7c0.7,0.4,1.4,0.6,2.2,0.6c0.7,0,1.4-0.2,1.9-0.5
				c0.6-0.3,1.2-0.9,1.8-1.9l0.3,0.2c-0.6,1-1.2,1.7-2,2.2s-1.6,0.7-2.7,0.7c-1.9,0-3.3-0.7-4.3-2.1c-0.8-1-1.1-2.2-1.1-3.6
				c0-1.1,0.3-2.2,0.8-3.1c0.5-0.9,1.2-1.7,2.1-2.2s1.8-0.8,2.9-0.8c0.8,0,1.6,0.2,2.4,0.6c0.2,0.1,0.4,0.2,0.5,0.2
				c0.1,0,0.3-0.1,0.4-0.2c0.1-0.1,0.2-0.4,0.3-0.6H346.5z"/>
			<path d="M355.3,202h-4.3l-0.8,1.8c-0.2,0.4-0.3,0.8-0.3,1c0,0.2,0.1,0.3,0.2,0.5c0.2,0.1,0.5,0.2,1.1,0.3v0.3h-3.5v-0.3
				c0.5-0.1,0.8-0.2,0.9-0.3c0.3-0.3,0.6-0.8,0.9-1.6l4-9.3h0.3l3.9,9.4c0.3,0.8,0.6,1.2,0.9,1.5c0.3,0.2,0.6,0.3,1.1,0.4v0.3h-4.4
				v-0.3c0.4,0,0.8-0.1,0.9-0.2s0.2-0.3,0.2-0.5c0-0.2-0.1-0.6-0.3-1.2L355.3,202z M355.1,201.4l-1.9-4.5l-2,4.5H355.1z"/>
			<path d="M369.6,202.6l0.3,0.1l-1,3.1h-8.7v-0.3h0.4c0.5,0,0.8-0.2,1-0.5c0.1-0.2,0.2-0.6,0.2-1.2v-7.3c0-0.7-0.1-1.1-0.2-1.3
				c-0.2-0.2-0.5-0.4-1-0.4h-0.4v-0.3h5.1v0.3c-0.6,0-1,0.1-1.3,0.2c-0.2,0.1-0.4,0.3-0.5,0.4c-0.1,0.2-0.1,0.6-0.1,1.3v7.1
				c0,0.5,0,0.8,0.1,0.9c0.1,0.1,0.2,0.2,0.3,0.3c0.1,0.1,0.6,0.1,1.3,0.1h0.8c0.9,0,1.5-0.1,1.8-0.2c0.3-0.1,0.7-0.4,1-0.7
				C369,203.8,369.3,203.3,369.6,202.6z"/>
			<path d="M373.8,195.1v4.4h2.5c0.6,0,1.1-0.1,1.3-0.3c0.3-0.3,0.4-0.7,0.5-1.3h0.3v3.9H378c-0.1-0.5-0.2-0.9-0.2-1.1
				c-0.1-0.2-0.3-0.3-0.5-0.5c-0.2-0.1-0.6-0.2-1-0.2h-2.5v3.7c0,0.5,0,0.8,0.1,0.9c0,0.1,0.1,0.2,0.2,0.3s0.3,0.1,0.6,0.1h1.9
				c0.6,0,1.1,0,1.4-0.1s0.6-0.3,0.8-0.5c0.3-0.3,0.7-0.9,1.1-1.6h0.3l-1,2.8h-8.7v-0.3h0.4c0.3,0,0.5-0.1,0.8-0.2
				c0.2-0.1,0.3-0.2,0.4-0.4c0.1-0.2,0.1-0.5,0.1-1.1v-7.3c0-0.7-0.1-1.2-0.2-1.3c-0.2-0.2-0.5-0.3-1-0.3h-0.4v-0.3h8.7l0.1,2.5
				h-0.3c-0.1-0.6-0.2-1-0.4-1.2c-0.1-0.2-0.3-0.4-0.6-0.5c-0.2-0.1-0.6-0.1-1.2-0.1H373.8z"/>
		</g>
	</g>
</g>
<g>
	<path d="M515.6,47.4l0.3,3.8h-0.3c-0.3-1.1-0.8-2-1.5-2.5c-0.6-0.5-1.4-0.8-2.3-0.8c-0.7,0-1.4,0.2-2,0.6c-0.6,0.4-1.1,1-1.4,1.8
		c-0.3,0.8-0.5,1.9-0.5,3.1c0,1,0.2,1.9,0.5,2.6c0.3,0.7,0.8,1.3,1.5,1.7c0.7,0.4,1.4,0.6,2.2,0.6c0.7,0,1.4-0.2,1.9-0.5
		c0.6-0.3,1.2-0.9,1.8-1.9l0.3,0.2c-0.6,1-1.2,1.7-2,2.2s-1.6,0.7-2.7,0.7c-1.9,0-3.3-0.7-4.3-2.1c-0.8-1-1.1-2.2-1.1-3.6
		c0-1.1,0.3-2.2,0.8-3.1c0.5-0.9,1.2-1.7,2.1-2.2c0.9-0.5,1.8-0.8,2.9-0.8c0.8,0,1.6,0.2,2.4,0.6c0.2,0.1,0.4,0.2,0.5,0.2
		c0.1,0,0.3-0.1,0.4-0.2c0.1-0.1,0.2-0.4,0.3-0.6H515.6z"/>
	<path d="M522.9,47.4c1.5,0,2.7,0.6,3.8,1.7c1.1,1.1,1.6,2.5,1.6,4.2c0,1.7-0.5,3.1-1.6,4.3c-1.1,1.1-2.4,1.7-3.9,1.7
		c-1.5,0-2.8-0.6-3.9-1.7s-1.6-2.5-1.6-4.3c0-1.8,0.6-3.2,1.8-4.4C520.2,47.9,521.4,47.4,522.9,47.4z M522.7,48
		c-1,0-1.8,0.4-2.4,1.1c-0.8,0.9-1.1,2.3-1.1,4.1c0,1.8,0.4,3.3,1.2,4.2c0.6,0.8,1.4,1.1,2.4,1.1c1.1,0,1.9-0.4,2.6-1.2s1-2.1,1-3.9
		c0-1.9-0.4-3.4-1.1-4.3C524.6,48.4,523.8,48,522.7,48z"/>
	<path d="M528.7,47.6h3l6.9,8.4v-6.5c0-0.7-0.1-1.1-0.2-1.3c-0.2-0.2-0.5-0.3-1-0.3H537v-0.3h3.9v0.3h-0.4c-0.5,0-0.8,0.1-1,0.4
		c-0.1,0.2-0.2,0.6-0.2,1.2v9.5h-0.3l-7.4-9.1v6.9c0,0.7,0.1,1.1,0.2,1.3c0.2,0.2,0.5,0.3,1,0.3h0.4v0.3h-3.9v-0.3h0.4
		c0.5,0,0.8-0.1,1-0.4c0.1-0.2,0.2-0.6,0.2-1.2v-7.8c-0.3-0.4-0.6-0.6-0.7-0.8c-0.2-0.1-0.4-0.2-0.7-0.3c-0.2,0-0.4-0.1-0.7-0.1
		V47.6z"/>
	<path d="M549,47.4v3.9h-0.3c-0.1-0.7-0.3-1.3-0.5-1.8s-0.6-0.8-1.1-1.1c-0.5-0.3-1-0.4-1.5-0.4c-0.6,0-1,0.2-1.4,0.5
		c-0.4,0.4-0.6,0.8-0.6,1.2c0,0.3,0.1,0.7,0.4,0.9c0.3,0.4,1.2,1,2.4,1.7c1,0.6,1.8,1,2.2,1.3c0.4,0.3,0.7,0.7,0.9,1.1
		s0.3,0.8,0.3,1.3c0,0.9-0.3,1.6-1,2.2c-0.7,0.6-1.5,0.9-2.5,0.9c-0.3,0-0.6,0-0.9-0.1c-0.2,0-0.5-0.1-1.1-0.3
		c-0.5-0.2-0.9-0.3-1-0.3c-0.1,0-0.2,0-0.3,0.1s-0.1,0.3-0.2,0.5h-0.3v-3.9h0.3c0.1,0.8,0.3,1.4,0.6,1.8c0.2,0.4,0.6,0.7,1.1,1
		s1,0.4,1.6,0.4c0.7,0,1.2-0.2,1.6-0.5s0.6-0.8,0.6-1.3c0-0.3-0.1-0.6-0.2-0.8s-0.4-0.5-0.7-0.8c-0.2-0.2-0.8-0.5-1.8-1.1
		c-1-0.5-1.6-1-2.1-1.3s-0.7-0.7-0.9-1.1s-0.3-0.8-0.3-1.3c0-0.8,0.3-1.5,0.9-2.1c0.6-0.6,1.4-0.9,2.4-0.9c0.6,0,1.2,0.1,1.9,0.4
		c0.3,0.1,0.5,0.2,0.7,0.2c0.1,0,0.3,0,0.4-0.1c0.1-0.1,0.2-0.3,0.2-0.5H549z"/>
	<path d="M560.5,47.6l0.1,2.6h-0.3c-0.1-0.5-0.1-0.8-0.2-1c-0.2-0.3-0.4-0.6-0.7-0.7c-0.3-0.2-0.7-0.2-1.1-0.2h-1.6v8.6
		c0,0.7,0.1,1.1,0.2,1.3c0.2,0.2,0.5,0.3,1,0.3h0.4v0.3h-4.8v-0.3h0.4c0.5,0,0.8-0.1,1-0.4c0.1-0.2,0.2-0.6,0.2-1.2v-8.6h-1.4
		c-0.5,0-0.9,0-1.1,0.1c-0.3,0.1-0.5,0.3-0.7,0.6c-0.2,0.3-0.3,0.7-0.4,1.2h-0.3l0.1-2.6H560.5z"/>
	<path d="M572.5,58.9h-3l-3.8-5.3c-0.3,0-0.5,0-0.7,0c-0.1,0-0.1,0-0.2,0c-0.1,0-0.2,0-0.3,0v3.3c0,0.7,0.1,1.1,0.2,1.3
		c0.2,0.2,0.5,0.4,0.9,0.4h0.4v0.3h-4.8v-0.3h0.4c0.5,0,0.8-0.2,1-0.5c0.1-0.2,0.2-0.6,0.2-1.2v-7.3c0-0.7-0.1-1.1-0.2-1.3
		c-0.2-0.2-0.5-0.4-1-0.4h-0.4v-0.3h4.1c1.2,0,2.1,0.1,2.6,0.3c0.6,0.2,1,0.5,1.4,1c0.4,0.5,0.6,1,0.6,1.7c0,0.7-0.2,1.3-0.7,1.8
		s-1.1,0.9-2.1,1.1l2.3,3.2c0.5,0.7,1,1.2,1.4,1.5s0.9,0.4,1.5,0.5V58.9z M564.5,53.1c0.1,0,0.2,0,0.3,0c0.1,0,0.1,0,0.2,0
		c1.1,0,1.9-0.2,2.4-0.7s0.8-1.1,0.8-1.8c0-0.7-0.2-1.3-0.7-1.7c-0.4-0.4-1-0.7-1.7-0.7c-0.3,0-0.8,0.1-1.3,0.2V53.1z"/>
	<path d="M580.4,47.9v-0.3h4v0.3H584c-0.4,0-0.8,0.2-1,0.6c-0.1,0.2-0.2,0.6-0.2,1.2v4.6c0,1.1-0.1,2-0.3,2.6
		c-0.2,0.6-0.7,1.2-1.3,1.6c-0.7,0.4-1.5,0.7-2.7,0.7c-1.2,0-2.2-0.2-2.8-0.6c-0.6-0.4-1.1-1-1.4-1.7c-0.2-0.5-0.3-1.4-0.3-2.8v-4.4
		c0-0.7-0.1-1.1-0.3-1.4s-0.5-0.3-0.9-0.3h-0.4v-0.3h4.9v0.3h-0.4c-0.5,0-0.8,0.1-1,0.4c-0.1,0.2-0.2,0.6-0.2,1.2v4.9
		c0,0.4,0,0.9,0.1,1.5s0.2,1,0.4,1.3s0.5,0.6,0.9,0.8c0.4,0.2,0.9,0.3,1.5,0.3c0.7,0,1.4-0.2,2-0.5c0.6-0.3,1-0.7,1.2-1.2
		c0.2-0.5,0.3-1.3,0.3-2.5v-4.6c0-0.7-0.1-1.1-0.2-1.3c-0.2-0.2-0.5-0.4-1-0.4H580.4z"/>
	<path d="M594.8,47.4l0.3,3.8h-0.3c-0.3-1.1-0.8-2-1.5-2.5c-0.6-0.5-1.4-0.8-2.3-0.8c-0.7,0-1.4,0.2-2,0.6c-0.6,0.4-1.1,1-1.4,1.8
		c-0.3,0.8-0.5,1.9-0.5,3.1c0,1,0.2,1.9,0.5,2.6c0.3,0.7,0.8,1.3,1.5,1.7c0.7,0.4,1.4,0.6,2.2,0.6c0.7,0,1.4-0.2,1.9-0.5
		c0.6-0.3,1.2-0.9,1.8-1.9l0.3,0.2c-0.6,1-1.2,1.7-2,2.2s-1.6,0.7-2.7,0.7c-1.9,0-3.3-0.7-4.3-2.1c-0.8-1-1.1-2.2-1.1-3.6
		c0-1.1,0.3-2.2,0.8-3.1c0.5-0.9,1.2-1.7,2.1-2.2c0.9-0.5,1.8-0.8,2.9-0.8c0.8,0,1.6,0.2,2.4,0.6c0.2,0.1,0.4,0.2,0.5,0.2
		c0.1,0,0.3-0.1,0.4-0.2c0.1-0.1,0.2-0.4,0.3-0.6H594.8z"/>
	<path d="M605.7,47.6l0.1,2.6h-0.3c-0.1-0.5-0.1-0.8-0.2-1c-0.2-0.3-0.4-0.6-0.7-0.7c-0.3-0.2-0.7-0.2-1.1-0.2h-1.6v8.6
		c0,0.7,0.1,1.1,0.2,1.3c0.2,0.2,0.5,0.3,1,0.3h0.4v0.3h-4.8v-0.3h0.4c0.5,0,0.8-0.1,1-0.4c0.1-0.2,0.2-0.6,0.2-1.2v-8.6h-1.4
		c-0.5,0-0.9,0-1.1,0.1c-0.3,0.1-0.5,0.3-0.7,0.6c-0.2,0.3-0.3,0.7-0.4,1.2h-0.3l0.1-2.6H605.7z"/>
	<path d="M617.4,58.9l-4.3-9.5v7.5c0,0.7,0.1,1.1,0.2,1.3c0.2,0.2,0.5,0.3,1,0.3h0.4v0.3h-3.9v-0.3h0.4c0.5,0,0.8-0.1,1-0.4
		c0.1-0.2,0.2-0.6,0.2-1.2v-7.4c0-0.5-0.1-0.9-0.2-1.1c-0.1-0.2-0.2-0.3-0.4-0.4c-0.2-0.1-0.5-0.2-1-0.2v-0.3h3.2l4.1,8.8l4-8.8h3.2
		v0.3h-0.4c-0.5,0-0.8,0.1-1,0.4c-0.1,0.2-0.2,0.6-0.2,1.2v7.4c0,0.7,0.1,1.1,0.2,1.3c0.2,0.2,0.5,0.3,1,0.3h0.4v0.3h-4.8v-0.3h0.4
		c0.5,0,0.8-0.1,1-0.4c0.1-0.2,0.2-0.6,0.2-1.2v-7.5l-4.3,9.5H617.4z"/>
	<path d="M629.1,52.8h5.2v-3.2c0-0.6,0-1-0.1-1.1c-0.1-0.1-0.2-0.3-0.3-0.4c-0.2-0.1-0.5-0.2-0.8-0.2h-0.4v-0.3h4.8v0.3h-0.4
		c-0.3,0-0.5,0.1-0.8,0.2c-0.2,0.1-0.3,0.2-0.4,0.4c-0.1,0.2-0.1,0.5-0.1,1.1v7.3c0,0.6,0,0.9,0.1,1.1c0.1,0.1,0.2,0.3,0.3,0.4
		c0.2,0.1,0.5,0.2,0.8,0.2h0.4v0.3h-4.8v-0.3h0.4c0.5,0,0.8-0.1,1-0.4c0.1-0.2,0.2-0.6,0.2-1.3v-3.4h-5.2v3.4c0,0.6,0,0.9,0.1,1.1
		c0.1,0.1,0.2,0.3,0.3,0.4c0.2,0.1,0.5,0.2,0.8,0.2h0.4v0.3h-4.8v-0.3h0.4c0.5,0,0.8-0.1,1-0.4c0.1-0.2,0.2-0.6,0.2-1.3v-7.3
		c0-0.6,0-1-0.1-1.1c-0.1-0.1-0.2-0.3-0.3-0.4c-0.2-0.1-0.5-0.2-0.8-0.2h-0.4v-0.3h4.8v0.3h-0.4c-0.3,0-0.5,0.1-0.8,0.2
		c-0.2,0.1-0.3,0.2-0.4,0.4c-0.1,0.2-0.1,0.5-0.1,1.1V52.8z"/>
	<path d="M649.8,56.7l-0.8,2.2h-6.6v-0.3c2-1.8,3.3-3.2,4.1-4.4c0.8-1.1,1.2-2.2,1.2-3.1c0-0.7-0.2-1.3-0.7-1.8s-1-0.7-1.6-0.7
		c-0.6,0-1,0.2-1.5,0.5c-0.4,0.3-0.8,0.8-1,1.4h-0.3c0.1-1,0.5-1.8,1.1-2.4c0.6-0.5,1.3-0.8,2.1-0.8c0.9,0,1.7,0.3,2.3,0.9
		s0.9,1.3,0.9,2.1c0,0.6-0.1,1.1-0.4,1.7c-0.4,0.9-1.1,1.8-2,2.8c-1.4,1.5-2.2,2.4-2.6,2.7h2.9c0.6,0,1,0,1.3-0.1s0.5-0.1,0.7-0.3
		c0.2-0.1,0.4-0.3,0.5-0.6H649.8z"/>
	<path d="M513.2,67.8v3.9h-0.3c-0.1-0.7-0.3-1.3-0.5-1.8s-0.6-0.8-1.1-1.1c-0.5-0.3-1-0.4-1.5-0.4c-0.6,0-1,0.2-1.4,0.5
		c-0.4,0.4-0.6,0.8-0.6,1.2c0,0.3,0.1,0.7,0.4,0.9c0.3,0.4,1.2,1,2.4,1.7c1,0.6,1.8,1,2.2,1.3c0.4,0.3,0.7,0.7,0.9,1.1
		s0.3,0.8,0.3,1.3c0,0.9-0.3,1.6-1,2.2c-0.7,0.6-1.5,0.9-2.5,0.9c-0.3,0-0.6,0-0.9-0.1c-0.2,0-0.5-0.1-1.1-0.3
		c-0.5-0.2-0.9-0.3-1-0.3c-0.1,0-0.2,0-0.3,0.1s-0.1,0.3-0.2,0.5h-0.3v-3.9h0.3c0.1,0.8,0.3,1.4,0.6,1.8c0.2,0.4,0.6,0.7,1.1,1
		s1,0.4,1.6,0.4c0.7,0,1.2-0.2,1.6-0.5s0.6-0.8,0.6-1.3c0-0.3-0.1-0.6-0.2-0.8s-0.4-0.5-0.7-0.8c-0.2-0.2-0.8-0.5-1.8-1.1
		c-1-0.5-1.6-1-2.1-1.3s-0.7-0.7-0.9-1.1s-0.3-0.8-0.3-1.3c0-0.8,0.3-1.5,0.9-2.1c0.6-0.6,1.4-0.9,2.4-0.9c0.6,0,1.2,0.1,1.9,0.4
		c0.3,0.1,0.5,0.2,0.7,0.2c0.1,0,0.3,0,0.4-0.1c0.1-0.1,0.2-0.3,0.2-0.5H513.2z"/>
	<path d="M524.6,68l0.1,2.6h-0.3c-0.1-0.5-0.1-0.8-0.2-1c-0.2-0.3-0.4-0.6-0.7-0.7c-0.3-0.2-0.7-0.2-1.1-0.2h-1.6v8.6
		c0,0.7,0.1,1.1,0.2,1.3c0.2,0.2,0.5,0.3,1,0.3h0.4v0.3h-4.8V79h0.4c0.5,0,0.8-0.1,1-0.4c0.1-0.2,0.2-0.6,0.2-1.2v-8.6h-1.4
		c-0.5,0-0.9,0-1.1,0.1c-0.3,0.1-0.5,0.3-0.7,0.6c-0.2,0.3-0.3,0.7-0.4,1.2h-0.3l0.1-2.6H524.6z"/>
	<path d="M532.9,75.5h-4.3l-0.8,1.8c-0.2,0.4-0.3,0.8-0.3,1c0,0.2,0.1,0.3,0.2,0.5c0.2,0.1,0.5,0.2,1.1,0.3v0.3h-3.5V79
		c0.5-0.1,0.8-0.2,0.9-0.3c0.3-0.3,0.6-0.8,0.9-1.6l4-9.3h0.3l3.9,9.4c0.3,0.8,0.6,1.2,0.9,1.5c0.3,0.2,0.6,0.3,1.1,0.4v0.3h-4.4V79
		c0.4,0,0.8-0.1,0.9-0.2s0.2-0.3,0.2-0.5c0-0.2-0.1-0.6-0.3-1.2L532.9,75.5z M532.7,74.9l-1.9-4.5l-2,4.5H532.7z"/>
	<path d="M539.5,77.7c0.3,0,0.5,0.1,0.7,0.3c0.2,0.2,0.3,0.4,0.3,0.7s-0.1,0.5-0.3,0.7c-0.2,0.2-0.4,0.3-0.7,0.3s-0.5-0.1-0.7-0.3
		c-0.2-0.2-0.3-0.4-0.3-0.7c0-0.3,0.1-0.5,0.3-0.7S539.3,77.7,539.5,77.7z"/>
	<path d="M553.7,77.1l-0.8,2.2h-6.6V79c2-1.8,3.3-3.2,4.1-4.4c0.8-1.1,1.2-2.2,1.2-3.1c0-0.7-0.2-1.3-0.7-1.8s-1-0.7-1.6-0.7
		c-0.6,0-1,0.2-1.5,0.5c-0.4,0.3-0.8,0.8-1,1.4h-0.3c0.1-1,0.5-1.8,1.1-2.4c0.6-0.5,1.3-0.8,2.1-0.8c0.9,0,1.7,0.3,2.3,0.9
		s0.9,1.3,0.9,2.1c0,0.6-0.1,1.1-0.4,1.7c-0.4,0.9-1.1,1.8-2,2.8c-1.4,1.5-2.2,2.4-2.6,2.7h2.9c0.6,0,1,0,1.3-0.1s0.5-0.1,0.7-0.3
		c0.2-0.1,0.4-0.3,0.5-0.6H553.7z"/>
	<path d="M558.8,78.1V74h-4.1v-0.7h4.1v-4.1h0.7v4.1h4.1V74h-4.1v4.1H558.8z"/>
	<path d="M571.9,75.1v1.2h-1.5v3H569v-3h-4.8v-1.1l5.2-7.5h0.9v7.3H571.9z M569,75.1v-5.6l-3.9,5.6H569z"/>
	<path d="M574.2,68h6v0.3l-3.7,11.2h-0.9l3.4-10.1h-3.1c-0.6,0-1.1,0.1-1.3,0.2c-0.5,0.3-0.8,0.6-1.1,1.2l-0.2-0.1L574.2,68z"/>
	<path d="M583.1,77.7c0.3,0,0.5,0.1,0.7,0.3c0.2,0.2,0.3,0.4,0.3,0.7s-0.1,0.5-0.3,0.7c-0.2,0.2-0.4,0.3-0.7,0.3s-0.5-0.1-0.7-0.3
		c-0.2-0.2-0.3-0.4-0.3-0.7c0-0.3,0.1-0.5,0.3-0.7S582.8,77.7,583.1,77.7z"/>
	<path d="M592.5,68l-0.6,1.4h-3.4l-0.7,1.5c1.5,0.2,2.6,0.8,3.5,1.6c0.7,0.8,1.1,1.6,1.1,2.7c0,0.6-0.1,1.1-0.4,1.6
		s-0.5,0.9-0.9,1.3s-0.8,0.6-1.2,0.9c-0.6,0.3-1.3,0.5-2,0.5c-0.7,0-1.2-0.1-1.5-0.3c-0.3-0.2-0.5-0.5-0.5-0.8
		c0-0.2,0.1-0.3,0.2-0.4c0.1-0.1,0.3-0.2,0.5-0.2c0.1,0,0.3,0,0.4,0.1c0.1,0,0.3,0.2,0.6,0.3c0.4,0.3,0.8,0.4,1.3,0.4
		c0.6,0,1.2-0.2,1.7-0.7c0.5-0.5,0.7-1.1,0.7-1.8c0-0.7-0.2-1.3-0.7-1.9c-0.4-0.6-1-1-1.8-1.4c-0.6-0.2-1.4-0.4-2.5-0.4l2.2-4.4
		H592.5z"/>
	<path d="M601,68l-0.6,1.4H597l-0.7,1.5c1.5,0.2,2.6,0.8,3.5,1.6c0.7,0.8,1.1,1.6,1.1,2.7c0,0.6-0.1,1.1-0.4,1.6s-0.5,0.9-0.9,1.3
		s-0.8,0.6-1.2,0.9c-0.6,0.3-1.3,0.5-2,0.5c-0.7,0-1.2-0.1-1.5-0.3c-0.3-0.2-0.5-0.5-0.5-0.8c0-0.2,0.1-0.3,0.2-0.4
		c0.1-0.1,0.3-0.2,0.5-0.2c0.1,0,0.3,0,0.4,0.1c0.1,0,0.3,0.2,0.6,0.3c0.4,0.3,0.8,0.4,1.3,0.4c0.6,0,1.2-0.2,1.7-0.7
		c0.5-0.5,0.7-1.1,0.7-1.8c0-0.7-0.2-1.3-0.7-1.9c-0.4-0.6-1-1-1.8-1.4c-0.6-0.2-1.4-0.4-2.5-0.4L597,68H601z"/>
</g>
<g>
	<path d="M70.8,38.1l0.3,3.8h-0.3c-0.3-1.1-0.8-2-1.5-2.5s-1.4-0.8-2.3-0.8c-0.7,0-1.4,0.2-2,0.6c-0.6,0.4-1.1,1-1.4,1.8
		s-0.5,1.9-0.5,3.1c0,1,0.2,1.9,0.5,2.6c0.3,0.7,0.8,1.3,1.5,1.7c0.7,0.4,1.4,0.6,2.2,0.6c0.7,0,1.4-0.2,1.9-0.5
		c0.6-0.3,1.2-0.9,1.8-1.9l0.3,0.2c-0.6,1-1.2,1.7-2,2.2s-1.6,0.7-2.7,0.7c-1.9,0-3.3-0.7-4.3-2.1c-0.8-1-1.1-2.2-1.1-3.6
		c0-1.1,0.3-2.2,0.8-3.1c0.5-0.9,1.2-1.7,2.1-2.2c0.9-0.5,1.8-0.8,2.9-0.8c0.8,0,1.6,0.2,2.4,0.6c0.2,0.1,0.4,0.2,0.5,0.2
		c0.1,0,0.3-0.1,0.4-0.2c0.1-0.1,0.2-0.4,0.3-0.6H70.8z"/>
	<path d="M78.1,38.1c1.5,0,2.7,0.6,3.8,1.7c1.1,1.1,1.6,2.5,1.6,4.2c0,1.7-0.5,3.1-1.6,4.3s-2.4,1.7-3.9,1.7c-1.5,0-2.8-0.6-3.9-1.7
		s-1.6-2.5-1.6-4.3c0-1.8,0.6-3.2,1.8-4.4C75.4,38.6,76.6,38.1,78.1,38.1z M77.9,38.7c-1,0-1.8,0.4-2.4,1.1
		c-0.8,0.9-1.1,2.3-1.1,4.1c0,1.8,0.4,3.3,1.2,4.2c0.6,0.8,1.4,1.1,2.4,1.1c1.1,0,1.9-0.4,2.6-1.2s1-2.1,1-3.9
		c0-1.9-0.4-3.4-1.1-4.3C79.8,39.1,79,38.7,77.9,38.7z"/>
	<path d="M83.9,38.4h3l6.9,8.4v-6.5c0-0.7-0.1-1.1-0.2-1.3c-0.2-0.2-0.5-0.3-1-0.3h-0.4v-0.3h3.9v0.3h-0.4c-0.5,0-0.8,0.1-1,0.4
		c-0.1,0.2-0.2,0.6-0.2,1.2v9.5h-0.3l-7.4-9.1v6.9c0,0.7,0.1,1.1,0.2,1.3c0.2,0.2,0.5,0.3,1,0.3h0.4v0.3h-3.9v-0.3h0.4
		c0.5,0,0.8-0.1,1-0.4c0.1-0.2,0.2-0.6,0.2-1.2v-7.8c-0.3-0.4-0.6-0.6-0.7-0.8c-0.2-0.1-0.4-0.2-0.7-0.3c-0.2,0-0.4-0.1-0.7-0.1
		V38.4z"/>
	<path d="M104.2,38.1V42h-0.3c-0.1-0.7-0.3-1.3-0.5-1.8s-0.6-0.8-1.1-1.1c-0.5-0.3-1-0.4-1.5-0.4c-0.6,0-1,0.2-1.4,0.5
		c-0.4,0.4-0.6,0.8-0.6,1.2c0,0.3,0.1,0.7,0.4,0.9c0.3,0.4,1.2,1,2.4,1.7c1,0.6,1.8,1,2.1,1.3c0.4,0.3,0.7,0.7,0.9,1.1
		c0.2,0.4,0.3,0.8,0.3,1.3c0,0.9-0.3,1.6-1,2.2c-0.7,0.6-1.5,0.9-2.5,0.9c-0.3,0-0.6,0-0.9-0.1c-0.2,0-0.5-0.1-1.1-0.3
		c-0.5-0.2-0.9-0.3-1-0.3c-0.1,0-0.2,0-0.3,0.1s-0.1,0.3-0.2,0.5h-0.3V46h0.3c0.1,0.8,0.3,1.4,0.6,1.8c0.2,0.4,0.6,0.7,1.1,1
		c0.5,0.3,1,0.4,1.6,0.4c0.7,0,1.2-0.2,1.6-0.5c0.4-0.4,0.6-0.8,0.6-1.3c0-0.3-0.1-0.6-0.2-0.8s-0.4-0.5-0.7-0.8
		c-0.2-0.2-0.8-0.5-1.8-1.1c-1-0.5-1.6-1-2.1-1.3c-0.4-0.3-0.7-0.7-0.9-1.1s-0.3-0.8-0.3-1.3c0-0.8,0.3-1.5,0.9-2.1
		c0.6-0.6,1.4-0.9,2.4-0.9c0.6,0,1.2,0.1,1.9,0.4c0.3,0.1,0.5,0.2,0.7,0.2c0.1,0,0.3,0,0.4-0.1c0.1-0.1,0.2-0.3,0.2-0.5H104.2z"/>
	<path d="M115.6,38.4l0.1,2.6h-0.3c-0.1-0.5-0.1-0.8-0.2-1c-0.2-0.3-0.4-0.6-0.7-0.7c-0.3-0.2-0.7-0.2-1.1-0.2h-1.6v8.6
		c0,0.7,0.1,1.1,0.2,1.3c0.2,0.2,0.5,0.3,1,0.3h0.4v0.3h-4.8v-0.3h0.4c0.5,0,0.8-0.1,1-0.4c0.1-0.2,0.2-0.6,0.2-1.2v-8.6h-1.4
		c-0.5,0-0.9,0-1.1,0.1c-0.3,0.1-0.5,0.3-0.7,0.6c-0.2,0.3-0.3,0.7-0.4,1.2h-0.3l0.1-2.6H115.6z"/>
	<path d="M127.7,49.6h-3l-3.8-5.3c-0.3,0-0.5,0-0.7,0c-0.1,0-0.1,0-0.2,0c-0.1,0-0.2,0-0.3,0v3.3c0,0.7,0.1,1.1,0.2,1.3
		c0.2,0.2,0.5,0.4,0.9,0.4h0.4v0.3h-4.8v-0.3h0.4c0.5,0,0.8-0.2,1-0.5c0.1-0.2,0.2-0.6,0.2-1.2v-7.3c0-0.7-0.1-1.1-0.2-1.3
		c-0.2-0.2-0.5-0.4-1-0.4h-0.4v-0.3h4.1c1.2,0,2.1,0.1,2.6,0.3c0.6,0.2,1,0.5,1.4,1c0.4,0.5,0.6,1,0.6,1.7c0,0.7-0.2,1.3-0.7,1.8
		s-1.1,0.9-2.1,1.1l2.3,3.2c0.5,0.7,1,1.2,1.4,1.5c0.4,0.2,0.9,0.4,1.5,0.5V49.6z M119.7,43.8c0.1,0,0.2,0,0.3,0c0.1,0,0.1,0,0.2,0
		c1.1,0,1.9-0.2,2.4-0.7s0.8-1.1,0.8-1.8c0-0.7-0.2-1.3-0.7-1.7c-0.4-0.4-1-0.7-1.7-0.7c-0.3,0-0.8,0.1-1.3,0.2V43.8z"/>
	<path d="M135.6,38.7v-0.3h4v0.3h-0.4c-0.4,0-0.8,0.2-1,0.6c-0.1,0.2-0.2,0.6-0.2,1.2V45c0,1.1-0.1,2-0.3,2.6
		c-0.2,0.6-0.7,1.2-1.3,1.6c-0.7,0.4-1.5,0.7-2.7,0.7c-1.2,0-2.2-0.2-2.8-0.6c-0.6-0.4-1.1-1-1.4-1.7c-0.2-0.5-0.3-1.4-0.3-2.8v-4.4
		c0-0.7-0.1-1.1-0.3-1.4s-0.5-0.3-0.9-0.3h-0.4v-0.3h4.9v0.3H132c-0.5,0-0.8,0.1-1,0.4c-0.1,0.2-0.2,0.6-0.2,1.2v4.9
		c0,0.4,0,0.9,0.1,1.5s0.2,1,0.4,1.3c0.2,0.3,0.5,0.6,0.9,0.8c0.4,0.2,0.9,0.3,1.5,0.3c0.7,0,1.4-0.2,2-0.5c0.6-0.3,1-0.7,1.2-1.2
		c0.2-0.5,0.3-1.3,0.3-2.5v-4.6c0-0.7-0.1-1.1-0.2-1.3c-0.2-0.2-0.5-0.4-1-0.4H135.6z"/>
	<path d="M150,38.1l0.3,3.8H150c-0.3-1.1-0.8-2-1.5-2.5s-1.4-0.8-2.3-0.8c-0.7,0-1.4,0.2-2,0.6c-0.6,0.4-1.1,1-1.4,1.8
		s-0.5,1.9-0.5,3.1c0,1,0.2,1.9,0.5,2.6c0.3,0.7,0.8,1.3,1.5,1.7c0.7,0.4,1.4,0.6,2.2,0.6c0.7,0,1.4-0.2,1.9-0.5
		c0.6-0.3,1.2-0.9,1.8-1.9l0.3,0.2c-0.6,1-1.2,1.7-2,2.2s-1.6,0.7-2.7,0.7c-1.9,0-3.3-0.7-4.3-2.1c-0.8-1-1.1-2.2-1.1-3.6
		c0-1.1,0.3-2.2,0.8-3.1c0.5-0.9,1.2-1.7,2.1-2.2c0.9-0.5,1.8-0.8,2.9-0.8c0.8,0,1.6,0.2,2.4,0.6c0.2,0.1,0.4,0.2,0.5,0.2
		c0.1,0,0.3-0.1,0.4-0.2c0.1-0.1,0.2-0.4,0.3-0.6H150z"/>
	<path d="M160.9,38.4L161,41h-0.3c-0.1-0.5-0.1-0.8-0.2-1c-0.2-0.3-0.4-0.6-0.7-0.7c-0.3-0.2-0.7-0.2-1.1-0.2h-1.6v8.6
		c0,0.7,0.1,1.1,0.2,1.3c0.2,0.2,0.5,0.3,1,0.3h0.4v0.3h-4.8v-0.3h0.4c0.5,0,0.8-0.1,1-0.4c0.1-0.2,0.2-0.6,0.2-1.2v-8.6h-1.4
		c-0.5,0-0.9,0-1.1,0.1c-0.3,0.1-0.5,0.3-0.7,0.6c-0.2,0.3-0.3,0.7-0.4,1.2h-0.3l0.1-2.6H160.9z"/>
	<path d="M172.6,49.6l-4.3-9.5v7.5c0,0.7,0.1,1.1,0.2,1.3c0.2,0.2,0.5,0.3,1,0.3h0.4v0.3H166v-0.3h0.4c0.5,0,0.8-0.1,1-0.4
		c0.1-0.2,0.2-0.6,0.2-1.2v-7.4c0-0.5-0.1-0.9-0.2-1.1c-0.1-0.2-0.2-0.3-0.4-0.4c-0.2-0.1-0.5-0.2-1-0.2v-0.3h3.2l4.1,8.8l4-8.8h3.2
		v0.3H180c-0.5,0-0.8,0.1-1,0.4c-0.1,0.2-0.2,0.6-0.2,1.2v7.4c0,0.7,0.1,1.1,0.2,1.3c0.2,0.2,0.5,0.3,1,0.3h0.4v0.3h-4.8v-0.3h0.4
		c0.5,0,0.8-0.1,1-0.4c0.1-0.2,0.2-0.6,0.2-1.2v-7.5l-4.3,9.5H172.6z"/>
	<path d="M184.3,43.6h5.2v-3.2c0-0.6,0-1-0.1-1.1c-0.1-0.1-0.2-0.3-0.3-0.4c-0.2-0.1-0.5-0.2-0.8-0.2h-0.4v-0.3h4.8v0.3h-0.4
		c-0.3,0-0.5,0.1-0.8,0.2c-0.2,0.1-0.3,0.2-0.4,0.4c-0.1,0.2-0.1,0.5-0.1,1.1v7.3c0,0.6,0,0.9,0.1,1.1c0.1,0.1,0.2,0.3,0.3,0.4
		c0.2,0.1,0.5,0.2,0.8,0.2h0.4v0.3h-4.8v-0.3h0.4c0.5,0,0.8-0.1,1-0.4c0.1-0.2,0.2-0.6,0.2-1.3v-3.4h-5.2v3.4c0,0.6,0,0.9,0.1,1.1
		c0.1,0.1,0.2,0.3,0.3,0.4c0.2,0.1,0.5,0.2,0.8,0.2h0.4v0.3h-4.8v-0.3h0.4c0.5,0,0.8-0.1,1-0.4c0.1-0.2,0.2-0.6,0.2-1.3v-7.3
		c0-0.6,0-1-0.1-1.1c-0.1-0.1-0.2-0.3-0.3-0.4c-0.2-0.1-0.5-0.2-0.8-0.2h-0.4v-0.3h4.8v0.3h-0.4c-0.3,0-0.5,0.1-0.8,0.2
		c-0.2,0.1-0.3,0.2-0.4,0.4c-0.1,0.2-0.1,0.5-0.1,1.1V43.6z"/>
	<path d="M199.3,39.5l2.7-1.3h0.3v9.5c0,0.6,0,1,0.1,1.2c0.1,0.2,0.2,0.3,0.3,0.4c0.2,0.1,0.5,0.1,1,0.1v0.3h-4.2v-0.3
		c0.5,0,0.9-0.1,1-0.1c0.2-0.1,0.3-0.2,0.3-0.3c0.1-0.1,0.1-0.5,0.1-1.2v-6.1c0-0.8,0-1.3-0.1-1.6c0-0.2-0.1-0.3-0.2-0.4
		s-0.2-0.1-0.4-0.1c-0.2,0-0.5,0.1-0.9,0.3L199.3,39.5z"/>
	<path d="M66.8,58.5c1.5,0,2.7,0.6,3.8,1.7c1.1,1.1,1.6,2.5,1.6,4.2c0,1.7-0.5,3.1-1.6,4.3s-2.4,1.7-3.9,1.7c-1.5,0-2.8-0.6-3.9-1.7
		s-1.6-2.5-1.6-4.3c0-1.8,0.6-3.2,1.8-4.4C64,59,65.3,58.5,66.8,58.5z M66.6,59.1c-1,0-1.8,0.4-2.4,1.1c-0.8,0.9-1.1,2.3-1.1,4.1
		c0,1.8,0.4,3.3,1.2,4.2c0.6,0.8,1.4,1.1,2.4,1.1c1.1,0,1.9-0.4,2.6-1.2s1-2.1,1-3.9c0-1.9-0.4-3.4-1.1-4.3
		C68.5,59.5,67.7,59.1,66.6,59.1z"/>
	<path d="M84.9,58.8v0.3c-0.4,0.1-0.7,0.2-0.9,0.4c-0.3,0.3-0.6,0.7-0.8,1.2l-3.9,9.6H79l-4.2-9.7c-0.2-0.5-0.4-0.8-0.5-0.9
		c-0.1-0.2-0.3-0.3-0.5-0.4c-0.2-0.1-0.5-0.2-0.8-0.2v-0.3h4.6v0.3c-0.5,0-0.9,0.1-1,0.3s-0.2,0.3-0.2,0.5c0,0.3,0.1,0.7,0.4,1.3
		l2.9,6.6l2.7-6.5c0.3-0.6,0.4-1.1,0.4-1.3c0-0.2-0.1-0.3-0.2-0.5c-0.2-0.1-0.4-0.3-0.8-0.3c0,0-0.1,0-0.1,0v-0.3H84.9z"/>
	<path d="M88.6,59.4v4.4h2.5c0.6,0,1.1-0.1,1.3-0.3c0.3-0.3,0.4-0.7,0.5-1.3h0.3v3.9h-0.3c-0.1-0.5-0.2-0.9-0.2-1.1
		c-0.1-0.2-0.3-0.3-0.5-0.5c-0.2-0.1-0.6-0.2-1-0.2h-2.5v3.7c0,0.5,0,0.8,0.1,0.9c0,0.1,0.1,0.2,0.2,0.3c0.1,0.1,0.3,0.1,0.6,0.1
		h1.9c0.6,0,1.1,0,1.4-0.1s0.6-0.3,0.8-0.5c0.3-0.3,0.7-0.9,1.1-1.6h0.3l-1,2.8h-8.7v-0.3h0.4c0.3,0,0.5-0.1,0.8-0.2
		c0.2-0.1,0.3-0.2,0.4-0.4S87,68.6,87,68v-7.3c0-0.7-0.1-1.2-0.2-1.3c-0.2-0.2-0.5-0.3-1-0.3h-0.4v-0.3h8.7l0.1,2.5h-0.3
		c-0.1-0.6-0.2-1-0.4-1.2c-0.1-0.2-0.3-0.4-0.6-0.5c-0.2-0.1-0.6-0.1-1.2-0.1H88.6z"/>
	<path d="M106.9,70h-3l-3.8-5.3c-0.3,0-0.5,0-0.7,0c-0.1,0-0.1,0-0.2,0c-0.1,0-0.2,0-0.3,0V68c0,0.7,0.1,1.1,0.2,1.3
		c0.2,0.2,0.5,0.4,0.9,0.4h0.4V70h-4.8v-0.3h0.4c0.5,0,0.8-0.2,1-0.5c0.1-0.2,0.2-0.6,0.2-1.2v-7.3c0-0.7-0.1-1.1-0.2-1.3
		c-0.2-0.2-0.5-0.4-1-0.4h-0.4v-0.3h4.1c1.2,0,2.1,0.1,2.6,0.3c0.6,0.2,1,0.5,1.4,1c0.4,0.5,0.6,1,0.6,1.7c0,0.7-0.2,1.3-0.7,1.8
		s-1.1,0.9-2.1,1.1l2.3,3.2c0.5,0.7,1,1.2,1.4,1.5c0.4,0.2,0.9,0.4,1.5,0.5V70z M98.9,64.2c0.1,0,0.2,0,0.3,0c0.1,0,0.1,0,0.2,0
		c1.1,0,1.9-0.2,2.4-0.7s0.8-1.1,0.8-1.8c0-0.7-0.2-1.3-0.7-1.7c-0.4-0.4-1-0.7-1.7-0.7c-0.3,0-0.8,0.1-1.3,0.2V64.2z"/>
	<path d="M114.5,59.4v4.4h2.5c0.6,0,1.1-0.1,1.3-0.3c0.3-0.3,0.4-0.7,0.5-1.3h0.3v3.9h-0.3c-0.1-0.5-0.2-0.9-0.2-1.1
		c-0.1-0.2-0.3-0.3-0.5-0.5c-0.2-0.1-0.6-0.2-1-0.2h-2.5v3.7c0,0.5,0,0.8,0.1,0.9c0,0.1,0.1,0.2,0.2,0.3c0.1,0.1,0.3,0.1,0.6,0.1
		h1.9c0.6,0,1.1,0,1.4-0.1s0.6-0.3,0.8-0.5c0.3-0.3,0.7-0.9,1.1-1.6h0.3l-1,2.8h-8.7v-0.3h0.4c0.3,0,0.5-0.1,0.8-0.2
		c0.2-0.1,0.3-0.2,0.4-0.4s0.1-0.5,0.1-1.1v-7.3c0-0.7-0.1-1.2-0.2-1.3c-0.2-0.2-0.5-0.3-1-0.3h-0.4v-0.3h8.7l0.1,2.5h-0.3
		c-0.1-0.6-0.2-1-0.4-1.2c-0.1-0.2-0.3-0.4-0.6-0.5c-0.2-0.1-0.6-0.1-1.2-0.1H114.5z"/>
	<path d="M128.3,63.8l2.4,3.6c0.7,1,1.2,1.6,1.5,1.9c0.3,0.3,0.7,0.4,1.2,0.4V70h-4.8v-0.3c0.3,0,0.6,0,0.7-0.1
		c0.1,0,0.2-0.1,0.3-0.2c0.1-0.1,0.1-0.2,0.1-0.3c0-0.1,0-0.3-0.1-0.4c0-0.1-0.2-0.3-0.5-0.7l-1.9-2.9l-2.4,3
		c-0.2,0.3-0.4,0.5-0.4,0.6c0,0.1-0.1,0.2-0.1,0.3c0,0.2,0.1,0.3,0.2,0.4s0.4,0.2,0.9,0.2V70h-4v-0.3c0.3,0,0.5-0.1,0.7-0.2
		c0.3-0.1,0.7-0.3,1-0.6c0.3-0.2,0.7-0.6,1.1-1.1l2.7-3.4l-2.2-3.2c-0.6-0.9-1.1-1.5-1.5-1.7c-0.4-0.3-0.9-0.4-1.4-0.4v-0.3h5.2v0.3
		c-0.4,0-0.7,0.1-0.9,0.2c-0.2,0.1-0.2,0.3-0.2,0.4c0,0.2,0.1,0.5,0.4,0.9l1.7,2.6l2-2.5c0.2-0.3,0.4-0.5,0.4-0.6
		c0.1-0.1,0.1-0.2,0.1-0.3s0-0.2-0.1-0.3c-0.1-0.1-0.2-0.2-0.3-0.2c-0.1,0-0.4-0.1-0.8-0.1v-0.3h4v0.3c-0.3,0-0.6,0.1-0.8,0.1
		c-0.3,0.1-0.6,0.3-0.8,0.5s-0.6,0.6-1.1,1.2L128.3,63.8z"/>
	<path d="M138.9,69.7V70H134v-0.3h0.4c0.5,0,0.8-0.1,1-0.4c0.1-0.2,0.2-0.6,0.2-1.3v-7.3c0-0.6,0-0.9-0.1-1.1
		c-0.1-0.1-0.2-0.3-0.3-0.4c-0.2-0.1-0.5-0.2-0.8-0.2H134v-0.3h4.8v0.3h-0.4c-0.5,0-0.8,0.1-1,0.4c-0.1,0.2-0.2,0.6-0.2,1.3V68
		c0,0.6,0,0.9,0.1,1.1c0.1,0.1,0.2,0.3,0.3,0.4c0.2,0.1,0.5,0.2,0.8,0.2H138.9z"/>
	<path d="M147,58.5v3.9h-0.3c-0.1-0.7-0.3-1.3-0.5-1.8s-0.6-0.8-1.1-1.1c-0.5-0.3-1-0.4-1.5-0.4c-0.6,0-1,0.2-1.4,0.5
		c-0.4,0.4-0.6,0.8-0.6,1.2c0,0.3,0.1,0.7,0.4,0.9c0.3,0.4,1.2,1,2.4,1.7c1,0.6,1.8,1,2.1,1.3c0.4,0.3,0.7,0.7,0.9,1.1
		c0.2,0.4,0.3,0.8,0.3,1.3c0,0.9-0.3,1.6-1,2.2c-0.7,0.6-1.5,0.9-2.5,0.9c-0.3,0-0.6,0-0.9-0.1c-0.2,0-0.5-0.1-1.1-0.3
		c-0.5-0.2-0.9-0.3-1-0.3c-0.1,0-0.2,0-0.3,0.1s-0.1,0.3-0.2,0.5h-0.3v-3.9h0.3c0.1,0.8,0.3,1.4,0.6,1.8c0.2,0.4,0.6,0.7,1.1,1
		c0.5,0.3,1,0.4,1.6,0.4c0.7,0,1.2-0.2,1.6-0.5c0.4-0.4,0.6-0.8,0.6-1.3c0-0.3-0.1-0.6-0.2-0.8s-0.4-0.5-0.7-0.8
		c-0.2-0.2-0.8-0.5-1.8-1.1c-1-0.5-1.6-1-2.1-1.3c-0.4-0.3-0.7-0.7-0.9-1.1s-0.3-0.8-0.3-1.3c0-0.8,0.3-1.5,0.9-2.1
		c0.6-0.6,1.4-0.9,2.4-0.9c0.6,0,1.2,0.1,1.9,0.4c0.3,0.1,0.5,0.2,0.7,0.2c0.1,0,0.3,0,0.4-0.1c0.1-0.1,0.2-0.3,0.2-0.5H147z"/>
	<path d="M158.5,58.8l0.1,2.6h-0.3c-0.1-0.5-0.1-0.8-0.2-1c-0.2-0.3-0.4-0.6-0.7-0.7c-0.3-0.2-0.7-0.2-1.1-0.2h-1.6v8.6
		c0,0.7,0.1,1.1,0.2,1.3c0.2,0.2,0.5,0.3,1,0.3h0.4V70h-4.8v-0.3h0.4c0.5,0,0.8-0.1,1-0.4c0.1-0.2,0.2-0.6,0.2-1.2v-8.6h-1.4
		c-0.5,0-0.9,0-1.1,0.1c-0.3,0.1-0.5,0.3-0.7,0.6c-0.2,0.3-0.3,0.7-0.4,1.2h-0.3l0.1-2.6H158.5z"/>
	<path d="M164.3,69.7V70h-4.8v-0.3h0.4c0.5,0,0.8-0.1,1-0.4c0.1-0.2,0.2-0.6,0.2-1.3v-7.3c0-0.6,0-0.9-0.1-1.1
		c-0.1-0.1-0.2-0.3-0.3-0.4c-0.2-0.1-0.5-0.2-0.8-0.2h-0.4v-0.3h4.8v0.3h-0.4c-0.5,0-0.8,0.1-1,0.4c-0.1,0.2-0.2,0.6-0.2,1.3V68
		c0,0.6,0,0.9,0.1,1.1c0.1,0.1,0.2,0.3,0.3,0.4c0.2,0.1,0.5,0.2,0.8,0.2H164.3z"/>
	<path d="M164.5,58.8h3l6.9,8.4v-6.5c0-0.7-0.1-1.1-0.2-1.3c-0.2-0.2-0.5-0.3-1-0.3h-0.4v-0.3h3.9v0.3h-0.4c-0.5,0-0.8,0.1-1,0.4
		c-0.1,0.2-0.2,0.6-0.2,1.2v9.5h-0.3l-7.4-9.1v6.9c0,0.7,0.1,1.1,0.2,1.3c0.2,0.2,0.5,0.3,1,0.3h0.4V70h-3.9v-0.3h0.4
		c0.5,0,0.8-0.1,1-0.4c0.1-0.2,0.2-0.6,0.2-1.2v-7.8c-0.3-0.4-0.6-0.6-0.7-0.8c-0.2-0.1-0.4-0.2-0.7-0.3c-0.2,0-0.4-0.1-0.7-0.1
		V58.8z"/>
	<path d="M187.4,58.5l0.3,3.6h-0.3c-0.3-0.9-0.7-1.6-1.1-2c-0.7-0.6-1.5-1-2.6-1c-1.4,0-2.5,0.6-3.3,1.7c-0.6,1-0.9,2.1-0.9,3.4
		c0,1.1,0.2,2.1,0.6,2.9c0.4,0.9,1,1.5,1.6,1.9c0.7,0.4,1.4,0.6,2.1,0.6c0.4,0,0.8-0.1,1.2-0.2s0.8-0.3,1.1-0.5v-3.3
		c0-0.6,0-0.9-0.1-1.1c-0.1-0.2-0.2-0.3-0.4-0.4c-0.2-0.1-0.5-0.1-0.9-0.1v-0.3h4.3v0.3h-0.2c-0.4,0-0.7,0.1-0.9,0.4
		c-0.1,0.2-0.2,0.6-0.2,1.2v3.4c-0.6,0.3-1.3,0.6-1.9,0.8c-0.6,0.2-1.3,0.2-2.1,0.2c-2.2,0-3.8-0.7-4.9-2.1c-0.8-1-1.3-2.3-1.3-3.6
		c0-1,0.2-1.9,0.7-2.8c0.6-1.1,1.3-1.9,2.3-2.5c0.8-0.5,1.8-0.7,2.9-0.7c0.4,0,0.8,0,1.1,0.1c0.3,0.1,0.8,0.2,1.4,0.4
		c0.3,0.1,0.5,0.2,0.6,0.2s0.2,0,0.3-0.1c0.1-0.1,0.1-0.3,0.1-0.6H187.4z"/>
	<path d="M68.3,78.9v3.9H68c-0.1-0.7-0.3-1.3-0.5-1.8s-0.6-0.8-1.1-1.1c-0.5-0.3-1-0.4-1.5-0.4c-0.6,0-1,0.2-1.4,0.5
		c-0.4,0.4-0.6,0.8-0.6,1.2c0,0.3,0.1,0.7,0.4,0.9c0.3,0.4,1.2,1,2.4,1.7c1,0.6,1.8,1,2.1,1.3c0.4,0.3,0.7,0.7,0.9,1.1
		c0.2,0.4,0.3,0.8,0.3,1.3c0,0.9-0.3,1.6-1,2.2c-0.7,0.6-1.5,0.9-2.5,0.9c-0.3,0-0.6,0-0.9-0.1c-0.2,0-0.5-0.1-1.1-0.3
		c-0.5-0.2-0.9-0.3-1-0.3c-0.1,0-0.2,0-0.3,0.1s-0.1,0.3-0.2,0.5h-0.3v-3.9H62c0.1,0.8,0.3,1.4,0.6,1.8c0.2,0.4,0.6,0.7,1.1,1
		c0.5,0.3,1,0.4,1.6,0.4c0.7,0,1.2-0.2,1.6-0.5c0.4-0.4,0.6-0.8,0.6-1.3c0-0.3-0.1-0.6-0.2-0.8s-0.4-0.5-0.7-0.8
		c-0.2-0.2-0.8-0.5-1.8-1.1c-1-0.5-1.6-1-2.1-1.3c-0.4-0.3-0.7-0.7-0.9-1.1s-0.3-0.8-0.3-1.3c0-0.8,0.3-1.5,0.9-2.1
		c0.6-0.6,1.4-0.9,2.4-0.9c0.6,0,1.2,0.1,1.9,0.4c0.3,0.1,0.5,0.2,0.7,0.2c0.1,0,0.3,0,0.4-0.1c0.1-0.1,0.2-0.3,0.2-0.5H68.3z"/>
	<path d="M73.6,79.8v4.4H76c0.6,0,1.1-0.1,1.3-0.3c0.3-0.3,0.4-0.7,0.5-1.3h0.3v3.9h-0.3c-0.1-0.5-0.2-0.9-0.2-1.1
		c-0.1-0.2-0.3-0.3-0.5-0.5c-0.2-0.1-0.6-0.2-1-0.2h-2.5v3.7c0,0.5,0,0.8,0.1,0.9c0,0.1,0.1,0.2,0.2,0.3c0.1,0.1,0.3,0.1,0.6,0.1
		h1.9c0.6,0,1.1,0,1.4-0.1s0.6-0.3,0.8-0.5c0.3-0.3,0.7-0.9,1.1-1.6H80l-1,2.8h-8.7v-0.3h0.4c0.3,0,0.5-0.1,0.8-0.2
		c0.2-0.1,0.3-0.2,0.4-0.4S72,89,72,88.4v-7.3c0-0.7-0.1-1.2-0.2-1.3c-0.2-0.2-0.5-0.3-1-0.3h-0.4v-0.3H79l0.1,2.5h-0.3
		c-0.1-0.6-0.2-1-0.4-1.2c-0.1-0.2-0.3-0.4-0.6-0.5c-0.2-0.1-0.6-0.1-1.2-0.1H73.6z"/>
	<path d="M96.3,79.2v0.3c-0.3,0-0.5,0.1-0.7,0.2c-0.2,0.1-0.4,0.3-0.5,0.6c-0.1,0.2-0.3,0.7-0.5,1.4l-3.1,9.1H91l-2.6-7.2l-2.5,7.2
		h-0.3l-3.3-9.3c-0.2-0.7-0.4-1.1-0.5-1.2c-0.1-0.2-0.3-0.4-0.5-0.5c-0.2-0.1-0.4-0.2-0.8-0.2v-0.3h4.2v0.3h-0.2
		c-0.3,0-0.5,0.1-0.7,0.2c-0.2,0.1-0.2,0.3-0.2,0.5c0,0.2,0.1,0.6,0.4,1.3l2.2,6.3l1.9-5.4l-0.3-0.9l-0.3-0.8
		c-0.1-0.3-0.2-0.5-0.4-0.7c-0.1-0.1-0.2-0.2-0.3-0.3c-0.1-0.1-0.3-0.2-0.4-0.2c-0.1,0-0.3,0-0.5,0v-0.3h4.4v0.3H90
		c-0.3,0-0.5,0.1-0.7,0.2s-0.2,0.3-0.2,0.5c0,0.3,0.1,0.8,0.4,1.5l2.2,6.1l2.1-6.2c0.2-0.7,0.4-1.2,0.4-1.4c0-0.1,0-0.2-0.1-0.4
		s-0.2-0.2-0.3-0.2c-0.2-0.1-0.5-0.1-0.8-0.1v-0.3H96.3z"/>
	<path d="M99.9,79.8v4.4h2.5c0.6,0,1.1-0.1,1.3-0.3c0.3-0.3,0.4-0.7,0.5-1.3h0.3v3.9h-0.3c-0.1-0.5-0.2-0.9-0.2-1.1
		c-0.1-0.2-0.3-0.3-0.5-0.5c-0.2-0.1-0.6-0.2-1-0.2h-2.5v3.7c0,0.5,0,0.8,0.1,0.9c0,0.1,0.1,0.2,0.2,0.3c0.1,0.1,0.3,0.1,0.6,0.1
		h1.9c0.6,0,1.1,0,1.4-0.1s0.6-0.3,0.8-0.5c0.3-0.3,0.7-0.9,1.1-1.6h0.3l-1,2.8h-8.7v-0.3h0.4c0.3,0,0.5-0.1,0.8-0.2
		c0.2-0.1,0.3-0.2,0.4-0.4s0.1-0.5,0.1-1.1v-7.3c0-0.7-0.1-1.2-0.2-1.3c-0.2-0.2-0.5-0.3-1-0.3h-0.4v-0.3h8.7l0.1,2.5h-0.3
		c-0.1-0.6-0.2-1-0.4-1.2c-0.1-0.2-0.3-0.4-0.6-0.5c-0.2-0.1-0.6-0.1-1.2-0.1H99.9z"/>
	<path d="M118.2,90.4h-3l-3.8-5.3c-0.3,0-0.5,0-0.7,0c-0.1,0-0.1,0-0.2,0c-0.1,0-0.2,0-0.3,0v3.3c0,0.7,0.1,1.1,0.2,1.3
		c0.2,0.2,0.5,0.4,0.9,0.4h0.4v0.3H107v-0.3h0.4c0.5,0,0.8-0.2,1-0.5c0.1-0.2,0.2-0.6,0.2-1.2v-7.3c0-0.7-0.1-1.1-0.2-1.3
		c-0.2-0.2-0.5-0.4-1-0.4H107v-0.3h4.1c1.2,0,2.1,0.1,2.6,0.3c0.6,0.2,1,0.5,1.4,1c0.4,0.5,0.6,1,0.6,1.7c0,0.7-0.2,1.3-0.7,1.8
		s-1.1,0.9-2.1,1.1l2.3,3.2c0.5,0.7,1,1.2,1.4,1.5c0.4,0.2,0.9,0.4,1.5,0.5V90.4z M110.2,84.6c0.1,0,0.2,0,0.3,0c0.1,0,0.1,0,0.2,0
		c1.1,0,1.9-0.2,2.4-0.7s0.8-1.1,0.8-1.8c0-0.7-0.2-1.3-0.7-1.7c-0.4-0.4-1-0.7-1.7-0.7c-0.3,0-0.8,0.1-1.3,0.2V84.6z"/>
	<path d="M132,87.3l0.3,0.1l-1,3.1h-8.7v-0.3h0.4c0.5,0,0.8-0.2,1-0.5c0.1-0.2,0.2-0.6,0.2-1.2v-7.3c0-0.7-0.1-1.1-0.2-1.3
		c-0.2-0.2-0.5-0.4-1-0.4h-0.4v-0.3h5.1v0.3c-0.6,0-1,0-1.3,0.2s-0.4,0.3-0.5,0.4s-0.1,0.6-0.1,1.3v7.1c0,0.5,0,0.8,0.1,0.9
		c0.1,0.1,0.2,0.2,0.3,0.3s0.6,0.1,1.3,0.1h0.8c0.9,0,1.5-0.1,1.8-0.2c0.3-0.1,0.7-0.4,1-0.7C131.5,88.5,131.7,88,132,87.3z"/>
	<path d="M137.9,90.1v0.3h-4.8v-0.3h0.4c0.5,0,0.8-0.1,1-0.4c0.1-0.2,0.2-0.6,0.2-1.3v-7.3c0-0.6,0-0.9-0.1-1.1
		c-0.1-0.1-0.2-0.3-0.3-0.4c-0.2-0.1-0.5-0.2-0.8-0.2h-0.4v-0.3h4.8v0.3h-0.4c-0.5,0-0.8,0.1-1,0.4c-0.1,0.2-0.2,0.6-0.2,1.3v7.3
		c0,0.6,0,0.9,0.1,1.1c0.1,0.1,0.2,0.3,0.3,0.4c0.2,0.1,0.5,0.2,0.8,0.2H137.9z"/>
	<path d="M138.1,79.2h3l6.9,8.4v-6.5c0-0.7-0.1-1.1-0.2-1.3c-0.2-0.2-0.5-0.3-1-0.3h-0.4v-0.3h3.9v0.3h-0.4c-0.5,0-0.8,0.1-1,0.4
		c-0.1,0.2-0.2,0.6-0.2,1.2v9.5h-0.3l-7.4-9.1v6.9c0,0.7,0.1,1.1,0.2,1.3c0.2,0.2,0.5,0.3,1,0.3h0.4v0.3h-3.9v-0.3h0.4
		c0.5,0,0.8-0.1,1-0.4c0.1-0.2,0.2-0.6,0.2-1.2v-7.8c-0.3-0.4-0.6-0.6-0.7-0.8c-0.2-0.1-0.4-0.2-0.7-0.3c-0.2,0-0.4-0.1-0.7-0.1
		V79.2z"/>
	<path d="M154.1,79.8v4.4h2.5c0.6,0,1.1-0.1,1.3-0.3c0.3-0.3,0.4-0.7,0.5-1.3h0.3v3.9h-0.3c-0.1-0.5-0.2-0.9-0.2-1.1
		c-0.1-0.2-0.3-0.3-0.5-0.5c-0.2-0.1-0.6-0.2-1-0.2h-2.5v3.7c0,0.5,0,0.8,0.1,0.9c0,0.1,0.1,0.2,0.2,0.3c0.1,0.1,0.3,0.1,0.6,0.1
		h1.9c0.6,0,1.1,0,1.4-0.1s0.6-0.3,0.8-0.5c0.3-0.3,0.7-0.9,1.1-1.6h0.3l-1,2.8h-8.7v-0.3h0.4c0.3,0,0.5-0.1,0.8-0.2
		c0.2-0.1,0.3-0.2,0.4-0.4s0.1-0.5,0.1-1.1v-7.3c0-0.7-0.1-1.2-0.2-1.3c-0.2-0.2-0.5-0.3-1-0.3h-0.4v-0.3h8.7l0.1,2.5h-0.3
		c-0.1-0.6-0.2-1-0.4-1.2c-0.1-0.2-0.3-0.4-0.6-0.5c-0.2-0.1-0.6-0.1-1.2-0.1H154.1z"/>
	<path d="M173,78.9v3.9h-0.3c-0.1-0.7-0.3-1.3-0.5-1.8s-0.6-0.8-1.1-1.1c-0.5-0.3-1-0.4-1.5-0.4c-0.6,0-1,0.2-1.4,0.5
		c-0.4,0.4-0.6,0.8-0.6,1.2c0,0.3,0.1,0.7,0.4,0.9c0.3,0.4,1.2,1,2.4,1.7c1,0.6,1.8,1,2.1,1.3c0.4,0.3,0.7,0.7,0.9,1.1
		c0.2,0.4,0.3,0.8,0.3,1.3c0,0.9-0.3,1.6-1,2.2c-0.7,0.6-1.5,0.9-2.5,0.9c-0.3,0-0.6,0-0.9-0.1c-0.2,0-0.5-0.1-1.1-0.3
		c-0.5-0.2-0.9-0.3-1-0.3c-0.1,0-0.2,0-0.3,0.1s-0.1,0.3-0.2,0.5h-0.3v-3.9h0.3c0.1,0.8,0.3,1.4,0.6,1.8c0.2,0.4,0.6,0.7,1.1,1
		c0.5,0.3,1,0.4,1.6,0.4c0.7,0,1.2-0.2,1.6-0.5c0.4-0.4,0.6-0.8,0.6-1.3c0-0.3-0.1-0.6-0.2-0.8s-0.4-0.5-0.7-0.8
		c-0.2-0.2-0.8-0.5-1.8-1.1c-1-0.5-1.6-1-2.1-1.3c-0.4-0.3-0.7-0.7-0.9-1.1s-0.3-0.8-0.3-1.3c0-0.8,0.3-1.5,0.9-2.1
		c0.6-0.6,1.4-0.9,2.4-0.9c0.6,0,1.2,0.1,1.9,0.4c0.3,0.1,0.5,0.2,0.7,0.2c0.1,0,0.3,0,0.4-0.1c0.1-0.1,0.2-0.3,0.2-0.5H173z"/>
	<path d="M184.4,79.2l0.1,2.6h-0.3c-0.1-0.5-0.1-0.8-0.2-1c-0.2-0.3-0.4-0.6-0.7-0.7c-0.3-0.2-0.7-0.2-1.1-0.2h-1.6v8.6
		c0,0.7,0.1,1.1,0.2,1.3c0.2,0.2,0.5,0.3,1,0.3h0.4v0.3h-4.8v-0.3h0.4c0.5,0,0.8-0.1,1-0.4c0.1-0.2,0.2-0.6,0.2-1.2v-8.6h-1.4
		c-0.5,0-0.9,0-1.1,0.1c-0.3,0.1-0.5,0.3-0.7,0.6c-0.2,0.3-0.3,0.7-0.4,1.2h-0.3l0.1-2.6H184.4z"/>
	<path d="M192.7,86.6h-4.3l-0.8,1.8c-0.2,0.4-0.3,0.8-0.3,1c0,0.2,0.1,0.3,0.2,0.5c0.2,0.1,0.5,0.2,1.1,0.3v0.3h-3.5v-0.3
		c0.5-0.1,0.8-0.2,0.9-0.3c0.3-0.3,0.6-0.8,0.9-1.6l4-9.3h0.3l3.9,9.4c0.3,0.8,0.6,1.2,0.9,1.5c0.3,0.2,0.6,0.3,1.1,0.4v0.3h-4.4
		v-0.3c0.4,0,0.8-0.1,0.9-0.2c0.2-0.1,0.2-0.3,0.2-0.5c0-0.2-0.1-0.6-0.3-1.2L192.7,86.6z M192.5,86l-1.9-4.5l-2,4.5H192.5z"/>
	<path d="M199.4,88.8c0.3,0,0.5,0.1,0.7,0.3c0.2,0.2,0.3,0.4,0.3,0.7s-0.1,0.5-0.3,0.7c-0.2,0.2-0.4,0.3-0.6,0.3
		c-0.3,0-0.5-0.1-0.7-0.3c-0.2-0.2-0.3-0.4-0.3-0.7c0-0.3,0.1-0.5,0.3-0.7C198.9,88.9,199.1,88.8,199.4,88.8z"/>
	<path d="M206.3,84.9c0-1.3,0.2-2.4,0.6-3.3c0.4-0.9,0.9-1.6,1.5-2.1c0.5-0.4,1-0.5,1.5-0.5c0.9,0,1.6,0.4,2.3,1.3
		c0.9,1.1,1.3,2.6,1.3,4.4c0,1.3-0.2,2.4-0.6,3.3c-0.4,0.9-0.9,1.6-1.4,2c-0.6,0.4-1.1,0.6-1.7,0.6c-1.1,0-2-0.6-2.7-1.9
		C206.6,87.6,206.3,86.4,206.3,84.9z M208,85.1c0,1.5,0.2,2.8,0.6,3.8c0.3,0.8,0.8,1.2,1.4,1.2c0.3,0,0.6-0.1,0.9-0.4
		c0.3-0.3,0.6-0.7,0.7-1.3c0.3-1,0.4-2.3,0.4-4c0-1.3-0.1-2.4-0.4-3.2c-0.2-0.6-0.5-1.1-0.8-1.4c-0.2-0.2-0.5-0.3-0.8-0.3
		c-0.4,0-0.7,0.2-1,0.5c-0.4,0.5-0.7,1.2-0.8,2.2S208,84.1,208,85.1z"/>
	<path d="M218.6,89.2v-4.1h-4.1v-0.7h4.1v-4.1h0.7v4.1h4.1v0.7h-4.1v4.1H218.6z"/>
	<path d="M224.4,84.9c0-1.3,0.2-2.4,0.6-3.3c0.4-0.9,0.9-1.6,1.5-2.1c0.5-0.4,1-0.5,1.5-0.5c0.9,0,1.6,0.4,2.3,1.3
		c0.9,1.1,1.3,2.6,1.3,4.4c0,1.3-0.2,2.4-0.6,3.3c-0.4,0.9-0.9,1.6-1.4,2c-0.6,0.4-1.1,0.6-1.7,0.6c-1.1,0-2-0.6-2.7-1.9
		C224.7,87.6,224.4,86.4,224.4,84.9z M226,85.1c0,1.5,0.2,2.8,0.6,3.8c0.3,0.8,0.8,1.2,1.4,1.2c0.3,0,0.6-0.1,0.9-0.4
		c0.3-0.3,0.6-0.7,0.7-1.3c0.3-1,0.4-2.3,0.4-4c0-1.3-0.1-2.4-0.4-3.2c-0.2-0.6-0.5-1.1-0.8-1.4c-0.2-0.2-0.5-0.3-0.8-0.3
		c-0.4,0-0.7,0.2-1,0.5c-0.4,0.5-0.7,1.2-0.8,2.2S226,84.1,226,85.1z"/>
	<path d="M232.9,84.9c0-1.3,0.2-2.4,0.6-3.3c0.4-0.9,0.9-1.6,1.5-2.1c0.5-0.4,1-0.5,1.5-0.5c0.9,0,1.6,0.4,2.3,1.3
		c0.9,1.1,1.3,2.6,1.3,4.4c0,1.3-0.2,2.4-0.6,3.3s-0.9,1.6-1.4,2c-0.6,0.4-1.1,0.6-1.7,0.6c-1.1,0-2-0.6-2.7-1.9
		C233.2,87.6,232.9,86.4,232.9,84.9z M234.5,85.1c0,1.5,0.2,2.8,0.6,3.8c0.3,0.8,0.8,1.2,1.4,1.2c0.3,0,0.6-0.1,0.9-0.4
		c0.3-0.3,0.6-0.7,0.7-1.3c0.3-1,0.4-2.3,0.4-4c0-1.3-0.1-2.4-0.4-3.2c-0.2-0.6-0.5-1.1-0.8-1.4c-0.2-0.2-0.5-0.3-0.8-0.3
		c-0.4,0-0.7,0.2-1,0.5c-0.4,0.5-0.7,1.2-0.8,2.2C234.6,83.1,234.5,84.1,234.5,85.1z"/>
</g>
<g>
	<g>
		<g>
			<path d="M524.1,128.1v4.4h2c0.5,0,0.8-0.1,1-0.3c0.2-0.2,0.4-0.6,0.4-1.2h0.3v3.8h-0.3c0-0.4-0.1-0.8-0.2-1
				c-0.1-0.2-0.3-0.4-0.4-0.5c-0.2-0.1-0.5-0.2-0.8-0.2h-2v3.5c0,0.6,0,0.9,0.1,1.1c0.1,0.1,0.2,0.3,0.3,0.4
				c0.2,0.1,0.5,0.2,0.8,0.2h0.4v0.3h-4.8v-0.3h0.4c0.5,0,0.8-0.1,1-0.4c0.1-0.2,0.2-0.6,0.2-1.3v-7.3c0-0.6,0-0.9-0.1-1.1
				c-0.1-0.1-0.2-0.3-0.3-0.4c-0.2-0.1-0.5-0.2-0.8-0.2h-0.4v-0.3h8.4l0.1,2.5h-0.3c-0.1-0.5-0.3-0.9-0.5-1.2
				c-0.2-0.2-0.4-0.4-0.7-0.5c-0.3-0.1-0.7-0.2-1.3-0.2H524.1z"/>
			<path d="M539.8,135.6l0.3,0.1l-1,3.1h-8.7v-0.3h0.4c0.5,0,0.8-0.2,1-0.5c0.1-0.2,0.2-0.6,0.2-1.2v-7.3c0-0.7-0.1-1.1-0.2-1.3
				c-0.2-0.2-0.5-0.4-1-0.4h-0.4v-0.3h5.1v0.3c-0.6,0-1,0-1.3,0.2s-0.4,0.3-0.5,0.4c-0.1,0.2-0.1,0.6-0.1,1.3v7.1
				c0,0.5,0,0.8,0.1,0.9c0.1,0.1,0.2,0.2,0.3,0.3c0.1,0.1,0.6,0.1,1.3,0.1h0.8c0.9,0,1.5-0.1,1.8-0.2c0.3-0.1,0.7-0.4,1-0.7
				C539.3,136.8,539.5,136.3,539.8,135.6z"/>
			<path d="M546.7,127.2c1.5,0,2.7,0.6,3.8,1.7c1.1,1.1,1.6,2.5,1.6,4.2c0,1.7-0.5,3.1-1.6,4.3c-1.1,1.1-2.4,1.7-3.9,1.7
				c-1.5,0-2.8-0.6-3.9-1.7s-1.6-2.5-1.6-4.3c0-1.8,0.6-3.2,1.8-4.4C543.9,127.7,545.2,127.2,546.7,127.2z M546.5,127.8
				c-1,0-1.8,0.4-2.4,1.1c-0.8,0.9-1.1,2.3-1.1,4.1c0,1.8,0.4,3.3,1.2,4.2c0.6,0.8,1.4,1.1,2.4,1.1c1.1,0,1.9-0.4,2.6-1.2
				s1-2.1,1-3.9c0-1.9-0.4-3.4-1.1-4.3C548.4,128.2,547.6,127.8,546.5,127.8z"/>
			<path d="M568.6,127.5v0.3c-0.3,0-0.5,0.1-0.7,0.2c-0.2,0.1-0.4,0.3-0.5,0.6c-0.1,0.2-0.3,0.7-0.5,1.4l-3.1,9.1h-0.3l-2.6-7.2
				l-2.5,7.2H558l-3.3-9.3c-0.2-0.7-0.4-1.1-0.5-1.2c-0.1-0.2-0.3-0.4-0.5-0.5c-0.2-0.1-0.4-0.2-0.8-0.2v-0.3h4.2v0.3h-0.2
				c-0.3,0-0.5,0.1-0.7,0.2s-0.2,0.3-0.2,0.5c0,0.2,0.1,0.6,0.4,1.3l2.2,6.3l1.9-5.4l-0.3-0.9l-0.3-0.8c-0.1-0.3-0.2-0.5-0.4-0.7
				c-0.1-0.1-0.2-0.2-0.3-0.3c-0.1-0.1-0.3-0.2-0.4-0.2c-0.1,0-0.3,0-0.5,0v-0.3h4.4v0.3h-0.3c-0.3,0-0.5,0.1-0.7,0.2
				c-0.1,0.1-0.2,0.3-0.2,0.5c0,0.3,0.1,0.8,0.4,1.5l2.2,6.1l2.1-6.2c0.2-0.7,0.4-1.2,0.4-1.4c0-0.1,0-0.2-0.1-0.4s-0.2-0.2-0.3-0.2
				c-0.2-0.1-0.5-0.1-0.8-0.1v-0.3H568.6z"/>
			<path d="M582.7,135.6l0.3,0.1l-1,3.1h-8.7v-0.3h0.4c0.5,0,0.8-0.2,1-0.5c0.1-0.2,0.2-0.6,0.2-1.2v-7.3c0-0.7-0.1-1.1-0.2-1.3
				c-0.2-0.2-0.5-0.4-1-0.4h-0.4v-0.3h5.1v0.3c-0.6,0-1,0-1.3,0.2s-0.4,0.3-0.5,0.4c-0.1,0.2-0.1,0.6-0.1,1.3v7.1
				c0,0.5,0,0.8,0.1,0.9c0.1,0.1,0.2,0.2,0.3,0.3c0.1,0.1,0.6,0.1,1.3,0.1h0.8c0.9,0,1.5-0.1,1.8-0.2c0.3-0.1,0.7-0.4,1-0.7
				C582.1,136.8,582.4,136.3,582.7,135.6z"/>
			<path d="M588.6,138.4v0.3h-4.8v-0.3h0.4c0.5,0,0.8-0.1,1-0.4c0.1-0.2,0.2-0.6,0.2-1.3v-7.3c0-0.6,0-0.9-0.1-1.1
				c-0.1-0.1-0.2-0.3-0.3-0.4c-0.2-0.1-0.5-0.2-0.8-0.2h-0.4v-0.3h4.8v0.3h-0.4c-0.5,0-0.8,0.1-1,0.4c-0.1,0.2-0.2,0.6-0.2,1.3v7.3
				c0,0.6,0,0.9,0.1,1.1c0.1,0.1,0.2,0.3,0.3,0.4c0.2,0.1,0.5,0.2,0.8,0.2H588.6z"/>
			<path d="M588.8,127.5h3l6.9,8.4v-6.5c0-0.7-0.1-1.1-0.2-1.3c-0.2-0.2-0.5-0.3-1-0.3h-0.4v-0.3h3.9v0.3h-0.4c-0.5,0-0.8,0.1-1,0.4
				c-0.1,0.2-0.2,0.6-0.2,1.2v9.5h-0.3l-7.4-9.1v6.9c0,0.7,0.1,1.1,0.2,1.3c0.2,0.2,0.5,0.3,1,0.3h0.4v0.3h-3.9v-0.3h0.4
				c0.5,0,0.8-0.1,1-0.4c0.1-0.2,0.2-0.6,0.2-1.2v-7.8c-0.3-0.4-0.6-0.6-0.7-0.8c-0.2-0.1-0.4-0.2-0.7-0.3c-0.2,0-0.4-0.1-0.7-0.1
				V127.5z"/>
			<path d="M604.8,128.1v4.4h2.5c0.6,0,1.1-0.1,1.3-0.3c0.3-0.3,0.4-0.7,0.5-1.3h0.3v3.9H609c-0.1-0.5-0.2-0.9-0.2-1.1
				c-0.1-0.2-0.3-0.3-0.5-0.5s-0.6-0.2-1-0.2h-2.5v3.7c0,0.5,0,0.8,0.1,0.9c0,0.1,0.1,0.2,0.2,0.3c0.1,0.1,0.3,0.1,0.6,0.1h1.9
				c0.6,0,1.1,0,1.4-0.1s0.6-0.3,0.8-0.5c0.3-0.3,0.7-0.9,1.1-1.6h0.3l-1,2.8h-8.7v-0.3h0.4c0.3,0,0.5-0.1,0.8-0.2
				c0.2-0.1,0.3-0.2,0.4-0.4c0.1-0.2,0.1-0.5,0.1-1.1v-7.3c0-0.7-0.1-1.2-0.2-1.3c-0.2-0.2-0.5-0.3-1-0.3h-0.4v-0.3h8.7l0.1,2.5
				h-0.3c-0.1-0.6-0.2-1-0.4-1.2c-0.1-0.2-0.3-0.4-0.6-0.5c-0.2-0.1-0.6-0.1-1.2-0.1H604.8z"/>
			<path d="M524.2,148.5v4.4h2.5c0.6,0,1.1-0.1,1.3-0.3c0.3-0.3,0.4-0.7,0.5-1.3h0.3v3.9h-0.3c-0.1-0.5-0.2-0.9-0.2-1.1
				c-0.1-0.2-0.3-0.3-0.5-0.5c-0.2-0.1-0.6-0.2-1-0.2h-2.5v3.7c0,0.5,0,0.8,0.1,0.9c0,0.1,0.1,0.2,0.2,0.3s0.3,0.1,0.6,0.1h1.9
				c0.6,0,1.1,0,1.4-0.1s0.6-0.3,0.8-0.5c0.3-0.3,0.7-0.9,1.1-1.6h0.3l-1,2.8H521v-0.3h0.4c0.3,0,0.5-0.1,0.8-0.2
				c0.2-0.1,0.3-0.2,0.4-0.4c0.1-0.2,0.1-0.5,0.1-1.1v-7.3c0-0.7-0.1-1.2-0.2-1.3c-0.2-0.2-0.5-0.3-1-0.3H521v-0.3h8.7l0.1,2.5h-0.3
				c-0.1-0.6-0.2-1-0.4-1.2c-0.1-0.2-0.3-0.4-0.6-0.5c-0.2-0.1-0.6-0.1-1.2-0.1H524.2z"/>
			<path d="M540.8,156l0.3,0.1l-1,3.1h-8.7v-0.3h0.4c0.5,0,0.8-0.2,1-0.5c0.1-0.2,0.2-0.6,0.2-1.2v-7.3c0-0.7-0.1-1.1-0.2-1.3
				c-0.2-0.2-0.5-0.4-1-0.4h-0.4v-0.3h5.1v0.3c-0.6,0-1,0.1-1.3,0.2c-0.2,0.1-0.4,0.3-0.5,0.4c-0.1,0.2-0.1,0.6-0.1,1.3v7.1
				c0,0.5,0,0.8,0.1,0.9c0.1,0.1,0.2,0.2,0.3,0.3c0.1,0.1,0.6,0.1,1.3,0.1h0.8c0.9,0,1.5-0.1,1.8-0.2c0.3-0.1,0.7-0.4,1-0.7
				C540.2,157.2,540.5,156.7,540.8,156z"/>
			<path d="M544.9,148.5v4.4h2.5c0.6,0,1.1-0.1,1.3-0.3c0.3-0.3,0.4-0.7,0.5-1.3h0.3v3.9h-0.3c-0.1-0.5-0.2-0.9-0.2-1.1
				c-0.1-0.2-0.3-0.3-0.5-0.5c-0.2-0.1-0.6-0.2-1-0.2h-2.5v3.7c0,0.5,0,0.8,0.1,0.9c0,0.1,0.1,0.2,0.2,0.3s0.3,0.1,0.6,0.1h1.9
				c0.6,0,1.1,0,1.4-0.1s0.6-0.3,0.8-0.5c0.3-0.3,0.7-0.9,1.1-1.6h0.3l-1,2.8h-8.7v-0.3h0.4c0.3,0,0.5-0.1,0.8-0.2
				c0.2-0.1,0.3-0.2,0.4-0.4c0.1-0.2,0.1-0.5,0.1-1.1v-7.3c0-0.7-0.1-1.2-0.2-1.3c-0.2-0.2-0.5-0.3-1-0.3h-0.4v-0.3h8.7l0.1,2.5
				h-0.3c-0.1-0.6-0.2-1-0.4-1.2c-0.1-0.2-0.3-0.4-0.6-0.5c-0.2-0.1-0.6-0.1-1.2-0.1H544.9z"/>
			<path d="M563.8,147.9v0.3c-0.4,0.1-0.7,0.2-0.9,0.4c-0.3,0.3-0.6,0.7-0.8,1.2l-3.9,9.6h-0.3l-4.2-9.7c-0.2-0.5-0.4-0.8-0.5-0.9
				c-0.1-0.2-0.3-0.3-0.5-0.4c-0.2-0.1-0.5-0.2-0.8-0.2v-0.3h4.6v0.3c-0.5,0.1-0.9,0.1-1,0.3c-0.2,0.1-0.2,0.3-0.2,0.5
				c0,0.3,0.1,0.7,0.4,1.3l2.9,6.6l2.7-6.5c0.3-0.6,0.4-1.1,0.4-1.3c0-0.2-0.1-0.3-0.2-0.5s-0.4-0.3-0.8-0.3c0,0-0.1,0-0.1,0v-0.3
				H563.8z"/>
			<path d="M566.1,157.5c0.3,0,0.5,0.1,0.7,0.3s0.3,0.4,0.3,0.7c0,0.3-0.1,0.5-0.3,0.7c-0.2,0.2-0.4,0.3-0.7,0.3s-0.5-0.1-0.7-0.3
				s-0.3-0.4-0.3-0.7c0-0.3,0.1-0.5,0.3-0.7S565.9,157.5,566.1,157.5z"/>
			<path d="M574.5,149l2.7-1.3h0.3v9.5c0,0.6,0,1,0.1,1.2c0.1,0.2,0.2,0.3,0.3,0.4c0.2,0.1,0.5,0.1,1,0.1v0.3h-4.2v-0.3
				c0.5,0,0.9-0.1,1-0.1c0.2-0.1,0.3-0.2,0.3-0.3c0.1-0.1,0.1-0.5,0.1-1.2V151c0-0.8,0-1.3-0.1-1.6c0-0.2-0.1-0.3-0.2-0.4
				c-0.1-0.1-0.2-0.1-0.4-0.1c-0.2,0-0.5,0.1-0.9,0.3L574.5,149z"/>
			<path d="M581.9,161.9v-0.4c0.6-0.2,1-0.5,1.3-0.9c0.3-0.4,0.5-0.8,0.5-1.3c0-0.1,0-0.2-0.1-0.3c0,0-0.1-0.1-0.1-0.1
				c-0.1,0-0.2,0.1-0.4,0.2c-0.1,0-0.2,0.1-0.3,0.1c-0.3,0-0.5-0.1-0.6-0.2c-0.2-0.2-0.2-0.4-0.2-0.7c0-0.3,0.1-0.5,0.3-0.7
				c0.2-0.2,0.5-0.3,0.8-0.3c0.4,0,0.7,0.2,1,0.5c0.3,0.3,0.4,0.7,0.4,1.3c0,0.6-0.2,1.1-0.6,1.6
				C583.4,161.3,582.8,161.7,581.9,161.9z"/>
			<path d="M593,156.9l-0.8,2.2h-6.6v-0.3c2-1.8,3.3-3.2,4.1-4.4c0.8-1.1,1.2-2.2,1.2-3.1c0-0.7-0.2-1.3-0.7-1.8s-1-0.7-1.6-0.7
				c-0.6,0-1,0.2-1.5,0.5c-0.4,0.3-0.8,0.8-1,1.4h-0.3c0.1-1,0.5-1.8,1.1-2.4c0.6-0.5,1.3-0.8,2.1-0.8c0.9,0,1.7,0.3,2.3,0.9
				s0.9,1.3,0.9,2.1c0,0.6-0.1,1.1-0.4,1.7c-0.4,0.9-1.1,1.8-2,2.8c-1.4,1.5-2.2,2.4-2.6,2.7h2.9c0.6,0,1,0,1.3-0.1
				c0.2,0,0.5-0.1,0.7-0.3c0.2-0.1,0.4-0.3,0.5-0.6H593z"/>
			<path d="M601.5,156.9l-0.8,2.2h-6.6v-0.3c2-1.8,3.3-3.2,4.1-4.4c0.8-1.1,1.2-2.2,1.2-3.1c0-0.7-0.2-1.3-0.7-1.8s-1-0.7-1.6-0.7
				c-0.6,0-1,0.2-1.5,0.5c-0.4,0.3-0.8,0.8-1,1.4h-0.3c0.1-1,0.5-1.8,1.1-2.4c0.6-0.5,1.3-0.8,2.1-0.8c0.9,0,1.7,0.3,2.3,0.9
				s0.9,1.3,0.9,2.1c0,0.6-0.1,1.1-0.4,1.7c-0.4,0.9-1.1,1.8-2,2.8c-1.4,1.5-2.2,2.4-2.6,2.7h2.9c0.6,0,1,0,1.3-0.1
				c0.2,0,0.5-0.1,0.7-0.3c0.2-0.1,0.4-0.3,0.5-0.6H601.5z"/>
			<path d="M603.1,159.3V159c0.7,0,1.4-0.2,2-0.5c0.6-0.3,1.2-0.9,1.8-1.7s1-1.7,1.2-2.7c-0.9,0.6-1.7,0.8-2.4,0.8
				c-0.8,0-1.5-0.3-2-0.9c-0.6-0.6-0.8-1.4-0.8-2.4c0-1,0.3-1.9,0.8-2.6c0.7-0.9,1.6-1.4,2.7-1.4c0.9,0,1.7,0.4,2.4,1.1
				c0.8,0.9,1.2,2.1,1.2,3.5c0,1.3-0.3,2.4-0.9,3.5s-1.5,2-2.6,2.7c-0.9,0.6-1.9,0.9-2.9,0.9H603.1z M608.2,153.6
				c0.1-0.7,0.1-1.3,0.1-1.7c0-0.5-0.1-1.1-0.3-1.7c-0.2-0.6-0.4-1.1-0.8-1.4c-0.3-0.3-0.7-0.5-1.1-0.5c-0.5,0-0.9,0.2-1.3,0.7
				c-0.4,0.4-0.6,1.1-0.6,2c0,1.2,0.2,2.1,0.7,2.7c0.4,0.5,0.8,0.7,1.3,0.7c0.3,0,0.6-0.1,0.9-0.2C607.7,154,608,153.8,608.2,153.6z
				"/>
			<path d="M612.8,157.5c0.3,0,0.5,0.1,0.7,0.3s0.3,0.4,0.3,0.7c0,0.3-0.1,0.5-0.3,0.7c-0.2,0.2-0.4,0.3-0.7,0.3s-0.5-0.1-0.7-0.3
				s-0.3-0.4-0.3-0.7c0-0.3,0.1-0.5,0.3-0.7S612.5,157.5,612.8,157.5z"/>
			<path d="M622.7,156.9l-0.8,2.2h-6.6v-0.3c2-1.8,3.3-3.2,4.1-4.4c0.8-1.1,1.2-2.2,1.2-3.1c0-0.7-0.2-1.3-0.7-1.8s-1-0.7-1.6-0.7
				c-0.6,0-1,0.2-1.5,0.5c-0.4,0.3-0.8,0.8-1,1.4h-0.3c0.1-1,0.5-1.8,1.1-2.4c0.6-0.5,1.3-0.8,2.1-0.8c0.9,0,1.7,0.3,2.3,0.9
				s0.9,1.3,0.9,2.1c0,0.6-0.1,1.1-0.4,1.7c-0.4,0.9-1.1,1.8-2,2.8c-1.4,1.5-2.2,2.4-2.6,2.7h2.9c0.6,0,1,0,1.3-0.1
				c0.2,0,0.5-0.1,0.7-0.3c0.2-0.1,0.4-0.3,0.5-0.6H622.7z"/>
			<path d="M625.1,147.9h6v0.3l-3.7,11.2h-0.9l3.4-10.1h-3.1c-0.6,0-1.1,0.1-1.3,0.2c-0.5,0.3-0.8,0.6-1.1,1.2l-0.2-0.1L625.1,147.9
				z"/>
		</g>
	</g>
</g>
<g>
	<path d="M287.3,122.8v-4.1h-4.1V118h4.1v-4.1h0.7v4.1h4.2v0.7H288v4.1H287.3z"/>
	<path d="M297.3,118.4c0-1.3,0.2-2.4,0.6-3.3c0.4-0.9,0.9-1.6,1.5-2.1c0.5-0.4,1-0.5,1.5-0.5c0.9,0,1.6,0.4,2.3,1.3
		c0.9,1.1,1.3,2.6,1.3,4.4c0,1.3-0.2,2.4-0.6,3.3c-0.4,0.9-0.9,1.6-1.4,2c-0.6,0.4-1.1,0.6-1.7,0.6c-1.1,0-2-0.6-2.7-1.9
		C297.6,121.2,297.3,119.9,297.3,118.4z M298.9,118.6c0,1.5,0.2,2.8,0.6,3.8c0.3,0.8,0.8,1.2,1.4,1.2c0.3,0,0.6-0.1,0.9-0.4
		c0.3-0.3,0.6-0.7,0.7-1.3c0.3-1,0.4-2.3,0.4-4c0-1.3-0.1-2.4-0.4-3.2c-0.2-0.6-0.5-1.1-0.8-1.4c-0.2-0.2-0.5-0.3-0.8-0.3
		c-0.4,0-0.7,0.2-1,0.5c-0.4,0.5-0.7,1.2-0.8,2.2S298.9,117.6,298.9,118.6z"/>
	<path d="M307.3,122.3c0.3,0,0.5,0.1,0.7,0.3c0.2,0.2,0.3,0.4,0.3,0.7s-0.1,0.5-0.3,0.7c-0.2,0.2-0.4,0.3-0.7,0.3s-0.5-0.1-0.7-0.3
		c-0.2-0.2-0.3-0.4-0.3-0.7c0-0.3,0.1-0.5,0.3-0.7S307.1,122.3,307.3,122.3z"/>
	<path d="M310.3,114.8c0.3-0.8,0.7-1.3,1.2-1.8c0.5-0.4,1.1-0.6,1.8-0.6c0.9,0,1.6,0.3,2.1,0.9c0.4,0.4,0.5,0.9,0.5,1.4
		c0,0.8-0.5,1.7-1.5,2.5c0.7,0.3,1.2,0.7,1.6,1.2s0.5,1.1,0.5,1.8c0,1-0.3,1.8-0.9,2.5c-0.8,0.9-2,1.4-3.5,1.4
		c-0.8,0-1.3-0.1-1.5-0.3c-0.3-0.2-0.4-0.4-0.4-0.6c0-0.2,0.1-0.3,0.2-0.4s0.3-0.2,0.5-0.2c0.1,0,0.3,0,0.4,0.1
		c0.1,0,0.3,0.1,0.6,0.3c0.3,0.2,0.6,0.3,0.7,0.3c0.2,0.1,0.4,0.1,0.7,0.1c0.6,0,1.1-0.2,1.5-0.7s0.6-1,0.6-1.6
		c0-0.4-0.1-0.9-0.3-1.3c-0.1-0.3-0.3-0.5-0.5-0.7c-0.2-0.2-0.6-0.4-1-0.6c-0.4-0.2-0.8-0.3-1.3-0.3H312v-0.2
		c0.4-0.1,0.9-0.2,1.3-0.5c0.4-0.3,0.8-0.6,1-0.9s0.3-0.8,0.3-1.2c0-0.6-0.2-1-0.5-1.4c-0.4-0.4-0.8-0.5-1.3-0.5
		c-0.9,0-1.6,0.5-2.1,1.4L310.3,114.8z"/>
	<path d="M325.7,121.8l-0.8,2.2h-6.6v-0.3c2-1.8,3.3-3.2,4.1-4.4s1.2-2.2,1.2-3.1c0-0.7-0.2-1.3-0.7-1.8s-1-0.7-1.6-0.7
		c-0.6,0-1.1,0.2-1.5,0.5c-0.4,0.3-0.8,0.8-1,1.4h-0.3c0.1-1,0.5-1.8,1.1-2.4c0.6-0.5,1.3-0.8,2.1-0.8c0.9,0,1.7,0.3,2.3,0.9
		s0.9,1.3,0.9,2.1c0,0.6-0.1,1.1-0.4,1.7c-0.4,0.9-1.1,1.8-2,2.8c-1.4,1.5-2.2,2.4-2.6,2.7h2.9c0.6,0,1,0,1.3-0.1
		c0.2,0,0.5-0.1,0.7-0.3c0.2-0.1,0.4-0.3,0.5-0.6H325.7z"/>
	<path d="M333.8,112.7l-0.6,1.4h-3.4l-0.7,1.5c1.5,0.2,2.6,0.8,3.5,1.6c0.7,0.8,1.1,1.6,1.1,2.7c0,0.6-0.1,1.1-0.4,1.6
		c-0.2,0.5-0.5,0.9-0.9,1.3s-0.8,0.6-1.2,0.9c-0.6,0.3-1.3,0.5-2,0.5c-0.7,0-1.2-0.1-1.5-0.3c-0.3-0.2-0.5-0.5-0.5-0.8
		c0-0.2,0.1-0.3,0.2-0.4c0.1-0.1,0.3-0.2,0.5-0.2c0.1,0,0.3,0,0.4,0.1c0.1,0,0.3,0.2,0.6,0.3c0.4,0.3,0.8,0.4,1.3,0.4
		c0.6,0,1.2-0.2,1.7-0.7c0.5-0.5,0.7-1.1,0.7-1.8c0-0.7-0.2-1.3-0.7-1.9c-0.4-0.6-1-1-1.8-1.4c-0.6-0.2-1.4-0.4-2.5-0.4l2.2-4.4
		H333.8z"/>
	<path d="M338,112.4c0.7,0,1.3,0.3,1.7,0.9s0.6,1.3,0.6,2.1c0,1-0.2,1.7-0.7,2.2s-1,0.8-1.7,0.8c-0.4,0-0.8-0.1-1.2-0.4
		c-0.4-0.2-0.7-0.6-0.9-1.1s-0.3-1-0.3-1.6s0.1-1.1,0.3-1.6c0.2-0.5,0.5-0.9,0.9-1.1C337.2,112.6,337.6,112.4,338,112.4z
		 M337.9,112.9c-0.3,0-0.5,0.2-0.8,0.5s-0.3,1-0.3,2.1c0,0.8,0.1,1.4,0.2,1.8c0.1,0.3,0.2,0.5,0.4,0.7c0.1,0.1,0.3,0.1,0.4,0.1
		c0.3,0,0.5-0.1,0.7-0.4c0.3-0.4,0.4-1.1,0.4-2.1c0-1.1-0.1-1.8-0.4-2.2C338.4,113,338.2,112.9,337.9,112.9z M346.5,112.4l-8.2,12
		h-0.7l8.2-12H346.5z M346.1,118.4c0.4,0,0.8,0.1,1.2,0.4c0.4,0.2,0.7,0.6,0.9,1.1s0.3,1,0.3,1.6c0,1-0.2,1.7-0.7,2.2
		c-0.5,0.5-1,0.8-1.7,0.8c-0.4,0-0.8-0.1-1.2-0.4s-0.7-0.6-0.9-1.1c-0.2-0.5-0.3-1-0.3-1.6c0-0.6,0.1-1.1,0.3-1.6s0.5-0.8,0.9-1.1
		S345.7,118.4,346.1,118.4z M346.1,118.8c-0.3,0-0.5,0.1-0.7,0.4c-0.2,0.4-0.4,1.1-0.4,2.2c0,1,0.1,1.7,0.4,2.1
		c0.2,0.3,0.4,0.4,0.7,0.4c0.3,0,0.5-0.2,0.7-0.5c0.3-0.4,0.4-1.1,0.4-2.1c0-1-0.1-1.8-0.4-2.2C346.6,118.9,346.4,118.8,346.1,118.8
		z"/>
</g>
<g>
	<path d="M286.1,90.6c-0.9-0.7-1.5-1.3-1.7-1.8c-0.3-0.4-0.4-0.9-0.4-1.4c0-0.7,0.3-1.4,0.8-1.9c0.6-0.5,1.3-0.8,2.2-0.8
		c0.9,0,1.6,0.2,2.2,0.7s0.8,1.1,0.8,1.7c0,0.4-0.1,0.8-0.4,1.3s-0.9,1-1.9,1.5c1,0.8,1.6,1.3,1.9,1.8c0.4,0.6,0.6,1.2,0.6,1.8
		c0,0.8-0.3,1.5-0.9,2c-0.6,0.6-1.4,0.8-2.4,0.8c-1.1,0-1.9-0.3-2.5-1c-0.5-0.5-0.7-1.1-0.7-1.8c0-0.5,0.2-1,0.5-1.5
		C284.7,91.7,285.3,91.2,286.1,90.6z M286.5,90.9c-0.5,0.4-0.8,0.8-1,1.3c-0.2,0.5-0.3,1-0.3,1.5c0,0.7,0.2,1.3,0.6,1.7
		c0.4,0.4,0.9,0.6,1.5,0.6c0.6,0,1.1-0.2,1.4-0.5s0.5-0.7,0.5-1.2c0-0.4-0.1-0.8-0.3-1.1C288.5,92.6,287.7,91.8,286.5,90.9z
		 M287.4,89.7c0.7-0.6,1.1-1.1,1.3-1.4c0.2-0.3,0.3-0.7,0.3-1.2c0-0.6-0.2-1-0.5-1.4c-0.3-0.3-0.8-0.5-1.3-0.5s-1,0.2-1.4,0.5
		s-0.5,0.7-0.5,1.1c0,0.3,0.1,0.6,0.2,0.9s0.4,0.6,0.6,0.8L287.4,89.7z"/>
	<path d="M293.1,89.6l-0.5-2.5c-0.1-0.7-0.2-1.1-0.2-1.4c0-0.4,0.1-0.6,0.2-0.8s0.3-0.2,0.6-0.2c0.2,0,0.4,0.1,0.6,0.2
		c0.2,0.2,0.2,0.4,0.2,0.7c0,0.2-0.1,0.7-0.2,1.5l-0.4,2.4H293.1z M296.1,89.6l-0.4-2.4l-0.2-1c0-0.1,0-0.3,0-0.4
		c0-0.3,0.1-0.6,0.2-0.8s0.4-0.2,0.6-0.2c0.2,0,0.4,0.1,0.6,0.2c0.2,0.2,0.2,0.4,0.2,0.6c0,0.5-0.1,1-0.2,1.5l-0.5,2.4H296.1z"/>
	<path d="M310.3,84.7v3.9H310c-0.1-0.7-0.3-1.3-0.5-1.8c-0.3-0.4-0.6-0.8-1.1-1.1c-0.5-0.3-1-0.4-1.5-0.4c-0.6,0-1.1,0.2-1.4,0.5
		c-0.4,0.4-0.6,0.8-0.6,1.2c0,0.3,0.1,0.7,0.4,0.9c0.3,0.4,1.2,1,2.4,1.7c1.1,0.6,1.8,1,2.2,1.3c0.4,0.3,0.7,0.7,0.9,1.1
		c0.2,0.4,0.3,0.8,0.3,1.3c0,0.9-0.3,1.6-1,2.2c-0.7,0.6-1.5,0.9-2.6,0.9c-0.3,0-0.6,0-0.9-0.1c-0.2,0-0.5-0.1-1.1-0.3
		c-0.5-0.2-0.9-0.3-1-0.3c-0.1,0-0.2,0-0.3,0.1s-0.1,0.3-0.2,0.5h-0.3v-3.9h0.3c0.1,0.8,0.3,1.4,0.6,1.8c0.2,0.4,0.6,0.7,1.1,1
		s1.1,0.4,1.6,0.4c0.7,0,1.2-0.2,1.6-0.5s0.6-0.8,0.6-1.3c0-0.3-0.1-0.6-0.2-0.8s-0.4-0.5-0.7-0.8c-0.2-0.2-0.8-0.5-1.8-1.1
		c-1-0.5-1.6-1-2.1-1.3c-0.4-0.3-0.7-0.7-0.9-1.1s-0.3-0.8-0.3-1.3c0-0.8,0.3-1.5,0.9-2.1c0.6-0.6,1.4-0.9,2.4-0.9
		c0.6,0,1.2,0.1,1.9,0.4c0.3,0.1,0.5,0.2,0.7,0.2c0.1,0,0.3,0,0.4-0.1c0.1-0.1,0.2-0.3,0.2-0.5H310.3z"/>
	<path d="M315.6,85.6V90h2.5c0.6,0,1.1-0.1,1.3-0.3c0.3-0.3,0.4-0.7,0.5-1.3h0.3v3.9h-0.3c-0.1-0.5-0.2-0.9-0.2-1.1
		c-0.1-0.2-0.3-0.3-0.5-0.5s-0.6-0.2-1-0.2h-2.5v3.7c0,0.5,0,0.8,0.1,0.9c0,0.1,0.1,0.2,0.2,0.3c0.1,0.1,0.3,0.1,0.6,0.1h1.9
		c0.6,0,1.1,0,1.4-0.1c0.3-0.1,0.6-0.3,0.8-0.5c0.3-0.3,0.7-0.9,1.1-1.6h0.3l-1,2.8h-8.7v-0.3h0.4c0.3,0,0.5-0.1,0.8-0.2
		c0.2-0.1,0.3-0.2,0.4-0.4s0.1-0.5,0.1-1.1v-7.3c0-0.7-0.1-1.2-0.2-1.3c-0.2-0.2-0.5-0.3-1-0.3h-0.4V85h8.7l0.1,2.5h-0.3
		c-0.1-0.6-0.2-1-0.4-1.2c-0.1-0.2-0.3-0.4-0.6-0.5c-0.2-0.1-0.6-0.1-1.2-0.1H315.6z"/>
	<path d="M338.3,85v0.3c-0.3,0-0.5,0.1-0.7,0.2s-0.4,0.3-0.5,0.6c-0.1,0.2-0.3,0.7-0.5,1.4l-3.1,9.1h-0.3l-2.6-7.2l-2.5,7.2h-0.3
		l-3.3-9.3c-0.2-0.7-0.4-1.1-0.5-1.2c-0.1-0.2-0.3-0.4-0.5-0.5c-0.2-0.1-0.4-0.2-0.8-0.2V85h4.2v0.3h-0.2c-0.3,0-0.5,0.1-0.7,0.2
		s-0.2,0.3-0.2,0.5c0,0.2,0.1,0.6,0.4,1.3l2.2,6.3l1.9-5.4l-0.3-0.9l-0.3-0.8c-0.1-0.3-0.2-0.5-0.4-0.7c-0.1-0.1-0.2-0.2-0.3-0.3
		c-0.1-0.1-0.3-0.2-0.4-0.2c-0.1,0-0.3,0-0.5,0V85h4.4v0.3H332c-0.3,0-0.5,0.1-0.7,0.2c-0.1,0.1-0.2,0.3-0.2,0.5
		c0,0.3,0.1,0.8,0.4,1.5l2.2,6.1l2.1-6.2c0.2-0.7,0.4-1.2,0.4-1.4c0-0.1,0-0.2-0.1-0.4s-0.2-0.2-0.3-0.2c-0.2-0.1-0.5-0.1-0.8-0.1
		V85H338.3z"/>
	<path d="M342,85.6V90h2.5c0.6,0,1.1-0.1,1.3-0.3c0.3-0.3,0.4-0.7,0.5-1.3h0.3v3.9h-0.3c-0.1-0.5-0.2-0.9-0.2-1.1
		c-0.1-0.2-0.3-0.3-0.5-0.5s-0.6-0.2-1-0.2H342v3.7c0,0.5,0,0.8,0.1,0.9c0,0.1,0.1,0.2,0.2,0.3c0.1,0.1,0.3,0.1,0.6,0.1h1.9
		c0.6,0,1.1,0,1.4-0.1c0.3-0.1,0.6-0.3,0.8-0.5c0.3-0.3,0.7-0.9,1.1-1.6h0.3l-1,2.8h-8.7v-0.3h0.4c0.3,0,0.5-0.1,0.8-0.2
		c0.2-0.1,0.3-0.2,0.4-0.4s0.1-0.5,0.1-1.1v-7.3c0-0.7-0.1-1.2-0.2-1.3c-0.2-0.2-0.5-0.3-1-0.3h-0.4V85h8.7l0.1,2.5h-0.3
		c-0.1-0.6-0.2-1-0.4-1.2c-0.1-0.2-0.3-0.4-0.6-0.5c-0.2-0.1-0.6-0.1-1.2-0.1H342z"/>
	<path d="M360.3,96.2h-3l-3.8-5.3c-0.3,0-0.5,0-0.7,0c-0.1,0-0.1,0-0.2,0c-0.1,0-0.2,0-0.3,0v3.3c0,0.7,0.1,1.1,0.2,1.3
		c0.2,0.2,0.5,0.4,0.9,0.4h0.4v0.3h-4.8v-0.3h0.4c0.5,0,0.8-0.2,1-0.5c0.1-0.2,0.2-0.6,0.2-1.2V87c0-0.7-0.1-1.1-0.2-1.3
		c-0.2-0.2-0.5-0.4-1-0.4h-0.4V85h4.1c1.2,0,2.1,0.1,2.6,0.3c0.6,0.2,1,0.5,1.4,1c0.4,0.5,0.6,1,0.6,1.7c0,0.7-0.2,1.3-0.7,1.8
		s-1.1,0.9-2.1,1.1l2.3,3.2c0.5,0.7,1,1.2,1.4,1.5s0.9,0.4,1.5,0.5V96.2z M352.3,90.4c0.1,0,0.2,0,0.3,0c0.1,0,0.1,0,0.2,0
		c1.1,0,1.9-0.2,2.4-0.7s0.8-1.1,0.8-1.8c0-0.7-0.2-1.3-0.7-1.7c-0.4-0.4-1-0.7-1.7-0.7c-0.3,0-0.8,0.1-1.3,0.2V90.4z"/>
</g>
</svg>
