<?xml version="1.0" encoding="iso-8859-1"?>
<!-- Generator: Adobe Illustrator 29.3.1, SVG Export Plug-In . SVG Version: 9.03 Build 55982)  -->
<svg version="1.1" id="Layer_1" xmlns="http://www.w3.org/2000/svg" xmlns:xlink="http://www.w3.org/1999/xlink" x="0px" y="0px"
	 width="512px" height="362.7px" viewBox="0 0 512 362.7" enable-background="new 0 0 512 362.7" xml:space="preserve">
<line fill="none" stroke="#000000" stroke-width="0.45" stroke-linecap="round" stroke-linejoin="round" stroke-miterlimit="10" x1="92.2" y1="290" x2="92.3" y2="290"/>
<line fill="none" stroke="#000000" stroke-width="0.45" stroke-linecap="round" stroke-linejoin="round" stroke-miterlimit="10" x1="161.8" y1="238.9" x2="161.9" y2="239"/>
<polyline fill="none" stroke="#000000" stroke-width="0.5" stroke-linecap="round" stroke-linejoin="round" stroke-miterlimit="10" points="
	161.8,238.9 187.7,238.9 187.7,251.6 "/>
<line fill="none" stroke="#000000" stroke-width="0.45" stroke-linecap="round" stroke-linejoin="round" stroke-miterlimit="10" x1="262.6" y1="290" x2="262.7" y2="290"/>
<line fill="none" stroke="#000000" stroke-width="0.5" stroke-linecap="round" stroke-linejoin="round" stroke-miterlimit="10" x1="262.6" y1="290" x2="79.2" y2="290"/>
<line fill="none" stroke="#000000" stroke-width="0.45" stroke-linecap="round" stroke-linejoin="round" stroke-miterlimit="10" x1="373" y1="242.4" x2="373.1" y2="242.5"/>
<line fill="none" stroke="#000000" stroke-width="0.5" stroke-linecap="round" stroke-linejoin="round" stroke-miterlimit="10" x1="373" y1="242.4" x2="373.1" y2="254.2"/>
<line fill="none" stroke="#000000" stroke-width="0.5" stroke-linecap="round" stroke-linejoin="round" stroke-miterlimit="10" x1="373" y1="242.4" x2="373.1" y2="242.5"/>
<line fill="none" stroke="#000000" stroke-width="0.5" stroke-linecap="round" stroke-linejoin="round" stroke-miterlimit="10" x1="373" y1="242.4" x2="408.4" y2="242.5"/>
<line fill="none" stroke="#000000" stroke-width="0.45" stroke-linecap="round" stroke-linejoin="round" stroke-miterlimit="10" x1="217.2" y1="85.2" x2="217.3" y2="85.2"/>
<polyline fill="none" stroke="#000000" stroke-width="0.5" stroke-linecap="round" stroke-linejoin="round" stroke-miterlimit="10" points="
	217.2,85.2 217.2,72.1 165.3,72.1 "/>
<line fill="none" stroke="#000000" stroke-width="0.5" stroke-linecap="round" stroke-linejoin="round" stroke-miterlimit="10" x1="115.6" y1="51.4" x2="143.7" y2="31.9"/>
<line fill="none" stroke="#000000" stroke-width="0.45" stroke-linecap="round" stroke-linejoin="round" stroke-miterlimit="10" x1="312.1" y1="115.4" x2="312.2" y2="115.4"/>
<polyline fill="none" stroke="#000000" stroke-width="0.45" stroke-linecap="round" stroke-linejoin="round" stroke-miterlimit="10" points="
	312.1,115.4 313.7,115.4 314.6,115.8 312.9,115.8 313.7,116.2 315.4,116.2 316.2,116.6 314.5,116.6 315.3,116.9 317,116.9 
	317.8,117.4 316.1,117.4 317,117.8 318.7,117.8 "/>
<line fill="none" stroke="#000000" stroke-width="0.45" stroke-linecap="round" stroke-linejoin="round" stroke-miterlimit="10" x1="319.2" y1="118.1" x2="319.2" y2="118.1"/>
<polyline fill="none" stroke="#000000" stroke-width="0.45" stroke-linecap="round" stroke-linejoin="round" stroke-miterlimit="10" points="
	319.2,118.1 318.8,118.8 312.1,115.4 312.5,114.8 319.2,118.1 319,118.2 317.7,118.2 "/>
<line fill="none" stroke="#000000" stroke-width="0.45" stroke-linecap="round" stroke-linejoin="round" stroke-miterlimit="10" x1="312.1" y1="115.4" x2="312.2" y2="115.4"/>
<polyline fill="none" stroke="#000000" stroke-width="0.45" stroke-linecap="round" stroke-linejoin="round" stroke-miterlimit="10" points="
	312.1,115.4 301.2,108.9 301.4,108.1 312.5,114.7 312.1,115.4 "/>
<line fill="none" stroke="#000000" stroke-width="0.45" stroke-linecap="round" stroke-linejoin="round" stroke-miterlimit="10" x1="312.4" y1="114.9" x2="312.5" y2="115"/>
<polyline fill="none" stroke="#000000" stroke-width="0.5" stroke-linecap="round" stroke-linejoin="round" stroke-miterlimit="10" points="
	312.4,114.9 311.4,114.9 310.7,114.5 312.2,114.5 311.5,114.1 310.1,114.1 309.3,113.7 310.8,113.7 310.2,113.3 308.7,113.3 
	308,112.9 309.5,112.9 308.8,112.5 307.3,112.5 306.6,112.1 308.1,112.1 307.4,111.7 305.9,111.7 305.3,111.3 306.8,111.3 
	306.1,110.9 304.6,110.9 303.9,110.5 305.4,110.5 304.7,110.1 303.2,110.1 302.6,109.7 304,109.7 303.4,109.3 301.9,109.3 "/>
<line fill="none" stroke="#000000" stroke-width="0.45" stroke-linecap="round" stroke-linejoin="round" stroke-miterlimit="10" x1="302" y1="108.4" x2="302.1" y2="108.5"/>
<polyline fill="none" stroke="#000000" stroke-width="0.45" stroke-linecap="round" stroke-linejoin="round" stroke-miterlimit="10" points="
	302,108.4 302.7,108.8 301.2,108.8 295.8,108.8 "/>
<line fill="none" stroke="#000000" stroke-width="0.45" stroke-linecap="round" stroke-linejoin="round" stroke-miterlimit="10" x1="295.6" y1="109.7" x2="295.6" y2="109.8"/>
<polyline fill="none" stroke="#000000" stroke-width="0.45" stroke-linecap="round" stroke-linejoin="round" stroke-miterlimit="10" points="
	295.5,109.7 293.6,109.7 286.8,109.7 287.1,109.3 293.6,109.3 298.4,109.3 295.5,109.7 "/>
<line fill="none" stroke="#000000" stroke-width="0.45" stroke-linecap="round" stroke-linejoin="round" stroke-miterlimit="10" x1="293.6" y1="110" x2="293.6" y2="110"/>
<polyline fill="none" stroke="#000000" stroke-width="0.5" stroke-linecap="round" stroke-linejoin="round" stroke-miterlimit="10" points="
	293.6,110 293.6,109.2 301.4,108.1 301.2,108.9 293.6,110 286.7,110 287.2,109.2 293.6,109.2 293.6,110 "/>
<line fill="none" stroke="#000000" stroke-width="0.45" stroke-linecap="round" stroke-linejoin="round" stroke-miterlimit="10" x1="298.6" y1="108.4" x2="298.7" y2="108.5"/>
<polyline fill="none" stroke="#000000" stroke-width="0.45" stroke-linecap="round" stroke-linejoin="round" stroke-miterlimit="10" points="
	298.6,108.4 301.3,108.4 301.2,108.8 "/>
<line fill="none" stroke="#000000" stroke-width="0.45" stroke-linecap="round" stroke-linejoin="round" stroke-miterlimit="10" x1="301.3" y1="108.4" x2="301.4" y2="108.5"/>
<line fill="none" stroke="#000000" stroke-width="0.45" stroke-linecap="round" stroke-linejoin="round" stroke-miterlimit="10" x1="301.3" y1="108.4" x2="302" y2="108.5"/>
<line fill="none" stroke="#000000" stroke-width="0.45" stroke-linecap="round" stroke-linejoin="round" stroke-miterlimit="10" x1="287.1" y1="109.2" x2="287.2" y2="109.3"/>
<polyline fill="none" stroke="#000000" stroke-width="0.45" stroke-linecap="round" stroke-linejoin="round" stroke-miterlimit="10" points="
	287.1,109.2 286.7,110 284.4,105.5 285,104.9 287.1,109.2 "/>
<line fill="none" stroke="#000000" stroke-width="0.45" stroke-linecap="round" stroke-linejoin="round" stroke-miterlimit="10" x1="286.2" y1="109" x2="286.3" y2="109"/>
<polyline fill="none" stroke="#000000" stroke-width="0.5" stroke-linecap="round" stroke-linejoin="round" stroke-miterlimit="10" points="
	286.2,109 285.8,108.2 285.8,106.5 285.4,105.7 285.4,107.4 285,106.6 285,104.8 284.4,105.4 280.2,103.3 280.3,102.5 285,104.8 
	284.9,104.8 283.1,104.8 282.3,104.4 284.1,104.4 283.3,104 281.5,104 280.7,103.6 282.5,103.6 281.6,103.2 280.2,103.2 
	272.5,103.2 277.4,102.8 280.3,102.8 280.3,102.5 280.2,103.3 266.9,104.4 267.1,103.6 280.3,102.5 "/>
<line fill="none" stroke="#000000" stroke-width="0.45" stroke-linecap="round" stroke-linejoin="round" stroke-miterlimit="10" x1="277.2" y1="103.6" x2="277.3" y2="103.7"/>
<line fill="none" stroke="#000000" stroke-width="0.5" stroke-linecap="round" stroke-linejoin="round" stroke-miterlimit="10" x1="277.2" y1="103.6" x2="267.6" y2="103.7"/>
<line fill="none" stroke="#000000" stroke-width="0.45" stroke-linecap="round" stroke-linejoin="round" stroke-miterlimit="10" x1="267.1" y1="103.6" x2="267.2" y2="103.7"/>
<polyline fill="none" stroke="#000000" stroke-width="0.45" stroke-linecap="round" stroke-linejoin="round" stroke-miterlimit="10" points="
	267.1,103.6 266.9,104.4 255.6,95.3 256,94.6 267.1,103.6 267,103.6 265.8,103.6 266.3,104 267,104 272.3,104 "/>
<line fill="none" stroke="#000000" stroke-width="0.45" stroke-linecap="round" stroke-linejoin="round" stroke-miterlimit="10" x1="267.1" y1="103.6" x2="267.1" y2="103.7"/>
<polyline fill="none" stroke="#000000" stroke-width="0.5" stroke-linecap="round" stroke-linejoin="round" stroke-miterlimit="10" points="
	267.1,103.6 266.6,103.2 265.3,103.2 264.8,102.8 266.1,102.8 265.6,102.4 264.3,102.4 263.8,102 265.1,102 264.6,101.6 
	263.3,101.6 262.8,101.2 264.1,101.2 263.6,100.8 262.3,100.8 261.8,100.4 263.1,100.4 262.5,100 261.3,100 260.8,99.6 262.1,99.6 
	261.6,99.1 260.3,99.1 259.8,98.7 261,98.7 260.5,98.3 259.3,98.3 258.8,97.9 260.1,97.9 259.5,97.5 258.3,97.5 257.8,97.1 
	259.1,97.1 258.6,96.7 257.3,96.7 256.8,96.3 258,96.3 257.5,95.9 256.3,95.9 255.8,95.5 257.1,95.5 256.5,95.1 255.7,95.1 "/>
<line fill="none" stroke="#000000" stroke-width="0.45" stroke-linecap="round" stroke-linejoin="round" stroke-miterlimit="10" x1="286.2" y1="107.3" x2="286.3" y2="107.3"/>
<line fill="none" stroke="#000000" stroke-width="0.45" stroke-linecap="round" stroke-linejoin="round" stroke-miterlimit="10" x1="286.2" y1="107.3" x2="286.3" y2="109"/>
<line fill="none" stroke="#000000" stroke-width="0.45" stroke-linecap="round" stroke-linejoin="round" stroke-miterlimit="10" x1="286.6" y1="109.8" x2="286.7" y2="109.9"/>
<polyline fill="none" stroke="#000000" stroke-width="0.45" stroke-linecap="round" stroke-linejoin="round" stroke-miterlimit="10" points="
	286.6,109.8 286.6,108.1 286.2,107.3 "/>
<line fill="none" stroke="#000000" stroke-width="0.45" stroke-linecap="round" stroke-linejoin="round" stroke-miterlimit="10" x1="188.8" y1="77.6" x2="188.9" y2="77.7"/>
<polyline fill="none" stroke="#000000" stroke-width="0.45" stroke-linecap="round" stroke-linejoin="round" stroke-miterlimit="10" points="
	188.8,77.6 185.7,77.6 187.3,78 190.5,78 192.1,78.4 188.9,78.4 190.6,78.8 193.7,78.8 195.3,79.2 192.1,79.2 193.8,79.6 
	196.9,79.6 198.5,80 195.4,80 197,80.4 200.1,80.4 201.7,80.8 198.6,80.8 200.1,81.2 203.3,81.2 204.9,81.6 201.8,81.6 203.4,82 
	206.5,82 208.1,82.4 205,82.4 206.6,82.9 209.7,82.9 211.4,83.3 208.2,83.3 209.8,83.6 212.9,83.6 214.5,84.1 211.4,84.1 213,84.5 
	216.1,84.5 217.7,84.9 214.6,84.9 216.2,85.3 219.4,85.3 220.9,85.7 217.8,85.7 219.4,86.1 222.5,86.1 224.2,86.5 221.1,86.5 
	222.6,86.9 225.8,86.9 227.4,87.3 224.3,87.3 225.9,87.7 229,87.7 230.6,88.1 227.5,88.1 229.1,88.5 232.2,88.5 233.8,89 230.7,89 
	232.3,89.3 235.4,89.3 237,89.8 233.9,89.8 235.5,90.2 238.6,90.2 240.2,90.6 237.1,90.6 238.7,91 241.8,91 243.5,91.4 240.3,91.4 
	242,91.8 245,91.8 246.7,92.2 243.5,92.2 245.2,92.6 248.3,92.6 249.9,93 246.8,93 248.4,93.4 251.5,93.4 253.1,93.8 250,93.8 
	251.6,94.2 254.7,94.2 "/>
<line fill="none" stroke="#000000" stroke-width="0.45" stroke-linecap="round" stroke-linejoin="round" stroke-miterlimit="10" x1="255.9" y1="94.7" x2="255.9" y2="94.7"/>
<line fill="none" stroke="#000000" stroke-width="0.45" stroke-linecap="round" stroke-linejoin="round" stroke-miterlimit="10" x1="255.9" y1="94.7" x2="253.2" y2="94.7"/>
<line fill="none" stroke="#000000" stroke-width="0.45" stroke-linecap="round" stroke-linejoin="round" stroke-miterlimit="10" x1="255.6" y1="95.3" x2="255.7" y2="95.4"/>
<polyline fill="none" stroke="#000000" stroke-width="0.5" stroke-linecap="round" stroke-linejoin="round" stroke-miterlimit="10" points="
	255.6,95.3 107.9,57.9 108,57.2 255.9,94.6 255.6,95.3 "/>
<line fill="none" stroke="#000000" stroke-width="0.45" stroke-linecap="round" stroke-linejoin="round" stroke-miterlimit="10" x1="188.8" y1="77.6" x2="188.9" y2="77.7"/>
<polyline fill="none" stroke="#000000" stroke-width="0.5" stroke-linecap="round" stroke-linejoin="round" stroke-miterlimit="10" points="
	188.8,77.6 187.2,77.2 184.1,77.2 182.5,76.8 185.6,76.8 184,76.4 180.9,76.4 179.3,76 182.4,76 180.8,75.5 177.7,75.5 176,75.1 
	179.2,75.1 177.6,74.8 174.5,74.8 172.8,74.3 176,74.3 174.4,73.9 171.3,73.9 169.6,73.5 172.8,73.5 171.2,73.1 168,73.1 
	166.4,72.7 169.6,72.7 167.9,72.3 164.8,72.3 163.2,71.9 166.4,71.9 164.7,71.5 161.6,71.5 160,71.1 163.2,71.1 161.5,70.7 
	158.4,70.7 156.8,70.3 159.9,70.3 158.3,69.9 155.2,69.9 153.6,69.5 156.7,69.5 155.1,69.1 151.9,69.1 150.4,68.7 153.5,68.7 
	151.9,68.3 148.7,68.3 147.2,67.8 150.3,67.8 148.7,67.4 145.5,67.4 143.9,67 147.1,67 145.5,66.7 142.3,66.7 140.7,66.2 
	143.9,66.2 142.3,65.8 139.1,65.8 137.5,65.4 140.7,65.4 139.1,65 135.9,65 134.3,64.6 137.5,64.6 135.9,64.2 132.7,64.2 
	131.1,63.8 134.3,63.8 132.7,63.4 129.5,63.4 127.9,63 131.1,63 129.4,62.6 126.3,62.6 124.7,62.2 127.9,62.2 126.2,61.8 
	123.1,61.8 121.5,61.4 124.6,61.4 123,61 119.9,61 118.2,60.6 121.4,60.6 119.8,60.2 116.7,60.2 115,59.8 118.2,59.8 116.6,59.4 
	113.4,59.4 111.8,58.9 115,58.9 113.4,58.6 110.2,58.6 108.6,58.2 111.8,58.2 110.2,57.7 107.8,57.7 13,57.7 13,57.3 107.9,57.3 
	108,57.2 107.8,57.9 13,57.9 13,57.2 108,57.2 "/>
<line fill="none" stroke="#000000" stroke-width="0.45" stroke-linecap="round" stroke-linejoin="round" stroke-miterlimit="10" x1="457.9" y1="202.5" x2="458" y2="202.6"/>
<polyline fill="none" stroke="#000000" stroke-width="0.45" stroke-linecap="round" stroke-linejoin="round" stroke-miterlimit="10" points="
	457.9,202.5 473.7,199.2 473.8,199.9 473.7,199.2 484.7,198.1 484.9,198.8 484.7,198.1 500.2,194.7 500.4,195.5 484.9,198.8 
	473.8,199.9 458.6,203.2 457.9,202.5 458.6,203.2 455.2,213 454.6,212.5 457.9,202.5 458,202.7 458,204.7 "/>
<line fill="none" stroke="#000000" stroke-width="0.45" stroke-linecap="round" stroke-linejoin="round" stroke-miterlimit="10" x1="457.3" y1="204.6" x2="457.3" y2="204.7"/>
<polyline fill="none" stroke="#000000" stroke-width="0.5" stroke-linecap="round" stroke-linejoin="round" stroke-miterlimit="10" points="
	457.3,204.6 456.9,205.8 456.9,208.2 456.4,209.4 456.4,207 456,208.2 456,210.7 455.6,211.8 455.6,209.4 455.2,210.7 455.2,213 
	454.8,212.8 454.8,211.9 "/>
<line fill="none" stroke="#000000" stroke-width="0.45" stroke-linecap="round" stroke-linejoin="round" stroke-miterlimit="10" x1="454.6" y1="212.5" x2="454.6" y2="212.6"/>
<polyline fill="none" stroke="#000000" stroke-width="0.45" stroke-linecap="round" stroke-linejoin="round" stroke-miterlimit="10" points="
	454.6,212.5 455.2,212.9 444.1,221.9 443.5,221.3 454.6,212.5 "/>
<line fill="none" stroke="#000000" stroke-width="0.45" stroke-linecap="round" stroke-linejoin="round" stroke-miterlimit="10" x1="454.1" y1="212.9" x2="454.2" y2="213"/>
<polyline fill="none" stroke="#000000" stroke-width="0.5" stroke-linecap="round" stroke-linejoin="round" stroke-miterlimit="10" points="
	454,212.9 453.6,213.3 454.8,213.3 454.2,213.7 453.1,213.7 452.5,214.1 453.8,214.1 453.3,214.5 452.1,214.5 451.5,214.9 
	452.8,214.9 452.2,215.3 451,215.3 450.5,215.8 451.8,215.8 451.2,216.1 450,216.1 449.5,216.5 450.7,216.5 450.2,216.9 449,216.9 
	448.5,217.3 449.7,217.3 449.2,217.8 448,217.8 447.4,218.2 448.7,218.2 448.2,218.6 447,218.6 446.4,219 447.7,219 447.2,219.4 
	445.9,219.4 445.4,219.8 446.7,219.8 446.2,220.2 444.9,220.2 444.4,220.6 445.6,220.6 445.2,221 443.9,221 "/>
<line fill="none" stroke="#000000" stroke-width="0.45" stroke-linecap="round" stroke-linejoin="round" stroke-miterlimit="10" x1="443.7" y1="221.4" x2="443.7" y2="221.5"/>
<line fill="none" stroke="#000000" stroke-width="0.45" stroke-linecap="round" stroke-linejoin="round" stroke-miterlimit="10" x1="443.7" y1="221.4" x2="444.7" y2="221.5"/>
<line fill="none" stroke="#000000" stroke-width="0.45" stroke-linecap="round" stroke-linejoin="round" stroke-miterlimit="10" x1="443.8" y1="221.6" x2="443.9" y2="221.6"/>
<polyline fill="none" stroke="#000000" stroke-width="0.45" stroke-linecap="round" stroke-linejoin="round" stroke-miterlimit="10" points="
	443.8,221.5 443.8,222.2 443.4,222.6 443.4,221.4 443,221.9 443,223.1 442.6,223.6 442.6,222.3 442.2,222.9 442.2,224 441.8,224.5 
	441.8,223.3 441.4,223.8 441.4,225 441,225.5 441,224.3 440.6,224.7 440.6,225.9 440.1,226.4 440.1,225.2 439.7,225.6 439.7,226.9 
	439.4,227.3 439.4,226.1 439,226.6 439,227.8 438.5,228.3 438.5,227.1 438.1,227.6 438.1,228.7 437.7,229.2 437.7,228 437.3,228.5 
	437.3,229.7 436.9,230.2 436.9,229 436.5,229.4 436.5,230.6 436.1,231.1 436.1,230 435.7,230.4 435.7,231.6 435.3,232 435.3,230.9 
	434.9,231.4 434.9,232.5 434.5,233 434.5,231.8 434.1,232.3 434.1,233.4 433.7,233.9 433.7,232.7 433.3,233.2 433.3,234.4 
	432.9,234.4 431.3,234.4 "/>
<line fill="none" stroke="#000000" stroke-width="0.45" stroke-linecap="round" stroke-linejoin="round" stroke-miterlimit="10" x1="431.2" y1="235.3" x2="431.3" y2="235.3"/>
<polyline fill="none" stroke="#000000" stroke-width="0.45" stroke-linecap="round" stroke-linejoin="round" stroke-miterlimit="10" points="
	431.2,235.3 430,235.6 427.6,235.6 426.3,236.1 428.7,236.1 427.5,236.4 425.1,236.4 423.9,236.8 426.3,236.8 425.1,237.3 
	422.7,237.3 421.5,237.7 423.9,237.7 422.6,238.1 420.3,238.1 419,238.5 421.4,238.5 420.2,238.9 417.8,238.9 416.6,239.3 
	419,239.3 417.8,239.7 415.4,239.7 414.2,240.1 416.5,240.1 415.4,240.5 412.9,240.5 411.8,240.9 414.2,240.9 412.9,241.3 
	410.5,241.3 409.3,241.7 411.7,241.7 410.5,242.1 408.1,242.1 406.9,242.5 409.3,242.5 408,242.9 405.6,242.9 404.4,243.4 
	406.8,243.4 405.6,243.7 403.2,243.7 402,244.1 404.4,244.1 403.2,244.6 400.8,244.6 399.5,245 402,245 400.7,245.4 398.4,245.4 
	397.2,245.8 399.5,245.8 398.3,246.2 395.9,246.2 394.7,246.6 397.1,246.6 395.9,247 393.5,247 392.3,247.4 394.6,247.4 
	393.5,247.8 391.1,247.8 389.8,248.2 392.2,248.2 391,248.6 388.6,248.6 387.4,249 389.8,249 388.6,249.4 386.2,249.4 384.9,249.8 
	387.3,249.8 386.1,250.2 383.7,250.2 382.5,250.6 384.9,250.6 383.7,251.1 381.3,251.1 380.1,251.5 382.5,251.5 381.3,251.8 
	378.9,251.8 377.7,252.3 380.1,252.3 378.8,252.7 376.4,252.7 375.2,253.1 377.6,253.1 376.4,253.5 374,253.5 372.8,253.9 
	375.2,253.9 374,254.3 371.6,254.3 370.3,254.7 372.8,254.7 371.5,255.1 369.1,255.1 367.9,255.5 370.3,255.5 369.1,255.9 
	366.7,255.9 365.5,256.3 367.9,256.3 366.6,256.7 364.3,256.7 363.1,257.2 365.5,257.2 364.2,257.5 361.9,257.5 360.6,257.9 
	363,257.9 361.8,258.4 359.4,258.4 358.2,258.8 360.6,258.8 359.4,259.2 357,259.2 355.8,259.6 358.1,259.6 356.9,260 354.5,260 
	353.3,260.4 355.7,260.4 354.5,260.8 352.1,260.8 350.9,261.2 353.3,261.2 352.1,261.6 349.6,261.6 348.5,262 350.8,262 
	349.6,262.4 347.2,262.4 346,262.8 348.4,262.8 347.2,263.2 344.8,263.2 343.6,263.6 346,263.6 344.8,264 342.4,264 341.1,264.4 
	343.6,264.4 342.3,264.8 340,264.8 338.7,265.3 341.1,265.3 339.9,265.7 337.5,265.7 336.3,266.1 338.7,266.1 337.4,266.4 
	335.1,266.4 333.8,266.9 336.2,266.9 335,267.3 332.6,267.3 331.4,267.7 333.8,267.7 332.6,268.1 330.2,268.1 329,268.5 
	331.4,268.5 330.2,268.9 327.8,268.9 326.5,269.3 328.9,269.3 327.8,269.7 325.3,269.7 324.1,270.1 326.5,270.1 325.3,270.5 
	322.9,270.5 321.7,270.9 324.1,270.9 322.9,271.3 320.4,271.3 319.2,271.7 321.6,271.7 320.4,272.1 318,272.1 316.8,272.5 
	319.2,272.5 318,273 315.6,273 314.4,273.4 316.8,273.4 315.6,273.7 313.2,273.7 312,274.2 314.4,274.2 313.1,274.6 310.7,274.6 
	309.5,275 311.9,275 310.7,275.4 308.3,275.4 307.1,275.8 309.5,275.8 308.2,276.2 305.9,276.2 304.6,276.6 307,276.6 305.8,277 
	303.4,277 302.2,277.4 304.6,277.4 303.4,277.8 301,277.8 299.8,278.2 302.1,278.2 300.9,278.6 298.6,278.6 297.4,279 299.7,279 
	298.5,279.5 296.1,279.5 294.9,279.8 297.3,279.8 296.1,280.2 293.7,280.2 292.5,280.7 294.9,280.7 293.7,281.1 291.2,281.1 
	290,281.5 292.4,281.5 291.2,281.9 288.8,281.9 287.6,282.3 290,282.3 288.8,282.7 286.4,282.7 285.1,283.1 287.5,283.1 
	286.3,283.5 283.9,283.5 282.7,283.9 285.1,283.9 283.9,284.3 281.6,284.3 280.3,284.7 282.7,284.7 281.5,285.1 279.1,285.1 
	277.9,285.5 280.3,285.5 279,285.9 276.7,285.9 275.4,286.3 277.8,286.3 276.6,286.7 274.2,286.7 273,287.2 275.4,287.2 
	274.2,287.5 271.8,287.5 270.6,288 272.9,288 271.7,288.4 269.3,288.4 268.1,288.7 270.5,288.7 269.3,289.2 266.9,289.2 "/>
<line fill="none" stroke="#000000" stroke-width="0.45" stroke-linecap="round" stroke-linejoin="round" stroke-miterlimit="10" x1="266.8" y1="290" x2="266.9" y2="290.1"/>
<polyline fill="none" stroke="#000000" stroke-width="0.5" stroke-linecap="round" stroke-linejoin="round" stroke-miterlimit="10" points="
	266.8,290 265.8,290 265.8,290.4 265.8,289.6 432.6,234 433.1,234.6 432.6,234 443.5,221.3 444.1,221.9 433.1,234.6 265.8,290.4 "/>
<line fill="none" stroke="#000000" stroke-width="0.45" stroke-linecap="round" stroke-linejoin="round" stroke-miterlimit="10" x1="265.8" y1="289.6" x2="265.8" y2="289.7"/>
<polyline fill="none" stroke="#000000" stroke-width="0.45" stroke-linecap="round" stroke-linejoin="round" stroke-miterlimit="10" points="
	265.8,289.6 268,289.6 266.8,290 "/>
<line fill="none" stroke="#000000" stroke-width="0.45" stroke-linecap="round" stroke-linejoin="round" stroke-miterlimit="10" x1="132.8" y1="224.3" x2="132.9" y2="224.3"/>
<polyline fill="none" stroke="#000000" stroke-width="0.45" stroke-linecap="round" stroke-linejoin="round" stroke-miterlimit="10" points="
	132.8,224.3 132,223.9 130.3,223.9 129.4,223.4 131.2,223.4 130.3,223 128.6,223 127.7,222.6 129.5,222.6 128.7,222.2 126.9,222.2 
	126.1,221.8 127.8,221.8 127,221.4 125.3,221.4 124.4,221 126.2,221 125.4,220.6 123.6,220.6 122.8,220.2 124.5,220.2 123.7,219.8 
	121.9,219.8 121.1,219.4 122.9,219.4 122.1,219 120.3,219 119.4,218.6 121.2,218.6 120.4,218.2 118.6,218.2 117.8,217.8 
	119.6,217.8 118.8,217.3 117,217.3 116.1,216.9 117.9,216.9 117.1,216.5 115.3,216.5 114.5,216.1 116.3,216.1 115.4,215.7 
	113.7,215.7 112.9,215.3 114.6,215.3 113.8,214.9 112,214.9 111.2,214.5 113,214.5 112.1,214.1 110.4,214.1 109.5,213.7 
	111.3,213.7 110.5,213.3 108.7,213.3 107.9,212.9 109.6,212.9 108.8,212.5 107.6,212.5 "/>
<line fill="none" stroke="#000000" stroke-width="0.45" stroke-linecap="round" stroke-linejoin="round" stroke-miterlimit="10" x1="131" y1="224.3" x2="131.1" y2="224.3"/>
<polyline fill="none" stroke="#000000" stroke-width="0.45" stroke-linecap="round" stroke-linejoin="round" stroke-miterlimit="10" points="
	131,224.3 131.9,224.6 133.6,224.6 134.5,225.1 132.7,225.1 133.5,225.5 135.3,225.5 136.1,225.9 134.3,225.9 135.1,226.3 
	136.9,226.3 137.8,226.7 136,226.7 136.8,227.1 138.6,227.1 139.4,227.5 137.7,227.5 138.5,227.9 140.2,227.9 141.1,228.3 
	139.3,228.3 140.1,228.7 141.9,228.7 142.7,229.1 141,229.1 141.8,229.5 143.5,229.5 144.4,230 142.6,230 143.4,230.3 145.2,230.3 
	146,230.7 144.3,230.7 145.1,231.2 146.9,231.2 147.7,231.6 145.9,231.6 146.8,232 148.5,232 149.3,232.4 147.6,232.4 148.4,232.8 
	150.2,232.8 151,233.2 149.2,233.2 150.1,233.6 151.9,233.6 152.6,234 150.9,234 151.7,234.4 153.5,234.4 154.3,234.8 152.5,234.8 
	153.4,235.2 155.1,235.2 155.9,235.6 154.2,235.6 155,236 156.7,236 157.6,236.4 155.9,236.4 156.7,236.8 158.4,236.8 159.2,237.2 
	157.5,237.2 158.4,237.7 160.1,237.7 160.9,238 159.2,238 160,238.5 161.7,238.5 162.6,238.9 160.8,238.9 161.6,239.3 163.4,239.3 
	164.2,239.7 162.5,239.7 163.3,240.1 165,240.1 165.9,240.5 164.1,240.5 164.9,240.9 166.7,240.9 167.5,241.3 165.8,241.3 
	166.6,241.7 168.3,241.7 169.2,242.1 167.4,242.1 168.3,242.5 170,242.5 170.8,242.9 169.1,242.9 169.9,243.4 171.6,243.4 
	172.4,243.7 170.7,243.7 171.6,244.1 173.3,244.1 174.1,244.6 172.4,244.6 173.2,245 175,245 175.8,245.4 174,245.4 174.9,245.8 
	176.6,245.8 177.4,246.2 175.7,246.2 176.5,246.6 178.3,246.6 179.1,247 177.3,247 178.2,247.4 179.9,247.4 180.7,247.8 179,247.8 
	179.8,248.2 181.6,248.2 182.4,248.6 180.7,248.6 181.5,249 183.2,249 184,249.4 182.3,249.4 183.2,249.8 184.9,249.8 185.7,250.2 
	184,250.2 184.8,250.6 186.5,250.6 187.4,251.1 185.6,251.1 186.4,251.5 188.2,251.5 189,251.8 187.3,251.8 188.1,252.3 
	189.8,252.3 190.6,252.7 188.9,252.7 189.7,253.1 191.5,253.1 192.3,253.5 190.6,253.5 191.4,253.9 193.1,253.9 194,254.3 
	192.2,254.3 193.1,254.7 194.8,254.7 195.6,255.1 193.9,255.1 194.7,255.5 196.5,255.5 197.3,255.9 195.6,255.9 196.4,256.3 
	198.1,256.3 198.9,256.7 197.2,256.7 198,257.2 199.8,257.2 200.6,257.5 198.8,257.5 199.7,257.9 201.4,257.9 202.2,258.4 
	200.5,258.4 201.3,258.8 203,258.8 203.9,259.2 202.2,259.2 203,259.6 204.7,259.6 205.5,260 203.8,260 204.6,260.4 206.4,260.4 
	207.2,260.8 205.4,260.8 206.3,261.2 208,261.2 208.9,261.6 207.1,261.6 207.9,262 209.7,262 210.5,262.4 208.8,262.4 209.6,262.8 
	211.3,262.8 212.2,263.2 210.4,263.2 211.3,263.6 213,263.6 213.8,264 212.1,264 212.9,264.5 214.6,264.5 215.5,264.9 213.7,264.9 
	214.5,265.3 216.2,265.3 217.1,265.7 215.4,265.7 216.2,266.1 217.9,266.1 218.8,266.5 217.1,266.5 217.8,266.9 219.6,266.9 
	220.4,267.3 218.7,267.3 219.5,267.7 221.2,267.7 222.1,268.1 220.3,268.1 221.2,268.5 222.9,268.5 223.7,268.9 222,268.9 
	222.8,269.3 224.6,269.3 225.4,269.7 223.7,269.7 224.5,270.1 226.2,270.1 227,270.6 225.3,270.6 226.1,271 227.8,271 228.7,271.3 
	227,271.3 227.8,271.8 229.5,271.8 230.3,272.2 228.6,272.2 229.5,272.6 231.2,272.6 232,273 230.2,273 231.1,273.4 232.8,273.4 
	233.6,273.8 231.9,273.8 232.7,274.2 234.4,274.2 235.3,274.6 233.6,274.6 234.4,275 236.1,275 236.9,275.4 235.2,275.4 
	236.1,275.8 237.8,275.8 238.6,276.2 236.9,276.2 237.7,276.6 239.4,276.6 240.3,277 238.6,277 239.4,277.4 241.1,277.4 
	241.9,277.9 240.2,277.9 241,278.3 242.7,278.3 243.6,278.7 241.9,278.7 242.7,279.1 244.4,279.1 245.2,279.5 243.5,279.5 
	244.3,279.9 246,279.9 246.8,280.3 245.1,280.3 246,280.7 247.7,280.7 248.5,281.1 246.8,281.1 247.6,281.5 249.3,281.5 
	250.1,281.9 248.5,281.9 249.3,282.3 251,282.3 251.8,282.7 250.1,282.7 251,283.1 252.6,283.1 253.5,283.5 251.8,283.5 
	252.6,283.9 254.3,283.9 255.1,284.4 253.4,284.4 254.3,284.8 256,284.8 256.8,285.1 255.1,285.1 255.9,285.6 257.6,285.6 
	258.4,286 256.7,286 257.5,286.4 259.2,286.4 260.1,286.8 258.4,286.8 259.2,287.2 260.9,287.2 261.7,287.6 260,287.6 260.9,288 
	262.6,288 263.4,288.4 261.7,288.4 262.5,288.8 264.2,288.8 265.1,289.2 263.4,289.2 264.2,289.6 265.8,289.6 265.8,290 265,290 "/>
<line fill="none" stroke="#000000" stroke-width="0.45" stroke-linecap="round" stroke-linejoin="round" stroke-miterlimit="10" x1="265.8" y1="290.4" x2="265.8" y2="290.4"/>
<polyline fill="none" stroke="#000000" stroke-width="0.5" stroke-linecap="round" stroke-linejoin="round" stroke-miterlimit="10" points="
	265.8,290.4 107.6,212.7 107.8,211.9 265.8,289.6 265.8,290.4 "/>
<line fill="none" stroke="#000000" stroke-width="0.45" stroke-linecap="round" stroke-linejoin="round" stroke-miterlimit="10" x1="132.8" y1="224.3" x2="132.9" y2="224.3"/>
<line fill="none" stroke="#000000" stroke-width="0.45" stroke-linecap="round" stroke-linejoin="round" stroke-miterlimit="10" x1="132.8" y1="224.3" x2="131" y2="224.3"/>
<line fill="none" stroke="#000000" stroke-width="0.45" stroke-linecap="round" stroke-linejoin="round" stroke-miterlimit="10" x1="107.6" y1="212.7" x2="107.7" y2="212.8"/>
<polyline fill="none" stroke="#000000" stroke-width="0.45" stroke-linecap="round" stroke-linejoin="round" stroke-miterlimit="10" points="
	107.6,212.7 65.6,212.7 65.6,211.9 107.8,211.9 107.6,212.7 107.6,212.5 65.6,212.5 65.6,212 107.7,212 "/>
<line fill="none" stroke="#000000" stroke-width="0.45" stroke-linecap="round" stroke-linejoin="round" stroke-miterlimit="10" x1="428.8" y1="235.3" x2="428.9" y2="235.3"/>
<line fill="none" stroke="#000000" stroke-width="0.45" stroke-linecap="round" stroke-linejoin="round" stroke-miterlimit="10" x1="428.8" y1="235.3" x2="431.2" y2="235.3"/>
<line fill="none" stroke="#000000" stroke-width="0.45" stroke-linecap="round" stroke-linejoin="round" stroke-miterlimit="10" x1="430" y1="234.8" x2="430" y2="234.9"/>
<line fill="none" stroke="#000000" stroke-width="0.45" stroke-linecap="round" stroke-linejoin="round" stroke-miterlimit="10" x1="430" y1="234.8" x2="428.8" y2="235.3"/>
<line fill="none" stroke="#000000" stroke-width="0.45" stroke-linecap="round" stroke-linejoin="round" stroke-miterlimit="10" x1="430" y1="234.8" x2="430" y2="234.9"/>
<line fill="none" stroke="#000000" stroke-width="0.45" stroke-linecap="round" stroke-linejoin="round" stroke-miterlimit="10" x1="430" y1="234.8" x2="432.4" y2="234.9"/>
<line fill="none" stroke="#000000" stroke-width="0.45" stroke-linecap="round" stroke-linejoin="round" stroke-miterlimit="10" x1="454.1" y1="212.9" x2="454.2" y2="213"/>
<line fill="none" stroke="#000000" stroke-width="0.45" stroke-linecap="round" stroke-linejoin="round" stroke-miterlimit="10" x1="454.1" y1="212.9" x2="455.1" y2="213"/>
<line fill="none" stroke="#000000" stroke-width="0.45" stroke-linecap="round" stroke-linejoin="round" stroke-miterlimit="10" x1="457.3" y1="207" x2="457.3" y2="207.1"/>
<line fill="none" stroke="#000000" stroke-width="0.45" stroke-linecap="round" stroke-linejoin="round" stroke-miterlimit="10" x1="457.3" y1="207" x2="457.3" y2="204.6"/>
<line fill="none" stroke="#000000" stroke-width="0.45" stroke-linecap="round" stroke-linejoin="round" stroke-miterlimit="10" x1="457.6" y1="203.4" x2="457.7" y2="203.5"/>
<polyline fill="none" stroke="#000000" stroke-width="0.45" stroke-linecap="round" stroke-linejoin="round" stroke-miterlimit="10" points="
	457.6,203.4 457.6,205.8 457.3,207 "/>
<line fill="none" stroke="#000000" stroke-width="0.45" stroke-linecap="round" stroke-linejoin="round" stroke-miterlimit="10" x1="458.1" y1="202.7" x2="458.2" y2="202.8"/>
<polyline fill="none" stroke="#000000" stroke-width="0.5" stroke-linecap="round" stroke-linejoin="round" stroke-miterlimit="10" points="
	458.1,202.7 460.6,202.7 462.5,202.3 458.9,202.3 460.7,201.9 464.4,201.9 466.3,201.5 462.7,201.5 464.6,201.1 468.3,201.1 
	470.1,200.7 466.5,200.7 468.3,200.3 472,200.3 "/>
<line fill="none" stroke="#000000" stroke-width="0.45" stroke-linecap="round" stroke-linejoin="round" stroke-miterlimit="10" x1="472.1" y1="199.5" x2="472.1" y2="199.6"/>
<polyline fill="none" stroke="#000000" stroke-width="0.45" stroke-linecap="round" stroke-linejoin="round" stroke-miterlimit="10" points="
	472.1,199.5 470.2,199.9 473.7,199.9 "/>
<line fill="none" stroke="#000000" stroke-width="0.45" stroke-linecap="round" stroke-linejoin="round" stroke-miterlimit="10" x1="473.6" y1="199.5" x2="473.7" y2="199.6"/>
<line fill="none" stroke="#000000" stroke-width="0.45" stroke-linecap="round" stroke-linejoin="round" stroke-miterlimit="10" x1="473.6" y1="199.5" x2="478.2" y2="199.6"/>
<line fill="none" stroke="#000000" stroke-width="0.45" stroke-linecap="round" stroke-linejoin="round" stroke-miterlimit="10" x1="478.5" y1="198.7" x2="478.6" y2="198.7"/>
<line fill="none" stroke="#000000" stroke-width="0.45" stroke-linecap="round" stroke-linejoin="round" stroke-miterlimit="10" x1="478.5" y1="198.7" x2="484.8" y2="198.7"/>
<line fill="none" stroke="#000000" stroke-width="0.45" stroke-linecap="round" stroke-linejoin="round" stroke-miterlimit="10" x1="484.7" y1="198.3" x2="484.8" y2="198.3"/>
<polyline fill="none" stroke="#000000" stroke-width="0.5" stroke-linecap="round" stroke-linejoin="round" stroke-miterlimit="10" points="
	484.7,198.3 487.5,198.3 489.4,197.9 485.6,197.9 487.5,197.4 491.2,197.4 493.1,197 489.4,197 491.3,196.7 495,196.7 496.9,196.2 
	493.2,196.2 495,195.8 498.8,195.8 "/>
<line fill="none" stroke="#000000" stroke-width="0.45" stroke-linecap="round" stroke-linejoin="round" stroke-miterlimit="10" x1="498.8" y1="195" x2="498.9" y2="195.1"/>
<polyline fill="none" stroke="#000000" stroke-width="0.45" stroke-linecap="round" stroke-linejoin="round" stroke-miterlimit="10" points="
	498.8,195 497,195.4 500.3,195.4 "/>
<line fill="none" stroke="#000000" stroke-width="0.45" stroke-linecap="round" stroke-linejoin="round" stroke-miterlimit="10" x1="500.2" y1="195" x2="500.3" y2="195.1"/>
<line fill="none" stroke="#000000" stroke-width="0.45" stroke-linecap="round" stroke-linejoin="round" stroke-miterlimit="10" x1="500.2" y1="195" x2="498.8" y2="195.1"/>
<line fill="none" stroke="#000000" stroke-width="0.45" stroke-linecap="round" stroke-linejoin="round" stroke-miterlimit="10" x1="482.3" y1="199.1" x2="482.4" y2="199.2"/>
<line fill="none" stroke="#000000" stroke-width="0.45" stroke-linecap="round" stroke-linejoin="round" stroke-miterlimit="10" x1="482.3" y1="199.1" x2="474.4" y2="199.2"/>
<line fill="none" stroke="#000000" stroke-width="0.45" stroke-linecap="round" stroke-linejoin="round" stroke-miterlimit="10" x1="473.6" y1="199.5" x2="473.7" y2="199.6"/>
<line fill="none" stroke="#000000" stroke-width="0.5" stroke-linecap="round" stroke-linejoin="round" stroke-miterlimit="10" x1="473.6" y1="199.5" x2="472.1" y2="199.6"/>
<g>
	<path d="M188.5,133.2l0.1,2.6h-0.3c-0.1-0.5-0.1-0.8-0.2-1c-0.2-0.3-0.4-0.6-0.7-0.7c-0.3-0.2-0.7-0.2-1.1-0.2h-1.6v8.6
		c0,0.7,0.1,1.1,0.2,1.3c0.2,0.2,0.5,0.3,1,0.3h0.4v0.3h-4.8v-0.3h0.4c0.5,0,0.8-0.1,1-0.4c0.1-0.2,0.2-0.6,0.2-1.2V134h-1.4
		c-0.5,0-0.9,0-1.1,0.1c-0.3,0.1-0.5,0.3-0.7,0.6s-0.3,0.7-0.4,1.2h-0.3l0.1-2.6H188.5z"/>
	<path d="M197.2,133.2h3.9v0.3h-0.2c-0.1,0-0.4,0.1-0.6,0.2c-0.3,0.1-0.5,0.3-0.8,0.5s-0.5,0.6-0.8,1.2l-2.7,4.3v2.8
		c0,0.7,0.1,1.1,0.2,1.3c0.2,0.2,0.5,0.3,1,0.3h0.4v0.3h-4.8v-0.3h0.4c0.5,0,0.8-0.1,1-0.4c0.1-0.2,0.2-0.6,0.2-1.2v-2.7l-3.1-4.7
		c-0.4-0.6-0.6-0.9-0.7-1s-0.4-0.3-0.8-0.5c-0.1-0.1-0.3-0.1-0.5-0.1v-0.3h4.8v0.3h-0.2c-0.3,0-0.5,0.1-0.7,0.2s-0.3,0.3-0.3,0.5
		c0,0.2,0.2,0.6,0.5,1.1l2.3,3.6l2.2-3.5c0.3-0.5,0.5-0.9,0.5-1.2c0-0.2,0-0.3-0.1-0.4s-0.2-0.2-0.3-0.3c-0.1-0.1-0.4-0.1-0.7-0.1
		V133.2z"/>
	<path d="M204.9,139.2v3.3c0,0.7,0.1,1.1,0.2,1.3c0.2,0.2,0.5,0.4,1,0.4h0.4v0.3h-4.8v-0.3h0.4c0.5,0,0.8-0.2,1-0.5
		c0.1-0.2,0.2-0.6,0.2-1.2v-7.3c0-0.7-0.1-1.1-0.2-1.3c-0.2-0.2-0.5-0.4-1-0.4h-0.4v-0.3h4.1c1,0,1.8,0.1,2.4,0.3
		c0.6,0.2,1.1,0.6,1.5,1s0.6,1.1,0.6,1.8c0,0.9-0.3,1.7-0.9,2.2c-0.6,0.6-1.5,0.9-2.6,0.9c-0.3,0-0.6,0-0.9-0.1
		S205.2,139.3,204.9,139.2z M204.9,138.8c0.3,0.1,0.6,0.1,0.8,0.1s0.4,0,0.6,0c0.6,0,1.1-0.2,1.5-0.7c0.4-0.4,0.6-1,0.6-1.7
		c0-0.5-0.1-0.9-0.3-1.4c-0.2-0.4-0.5-0.7-0.8-0.9c-0.4-0.2-0.8-0.3-1.2-0.3c-0.3,0-0.6,0.1-1.1,0.2V138.8z"/>
	<path d="M216.1,144.2v0.3h-4.8v-0.3h0.4c0.5,0,0.8-0.1,1-0.4c0.1-0.2,0.2-0.6,0.2-1.3v-7.3c0-0.6,0-0.9-0.1-1.1
		c-0.1-0.1-0.2-0.3-0.3-0.4c-0.2-0.1-0.5-0.2-0.8-0.2h-0.4v-0.3h4.8v0.3h-0.4c-0.5,0-0.8,0.1-1,0.4c-0.1,0.2-0.2,0.6-0.2,1.3v7.3
		c0,0.6,0,0.9,0.1,1.1c0.1,0.1,0.2,0.3,0.3,0.4c0.2,0.1,0.5,0.2,0.8,0.2H216.1z"/>
	<path d="M226.7,133l0.3,3.8h-0.3c-0.3-1.1-0.8-2-1.5-2.5s-1.4-0.8-2.3-0.8c-0.7,0-1.4,0.2-2,0.6c-0.6,0.4-1.1,1-1.4,1.8
		s-0.5,1.9-0.5,3.1c0,1,0.2,1.9,0.5,2.6c0.3,0.7,0.8,1.3,1.5,1.7c0.7,0.4,1.4,0.6,2.2,0.6c0.7,0,1.4-0.2,1.9-0.5
		c0.6-0.3,1.2-0.9,1.8-1.9l0.3,0.2c-0.6,1-1.2,1.7-2,2.2c-0.8,0.5-1.6,0.7-2.7,0.7c-1.9,0-3.3-0.7-4.3-2.1c-0.8-1-1.1-2.2-1.1-3.6
		c0-1.1,0.3-2.2,0.8-3.1c0.5-0.9,1.2-1.7,2.1-2.2c0.9-0.5,1.8-0.8,2.9-0.8c0.8,0,1.6,0.2,2.4,0.6c0.2,0.1,0.4,0.2,0.5,0.2
		c0.1,0,0.3-0.1,0.4-0.2c0.1-0.1,0.2-0.4,0.3-0.6H226.7z"/>
	<path d="M235.6,140.7h-4.4l-0.8,1.8c-0.2,0.4-0.3,0.8-0.3,1c0,0.2,0.1,0.3,0.2,0.5c0.2,0.1,0.5,0.2,1.1,0.3v0.3H228v-0.3
		c0.5-0.1,0.8-0.2,0.9-0.3c0.3-0.3,0.6-0.8,0.9-1.6l4-9.3h0.3l3.9,9.4c0.3,0.8,0.6,1.2,0.9,1.5c0.3,0.2,0.6,0.3,1.1,0.4v0.3h-4.4
		v-0.3c0.4,0,0.8-0.1,0.9-0.2c0.2-0.1,0.2-0.3,0.2-0.5c0-0.2-0.1-0.6-0.3-1.2L235.6,140.7z M235.4,140.1l-1.9-4.5l-2,4.5H235.4z"/>
	<path d="M249.8,141.4l0.3,0.1l-1,3.1h-8.7v-0.3h0.4c0.5,0,0.8-0.2,1-0.5c0.1-0.2,0.2-0.6,0.2-1.2v-7.3c0-0.7-0.1-1.1-0.2-1.3
		c-0.2-0.2-0.5-0.4-1-0.4h-0.4v-0.3h5.1v0.3c-0.6,0-1,0-1.3,0.2c-0.2,0.1-0.4,0.3-0.5,0.4s-0.1,0.6-0.1,1.3v7.1c0,0.5,0,0.8,0.1,0.9
		c0.1,0.1,0.2,0.2,0.3,0.3c0.1,0.1,0.6,0.1,1.3,0.1h0.8c0.9,0,1.5-0.1,1.8-0.2s0.7-0.4,1-0.7C249.3,142.6,249.6,142.1,249.8,141.4z"
		/>
	<path d="M257.6,133.9v4.4h2c0.5,0,0.8-0.1,1-0.3c0.2-0.2,0.4-0.6,0.4-1.2h0.3v3.8h-0.3c0-0.4-0.1-0.8-0.2-1
		c-0.1-0.2-0.3-0.4-0.4-0.5c-0.2-0.1-0.5-0.2-0.9-0.2h-2v3.5c0,0.6,0,0.9,0.1,1.1c0.1,0.1,0.2,0.3,0.3,0.4c0.2,0.1,0.5,0.2,0.8,0.2
		h0.4v0.3h-4.8v-0.3h0.4c0.5,0,0.8-0.1,1-0.4c0.1-0.2,0.2-0.6,0.2-1.3v-7.3c0-0.6,0-0.9-0.1-1.1c-0.1-0.1-0.2-0.3-0.3-0.4
		c-0.2-0.1-0.5-0.2-0.8-0.2h-0.4v-0.3h8.4l0.1,2.5h-0.3c-0.1-0.5-0.3-0.9-0.5-1.2c-0.2-0.2-0.4-0.4-0.7-0.5s-0.7-0.2-1.3-0.2H257.6z
		"/>
	<path d="M268.8,144.2v0.3H264v-0.3h0.4c0.5,0,0.8-0.1,1-0.4c0.1-0.2,0.2-0.6,0.2-1.3v-7.3c0-0.6,0-0.9-0.1-1.1
		c-0.1-0.1-0.2-0.3-0.3-0.4c-0.2-0.1-0.5-0.2-0.8-0.2H264v-0.3h4.8v0.3h-0.4c-0.5,0-0.8,0.1-1,0.4c-0.1,0.2-0.2,0.6-0.2,1.3v7.3
		c0,0.6,0,0.9,0.1,1.1c0.1,0.1,0.2,0.3,0.3,0.4c0.2,0.1,0.5,0.2,0.8,0.2H268.8z"/>
	<path d="M279,141.4l0.3,0.1l-1,3.1h-8.7v-0.3h0.4c0.5,0,0.8-0.2,1-0.5c0.1-0.2,0.2-0.6,0.2-1.2v-7.3c0-0.7-0.1-1.1-0.2-1.3
		c-0.2-0.2-0.5-0.4-1-0.4h-0.4v-0.3h5.1v0.3c-0.6,0-1,0-1.3,0.2c-0.2,0.1-0.4,0.3-0.5,0.4s-0.1,0.6-0.1,1.3v7.1c0,0.5,0,0.8,0.1,0.9
		c0.1,0.1,0.2,0.2,0.3,0.3c0.1,0.1,0.6,0.1,1.3,0.1h0.8c0.9,0,1.5-0.1,1.8-0.2s0.7-0.4,1-0.7C278.4,142.6,278.7,142.1,279,141.4z"/>
	<path d="M289.3,141.4l0.3,0.1l-1,3.1h-8.7v-0.3h0.4c0.5,0,0.8-0.2,1-0.5c0.1-0.2,0.2-0.6,0.2-1.2v-7.3c0-0.7-0.1-1.1-0.2-1.3
		c-0.2-0.2-0.5-0.4-1-0.4h-0.4v-0.3h5.1v0.3c-0.6,0-1,0-1.3,0.2c-0.2,0.1-0.4,0.3-0.5,0.4s-0.1,0.6-0.1,1.3v7.1c0,0.5,0,0.8,0.1,0.9
		c0.1,0.1,0.2,0.2,0.3,0.3c0.1,0.1,0.6,0.1,1.3,0.1h0.8c0.9,0,1.5-0.1,1.8-0.2s0.7-0.4,1-0.7C288.8,142.6,289.1,142.1,289.3,141.4z"
		/>
	<path d="M301.4,133v3.9h-0.3c-0.1-0.7-0.3-1.3-0.5-1.8c-0.3-0.4-0.6-0.8-1.1-1.1c-0.5-0.3-1-0.4-1.5-0.4c-0.6,0-1.1,0.2-1.4,0.5
		c-0.4,0.4-0.6,0.8-0.6,1.2c0,0.3,0.1,0.7,0.4,0.9c0.3,0.4,1.2,1,2.4,1.7c1.1,0.6,1.8,1,2.2,1.3c0.4,0.3,0.7,0.7,0.9,1.1
		c0.2,0.4,0.3,0.8,0.3,1.3c0,0.9-0.3,1.6-1,2.2c-0.7,0.6-1.5,0.9-2.6,0.9c-0.3,0-0.6,0-0.9-0.1c-0.2,0-0.5-0.1-1.1-0.3
		c-0.5-0.2-0.9-0.3-1-0.3c-0.1,0-0.2,0-0.3,0.1s-0.1,0.3-0.2,0.5h-0.3v-3.9h0.3c0.1,0.8,0.3,1.4,0.6,1.8c0.2,0.4,0.6,0.7,1.1,1
		s1.1,0.4,1.6,0.4c0.7,0,1.2-0.2,1.6-0.5s0.6-0.8,0.6-1.3c0-0.3-0.1-0.6-0.2-0.8s-0.4-0.5-0.7-0.8c-0.2-0.2-0.8-0.5-1.8-1.1
		c-1-0.5-1.6-1-2.1-1.3c-0.4-0.3-0.7-0.7-0.9-1.1s-0.3-0.8-0.3-1.3c0-0.8,0.3-1.5,0.9-2.1c0.6-0.6,1.4-0.9,2.4-0.9
		c0.6,0,1.2,0.1,1.9,0.4c0.3,0.1,0.5,0.2,0.7,0.2c0.1,0,0.3,0,0.4-0.1c0.1-0.1,0.2-0.3,0.2-0.5H301.4z"/>
	<path d="M306.6,133.9v4.4h2.5c0.6,0,1.1-0.1,1.3-0.3c0.3-0.3,0.4-0.7,0.5-1.3h0.3v3.9h-0.3c-0.1-0.5-0.2-0.9-0.2-1.1
		c-0.1-0.2-0.3-0.3-0.5-0.5s-0.6-0.2-1-0.2h-2.5v3.7c0,0.5,0,0.8,0.1,0.9c0,0.1,0.1,0.2,0.2,0.3c0.1,0.1,0.3,0.1,0.6,0.1h1.9
		c0.6,0,1.1,0,1.4-0.1c0.3-0.1,0.6-0.3,0.8-0.5c0.3-0.3,0.7-0.9,1.1-1.6h0.3l-1,2.8h-8.7v-0.3h0.4c0.3,0,0.5-0.1,0.8-0.2
		c0.2-0.1,0.3-0.2,0.4-0.4s0.1-0.5,0.1-1.1v-7.3c0-0.7-0.1-1.2-0.2-1.3c-0.2-0.2-0.5-0.3-1-0.3h-0.4v-0.3h8.7l0.1,2.5h-0.3
		c-0.1-0.6-0.2-1-0.4-1.2c-0.1-0.2-0.3-0.4-0.6-0.5c-0.2-0.1-0.6-0.1-1.2-0.1H306.6z"/>
	<path d="M323.7,133l0.3,3.8h-0.3c-0.3-1.1-0.8-2-1.5-2.5s-1.4-0.8-2.3-0.8c-0.7,0-1.4,0.2-2,0.6c-0.6,0.4-1.1,1-1.4,1.8
		s-0.5,1.9-0.5,3.1c0,1,0.2,1.9,0.5,2.6c0.3,0.7,0.8,1.3,1.5,1.7c0.7,0.4,1.4,0.6,2.2,0.6c0.7,0,1.4-0.2,1.9-0.5
		c0.6-0.3,1.2-0.9,1.8-1.9l0.3,0.2c-0.6,1-1.2,1.7-2,2.2c-0.8,0.5-1.6,0.7-2.7,0.7c-1.9,0-3.3-0.7-4.3-2.1c-0.8-1-1.1-2.2-1.1-3.6
		c0-1.1,0.3-2.2,0.8-3.1c0.5-0.9,1.2-1.7,2.1-2.2c0.9-0.5,1.8-0.8,2.9-0.8c0.8,0,1.6,0.2,2.4,0.6c0.2,0.1,0.4,0.2,0.5,0.2
		c0.1,0,0.3-0.1,0.4-0.2c0.1-0.1,0.2-0.4,0.3-0.6H323.7z"/>
	<path d="M334.6,133.2l0.1,2.6h-0.3c-0.1-0.5-0.1-0.8-0.2-1c-0.2-0.3-0.4-0.6-0.7-0.7c-0.3-0.2-0.7-0.2-1.1-0.2h-1.6v8.6
		c0,0.7,0.1,1.1,0.2,1.3c0.2,0.2,0.5,0.3,1,0.3h0.4v0.3h-4.8v-0.3h0.4c0.5,0,0.8-0.1,1-0.4c0.1-0.2,0.2-0.6,0.2-1.2V134h-1.4
		c-0.5,0-0.9,0-1.1,0.1c-0.3,0.1-0.5,0.3-0.7,0.6s-0.3,0.7-0.4,1.2h-0.3l0.1-2.6H334.6z"/>
	<path d="M340.4,144.2v0.3h-4.8v-0.3h0.4c0.5,0,0.8-0.1,1-0.4c0.1-0.2,0.2-0.6,0.2-1.3v-7.3c0-0.6,0-0.9-0.1-1.1
		c-0.1-0.1-0.2-0.3-0.3-0.4c-0.2-0.1-0.5-0.2-0.8-0.2h-0.4v-0.3h4.8v0.3H340c-0.5,0-0.8,0.1-1,0.4c-0.1,0.2-0.2,0.6-0.2,1.3v7.3
		c0,0.6,0,0.9,0.1,1.1c0.1,0.1,0.2,0.3,0.3,0.4c0.2,0.1,0.5,0.2,0.8,0.2H340.4z"/>
	<path d="M347,133c1.5,0,2.7,0.6,3.8,1.7c1.1,1.1,1.6,2.5,1.6,4.2c0,1.7-0.5,3.1-1.6,4.3s-2.4,1.7-3.9,1.7c-1.5,0-2.9-0.6-3.9-1.7
		c-1.1-1.1-1.6-2.5-1.6-4.3c0-1.8,0.6-3.2,1.8-4.4C344.3,133.5,345.6,133,347,133z M346.9,133.6c-1,0-1.8,0.4-2.4,1.1
		c-0.8,0.9-1.1,2.3-1.1,4.1c0,1.8,0.4,3.3,1.2,4.2c0.6,0.8,1.4,1.1,2.4,1.1c1.1,0,1.9-0.4,2.6-1.2c0.7-0.8,1-2.1,1-3.9
		c0-1.9-0.4-3.4-1.1-4.3C348.8,134,348,133.6,346.9,133.6z"/>
	<path d="M352.9,133.2h3.1l6.9,8.4v-6.5c0-0.7-0.1-1.1-0.2-1.3c-0.2-0.2-0.5-0.3-1-0.3h-0.4v-0.3h3.9v0.3h-0.4c-0.5,0-0.8,0.1-1,0.4
		c-0.1,0.2-0.2,0.6-0.2,1.2v9.5h-0.3l-7.4-9.1v6.9c0,0.7,0.1,1.1,0.2,1.3c0.2,0.2,0.5,0.3,1,0.3h0.4v0.3h-3.9v-0.3h0.4
		c0.5,0,0.8-0.1,1-0.4c0.1-0.2,0.2-0.6,0.2-1.2v-7.8c-0.3-0.4-0.6-0.6-0.7-0.8s-0.4-0.2-0.7-0.3c-0.2,0-0.4-0.1-0.7-0.1V133.2z"/>
</g>
<g>
	<path d="M151.8,24.7v4.4h2.5c0.6,0,1.1-0.1,1.3-0.3c0.3-0.3,0.4-0.7,0.5-1.3h0.3v3.9H156c-0.1-0.5-0.2-0.9-0.2-1.1
		c-0.1-0.2-0.3-0.3-0.5-0.5s-0.6-0.2-1-0.2h-2.5v3.7c0,0.5,0,0.8,0.1,0.9c0,0.1,0.1,0.2,0.2,0.3c0.1,0.1,0.3,0.1,0.6,0.1h1.9
		c0.6,0,1.1,0,1.4-0.1c0.3-0.1,0.6-0.3,0.8-0.5c0.3-0.3,0.7-0.9,1.1-1.6h0.3l-1,2.8h-8.7V35h0.4c0.3,0,0.5-0.1,0.8-0.2
		c0.2-0.1,0.3-0.2,0.4-0.4s0.1-0.5,0.1-1.1V26c0-0.7-0.1-1.2-0.2-1.3c-0.2-0.2-0.5-0.3-1-0.3h-0.4v-0.3h8.7l0.1,2.5H157
		c-0.1-0.6-0.2-1-0.4-1.2c-0.1-0.2-0.3-0.4-0.6-0.5c-0.2-0.1-0.6-0.1-1.2-0.1H151.8z"/>
	<path d="M158.9,35.3V35h0.4c0.5,0,0.8-0.2,1-0.5c0.1-0.2,0.2-0.6,0.2-1.2v-7.3c0-0.7-0.1-1.1-0.2-1.3c-0.2-0.2-0.5-0.4-1-0.4h-0.4
		v-0.3h4.6c1.7,0,3,0.2,3.8,0.6s1.6,1,2.1,1.9s0.8,1.9,0.8,3.1c0,1.6-0.5,2.9-1.4,3.9c-1.1,1.2-2.7,1.8-4.9,1.8H158.9z M162.1,34.5
		c0.7,0.2,1.3,0.2,1.8,0.2c1.3,0,2.3-0.5,3.2-1.4s1.3-2.1,1.3-3.7c0-1.6-0.4-2.8-1.3-3.7s-1.9-1.3-3.3-1.3c-0.5,0-1.1,0.1-1.7,0.2
		V34.5z"/>
	<path d="M181.3,23.8l0.3,3.6h-0.3c-0.3-0.9-0.7-1.6-1.1-2c-0.7-0.6-1.5-1-2.6-1c-1.4,0-2.5,0.6-3.3,1.7c-0.6,1-0.9,2.1-0.9,3.4
		c0,1.1,0.2,2.1,0.6,2.9s1,1.5,1.6,1.9c0.7,0.4,1.4,0.6,2.1,0.6c0.4,0,0.8-0.1,1.2-0.2s0.8-0.3,1.1-0.5v-3.3c0-0.6,0-0.9-0.1-1.1
		c-0.1-0.2-0.2-0.3-0.4-0.4c-0.2-0.1-0.5-0.1-1-0.1v-0.3h4.4v0.3h-0.2c-0.4,0-0.7,0.1-0.9,0.4c-0.1,0.2-0.2,0.6-0.2,1.2v3.4
		c-0.6,0.3-1.3,0.6-1.9,0.8c-0.6,0.2-1.3,0.2-2.1,0.2c-2.2,0-3.8-0.7-5-2.1c-0.8-1-1.3-2.3-1.3-3.6c0-1,0.2-1.9,0.7-2.8
		c0.6-1.1,1.3-1.9,2.3-2.5c0.8-0.5,1.8-0.7,2.9-0.7c0.4,0,0.8,0,1.1,0.1s0.8,0.2,1.4,0.4c0.3,0.1,0.5,0.2,0.6,0.2
		c0.1,0,0.2,0,0.3-0.1c0.1-0.1,0.1-0.3,0.1-0.6H181.3z"/>
	<path d="M186.7,24.7v4.4h2.5c0.6,0,1.1-0.1,1.3-0.3c0.3-0.3,0.4-0.7,0.5-1.3h0.3v3.9h-0.3c-0.1-0.5-0.2-0.9-0.2-1.1
		c-0.1-0.2-0.3-0.3-0.5-0.5s-0.6-0.2-1-0.2h-2.5v3.7c0,0.5,0,0.8,0.1,0.9c0,0.1,0.1,0.2,0.2,0.3c0.1,0.1,0.3,0.1,0.6,0.1h1.9
		c0.6,0,1.1,0,1.4-0.1c0.3-0.1,0.6-0.3,0.8-0.5c0.3-0.3,0.7-0.9,1.1-1.6h0.3l-1,2.8h-8.7V35h0.4c0.3,0,0.5-0.1,0.8-0.2
		c0.2-0.1,0.3-0.2,0.4-0.4s0.1-0.5,0.1-1.1V26c0-0.7-0.1-1.2-0.2-1.3c-0.2-0.2-0.5-0.3-1-0.3h-0.4v-0.3h8.7l0.1,2.5H192
		c-0.1-0.6-0.2-1-0.4-1.2c-0.1-0.2-0.3-0.4-0.6-0.5c-0.2-0.1-0.6-0.1-1.2-0.1H186.7z"/>
	<path d="M204,23.8c1.5,0,2.7,0.6,3.8,1.7c1.1,1.1,1.6,2.5,1.6,4.2c0,1.7-0.5,3.1-1.6,4.3s-2.4,1.7-3.9,1.7c-1.5,0-2.9-0.6-3.9-1.7
		c-1.1-1.1-1.6-2.5-1.6-4.3c0-1.8,0.6-3.2,1.8-4.4C201.3,24.3,202.5,23.8,204,23.8z M203.8,24.4c-1,0-1.8,0.4-2.4,1.1
		c-0.8,0.9-1.1,2.3-1.1,4.1c0,1.8,0.4,3.3,1.2,4.2c0.6,0.8,1.4,1.1,2.4,1.1c1.1,0,1.9-0.4,2.6-1.2c0.7-0.8,1-2.1,1-3.9
		c0-1.9-0.4-3.4-1.1-4.3C205.8,24.8,204.9,24.4,203.8,24.4z"/>
	<path d="M213.5,24.7v4.4h2c0.5,0,0.8-0.1,1-0.3c0.2-0.2,0.4-0.6,0.4-1.2h0.3v3.8h-0.3c0-0.4-0.1-0.8-0.2-1
		c-0.1-0.2-0.3-0.4-0.4-0.5c-0.2-0.1-0.5-0.2-0.9-0.2h-2v3.5c0,0.6,0,0.9,0.1,1.1c0.1,0.1,0.2,0.3,0.3,0.4c0.2,0.1,0.5,0.2,0.8,0.2
		h0.4v0.3h-4.8V35h0.4c0.5,0,0.8-0.1,1-0.4c0.1-0.2,0.2-0.6,0.2-1.3v-7.3c0-0.6,0-0.9-0.1-1.1c-0.1-0.1-0.2-0.3-0.3-0.4
		c-0.2-0.1-0.5-0.2-0.8-0.2h-0.4v-0.3h8.4l0.1,2.5h-0.3c-0.1-0.5-0.3-0.9-0.5-1.2c-0.2-0.2-0.4-0.4-0.7-0.5s-0.7-0.2-1.3-0.2H213.5z
		"/>
	<path d="M235.2,35.3h-3l-3.8-5.3c-0.3,0-0.5,0-0.7,0c-0.1,0-0.1,0-0.2,0c-0.1,0-0.2,0-0.3,0v3.3c0,0.7,0.1,1.1,0.2,1.3
		c0.2,0.2,0.5,0.4,0.9,0.4h0.4v0.3h-4.8V35h0.4c0.5,0,0.8-0.2,1-0.5c0.1-0.2,0.2-0.6,0.2-1.2v-7.3c0-0.7-0.1-1.1-0.2-1.3
		c-0.2-0.2-0.5-0.4-1-0.4h-0.4v-0.3h4.1c1.2,0,2.1,0.1,2.6,0.3c0.6,0.2,1,0.5,1.4,1c0.4,0.5,0.6,1,0.6,1.7c0,0.7-0.2,1.3-0.7,1.8
		s-1.1,0.9-2.1,1.1l2.3,3.2c0.5,0.7,1,1.2,1.4,1.5s0.9,0.4,1.5,0.5V35.3z M227.3,29.6c0.1,0,0.2,0,0.3,0c0.1,0,0.1,0,0.2,0
		c1.1,0,1.9-0.2,2.4-0.7s0.8-1.1,0.8-1.8c0-0.7-0.2-1.3-0.7-1.7c-0.4-0.4-1-0.7-1.7-0.7c-0.3,0-0.8,0.1-1.3,0.2V29.6z"/>
	<path d="M241.3,23.8c1.5,0,2.7,0.6,3.8,1.7c1.1,1.1,1.6,2.5,1.6,4.2c0,1.7-0.5,3.1-1.6,4.3s-2.4,1.7-3.9,1.7
		c-1.5,0-2.9-0.6-3.9-1.7c-1.1-1.1-1.6-2.5-1.6-4.3c0-1.8,0.6-3.2,1.8-4.4C238.6,24.3,239.8,23.8,241.3,23.8z M241.2,24.4
		c-1,0-1.8,0.4-2.4,1.1c-0.8,0.9-1.1,2.3-1.1,4.1c0,1.8,0.4,3.3,1.2,4.2c0.6,0.8,1.4,1.1,2.4,1.1c1.1,0,1.9-0.4,2.6-1.2
		c0.7-0.8,1-2.1,1-3.9c0-1.9-0.4-3.4-1.1-4.3C243.1,24.8,242.2,24.4,241.2,24.4z"/>
	<path d="M255.2,31.6h-4.4l-0.8,1.8c-0.2,0.4-0.3,0.8-0.3,1c0,0.2,0.1,0.3,0.2,0.5c0.2,0.1,0.5,0.2,1.1,0.3v0.3h-3.5V35
		c0.5-0.1,0.8-0.2,0.9-0.3c0.3-0.3,0.6-0.8,0.9-1.6l4-9.3h0.3l3.9,9.4c0.3,0.8,0.6,1.2,0.9,1.5c0.3,0.2,0.6,0.3,1.1,0.4v0.3H255V35
		c0.4,0,0.8-0.1,0.9-0.2c0.2-0.1,0.2-0.3,0.2-0.5c0-0.2-0.1-0.6-0.3-1.2L255.2,31.6z M254.9,31l-1.9-4.5l-2,4.5H254.9z"/>
	<path d="M259.9,35.3V35h0.4c0.5,0,0.8-0.2,1-0.5c0.1-0.2,0.2-0.6,0.2-1.2v-7.3c0-0.7-0.1-1.1-0.2-1.3c-0.2-0.2-0.5-0.4-1-0.4h-0.4
		v-0.3h4.6c1.7,0,3,0.2,3.8,0.6s1.6,1,2.1,1.9s0.8,1.9,0.8,3.1c0,1.6-0.5,2.9-1.4,3.9c-1.1,1.2-2.7,1.8-4.9,1.8H259.9z M263.2,34.5
		c0.7,0.2,1.3,0.2,1.8,0.2c1.3,0,2.3-0.5,3.2-1.4s1.3-2.1,1.3-3.7c0-1.6-0.4-2.8-1.3-3.7s-1.9-1.3-3.3-1.3c-0.5,0-1.1,0.1-1.7,0.2
		V34.5z"/>
</g>
<g>
	<path d="M149.7,181.2v4.4h2.5c0.6,0,1.1-0.1,1.3-0.3c0.3-0.3,0.4-0.7,0.5-1.3h0.3v3.9H154c-0.1-0.5-0.2-0.9-0.2-1.1
		c-0.1-0.2-0.3-0.3-0.5-0.5s-0.6-0.2-1-0.2h-2.5v3.7c0,0.5,0,0.8,0.1,0.9c0,0.1,0.1,0.2,0.2,0.3c0.1,0.1,0.3,0.1,0.6,0.1h1.9
		c0.6,0,1.1,0,1.4-0.1c0.3-0.1,0.6-0.3,0.8-0.5c0.3-0.3,0.7-0.9,1.1-1.6h0.3l-1,2.8h-8.7v-0.3h0.4c0.3,0,0.5-0.1,0.8-0.2
		c0.2-0.1,0.3-0.2,0.4-0.4s0.1-0.5,0.1-1.1v-7.3c0-0.7-0.1-1.2-0.2-1.3c-0.2-0.2-0.5-0.3-1-0.3h-0.4v-0.3h8.7l0.1,2.5H155
		c-0.1-0.6-0.2-1-0.4-1.2c-0.1-0.2-0.3-0.4-0.6-0.5c-0.2-0.1-0.6-0.1-1.2-0.1H149.7z"/>
	<path d="M156.9,191.8v-0.3h0.4c0.5,0,0.8-0.2,1-0.5c0.1-0.2,0.2-0.6,0.2-1.2v-7.3c0-0.7-0.1-1.1-0.2-1.3c-0.2-0.2-0.5-0.4-1-0.4
		h-0.4v-0.3h4.6c1.7,0,3,0.2,3.8,0.6s1.6,1,2.1,1.9s0.8,1.9,0.8,3.1c0,1.6-0.5,2.9-1.4,3.9c-1.1,1.2-2.7,1.8-4.9,1.8H156.9z
		 M160.1,191c0.7,0.2,1.3,0.2,1.8,0.2c1.3,0,2.3-0.5,3.2-1.4s1.3-2.1,1.3-3.7c0-1.6-0.4-2.8-1.3-3.7s-1.9-1.3-3.3-1.3
		c-0.5,0-1.1,0.1-1.7,0.2V191z"/>
	<path d="M179.3,180.3l0.3,3.6h-0.3c-0.3-0.9-0.7-1.6-1.1-2c-0.7-0.6-1.5-1-2.6-1c-1.4,0-2.5,0.6-3.3,1.7c-0.6,1-0.9,2.1-0.9,3.4
		c0,1.1,0.2,2.1,0.6,2.9s1,1.5,1.6,1.9c0.7,0.4,1.4,0.6,2.1,0.6c0.4,0,0.8-0.1,1.2-0.2s0.8-0.3,1.1-0.5v-3.3c0-0.6,0-0.9-0.1-1.1
		c-0.1-0.2-0.2-0.3-0.4-0.4c-0.2-0.1-0.5-0.1-1-0.1v-0.3h4.4v0.3h-0.2c-0.4,0-0.7,0.1-0.9,0.4c-0.1,0.2-0.2,0.6-0.2,1.2v3.4
		c-0.6,0.3-1.3,0.6-1.9,0.8c-0.6,0.2-1.3,0.2-2.1,0.2c-2.2,0-3.8-0.7-5-2.1c-0.8-1-1.3-2.3-1.3-3.6c0-1,0.2-1.9,0.7-2.8
		c0.6-1.1,1.3-1.9,2.3-2.5c0.8-0.5,1.8-0.7,2.9-0.7c0.4,0,0.8,0,1.1,0.1s0.8,0.2,1.4,0.4c0.3,0.1,0.5,0.2,0.6,0.2
		c0.1,0,0.2,0,0.3-0.1c0.1-0.1,0.1-0.3,0.1-0.6H179.3z"/>
	<path d="M184.7,181.2v4.4h2.5c0.6,0,1.1-0.1,1.3-0.3c0.3-0.3,0.4-0.7,0.5-1.3h0.3v3.9h-0.3c-0.1-0.5-0.2-0.9-0.2-1.1
		c-0.1-0.2-0.3-0.3-0.5-0.5s-0.6-0.2-1-0.2h-2.5v3.7c0,0.5,0,0.8,0.1,0.9c0,0.1,0.1,0.2,0.2,0.3c0.1,0.1,0.3,0.1,0.6,0.1h1.9
		c0.6,0,1.1,0,1.4-0.1c0.3-0.1,0.6-0.3,0.8-0.5c0.3-0.3,0.7-0.9,1.1-1.6h0.3l-1,2.8h-8.7v-0.3h0.4c0.3,0,0.5-0.1,0.8-0.2
		c0.2-0.1,0.3-0.2,0.4-0.4s0.1-0.5,0.1-1.1v-7.3c0-0.7-0.1-1.2-0.2-1.3c-0.2-0.2-0.5-0.3-1-0.3h-0.4v-0.3h8.7l0.1,2.5H190
		c-0.1-0.6-0.2-1-0.4-1.2c-0.1-0.2-0.3-0.4-0.6-0.5c-0.2-0.1-0.6-0.1-1.2-0.1H184.7z"/>
	<path d="M202,180.3c1.5,0,2.7,0.6,3.8,1.7c1.1,1.1,1.6,2.5,1.6,4.2c0,1.7-0.5,3.1-1.6,4.3s-2.4,1.7-3.9,1.7c-1.5,0-2.9-0.6-3.9-1.7
		c-1.1-1.1-1.6-2.5-1.6-4.3c0-1.8,0.6-3.2,1.8-4.4C199.2,180.8,200.5,180.3,202,180.3z M201.8,180.9c-1,0-1.8,0.4-2.4,1.1
		c-0.8,0.9-1.1,2.3-1.1,4.1c0,1.8,0.4,3.3,1.2,4.2c0.6,0.8,1.4,1.1,2.4,1.1c1.1,0,1.9-0.4,2.6-1.2c0.7-0.8,1-2.1,1-3.9
		c0-1.9-0.4-3.4-1.1-4.3C203.7,181.3,202.9,180.9,201.8,180.9z"/>
	<path d="M211.5,181.2v4.4h2c0.5,0,0.8-0.1,1-0.3c0.2-0.2,0.4-0.6,0.4-1.2h0.3v3.8H215c0-0.4-0.1-0.8-0.2-1
		c-0.1-0.2-0.3-0.4-0.4-0.5c-0.2-0.1-0.5-0.2-0.9-0.2h-2v3.5c0,0.6,0,0.9,0.1,1.1c0.1,0.1,0.2,0.3,0.3,0.4c0.2,0.1,0.5,0.2,0.8,0.2
		h0.4v0.3h-4.8v-0.3h0.4c0.5,0,0.8-0.1,1-0.4c0.1-0.2,0.2-0.6,0.2-1.3v-7.3c0-0.6,0-0.9-0.1-1.1c-0.1-0.1-0.2-0.3-0.3-0.4
		c-0.2-0.1-0.5-0.2-0.8-0.2h-0.4v-0.3h8.4l0.1,2.5h-0.3c-0.1-0.5-0.3-0.9-0.5-1.2c-0.2-0.2-0.4-0.4-0.7-0.5s-0.7-0.2-1.3-0.2H211.5z
		"/>
	<path d="M233.2,191.8h-3l-3.8-5.3c-0.3,0-0.5,0-0.7,0c-0.1,0-0.1,0-0.2,0c-0.1,0-0.2,0-0.3,0v3.3c0,0.7,0.1,1.1,0.2,1.3
		c0.2,0.2,0.5,0.4,0.9,0.4h0.4v0.3H222v-0.3h0.4c0.5,0,0.8-0.2,1-0.5c0.1-0.2,0.2-0.6,0.2-1.2v-7.3c0-0.7-0.1-1.1-0.2-1.3
		c-0.2-0.2-0.5-0.4-1-0.4H222v-0.3h4.1c1.2,0,2.1,0.1,2.6,0.3c0.6,0.2,1,0.5,1.4,1c0.4,0.5,0.6,1,0.6,1.7c0,0.7-0.2,1.3-0.7,1.8
		s-1.1,0.9-2.1,1.1l2.3,3.2c0.5,0.7,1,1.2,1.4,1.5s0.9,0.4,1.5,0.5V191.8z M225.2,186.1c0.1,0,0.2,0,0.3,0c0.1,0,0.1,0,0.2,0
		c1.1,0,1.9-0.2,2.4-0.7s0.8-1.1,0.8-1.8c0-0.7-0.2-1.3-0.7-1.7c-0.4-0.4-1-0.7-1.7-0.7c-0.3,0-0.8,0.1-1.3,0.2V186.1z"/>
	<path d="M239.3,180.3c1.5,0,2.7,0.6,3.8,1.7c1.1,1.1,1.6,2.5,1.6,4.2c0,1.7-0.5,3.1-1.6,4.3s-2.4,1.7-3.9,1.7
		c-1.5,0-2.9-0.6-3.9-1.7c-1.1-1.1-1.6-2.5-1.6-4.3c0-1.8,0.6-3.2,1.8-4.4C236.6,180.8,237.8,180.3,239.3,180.3z M239.1,180.9
		c-1,0-1.8,0.4-2.4,1.1c-0.8,0.9-1.1,2.3-1.1,4.1c0,1.8,0.4,3.3,1.2,4.2c0.6,0.8,1.4,1.1,2.4,1.1c1.1,0,1.9-0.4,2.6-1.2
		c0.7-0.8,1-2.1,1-3.9c0-1.9-0.4-3.4-1.1-4.3C241.1,181.3,240.2,180.9,239.1,180.9z"/>
	<path d="M253.1,188.1h-4.4l-0.8,1.8c-0.2,0.4-0.3,0.8-0.3,1c0,0.2,0.1,0.3,0.2,0.5c0.2,0.1,0.5,0.2,1.1,0.3v0.3h-3.5v-0.3
		c0.5-0.1,0.8-0.2,0.9-0.3c0.3-0.3,0.6-0.8,0.9-1.6l4-9.3h0.3l3.9,9.4c0.3,0.8,0.6,1.2,0.9,1.5c0.3,0.2,0.6,0.3,1.1,0.4v0.3H253
		v-0.3c0.4,0,0.8-0.1,0.9-0.2c0.2-0.1,0.2-0.3,0.2-0.5c0-0.2-0.1-0.6-0.3-1.2L253.1,188.1z M252.9,187.5l-1.9-4.5l-2,4.5H252.9z"/>
	<path d="M257.9,191.8v-0.3h0.4c0.5,0,0.8-0.2,1-0.5c0.1-0.2,0.2-0.6,0.2-1.2v-7.3c0-0.7-0.1-1.1-0.2-1.3c-0.2-0.2-0.5-0.4-1-0.4
		h-0.4v-0.3h4.6c1.7,0,3,0.2,3.8,0.6s1.6,1,2.1,1.9s0.8,1.9,0.8,3.1c0,1.6-0.5,2.9-1.4,3.9c-1.1,1.2-2.7,1.8-4.9,1.8H257.9z
		 M261.1,191c0.7,0.2,1.3,0.2,1.8,0.2c1.3,0,2.3-0.5,3.2-1.4s1.3-2.1,1.3-3.7c0-1.6-0.4-2.8-1.3-3.7s-1.9-1.3-3.3-1.3
		c-0.5,0-1.1,0.1-1.7,0.2V191z"/>
</g>
<g>
	<path d="M188.5,312.3l0.1,2.6h-0.3c-0.1-0.5-0.1-0.8-0.2-1c-0.2-0.3-0.4-0.6-0.7-0.7s-0.7-0.2-1.1-0.2h-1.6v8.6
		c0,0.7,0.1,1.1,0.2,1.3c0.2,0.2,0.5,0.3,1,0.3h0.4v0.3h-4.8v-0.3h0.4c0.5,0,0.8-0.1,1-0.4c0.1-0.2,0.2-0.6,0.2-1.2V313h-1.4
		c-0.5,0-0.9,0-1.1,0.1c-0.3,0.1-0.5,0.3-0.7,0.6s-0.3,0.7-0.4,1.2h-0.3l0.1-2.6H188.5z"/>
	<path d="M197.2,312.3h3.9v0.3h-0.2c-0.1,0-0.4,0.1-0.6,0.2c-0.3,0.1-0.5,0.3-0.8,0.5s-0.5,0.6-0.8,1.2l-2.7,4.3v2.8
		c0,0.7,0.1,1.1,0.2,1.3c0.2,0.2,0.5,0.3,1,0.3h0.4v0.3h-4.8v-0.3h0.4c0.5,0,0.8-0.1,1-0.4c0.1-0.2,0.2-0.6,0.2-1.2V319l-3.1-4.7
		c-0.4-0.6-0.6-0.9-0.7-1c-0.1-0.1-0.4-0.3-0.8-0.5c-0.1-0.1-0.3-0.1-0.5-0.1v-0.3h4.8v0.3h-0.2c-0.3,0-0.5,0.1-0.7,0.2
		c-0.2,0.1-0.3,0.3-0.3,0.5c0,0.2,0.2,0.6,0.5,1.1l2.3,3.6l2.2-3.5c0.3-0.5,0.5-0.9,0.5-1.2c0-0.2,0-0.3-0.1-0.4s-0.2-0.2-0.3-0.3
		s-0.4-0.1-0.7-0.1V312.3z"/>
	<path d="M204.9,318.3v3.3c0,0.7,0.1,1.1,0.2,1.3c0.2,0.2,0.5,0.4,1,0.4h0.4v0.3h-4.8v-0.3h0.4c0.5,0,0.8-0.2,1-0.5
		c0.1-0.2,0.2-0.6,0.2-1.2v-7.3c0-0.7-0.1-1.1-0.2-1.3c-0.2-0.2-0.5-0.4-1-0.4h-0.4v-0.3h4.1c1,0,1.8,0.1,2.4,0.3
		c0.6,0.2,1.1,0.6,1.5,1s0.6,1.1,0.6,1.8c0,0.9-0.3,1.7-0.9,2.2c-0.6,0.6-1.5,0.9-2.6,0.9c-0.3,0-0.6,0-0.9-0.1
		S205.2,318.4,204.9,318.3z M204.9,317.8c0.3,0.1,0.6,0.1,0.8,0.1c0.2,0,0.4,0,0.6,0c0.6,0,1.1-0.2,1.5-0.7s0.6-1,0.6-1.7
		c0-0.5-0.1-0.9-0.3-1.4s-0.5-0.7-0.8-0.9c-0.4-0.2-0.8-0.3-1.2-0.3c-0.3,0-0.6,0.1-1.1,0.2V317.8z"/>
	<path d="M216.1,323.3v0.3h-4.8v-0.3h0.4c0.5,0,0.8-0.1,1-0.4c0.1-0.2,0.2-0.6,0.2-1.3v-7.3c0-0.6,0-0.9-0.1-1.1
		c-0.1-0.1-0.2-0.3-0.3-0.4c-0.2-0.1-0.5-0.2-0.8-0.2h-0.4v-0.3h4.8v0.3h-0.4c-0.5,0-0.8,0.1-1,0.4c-0.1,0.2-0.2,0.6-0.2,1.3v7.3
		c0,0.6,0,0.9,0.1,1.1c0.1,0.1,0.2,0.3,0.3,0.4c0.2,0.1,0.5,0.2,0.8,0.2H216.1z"/>
	<path d="M226.7,312.1l0.3,3.8h-0.3c-0.3-1.1-0.8-2-1.5-2.5s-1.4-0.8-2.3-0.8c-0.7,0-1.4,0.2-2,0.6s-1.1,1-1.4,1.8s-0.5,1.9-0.5,3.1
		c0,1,0.2,1.9,0.5,2.6c0.3,0.7,0.8,1.3,1.5,1.7c0.7,0.4,1.4,0.6,2.2,0.6c0.7,0,1.4-0.2,1.9-0.5s1.2-0.9,1.8-1.9l0.3,0.2
		c-0.6,1-1.2,1.7-2,2.2c-0.8,0.5-1.6,0.7-2.7,0.7c-1.9,0-3.3-0.7-4.3-2.1c-0.8-1-1.1-2.2-1.1-3.6c0-1.1,0.3-2.2,0.8-3.1
		c0.5-0.9,1.2-1.7,2.1-2.2s1.8-0.8,2.9-0.8c0.8,0,1.6,0.2,2.4,0.6c0.2,0.1,0.4,0.2,0.5,0.2c0.1,0,0.3-0.1,0.4-0.2
		c0.1-0.1,0.2-0.4,0.3-0.6H226.7z"/>
	<path d="M235.6,319.8h-4.4l-0.8,1.8c-0.2,0.4-0.3,0.8-0.3,1c0,0.2,0.1,0.3,0.2,0.5s0.5,0.2,1.1,0.3v0.3H228v-0.3
		c0.5-0.1,0.8-0.2,0.9-0.3c0.3-0.3,0.6-0.8,0.9-1.6l4-9.3h0.3l3.9,9.4c0.3,0.8,0.6,1.2,0.9,1.5c0.3,0.2,0.6,0.3,1.1,0.4v0.3h-4.4
		v-0.3c0.4,0,0.8-0.1,0.9-0.2c0.2-0.1,0.2-0.3,0.2-0.5c0-0.2-0.1-0.6-0.3-1.2L235.6,319.8z M235.4,319.2l-1.9-4.5l-2,4.5H235.4z"/>
	<path d="M249.8,320.5l0.3,0.1l-1,3.1h-8.7v-0.3h0.4c0.5,0,0.8-0.2,1-0.5c0.1-0.2,0.2-0.6,0.2-1.2v-7.3c0-0.7-0.1-1.1-0.2-1.3
		c-0.2-0.2-0.5-0.4-1-0.4h-0.4v-0.3h5.1v0.3c-0.6,0-1,0.1-1.3,0.2c-0.2,0.1-0.4,0.3-0.5,0.4s-0.1,0.6-0.1,1.3v7.1
		c0,0.5,0,0.8,0.1,0.9c0.1,0.1,0.2,0.2,0.3,0.3c0.1,0.1,0.6,0.1,1.3,0.1h0.8c0.9,0,1.5-0.1,1.8-0.2c0.3-0.1,0.7-0.4,1-0.7
		C249.3,321.7,249.6,321.2,249.8,320.5z"/>
	<path d="M264.3,312.1l0.3,3.8h-0.3c-0.3-1.1-0.8-2-1.5-2.5s-1.4-0.8-2.3-0.8c-0.7,0-1.4,0.2-2,0.6s-1.1,1-1.4,1.8s-0.5,1.9-0.5,3.1
		c0,1,0.2,1.9,0.5,2.6c0.3,0.7,0.8,1.3,1.5,1.7c0.7,0.4,1.4,0.6,2.2,0.6c0.7,0,1.4-0.2,1.9-0.5s1.2-0.9,1.8-1.9l0.3,0.2
		c-0.6,1-1.2,1.7-2,2.2c-0.8,0.5-1.6,0.7-2.7,0.7c-1.9,0-3.3-0.7-4.3-2.1c-0.8-1-1.1-2.2-1.1-3.6c0-1.1,0.3-2.2,0.8-3.1
		c0.5-0.9,1.2-1.7,2.1-2.2s1.8-0.8,2.9-0.8c0.8,0,1.6,0.2,2.4,0.6c0.2,0.1,0.4,0.2,0.5,0.2c0.1,0,0.3-0.1,0.4-0.2
		c0.1-0.1,0.2-0.4,0.3-0.6H264.3z"/>
	<path d="M273.6,312.6v-0.3h4v0.3h-0.4c-0.4,0-0.8,0.2-1,0.6c-0.1,0.2-0.2,0.6-0.2,1.2v4.6c0,1.1-0.1,2-0.3,2.6
		c-0.2,0.6-0.7,1.2-1.3,1.6c-0.7,0.4-1.5,0.7-2.7,0.7c-1.2,0-2.2-0.2-2.8-0.6c-0.6-0.4-1.1-1-1.4-1.7c-0.2-0.5-0.3-1.4-0.3-2.8v-4.4
		c0-0.7-0.1-1.1-0.3-1.4c-0.2-0.2-0.5-0.3-0.9-0.3h-0.4v-0.3h4.9v0.3H270c-0.5,0-0.8,0.1-1,0.4c-0.1,0.2-0.2,0.6-0.2,1.2v4.9
		c0,0.4,0,0.9,0.1,1.5s0.2,1,0.4,1.3c0.2,0.3,0.5,0.6,0.9,0.8c0.4,0.2,0.9,0.3,1.5,0.3c0.7,0,1.4-0.2,2-0.5s1-0.7,1.2-1.2
		s0.3-1.3,0.3-2.5v-4.6c0-0.7-0.1-1.1-0.2-1.3c-0.2-0.2-0.5-0.4-1-0.4H273.6z"/>
	<path d="M287.6,312.3l0.1,2.6h-0.3c-0.1-0.5-0.1-0.8-0.2-1c-0.2-0.3-0.4-0.6-0.7-0.7s-0.7-0.2-1.1-0.2h-1.6v8.6
		c0,0.7,0.1,1.1,0.2,1.3c0.2,0.2,0.5,0.3,1,0.3h0.4v0.3h-4.8v-0.3h0.4c0.5,0,0.8-0.1,1-0.4c0.1-0.2,0.2-0.6,0.2-1.2V313h-1.4
		c-0.5,0-0.9,0-1.1,0.1c-0.3,0.1-0.5,0.3-0.7,0.6s-0.3,0.7-0.4,1.2h-0.3l0.1-2.6H287.6z"/>
	<path d="M299.8,312.1v3.9h-0.3c-0.1-0.7-0.3-1.3-0.5-1.8c-0.3-0.4-0.6-0.8-1.1-1.1c-0.5-0.3-1-0.4-1.5-0.4c-0.6,0-1.1,0.2-1.4,0.5
		c-0.4,0.4-0.6,0.8-0.6,1.2c0,0.3,0.1,0.7,0.4,0.9c0.3,0.4,1.2,1,2.4,1.7c1.1,0.6,1.8,1,2.2,1.3s0.7,0.7,0.9,1.1
		c0.2,0.4,0.3,0.8,0.3,1.3c0,0.9-0.3,1.6-1,2.2s-1.5,0.9-2.6,0.9c-0.3,0-0.6,0-0.9-0.1c-0.2,0-0.5-0.1-1.1-0.3
		c-0.5-0.2-0.9-0.3-1-0.3c-0.1,0-0.2,0-0.3,0.1c-0.1,0.1-0.1,0.3-0.2,0.5h-0.3V320h0.3c0.1,0.8,0.3,1.4,0.6,1.8s0.6,0.7,1.1,1
		s1.1,0.4,1.6,0.4c0.7,0,1.2-0.2,1.6-0.5s0.6-0.8,0.6-1.3c0-0.3-0.1-0.6-0.2-0.8s-0.4-0.5-0.7-0.8c-0.2-0.2-0.8-0.5-1.8-1.1
		c-1-0.5-1.6-1-2.1-1.3c-0.4-0.3-0.7-0.7-0.9-1.1s-0.3-0.8-0.3-1.3c0-0.8,0.3-1.5,0.9-2.1s1.4-0.9,2.4-0.9c0.6,0,1.2,0.1,1.9,0.4
		c0.3,0.1,0.5,0.2,0.7,0.2c0.1,0,0.3,0,0.4-0.1c0.1-0.1,0.2-0.3,0.2-0.5H299.8z"/>
	<path d="M305.1,312.9v4.4h2.5c0.6,0,1.1-0.1,1.3-0.3c0.3-0.3,0.4-0.7,0.5-1.3h0.3v3.9h-0.3c-0.1-0.5-0.2-0.9-0.2-1.1
		c-0.1-0.2-0.3-0.3-0.5-0.5c-0.2-0.1-0.6-0.2-1-0.2h-2.5v3.7c0,0.5,0,0.8,0.1,0.9c0,0.1,0.1,0.2,0.2,0.3s0.3,0.1,0.6,0.1h1.9
		c0.6,0,1.1,0,1.4-0.1c0.3-0.1,0.6-0.3,0.8-0.5c0.3-0.3,0.7-0.9,1.1-1.6h0.3l-1,2.8h-8.7v-0.3h0.4c0.3,0,0.5-0.1,0.8-0.2
		c0.2-0.1,0.3-0.2,0.4-0.4s0.1-0.5,0.1-1.1v-7.3c0-0.7-0.1-1.2-0.2-1.3c-0.2-0.2-0.5-0.3-1-0.3h-0.4v-0.3h8.7l0.1,2.5h-0.3
		c-0.1-0.6-0.2-1-0.4-1.2c-0.1-0.2-0.3-0.4-0.6-0.5c-0.2-0.1-0.6-0.1-1.2-0.1H305.1z"/>
	<path d="M322.1,312.1l0.3,3.8h-0.3c-0.3-1.1-0.8-2-1.5-2.5s-1.4-0.8-2.3-0.8c-0.7,0-1.4,0.2-2,0.6s-1.1,1-1.4,1.8s-0.5,1.9-0.5,3.1
		c0,1,0.2,1.9,0.5,2.6c0.3,0.7,0.8,1.3,1.5,1.7c0.7,0.4,1.4,0.6,2.2,0.6c0.7,0,1.4-0.2,1.9-0.5s1.2-0.9,1.8-1.9l0.3,0.2
		c-0.6,1-1.2,1.7-2,2.2c-0.8,0.5-1.6,0.7-2.7,0.7c-1.9,0-3.3-0.7-4.3-2.1c-0.8-1-1.1-2.2-1.1-3.6c0-1.1,0.3-2.2,0.8-3.1
		c0.5-0.9,1.2-1.7,2.1-2.2s1.8-0.8,2.9-0.8c0.8,0,1.6,0.2,2.4,0.6c0.2,0.1,0.4,0.2,0.5,0.2c0.1,0,0.3-0.1,0.4-0.2
		c0.1-0.1,0.2-0.4,0.3-0.6H322.1z"/>
	<path d="M333.1,312.3l0.1,2.6h-0.3c-0.1-0.5-0.1-0.8-0.2-1c-0.2-0.3-0.4-0.6-0.7-0.7s-0.7-0.2-1.1-0.2h-1.6v8.6
		c0,0.7,0.1,1.1,0.2,1.3c0.2,0.2,0.5,0.3,1,0.3h0.4v0.3H326v-0.3h0.4c0.5,0,0.8-0.1,1-0.4c0.1-0.2,0.2-0.6,0.2-1.2V313h-1.4
		c-0.5,0-0.9,0-1.1,0.1c-0.3,0.1-0.5,0.3-0.7,0.6s-0.3,0.7-0.4,1.2h-0.3l0.1-2.6H333.1z"/>
	<path d="M338.9,323.3v0.3H334v-0.3h0.4c0.5,0,0.8-0.1,1-0.4c0.1-0.2,0.2-0.6,0.2-1.3v-7.3c0-0.6,0-0.9-0.1-1.1
		c-0.1-0.1-0.2-0.3-0.3-0.4c-0.2-0.1-0.5-0.2-0.8-0.2H334v-0.3h4.8v0.3h-0.4c-0.5,0-0.8,0.1-1,0.4c-0.1,0.2-0.2,0.6-0.2,1.3v7.3
		c0,0.6,0,0.9,0.1,1.1c0.1,0.1,0.2,0.3,0.3,0.4c0.2,0.1,0.5,0.2,0.8,0.2H338.9z"/>
	<path d="M345.5,312.1c1.5,0,2.7,0.6,3.8,1.7c1.1,1.1,1.6,2.5,1.6,4.2c0,1.7-0.5,3.1-1.6,4.3s-2.4,1.7-3.9,1.7
		c-1.5,0-2.9-0.6-3.9-1.7c-1.1-1.1-1.6-2.5-1.6-4.3c0-1.8,0.6-3.2,1.8-4.4C342.8,312.5,344,312.1,345.5,312.1z M345.3,312.7
		c-1,0-1.8,0.4-2.4,1.1c-0.8,0.9-1.1,2.3-1.1,4.1c0,1.8,0.4,3.3,1.2,4.2c0.6,0.8,1.4,1.1,2.4,1.1c1.1,0,1.9-0.4,2.6-1.2
		c0.7-0.8,1-2.1,1-3.9c0-1.9-0.4-3.4-1.1-4.3C347.2,313,346.4,312.7,345.3,312.7z"/>
	<path d="M351.3,312.3h3.1l6.9,8.4v-6.5c0-0.7-0.1-1.1-0.2-1.3c-0.2-0.2-0.5-0.3-1-0.3h-0.4v-0.3h3.9v0.3h-0.4c-0.5,0-0.8,0.1-1,0.4
		c-0.1,0.2-0.2,0.6-0.2,1.2v9.5h-0.3l-7.4-9.1v6.9c0,0.7,0.1,1.1,0.2,1.3c0.2,0.2,0.5,0.3,1,0.3h0.4v0.3h-3.9v-0.3h0.4
		c0.5,0,0.8-0.1,1-0.4c0.1-0.2,0.2-0.6,0.2-1.2v-7.8c-0.3-0.4-0.6-0.6-0.7-0.8c-0.2-0.1-0.4-0.2-0.7-0.3c-0.2,0-0.4-0.1-0.7-0.1
		V312.3z"/>
</g>
<g>
	<path d="M204.7,340.7h3.1l6.9,8.4v-6.5c0-0.7-0.1-1.1-0.2-1.3c-0.2-0.2-0.5-0.3-1-0.3H213v-0.3h3.9v0.3h-0.4c-0.5,0-0.8,0.1-1,0.4
		c-0.1,0.2-0.2,0.6-0.2,1.2v9.5h-0.3l-7.4-9.1v6.9c0,0.7,0.1,1.1,0.2,1.3c0.2,0.2,0.5,0.3,1,0.3h0.4v0.3h-3.9v-0.3h0.4
		c0.5,0,0.8-0.1,1-0.4c0.1-0.2,0.2-0.6,0.2-1.2v-7.8c-0.3-0.4-0.6-0.6-0.7-0.8c-0.2-0.1-0.4-0.2-0.7-0.3c-0.2,0-0.4-0.1-0.7-0.1
		V340.7z"/>
	<path d="M223.4,340.4c1.5,0,2.7,0.6,3.8,1.7c1.1,1.1,1.6,2.5,1.6,4.2c0,1.7-0.5,3.1-1.6,4.3s-2.4,1.7-3.9,1.7
		c-1.5,0-2.9-0.6-3.9-1.7c-1.1-1.1-1.6-2.5-1.6-4.3c0-1.8,0.6-3.2,1.8-4.4C220.7,340.9,222,340.4,223.4,340.4z M223.3,341
		c-1,0-1.8,0.4-2.4,1.1c-0.8,0.9-1.1,2.3-1.1,4.1c0,1.8,0.4,3.3,1.2,4.2c0.6,0.8,1.4,1.1,2.4,1.1c1.1,0,1.9-0.4,2.6-1.2
		c0.7-0.8,1-2.1,1-3.9c0-1.9-0.4-3.4-1.1-4.3C225.2,341.4,224.3,341,223.3,341z"/>
	<path d="M239.3,340.7l0.1,2.6h-0.3c-0.1-0.5-0.1-0.8-0.2-1c-0.2-0.3-0.4-0.6-0.7-0.7s-0.7-0.2-1.1-0.2h-1.6v8.6
		c0,0.7,0.1,1.1,0.2,1.3c0.2,0.2,0.5,0.3,1,0.3h0.4v0.3h-4.8v-0.3h0.4c0.5,0,0.8-0.1,1-0.4c0.1-0.2,0.2-0.6,0.2-1.2v-8.6h-1.4
		c-0.5,0-0.9,0-1.1,0.1c-0.3,0.1-0.5,0.3-0.7,0.6s-0.3,0.7-0.4,1.2H230l0.1-2.6H239.3z"/>
	<path d="M253.3,340.7l0.1,2.6h-0.3c-0.1-0.5-0.1-0.8-0.2-1c-0.2-0.3-0.4-0.6-0.7-0.7s-0.7-0.2-1.1-0.2h-1.6v8.6
		c0,0.7,0.1,1.1,0.2,1.3c0.2,0.2,0.5,0.3,1,0.3h0.4v0.3h-4.8v-0.3h0.4c0.5,0,0.8-0.1,1-0.4c0.1-0.2,0.2-0.6,0.2-1.2v-8.6h-1.4
		c-0.5,0-0.9,0-1.1,0.1c-0.3,0.1-0.5,0.3-0.7,0.6s-0.3,0.7-0.4,1.2H244l0.1-2.6H253.3z"/>
	<path d="M259.8,340.4c1.5,0,2.7,0.6,3.8,1.7c1.1,1.1,1.6,2.5,1.6,4.2c0,1.7-0.5,3.1-1.6,4.3s-2.4,1.7-3.9,1.7
		c-1.5,0-2.9-0.6-3.9-1.7c-1.1-1.1-1.6-2.5-1.6-4.3c0-1.8,0.6-3.2,1.8-4.4C257.1,340.9,258.3,340.4,259.8,340.4z M259.6,341
		c-1,0-1.8,0.4-2.4,1.1c-0.8,0.9-1.1,2.3-1.1,4.1c0,1.8,0.4,3.3,1.2,4.2c0.6,0.8,1.4,1.1,2.4,1.1c1.1,0,1.9-0.4,2.6-1.2
		c0.7-0.8,1-2.1,1-3.9c0-1.9-0.4-3.4-1.1-4.3C261.6,341.4,260.7,341,259.6,341z"/>
	<path d="M277.9,340.4v3.9h-0.3c-0.1-0.7-0.3-1.3-0.5-1.8c-0.3-0.4-0.6-0.8-1.1-1.1c-0.5-0.3-1-0.4-1.5-0.4c-0.6,0-1.1,0.2-1.4,0.5
		c-0.4,0.4-0.6,0.8-0.6,1.2c0,0.3,0.1,0.7,0.4,0.9c0.3,0.4,1.2,1,2.4,1.7c1.1,0.6,1.8,1,2.2,1.3s0.7,0.7,0.9,1.1
		c0.2,0.4,0.3,0.8,0.3,1.3c0,0.9-0.3,1.6-1,2.2s-1.5,0.9-2.6,0.9c-0.3,0-0.6,0-0.9-0.1c-0.2,0-0.5-0.1-1.1-0.3
		c-0.5-0.2-0.9-0.3-1-0.3c-0.1,0-0.2,0-0.3,0.1c-0.1,0.1-0.1,0.3-0.2,0.5h-0.3v-3.9h0.3c0.1,0.8,0.3,1.4,0.6,1.8s0.6,0.7,1.1,1
		s1.1,0.4,1.6,0.4c0.7,0,1.2-0.2,1.6-0.5s0.6-0.8,0.6-1.3c0-0.3-0.1-0.6-0.2-0.8s-0.4-0.5-0.7-0.8c-0.2-0.2-0.8-0.5-1.8-1.1
		c-1-0.5-1.6-1-2.1-1.3c-0.4-0.3-0.7-0.7-0.9-1.1s-0.3-0.8-0.3-1.3c0-0.8,0.3-1.5,0.9-2.1s1.4-0.9,2.4-0.9c0.6,0,1.2,0.1,1.9,0.4
		c0.3,0.1,0.5,0.2,0.7,0.2c0.1,0,0.3,0,0.4-0.1c0.1-0.1,0.2-0.3,0.2-0.5H277.9z"/>
	<path d="M289.8,340.4l0.3,3.8h-0.3c-0.3-1.1-0.8-2-1.5-2.5s-1.4-0.8-2.3-0.8c-0.7,0-1.4,0.2-2,0.6s-1.1,1-1.4,1.8s-0.5,1.9-0.5,3.1
		c0,1,0.2,1.9,0.5,2.6c0.3,0.7,0.8,1.3,1.5,1.7c0.7,0.4,1.4,0.6,2.2,0.6c0.7,0,1.4-0.2,1.9-0.5s1.2-0.9,1.8-1.9l0.3,0.2
		c-0.6,1-1.2,1.7-2,2.2c-0.8,0.5-1.6,0.7-2.7,0.7c-1.9,0-3.3-0.7-4.3-2.1c-0.8-1-1.1-2.2-1.1-3.6c0-1.1,0.3-2.2,0.8-3.1
		c0.5-0.9,1.2-1.7,2.1-2.2s1.8-0.8,2.9-0.8c0.8,0,1.6,0.2,2.4,0.6c0.2,0.1,0.4,0.2,0.5,0.2c0.1,0,0.3-0.1,0.4-0.2
		c0.1-0.1,0.2-0.4,0.3-0.6H289.8z"/>
	<path d="M298.7,348.2h-4.4l-0.8,1.8c-0.2,0.4-0.3,0.8-0.3,1c0,0.2,0.1,0.3,0.2,0.5s0.5,0.2,1.1,0.3v0.3H291v-0.3
		c0.5-0.1,0.8-0.2,0.9-0.3c0.3-0.3,0.6-0.8,0.9-1.6l4-9.3h0.3l3.9,9.4c0.3,0.8,0.6,1.2,0.9,1.5c0.3,0.2,0.6,0.3,1.1,0.4v0.3h-4.4
		v-0.3c0.4,0,0.8-0.1,0.9-0.2c0.2-0.1,0.2-0.3,0.2-0.5c0-0.2-0.1-0.6-0.3-1.2L298.7,348.2z M298.4,347.5l-1.9-4.5l-2,4.5H298.4z"/>
	<path d="M312.9,348.8l0.3,0.1l-1,3.1h-8.7v-0.3h0.4c0.5,0,0.8-0.2,1-0.5c0.1-0.2,0.2-0.6,0.2-1.2v-7.3c0-0.7-0.1-1.1-0.2-1.3
		c-0.2-0.2-0.5-0.4-1-0.4h-0.4v-0.3h5.1v0.3c-0.6,0-1,0.1-1.3,0.2c-0.2,0.1-0.4,0.3-0.5,0.4s-0.1,0.6-0.1,1.3v7.1
		c0,0.5,0,0.8,0.1,0.9c0.1,0.1,0.2,0.2,0.3,0.3c0.1,0.1,0.6,0.1,1.3,0.1h0.8c0.9,0,1.5-0.1,1.8-0.2c0.3-0.1,0.7-0.4,1-0.7
		C312.3,350,312.6,349.5,312.9,348.8z"/>
	<path d="M317.1,341.3v4.4h2.5c0.6,0,1.1-0.1,1.3-0.3c0.3-0.3,0.4-0.7,0.5-1.3h0.3v3.9h-0.3c-0.1-0.5-0.2-0.9-0.2-1.1
		c-0.1-0.2-0.3-0.3-0.5-0.5c-0.2-0.1-0.6-0.2-1-0.2h-2.5v3.7c0,0.5,0,0.8,0.1,0.9c0,0.1,0.1,0.2,0.2,0.3s0.3,0.1,0.6,0.1h1.9
		c0.6,0,1.1,0,1.4-0.1c0.3-0.1,0.6-0.3,0.8-0.5c0.3-0.3,0.7-0.9,1.1-1.6h0.3l-1,2.8h-8.7v-0.3h0.4c0.3,0,0.5-0.1,0.8-0.2
		c0.2-0.1,0.3-0.2,0.4-0.4s0.1-0.5,0.1-1.1v-7.3c0-0.7-0.1-1.2-0.2-1.3c-0.2-0.2-0.5-0.3-1-0.3h-0.4v-0.3h8.7l0.1,2.5h-0.3
		c-0.1-0.6-0.2-1-0.4-1.2c-0.1-0.2-0.3-0.4-0.6-0.5c-0.2-0.1-0.6-0.1-1.2-0.1H317.1z"/>
</g>
<g>
	<path d="M363.6,242.6l2.7-1.3h0.3v9.5c0,0.6,0,1,0.1,1.2c0.1,0.2,0.2,0.3,0.3,0.4s0.5,0.1,1,0.1v0.3h-4.2v-0.3c0.5,0,0.9-0.1,1-0.1
		s0.3-0.2,0.3-0.3c0.1-0.1,0.1-0.5,0.1-1.2v-6.1c0-0.8,0-1.3-0.1-1.6c0-0.2-0.1-0.3-0.2-0.4s-0.2-0.1-0.4-0.1
		c-0.2,0-0.5,0.1-0.9,0.3L363.6,242.6z"/>
</g>
<g>
	<path d="M386.6,227.4c0.3-0.8,0.7-1.3,1.2-1.8c0.5-0.4,1.1-0.6,1.8-0.6c0.9,0,1.6,0.3,2.1,0.9c0.4,0.4,0.5,0.9,0.5,1.4
		c0,0.8-0.5,1.7-1.5,2.5c0.7,0.3,1.2,0.7,1.6,1.2c0.4,0.5,0.5,1.1,0.5,1.8c0,1-0.3,1.8-0.9,2.5c-0.8,0.9-2,1.4-3.5,1.4
		c-0.8,0-1.3-0.1-1.5-0.3c-0.3-0.2-0.4-0.4-0.4-0.6c0-0.2,0.1-0.3,0.2-0.4s0.3-0.2,0.5-0.2c0.1,0,0.3,0,0.4,0.1
		c0.1,0,0.3,0.1,0.6,0.3c0.3,0.2,0.6,0.3,0.7,0.3c0.2,0.1,0.4,0.1,0.7,0.1c0.6,0,1.1-0.2,1.5-0.7s0.6-1,0.6-1.6
		c0-0.4-0.1-0.9-0.3-1.3c-0.1-0.3-0.3-0.5-0.5-0.7c-0.2-0.2-0.6-0.4-1-0.6s-0.8-0.3-1.3-0.3h-0.3v-0.2c0.4-0.1,0.9-0.2,1.3-0.5
		c0.4-0.3,0.8-0.6,1-0.9s0.3-0.8,0.3-1.2c0-0.6-0.2-1-0.5-1.4c-0.4-0.4-0.8-0.5-1.3-0.5c-0.9,0-1.6,0.5-2.1,1.4L386.6,227.4z"/>
</g>
<g>
	<path d="M193.5,239.8l2.7-1.3h0.3v9.5c0,0.6,0,1,0.1,1.2c0.1,0.2,0.2,0.3,0.3,0.4s0.5,0.1,1,0.1v0.3h-4.2v-0.3c0.5,0,0.9-0.1,1-0.1
		s0.3-0.2,0.3-0.3c0.1-0.1,0.1-0.5,0.1-1.2v-6.1c0-0.8,0-1.3-0.1-1.6c0-0.2-0.1-0.3-0.2-0.4s-0.2-0.1-0.4-0.1
		c-0.2,0-0.5,0.1-0.9,0.3L193.5,239.8z"/>
</g>
<g>
	<path d="M179.5,231.5l-0.8,2.2h-6.6v-0.3c2-1.8,3.3-3.2,4.1-4.4s1.2-2.2,1.2-3.1c0-0.7-0.2-1.3-0.7-1.8c-0.4-0.5-1-0.7-1.6-0.7
		c-0.6,0-1.1,0.2-1.5,0.5c-0.4,0.3-0.8,0.8-1,1.4h-0.3c0.1-1,0.5-1.8,1.1-2.4c0.6-0.5,1.3-0.8,2.1-0.8c0.9,0,1.7,0.3,2.3,0.9
		s0.9,1.3,0.9,2.1c0,0.6-0.1,1.1-0.4,1.7c-0.4,0.9-1.1,1.8-2,2.8c-1.4,1.5-2.2,2.4-2.6,2.7h2.9c0.6,0,1,0,1.3-0.1
		c0.2,0,0.5-0.1,0.7-0.3c0.2-0.1,0.4-0.3,0.5-0.6H179.5z"/>
</g>
<g>
	<path d="M223.2,72.4l2.7-1.3h0.3v9.5c0,0.6,0,1,0.1,1.2s0.2,0.3,0.3,0.4s0.5,0.1,1,0.1v0.3h-4.2v-0.3c0.5,0,0.9-0.1,1-0.1
		c0.2-0.1,0.3-0.2,0.3-0.3c0.1-0.1,0.1-0.5,0.1-1.2v-6.1c0-0.8,0-1.3-0.1-1.6c0-0.2-0.1-0.3-0.2-0.4s-0.2-0.1-0.4-0.1
		c-0.2,0-0.5,0.1-0.9,0.3L223.2,72.4z"/>
</g>
<g>
	<path d="M202.2,61.4v1.2h-1.5v3h-1.4v-3h-4.8v-1.1l5.2-7.5h0.9v7.3H202.2z M199.3,61.4v-5.6l-4,5.6H199.3z"/>
</g>
<line fill="none" stroke="#000000" stroke-width="0.5" stroke-linecap="round" stroke-linejoin="round" stroke-miterlimit="10" x1="114.7" y1="207.2" x2="142.8" y2="187.7"/>
<g>
	<polygon points="115.8,202.3 108.9,212.1 119.7,207 	"/>
</g>
<g>
	<polygon points="115.7,47.4 108.8,57.2 119.7,52.2 	"/>
</g>
<g>
	<polygon points="98.7,224.1 95.6,212.6 92.5,224.1 	"/>
</g>
<g>
	<polygon points="92.5,278.9 95.6,290.4 98.7,278.9 	"/>
</g>
<line fill="none" stroke="#000000" stroke-width="0.5" x1="95.6" y1="221.3" x2="95.6" y2="281.8"/>
<rect x="79.5" y="243.3" fill="#FFFFFF" width="34.1" height="15.7"/>
<g>
	<path d="M81.9,247.9c0.3-0.8,0.7-1.3,1.2-1.8s1.1-0.6,1.8-0.6c0.9,0,1.6,0.3,2.1,0.9c0.4,0.4,0.5,0.9,0.5,1.4
		c0,0.8-0.5,1.7-1.5,2.5c0.7,0.3,1.2,0.7,1.6,1.2c0.4,0.5,0.5,1.1,0.5,1.8c0,1-0.3,1.8-0.9,2.5c-0.8,0.9-2,1.4-3.5,1.4
		c-0.8,0-1.3-0.1-1.5-0.3s-0.4-0.4-0.4-0.6c0-0.2,0.1-0.3,0.2-0.4c0.1-0.1,0.3-0.2,0.5-0.2c0.1,0,0.3,0,0.4,0.1
		c0.1,0,0.3,0.1,0.6,0.3c0.3,0.2,0.6,0.3,0.7,0.3c0.2,0.1,0.4,0.1,0.7,0.1c0.6,0,1.1-0.2,1.5-0.7c0.4-0.4,0.6-1,0.6-1.6
		c0-0.4-0.1-0.9-0.3-1.3c-0.1-0.3-0.3-0.5-0.5-0.7c-0.2-0.2-0.6-0.4-1-0.6s-0.8-0.3-1.3-0.3h-0.3v-0.2c0.4-0.1,0.9-0.2,1.3-0.5
		s0.8-0.6,1-0.9s0.3-0.8,0.3-1.2c0-0.6-0.2-1-0.5-1.4s-0.8-0.5-1.3-0.5c-0.9,0-1.6,0.5-2.1,1.4L81.9,247.9z"/>
	<path d="M90.8,250.4l-0.4-2.5c-0.1-0.7-0.2-1.1-0.2-1.4c0-0.4,0.1-0.6,0.2-0.8s0.3-0.2,0.6-0.2s0.5,0.1,0.6,0.2
		c0.2,0.2,0.2,0.4,0.2,0.6c0,0.2-0.1,0.7-0.2,1.5l-0.4,2.4H90.8z"/>
	<path d="M93.2,252.6h4.3v1.3h-4.3V252.6z"/>
	<path d="M98.8,251.5c0-1.3,0.2-2.4,0.6-3.3s0.9-1.6,1.5-2.1c0.5-0.4,1-0.5,1.5-0.5c0.9,0,1.6,0.4,2.3,1.3c0.9,1.1,1.3,2.6,1.3,4.4
		c0,1.3-0.2,2.4-0.6,3.3s-0.9,1.6-1.4,2c-0.6,0.4-1.1,0.6-1.7,0.6c-1.1,0-2-0.6-2.7-1.9C99.1,254.3,98.8,253,98.8,251.5z
		 M100.5,251.7c0,1.5,0.2,2.8,0.6,3.8c0.3,0.8,0.8,1.2,1.4,1.2c0.3,0,0.6-0.1,0.9-0.4s0.6-0.7,0.7-1.3c0.3-1,0.4-2.3,0.4-4
		c0-1.3-0.1-2.4-0.4-3.2c-0.2-0.6-0.5-1.1-0.8-1.4c-0.2-0.2-0.5-0.3-0.8-0.3c-0.4,0-0.7,0.2-1,0.5c-0.4,0.5-0.7,1.2-0.8,2.2
		S100.5,250.7,100.5,251.7z"/>
	<path d="M108.5,250.4l-0.5-2.5c-0.1-0.7-0.2-1.1-0.2-1.4c0-0.4,0.1-0.6,0.2-0.8c0.1-0.2,0.3-0.2,0.6-0.2c0.2,0,0.4,0.1,0.6,0.2
		s0.2,0.4,0.2,0.7c0,0.2-0.1,0.7-0.2,1.5l-0.4,2.4H108.5z M111.5,250.4L111,248l-0.2-1c0-0.1,0-0.3,0-0.4c0-0.3,0.1-0.6,0.2-0.8
		s0.4-0.2,0.6-0.2c0.2,0,0.4,0.1,0.6,0.2s0.2,0.4,0.2,0.6c0,0.5-0.1,1-0.2,1.5l-0.5,2.4H111.5z"/>
</g>
</svg>
