<?xml version="1.0" encoding="iso-8859-1"?>
<!-- Generator: Adobe Illustrator 29.3.1, SVG Export Plug-In . SVG Version: 9.03 Build 55982)  -->
<svg version="1.1" id="Layer_2" xmlns="http://www.w3.org/2000/svg" xmlns:xlink="http://www.w3.org/1999/xlink" x="0px" y="0px"
	 width="855.6px" height="334px" viewBox="0 0 855.6 334" enable-background="new 0 0 855.6 334" xml:space="preserve">
<path fill="none" stroke="#000000" stroke-width="0.5" stroke-miterlimit="10" d="M161.6,13.6c1.5,12.2-21.8,8.5-19.5,21.6
	c1.6,9.3,30.2,17.9,36.7,26.6c12.4,16.6-16.5,19.7-29.6,28.4c-10.5,7-16.3,15.4-1.2,23.7c9.1,5,36.4,11.5,47.3,16.6
	c8.9,4.2,7.8,6,9,16.6c0.7,6.5-0.1,13.4-0.1,20.1c-0.1,13.1,7.1,24.9,2.7,40c-2.1,7.1,15.1,16.6,12.1,23.9
	c-0.3,0.8,6.5,11.5,6.5,12.4c-21.8-10-31.1-10.9-52.7-13.6c-8.3-1.1-26.9-1.3-36.7-1.8c-12.8-0.6-25.2,0.1-34.3,5.3
	c-15.3,8.7-28.9,15.4-44.3,24.7c-8.4,5.1-14.4,12.8-23.7,15.7c-9.2,2.9-19.4-0.4-28.4,2.7"/>
<path fill="none" stroke="#000000" stroke-width="0.5" stroke-miterlimit="10" d="M184.1,13.3c0,9.9-3.1,25.3-0.6,34.3
	c3.9,14.4,15.6-5,23.7,5.3c8.4,10.7-8.2,24.8,4.1,34.3c6.2,4.8,15.8,4.5,20.7,11.2c1.2,1.6,15.4,21.8,15.4,24.3
	c0,14.9-26.6,0.6-25.4,26.6c0.4,9.7,16.5,11.1,20.1,17.8c3.4,6.1-0.5,27.5,0.9,34.3c2.8,13.3,10,27.6,14.8,40.2
	c2.6,7,24.6,17.2,6.4,33.3c-6,5.3-22.1-4.9-29.8-4.8c-6.1,0.1-23.5,6.4-29.7,3.9c-9.5-3.9-8.9-17.4-19.4-19.3
	c-16.6-3-41.4-8.6-55.6,0c-14.5,8.8-39.5,2.8-36.1,16c10.1,38.5-13.6,18.9-24.4,30.2c-8,8.3-26-8.2-38.3-5.7
	c-9.2,1.8-29.1,11.7-29.4,21.4"/>
<g>
	<path fill="none" stroke="#000000" stroke-miterlimit="10" d="M205.6,17.6c-0.6,0.4-3.1,13.2-1.1,18.4c3.1,7.7,9,6.3,13.1,10.8
		c11.2,12.4,7.9,28.1,14.3,41.4c9,18.7,60.8,20.3,36.5,50.9c-3.8,4.8-10.9,5.5-12.1,12.2c-1.9,10.1,5.9,12.2,11.3,18.4
		c10.3,11.7,4.6,24,11.4,37.5c5.3,10.6,12,20.1,17.1,31.9c5.2,12.2,15,20.1,20.6,31.7c2.1,4.3,5.2,5.2,4.6,10.7
		c-14.5,0.8-27.8-2.6-39.5,2.9c-12.8,6-19.5,13.2-34.8,13.3c-11.3,0-23.1-1.5-33.3-5.6c-14.2-5.8-21.9-6.1-37.4-7.7
		c-11.5-1.2-26.6-6.1-38.7-2.4c-14.9,4.6-11.9,15.5-10.7,27.7c1.4,14.2,1,20.3-8.1,21.6"/>
	<path d="M289.9,206.3l2.5,1.8l0.1,0.2l-8.3,4.6c-0.6,0.3-0.9,0.5-1,0.6s-0.2,0.3-0.2,0.5s0.1,0.5,0.4,1l-0.3,0.1l-2-3.7l0.3-0.1
		c0.3,0.5,0.5,0.7,0.6,0.8s0.3,0.1,0.4,0.1c0.1,0,0.5-0.2,1.1-0.5l5.3-2.9c0.7-0.4,1.2-0.7,1.3-0.8c0.1-0.1,0.2-0.2,0.2-0.4
		s0-0.3-0.1-0.4c-0.1-0.2-0.3-0.4-0.6-0.6L289.9,206.3z"/>
	<path d="M282.2,219.1l0.3-0.2c0.4,0.4,0.9,0.6,1.4,0.7c0.5,0.1,0.9,0,1.3-0.2c0.1-0.1,0.2-0.1,0.2-0.2c0-0.1,0-0.1,0-0.1
		c0-0.1-0.1-0.1-0.3-0.3c-0.1-0.1-0.2-0.1-0.2-0.2c-0.1-0.2-0.2-0.5-0.1-0.7c0.1-0.2,0.2-0.4,0.5-0.5c0.2-0.1,0.5-0.2,0.8-0.1
		c0.3,0.1,0.5,0.3,0.6,0.5c0.2,0.3,0.2,0.7,0.1,1.1s-0.4,0.7-0.9,1c-0.5,0.3-1.1,0.4-1.7,0.3C283.6,220.1,282.9,219.7,282.2,219.1z"
		/>
	<path d="M291.5,218.4c1.1-0.6,2.2-1,3.2-1.1c1-0.1,1.9,0,2.6,0.3c0.6,0.3,1,0.6,1.2,1.1c0.4,0.8,0.4,1.6,0,2.7
		c-0.5,1.3-1.6,2.4-3.2,3.3c-1.1,0.6-2.2,1-3.2,1.1c-1,0.1-1.8,0-2.4-0.3c-0.6-0.3-1.1-0.7-1.4-1.2c-0.5-0.9-0.4-2,0.3-3.3
		C289.2,220,290.2,219.1,291.5,218.4z M292.1,219.9c-1.3,0.8-2.4,1.6-3,2.4c-0.6,0.7-0.7,1.3-0.4,1.8c0.1,0.3,0.4,0.5,0.8,0.6
		s0.9,0.1,1.5,0c1-0.2,2.2-0.8,3.7-1.7c1.1-0.6,2-1.3,2.6-1.9c0.5-0.5,0.7-0.9,0.8-1.3c0-0.3,0-0.6-0.2-0.9
		c-0.2-0.3-0.5-0.5-0.9-0.6c-0.6-0.1-1.4,0-2.3,0.4C293.8,219,293,219.4,292.1,219.9z"/>
	<path d="M295.7,225.8c1.1-0.6,2.2-0.9,3.2-1c1-0.1,1.9,0.1,2.5,0.4c0.5,0.3,0.9,0.7,1.2,1.1c0.4,0.8,0.4,1.7-0.1,2.7
		c-0.6,1.3-1.7,2.3-3.4,3.2c-1.2,0.6-2.2,0.9-3.2,1c-1,0.1-1.8,0-2.4-0.4c-0.6-0.3-1.1-0.7-1.3-1.2c-0.5-1-0.3-2,0.5-3.3
		C293.4,227.4,294.4,226.5,295.7,225.8z M296.3,227.4c-1.4,0.7-2.4,1.5-3.1,2.2c-0.6,0.7-0.7,1.3-0.5,1.8c0.1,0.3,0.4,0.5,0.8,0.6
		c0.4,0.2,0.9,0.2,1.5,0c1-0.2,2.2-0.7,3.8-1.5c1.1-0.6,2-1.2,2.7-1.8c0.5-0.5,0.8-0.9,0.8-1.3c0.1-0.3,0-0.6-0.1-0.9
		c-0.2-0.3-0.5-0.6-0.9-0.7c-0.6-0.1-1.4-0.1-2.3,0.3C298,226.6,297.2,226.9,296.3,227.4z"/>
	<path d="M299.7,233.6c1.2-0.5,2.3-0.8,3.3-0.8c1,0,1.8,0.2,2.5,0.6c0.5,0.3,0.9,0.7,1.1,1.2c0.3,0.8,0.2,1.7-0.3,2.7
		c-0.7,1.2-1.8,2.2-3.6,2.9c-1.2,0.5-2.3,0.8-3.3,0.8s-1.8-0.2-2.4-0.5s-1-0.8-1.2-1.3c-0.4-1-0.2-2.1,0.7-3.2
		C297.2,235,298.3,234.2,299.7,233.6z M300.1,235.1c-1.4,0.6-2.5,1.3-3.2,2c-0.6,0.6-0.8,1.2-0.6,1.8c0.1,0.3,0.4,0.5,0.7,0.7
		c0.4,0.2,0.9,0.2,1.5,0.1c1-0.1,2.3-0.6,3.8-1.3c1.2-0.5,2.1-1.1,2.8-1.6c0.5-0.4,0.8-0.9,0.9-1.2c0.1-0.3,0.1-0.6-0.1-0.9
		c-0.2-0.3-0.4-0.6-0.9-0.7c-0.6-0.2-1.4-0.1-2.3,0.1C301.9,234.4,301,234.8,300.1,235.1z"/>
</g>
<path fill="none" stroke="#000000" stroke-width="0.5" stroke-miterlimit="10" d="M244.3,17.6c14.6,21.1-1,53,18.7,71.1
	c8.4,7.7,24.3,7.2,28.1,18.3c3.8,11.1-8.1,25.1-9.3,36c-2.1,18.5,10.1,15,17.6,30.7c3,6.2,1.1,11.1,2.3,17.4
	c1.4,7.7,6.2,14.9,7.8,22.5c3,14.1,3.7,29.2,8.1,42.6c3.3,10,9.8,17.2,15.3,25.2c1.9,2.7,3.6,5.5,5.1,8.5c2.5,5.1,4.8,9,4.9,14.5
	c-26.4,7-56.2-4.8-82.5,0.2c-12.8,2.4-19.3,10.6-33.1,9.4c-15.5-1.3-29.9-7-46-7.9c-9.4-0.6-33.1-6-39.5,4.4
	c-3.2,5.2-1.5,10.9,0.5,16.5"/>
<path fill="none" stroke="#000000" stroke-width="0.5" stroke-miterlimit="10" d="M271,17.6c4.4,12.7-1.2,31.3,0,42.7
	c1.7,15.4,8,19.3,21.1,25.4c8.8,4.1,8.3,0.1,11.3,11.7c2.1,8.1,1,17.3,1,25.7c0,13-0.4,25.9,4.2,37.6c11.3,28.5,27.5,54.8,38.6,84.2
	c3.1,8.3,13.6,1.9,15.8,10.4c1.8,6.8,9.3,12.3,12.7,18.6c4.1,7.6,6.4,21.2,12.1,28.4c3.4,4.3,9.5,14.8,12.7,18.9"/>
<path fill="none" stroke="#000000" stroke-width="0.5" stroke-miterlimit="10" d="M313.5,60.3c6.9,7.6,13.3,4.8,9.9,23
	c-2.4,12.6-2.1,6.3-2.1,19.1c0,9.6,0.4,26.1,6.5,33.3c7.4,8.6,0.8,8.9,2.6,19.6c1.3,7.3,5.4,15,9.1,21.3c4.6,7.7,4.4,15,9.8,22.2
	c2.3,3.1,6,5.8,7.8,9c2,3.6,1.7,9.3,3.5,13.1c7.1,15.2,29.9,22.3,33,38.2c1.9,10,1.1,14.6,7.9,23.3c6,7.7,13.5,16.2,19.8,22.6
	c6.9,7.1,12.8,5.6,22.7,5.6c12.1,0,17.3,0,27,6.2c13.3,8.4,31.9,6.2,47.7,6.2c18.7,0,34.7-4.4,52.4-7.1c8.8-1.3,18.3-0.1,26.6-2.8
	c7.6-2.5,13.7-7.2,21.2-10.4c10.7-4.6,18.9-4,25.2-14.4c5.8-9.6,4.8-13.7,17.3-14.2c22-0.9,36.2-12.7,55.3-20.4
	c6.7-2.7,16.1-2,22.2-5.3c7.8-4.2,7-10.5,7.1-19.6c0.3-24.9,25.6-17.9,40-31.9c6.5-6.4,10.7-15.6,18-21.1c4.7-3.6,11.2-4,16.4-6.6
	c17.8-9-3.4-15.4-3.4-26.4c0-12.4,20-11.6,27.6-14.2"/>
<path fill="none" stroke="#000000" stroke-width="0.5" stroke-miterlimit="10" d="M309.2,10.7c-1.2,8-3.7,16.7-7.3,24
	c-5,10.3,3.8,10.6,11.6,25.7"/>
<path fill="none" stroke="#000000" stroke-width="0.5" stroke-miterlimit="10" d="M320.7,9.8c0,3.2,0.8,7.5,0,10.7
	c-1.2,4.8-3.5,4.8-5.3,8.9c-5.7,12.8,4.4,9.6,11.4,15.3c5.9,4.7,5.3,14.6,13.7,18.3c5.5,2.5,18.8,1.1,11.6,12.6
	c-4.1,6.6-13.2,6.1-16.3,15c-2.6,7.5-5.1,16.8-6.2,24.9c-1.3,9.8,2.1,13.9,7.1,21.5c5.4,8.2,8.1,17.1,10.5,26.2
	c2.3,8.8,2.4,16.2,9.9,22.2c5.1,4,5.9,2.1,8.7,9.1c1.6,4,1.8,8.3,3.8,12.4c4.6,9.8,10.6,11,18.4,18.4c6.4,6.1,11,13.6,17,20
	c5.9,6.2,9.6,15.8,16.4,20.9c7.5,5.6,18,6.7,26,12.4c16.2,11.5,43.7,15.2,63.3,9.1c4.7-1.5,9-5.4,13.9-6.3c6.1-1.1,14-0.2,20.2,0.1
	c10.5,0.5,20.5,0,31.3,0c11.4,0,18.7-0.2,29.3-4.2c4-1.5,10.8-1.2,13.8-4.4c2.9-3.2,0.8-7.1,3.2-9.8c4.9-5.4,18.7-2.6,25-2.8
	c11.2-0.4,15.3-4.3,23.9-9.8c15-9.6,39.2-6.5,56.7-8.3c-0.7-4.7-2.5-13.8-6-17.5c-4-4.2-8.5-2.7-11.6-8c-5-8.6,4.7-12.5,9.7-16.8
	c8.5-7.2,6.3-14.9,17.8-16c11.3-1.1,20.1-0.3,30.8-3.6c12.8-3.9,43.5-10.3,27.3-28.4c-7-7.8-16.5-8.7-10.7-21.3
	c4.7-10.1,16.3-11.2,26.4-13.3c11.8-2.4,25.8-1.6,37.1-5.4"/>
<g>
	<path fill="none" stroke="#000000" stroke-miterlimit="10" d="M338.5,8c1.9,14.1-15,28.3-1.8,38.9c5.8,4.7,15.4,7.8,22.7,9
		c5.8,1,16.6-2,21.7,0c3.8,1.4,6.6,5.3,6.2,10c-0.5,6.9-2.2,5.5-8,7.7c-7.5,2.8-16.8,4.6-19.6,13.4c-1,3.1,1,7.4,0.2,10.7
		c-0.9,3.3-4.3,5.5-5.4,8.8c-2.1,6.4-2.6,16.4-2.6,23.1c-0.2,15.3,9,33.9,16,46.6c4.1,7.5,4.4,16.5,10.6,22.8
		c5.6,5.7,13.7,10.4,20.4,14.8c15.5,10.3,32.6,12.6,46.8,26.9c13.6,13.6,23.9,23.4,43.5,28c7.9,1.8,17.5,4.2,25.9,2.9
		c5.3-0.8,8.4-3.7,13.2-5.4c4.9-1.7,9.1-1.7,14.6-1.8c12.4-0.1,16-6.4,26.4-10.7c8.1-3.3,19.8-1.5,28.8-2.4
		c16.9-1.7,33-12.3,50.3-10.8c8.7,0.8,16.5,4.2,24.6,1.8c3.8-1.1,7.6-5.4,12-6.3c4-0.8,10.9,2.2,12.2-2.6c1.8-6.8-5.3-4.2-8.2-6.2
		c-4.1-2.8-5.7-7.2-7.8-12.4c-3.6-9-5.5-14.8,2.7-21.5c12.3-10.2,29-13.2,43.3-16.8c7-1.8,14-5.3,21.5-6c6.7-0.6,18.9,3,24.9,0
		c4.3-2.1,5.3-4.1,4.4-9.8c-1.2-7.7-5.7-5.9-9.6-11.8c-2.7-4.1-3.8-18.1-2.8-22.9c2.8-14.3,25.9-14.3,37.3-17.7
		c14.3-4.3,28.9-7.5,43.5-8.9"/>
	<path d="M557.5,248.4l1.7-2.5l0.2-0.1l4.6,8.3c0.3,0.6,0.5,0.9,0.6,1c0.1,0.1,0.3,0.2,0.5,0.2s0.5-0.1,1-0.4l0.1,0.3l-3.7,2.1
		l-0.1-0.3c0.5-0.3,0.7-0.5,0.8-0.6s0.1-0.3,0.1-0.4c0-0.1-0.2-0.5-0.5-1.1l-2.9-5.3c-0.4-0.7-0.7-1.2-0.8-1.3
		c-0.1-0.1-0.2-0.2-0.4-0.2s-0.3,0-0.4,0.1c-0.2,0.1-0.4,0.3-0.6,0.6L557.5,248.4z"/>
	<path d="M569.6,256.7l-0.1-0.3c0.5-0.4,0.8-0.8,0.9-1.3c0.2-0.5,0.2-0.9,0-1.3c0-0.1-0.1-0.2-0.2-0.2c-0.1,0-0.1,0-0.1,0
		c-0.1,0-0.2,0.1-0.3,0.3c-0.1,0.1-0.2,0.1-0.3,0.2c-0.3,0.1-0.5,0.1-0.7,0c-0.2-0.1-0.4-0.3-0.5-0.5c-0.1-0.3-0.1-0.5,0-0.8
		s0.3-0.4,0.6-0.5c0.3-0.1,0.7-0.1,1.1,0.1c0.4,0.2,0.7,0.5,0.8,1c0.2,0.5,0.2,1.1,0,1.7C570.8,255.6,570.3,256.1,569.6,256.7z"/>
	<path d="M570.9,247.3c-0.2-1.3-0.2-2.4,0.1-3.4c0.2-1,0.7-1.7,1.2-2.3c0.4-0.4,0.9-0.7,1.4-0.8c0.9-0.1,1.7,0.2,2.5,1
		c1,1,1.7,2.4,1.9,4.2c0.2,1.3,0.2,2.4-0.1,3.4c-0.2,1-0.6,1.7-1.1,2.2c-0.5,0.5-1,0.8-1.6,0.9c-1.1,0.2-2-0.3-2.9-1.5
		C571.6,250,571.2,248.8,570.9,247.3z M572.6,247.2c0.2,1.5,0.6,2.8,1.1,3.7c0.4,0.8,1,1.1,1.6,1c0.3,0,0.6-0.2,0.9-0.5
		c0.3-0.3,0.5-0.8,0.5-1.4c0.1-1,0-2.3-0.2-4c-0.2-1.3-0.5-2.3-0.9-3.1c-0.3-0.6-0.6-1-1-1.2c-0.3-0.1-0.5-0.2-0.9-0.1
		c-0.4,0.1-0.7,0.3-0.9,0.6c-0.3,0.5-0.5,1.3-0.5,2.3C572.4,245.3,572.4,246.3,572.6,247.2z"/>
	<path d="M579.7,246.2c0-1.3,0.2-2.4,0.5-3.3c0.4-0.9,0.9-1.6,1.5-2.1c0.5-0.4,1-0.6,1.5-0.6c0.9,0,1.6,0.4,2.3,1.3
		c0.9,1.1,1.3,2.5,1.4,4.4c0,1.3-0.2,2.4-0.5,3.3c-0.4,0.9-0.8,1.6-1.4,2c-0.6,0.4-1.1,0.6-1.7,0.6c-1.1,0-2-0.6-2.7-1.9
		C580.1,249,579.8,247.7,579.7,246.2z M581.4,246.4c0,1.5,0.2,2.8,0.6,3.8c0.3,0.8,0.8,1.2,1.4,1.2c0.3,0,0.6-0.1,0.9-0.4
		c0.3-0.3,0.6-0.7,0.7-1.4c0.2-1,0.3-2.3,0.3-4c0-1.3-0.2-2.4-0.4-3.2c-0.2-0.6-0.5-1.1-0.8-1.3c-0.2-0.2-0.5-0.3-0.8-0.3
		c-0.4,0-0.7,0.2-1,0.5c-0.4,0.5-0.7,1.2-0.8,2.2C581.4,244.4,581.4,245.4,581.4,246.4z"/>
	<path d="M588.3,246.2c0-1.3,0.2-2.4,0.5-3.3s0.9-1.6,1.5-2.1c0.5-0.4,1-0.6,1.5-0.6c0.9,0,1.6,0.4,2.3,1.3c0.9,1.1,1.3,2.6,1.3,4.4
		c0,1.3-0.2,2.4-0.5,3.3c-0.4,0.9-0.8,1.6-1.4,2c-0.6,0.4-1.1,0.6-1.7,0.6c-1.1,0-2-0.6-2.7-1.9
		C588.6,248.9,588.3,247.7,588.3,246.2z M589.9,246.3c0,1.5,0.2,2.8,0.6,3.8c0.3,0.8,0.8,1.2,1.4,1.2c0.3,0,0.6-0.1,0.9-0.4
		s0.6-0.7,0.7-1.4c0.2-1,0.4-2.3,0.3-4c0-1.3-0.2-2.4-0.4-3.2c-0.2-0.6-0.5-1.1-0.8-1.3c-0.2-0.2-0.5-0.3-0.8-0.3
		c-0.4,0-0.7,0.2-1,0.5c-0.4,0.5-0.7,1.2-0.8,2.2C590,244.4,589.9,245.4,589.9,246.3z"/>
</g>
<path fill="none" stroke="#000000" stroke-width="0.5" stroke-miterlimit="10" d="M480.5,8.9c-7.3-0.6-12.6,2.4-19.1,4.4
	c-4.9,1.5-11.4,0.2-16.3,1.8c-5.1,1.6-7.4,6.6-12.5,8c-5.6,1.6-11.4-1.2-16.2-2.7c-10.4-3.2-21.3-3.2-31.7-0.8
	c-5.1,1.1-9.5,5.5-14.9,4.3c-3.1-0.7-6.2-4.3-9.8-5.2c-3.6-0.9-8.6-0.7-12.3-0.8c-1.4,8.5,2.3,14.2,7.6,20.3
	c5.9,6.7,8.8,6.7,18.7,6.2c10.4-0.6,15-2.1,24.2,2c9.1,4.1,20.3,13.1,30.7,11.4c6.4,11.8-4.5,12.1-12.5,15.7
	c-3.4,1.5-6.1,4.7-9.5,5.6c-3.7,0.9-8-0.8-11.8,0.2c-6.1,1.5-5,4.6-7.8,6.9c-4.1,3.5-8.3,2.3-12.5,5.1c-8.1,5.6,0.2,17.6,1,26.2
	c1.6,18.7-2.4,39.1,3.3,56.8c5.6,17.3,19,29.7,35.5,38.2c6.1,3.2,13.8,2.8,19,7.8c6.5,6.1,6.7,10.8,16,13.5
	c8.7,2.5,13.4,1.2,19.1,8.9c5.9,7.9,7.4,15.4,17.1,18.4c7.6,2.3,15.2,2.2,22.3-0.7c10.6-4.2,16.2-13.5,26.5-16.2
	c8.4-2.2,19.5-0.8,27.5-3.5c5.6-1.9,2.7-3.5,7.1-6.2c4.9-3.1,8.6-2.5,14.3-3.1c8.2-0.8,17.5-2.1,25.7-4.7c8-2.5,16.6,0.5,24.2-1.1
	c9.8-2.1,7.8-13.1,12.4-21.4c4.7-8.4,10.9-15,19.7-19.3c16.9-8.2,30.1-24,48.4-26.8c7.8-1.2,16.7-1.6,24.9-0.9
	c9.4,0.7,17.4,7.1,19.5-4.4c2.7-14.8-10.5-37.5,6-46.4c13.9-7.4,33.5-10.1,49-13.1c5.1-1,18.2-2,22.3-4.6c6.8-4.3,7.1-15.1,7.1-22.1
	c0-16.8,2.5-31.9-7.3-45.4c-2.7-3.7-6.4-7.9-7.7-12.3"/>
<path fill="none" stroke="#000000" stroke-width="0.5" stroke-miterlimit="10" d="M607.4,11.6c-8.2,12.8-34.7,13.2-48.8,11.6
	c-18.9-2.1-35.8-8-55.9-6.2c-13.6,1.2-36.2,17.2-38.2,31.1c-1.6,11.5,8.5,36-6.2,37.3c-8.6,0.7-16.9-7.9-25.7-5.3
	c-8.7,2.5-3,10.2-9.8,16.9c-12,11.9-31.3,3-32.8,26.6c-0.6,9-2.7,13.2-4.5,21.3c-0.7,3.4-0.3,9,0,12.4c0.6,6,2.2,6.8,4.3,11.6
	c3.8,9.1,7.3,17.9,14.5,25.6c6.9,7.4,13.5,6.1,22,9.9c14.8,6.5,27.9,19.7,41.7,29.2c7.5,5.1,16.1,11.2,23.5,15.3
	c2.8,1.5,7.7,3.3,11.1,2.5c6.2-1.6,4.3-4.9,8-9.6c6.3-7.9,13.9-5.2,23.1-6.6c11.5-1.8,12.7-9.5,22.2-13.9c7.3-3.3,17.2-0.3,24.9-2.7
	c7.9-2.5,12.4-8.7,21.4-8c11.2,0.8,17.3,10.5,25.6,0c5.6-7.1,8.6-17.1,16-22.9c6.5-5.1,14.3-5.6,18.9-13.3
	c5.7-9.6,4.9-11.4,16.6-15.7c7.9-2.9,15.3-7.7,23.9-9.4c9.6-1.9,17.1,2.3,25.6,2.3c17.4,0,14.3-21.8,16.1-34.2
	c1.9-12.9,9.4-28,24-30.2c16.1-2.4,33.4,0.2,47.7-8.6c27.9-17.3-6.2-54.7-18.4-71.2"/>
<path fill="none" stroke="#000000" stroke-width="0.5" stroke-miterlimit="10" d="M626.1,7.1c-5.4,5.2-5.4,13.2-11.5,18.6
	c-6.6,5.8-13.3,5.4-21.3,7.1c-14.5,3-28.4,8.5-43.4,3.6c-11.9-3.9-33.5-11.4-43.8-0.2c-2.8,3.1-2.8,6.6-5.3,10
	c-2.8,3.7-7.4,5.2-9.8,8.7c-3.6,5.3-2.8,14.9-4.9,21.9c-3.5,11.6-7.3,19.9-19.7,23.6c-1.7,0.5-4.7-0.2-6.2,0.8c-3.2,2-2,5-5.3,6.3
	c-3.9,1.6-11.6-0.1-15.9,0.1c0.5,11.7-10.6,8.8-17.9,10.8c-10.3,2.8-6.2,9.6-8.9,18.3c-2,6.3-5.5,14.7-8.7,20.8
	c-5.4,10.3-7.1,10.4,1.4,20c11.5,13.1,18.9,19.4,34.8,24.1c7.3,2.2,13,5.5,18.9,10.5c7.8,6.6,14.8,9,23.4,14.4
	c3.4,2.1,5.5,4.7,9.2,6.3c3.5,1.6,8.4,2,12,4.2c2.6-6,4-10.5,10.9-13.4c0.7-7.9,16.1-7.4,21.7-8.5c6.8-1.4,14.4-4.6,20.3-7.9
	c8.7-4.9,12.5-6.5,22.8-6.5c7.6,0,18,1.5,24.9-0.8c6.3-2.2,15.2-10.2,19.3-15.4c5.5-7.1,2.7-15.7,11.7-20.2c3.6-1.8,8-2.2,11.8-3.4
	c7.5-2.3,5.8-2.3,10.7-7.1c7.5-7.3,12.5-9.6,22.9-11c16.3-2.2,33.5-5.6,50.4-5.3c4.9-13.3-4.1-30.6,4.4-42.7
	c9.4-13.2,29.4-14.9,43.7-19.2c5.5-1.7,17.2-3.6,21.3-8.1c4.3-4.7,3.6-17.2,2.6-23.9c-2.5-17.5-22.3-21.8-28.4-37.3"/>
<path fill="none" stroke="#000000" stroke-width="0.5" stroke-miterlimit="10" d="M641.2,16c-15.3-2.1-23.5,24.9-34.6,32.2
	c-13.2,8.7-39.1,5.6-53.6,3.5c-15-2.1-37.2-10.1-47.8,4.8c-8.6,12.1-2.4,31.5-2.4,45.7c0,11.1,0.3,14.8-9.8,20
	c-7.2,3.7-10.7,8.6-16.6,12.9c-13.5,9.7-37.4-10.2-47.3,6.8c-1.7,2.9-1.7,8.5-3.7,10.7c-3.1,3.5-9.4,1.7-13,4.7
	c-9.5,7.8,0.4,14.3,5.9,21.1c5.3,6.5,8.2,12.6,16.3,15.8c7.4,2.9,15.9,0.3,22.9,3c13.3,5.1,22.9,25.9,38.1,23.8
	c10.3-1.4,8-8.7,16.9-12.5c7.5-3.2,16-0.6,23.3-5c14.8-8.9,24.6-10.9,42.6-10.9c7,0,22.5,0.2,27.5-4.2c5.7-4.9,5.1-18.6,9.5-25.8
	c5-8.1,7.8-11,16.8-13.5c13.5-3.8,22.9-2.4,32.9-12.5c7.4-7.5,15-14.1,26.4-14.2c10.3-0.1,19.1,8.3,29.3,7
	c0.2-6.9,2.3-12.5,1.9-19.6c-0.4-8.3-0.3-15.9,5.3-22.2c10.7-12.2,32.3-12,45.2-21.3c5.8-4.2,10-15.1,8.2-22.2
	c-0.8-3.1-3.6-3.4-4.6-6c-0.5-1.4,0.9-4,0.2-5.4c-2.6-5.2-4-7-9.6-8.8c-9.9-3.2-16.7,2.3-25.9,3.6c-9.9,1.3-19.8-5.2-29.4-2.7
	c-3.7,0.9-7.3,3.8-11,5.2c-5.3,1.9-10.8,2.6-16.5,2.8c-5.9,0.2-7.7,0.4-13.3-2.5c-3.3-1.7-8.6-11.8-11.6-14.3
	C658.4,14.9,642.2,15.2,641.2,16"/>
<path fill="none" stroke="#000000" stroke-width="0.5" stroke-miterlimit="10" d="M543.2,84.2c-3.3,8.2-2.4,16.8-3.9,24.1
	c-1,5.1-1.2,17.2-3.7,21.3c-2.8,4.5-8.2,3.6-10.8,8c-1.4,2.4-1.2,7.6-1.7,10.6c-1.1,7.1-6.1,13.9-4.5,21.3c2,9.1,10.4,9.6,18.6,9.8
	c9.8,0.2,13.7-5.8,22.2-8c8.6-2.2,17.6,4.5,26.5,1.8c10.7-3.2,10.5-12.9,13.5-21.4c2.5-7.4,7-16.3,11.6-21.9
	c6.7-8.3,15.7-7.2,25.8-10.2c14.6-4.4,28.2-3.4,43.4-6c5.9-1,14.9-4.9,18.5-10.7c3.8-6.1,2-15,5.5-21.3c3.2-5.9,11.5-12.8,17.5-14.9
	c8.2-2.8,15.7-0.5,17.9-10.8c0.4-1.9,1.2-4.3,1.7-6.1c-7-2-14-5.9-21.8-3.6c-7,2-12.3,9.1-20.1,11.4c-18.9,5.5-33.7,1.5-52.1-1.7
	c-10.4-1.8-12.1,2.2-18.6,9.7c-6.5,7.6-15.1,12.5-25.1,13.4c-16,1.4-32.6,0.5-48.6,2.6C550.9,82.2,546.4,81.7,543.2,84.2"/>
<path fill="none" stroke="#000000" stroke-width="0.5" stroke-miterlimit="10" d="M556.8,93.2c-3,2.4-6.2,21.4-7.1,26.9
	c-1.8,11.2-4.3,21.8-7.1,32.6c-3,11.8-2.1,18.5,13.4,15.1c6.3-1.4,8.1-4.6,14.3-6.2c4.1-1.1,9.8,0.1,14-0.2
	c4.4-8.9,10.7-18.4,14.2-27.5c4.1-10.6,6.1-19.9,16.9-26.7c12-7.7,24.1,2.3,36.6-1.4c5.9-1.7,8.9-8.8,16-8.1
	c6.1,0.6,10.9,6.5,17.6,7c-0.6-7.3,7.3-10.7,5.5-19.4c-2.2-10.8-10.7-11.7-19.7-15.1c-7.7-2.9-18.9-8.1-26.4-2.9
	c-5.6,3.9-5.3,12-9.8,17.1C617.3,104.4,573.8,72.2,556.8,93.2"/>
<path fill="none" stroke="#000000" stroke-width="0.5" stroke-miterlimit="10" d="M575.3,100.9c-2.9,0-6,1.5-7.6,3.9
	c-2.7,3.9-0.5,11.3-1,16c-0.6,5.4-2.5,8.2-3.6,13.3c-0.5,2.5,0.8,5.6,0.1,8c-1.1,3.9-3.9,3.7-4.4,7.9c3.1,0.1,6.4,0.1,9.5,0.3
	c0.3,0.9,0.6,1.6,1,2.4c7.5,0,4-9.3,8.7-13.4c3.2-2.8,7.1-0.2,9.8-3.6c2.8-3.5-0.1-7.3,0.2-11.1c0.2-2.8,2.8-6.9,2.5-9.1
	c-0.8-5.7,0.5-1.2-4.2-4.4c-1-0.7-3.4,0.7-4.5,0.1c-2.2-1.3-1.6-3.5-3.4-5.2C576,103.7,577.4,101.7,575.3,100.9"/>
<path fill="none" stroke="#000000" stroke-width="0.5" stroke-miterlimit="10" d="M843.5,183.7c-30.3-0.6-39.8,21.4-58.6,37.7
	c-7.6,6.6-14.2,12-20.2,20.2c-5.1,6.9-9.7,12.8-17.4,17c-11.1,5.9-22.6,10.3-33.3,16.7c-8.8,5.2-16.6,12-25.6,16.9
	c-8,4.4-18.1,2.6-23.3,9.5c-2.7,3.5-3.5,9.6-6.6,13.5c-2.8,3.6-6.3,5.4-9.3,8.6"/>
<path fill="none" stroke="#000000" stroke-width="0.5" stroke-miterlimit="10" d="M845.3,218.4c-13.4-7.3-20.2,28.3-25.7,32.6
	c-5.2,4.1-17.6,4.8-24,7.1c-7.1,2.6-21.4,2.1-27.3,7.3c-9.5,8.4,5.8,7.9,13.1,8c8.9,0,16-2.9,24.6-3.7c6.6-0.6,14,1.4,20.6-1.5
	c4.2-1.9,20.1-9.2,20.5-13.4"/>
<path fill="none" stroke="#000000" stroke-width="0.5" stroke-miterlimit="10" d="M671.3,5.3c-0.9,5.8,9.4,13.3,16,13.4
	c7.7,0,10.3-6.9,16.8-9.7c12.7-5.3,33.7-1,47.1-1"/>
<path fill="none" stroke="#000000" stroke-width="0.5" stroke-miterlimit="10" d="M28.8,225.3c-7.6-4.3-18.1,8.5-6.4,12.1
	c3,0.9,15.5,1.9,17.8-0.3c5.8-5.8-10.6-7.8-10.6-11.4L28.8,225.3z"/>
<path fill="none" stroke="#000000" stroke-width="0.5" stroke-miterlimit="10" d="M48,195.6c-6.2,3.4-10.9,11.5-3.1,15.5
	c4.6,2.4,7.2-0.2,10.2,4c2.5,3.4,0,6,5.8,7.1c4.6,0.9,6.7-0.7,7.1-5.2c0.5-5.1-0.7-3.8-4.1-5.6c-8.5-4.5-8.4-5.5-8.9-15.2
	C52.7,196.4,49.4,195.4,48,195.6"/>
<g>
	<path fill="none" stroke="#000000" stroke-miterlimit="10" d="M534.9,72.6c9.1-7.1,39.8,6.2,60.2-2.4c7.9-3.3,16.8-7.2,24.5-10.9
		c7.8-3.7,14.6-11.6,23.2-13.7c10.5-2.6,17-8.7,28-8.1c9.1,0.5,17.5,2.9,26.4,3.3c9.8,0.5,20.2,0.5,29.9-0.5
		c8.2-0.8,18.1-2.3,23.5,4.8c5.2,6.8,2.4,17.7-2.8,22.6c-6.4,5.9-15.7,7.7-23.1,11.9c-16.1,9.2-12.4,32.2-30.3,38.7
		c-9.1,3.3-19.7,2-29.3,3.4c-11.3,1.7-22.5,3.8-32.7,8.4c-9.2,4.2-18.1,8.2-22.2,17.4c-3.2,7.2-11.3,13.7-10.5,21.3
		c1.6,14.7-10.8,8.8-18.4,12.4c-9.3,4.4-25.4-1-32.2,5.2c-9.2,8.3-46.7,13.7-59.2,14.2c-12.3,0.5-19.1-8.2-29.8-14.2
		c-8.7-4.9-16.2-17.6-9.5-29.3c5.6-9.7,29.6-13.5,42.1-17.3c12.3-3.7,20.6-10,27.9-20.6c5.7-8.3,0.9-18.7,2.4-28.4
		C524.2,83.7,532.7,79.4,534.9,72.6"/>
	<path d="M585.6,62.5l2.3-2l0.3-0.1l2.3,9.2c0.2,0.6,0.3,1,0.4,1.1c0.1,0.1,0.2,0.2,0.4,0.3c0.2,0,0.5,0,1-0.1l0.1,0.3l-4.1,1
		l-0.1-0.3c0.5-0.1,0.8-0.3,1-0.4s0.2-0.2,0.2-0.4c0-0.1,0-0.5-0.2-1.2l-1.5-5.9c-0.2-0.8-0.4-1.3-0.5-1.5c-0.1-0.2-0.2-0.3-0.3-0.3
		c-0.1-0.1-0.2-0.1-0.4,0c-0.2,0-0.5,0.2-0.8,0.5L585.6,62.5z"/>
	<path d="M597.2,72.4l-0.1-0.3c0.5-0.4,0.7-0.8,0.9-1.3c0.1-0.5,0.1-0.9-0.1-1.3c0-0.1-0.1-0.2-0.2-0.2c-0.1,0-0.1,0-0.1,0
		c-0.1,0-0.2,0.1-0.3,0.3c-0.1,0.1-0.2,0.1-0.3,0.2c-0.2,0.1-0.5,0.1-0.7,0c-0.2-0.1-0.4-0.3-0.5-0.5c-0.1-0.2-0.1-0.5,0-0.8
		c0.1-0.3,0.3-0.4,0.6-0.6c0.3-0.1,0.7-0.1,1.1,0.1c0.4,0.2,0.7,0.5,0.9,1c0.2,0.5,0.2,1.1,0.1,1.7
		C598.3,71.2,597.9,71.8,597.2,72.4z"/>
	<path d="M601.5,55.2l0,1.6l-3.1,1.3l-0.1,1.7c1.4-0.4,2.7-0.3,3.8,0.1c1,0.4,1.7,1.1,2.1,2c0.2,0.5,0.3,1.1,0.3,1.7
		s-0.1,1.1-0.3,1.5s-0.5,0.9-0.8,1.3c-0.5,0.5-1,0.9-1.6,1.2c-0.6,0.3-1.1,0.4-1.5,0.3s-0.6-0.3-0.7-0.5c-0.1-0.1-0.1-0.3,0-0.5
		s0.2-0.3,0.4-0.4c0.1-0.1,0.3-0.1,0.4-0.1c0.1,0,0.3,0,0.6,0.1c0.5,0.1,0.9,0.1,1.3-0.1c0.6-0.3,1-0.7,1.3-1.4
		c0.3-0.6,0.2-1.3,0-1.9c-0.3-0.6-0.7-1.1-1.4-1.5c-0.6-0.4-1.4-0.5-2.2-0.5c-0.7,0-1.5,0.2-2.4,0.6l0.2-4.9L601.5,55.2z"/>
	<path d="M605.2,59.8c-0.5-1.2-0.8-2.3-0.8-3.3s0.2-1.8,0.6-2.5c0.3-0.5,0.7-0.9,1.2-1.1c0.8-0.4,1.7-0.3,2.7,0.2
		c1.2,0.6,2.2,1.8,3,3.5c0.5,1.2,0.8,2.3,0.9,3.3c0,1-0.1,1.8-0.5,2.4c-0.4,0.6-0.8,1-1.3,1.3c-1,0.4-2.1,0.2-3.2-0.6
		C606.6,62.2,605.8,61.2,605.2,59.8z M606.8,59.3c0.6,1.4,1.3,2.5,2.1,3.2c0.6,0.6,1.2,0.8,1.8,0.5c0.3-0.1,0.5-0.4,0.7-0.7
		c0.2-0.4,0.2-0.9,0.1-1.5c-0.2-1-0.6-2.2-1.3-3.8c-0.5-1.2-1.1-2.1-1.7-2.8c-0.4-0.5-0.9-0.8-1.3-0.9c-0.3-0.1-0.6,0-0.9,0.1
		c-0.3,0.2-0.6,0.4-0.7,0.9c-0.2,0.6-0.1,1.4,0.1,2.3C606,57.5,606.4,58.5,606.8,59.3z"/>
	<path d="M612.9,56.4c-0.6-1.2-0.9-2.2-0.9-3.2s0.1-1.8,0.5-2.5c0.3-0.5,0.7-0.9,1.2-1.2c0.8-0.4,1.7-0.3,2.7,0.2
		c1.2,0.6,2.3,1.8,3.1,3.4c0.6,1.2,0.9,2.3,0.9,3.2c0.1,1-0.1,1.8-0.4,2.4c-0.3,0.6-0.8,1.1-1.3,1.3c-1,0.5-2,0.3-3.2-0.6
		C614.3,58.8,613.5,57.7,612.9,56.4z M614.4,55.9c0.7,1.4,1.4,2.5,2.2,3.2c0.6,0.6,1.2,0.8,1.8,0.5c0.3-0.1,0.5-0.4,0.7-0.8
		c0.2-0.4,0.2-0.9,0.1-1.5c-0.2-1-0.6-2.2-1.4-3.8c-0.6-1.2-1.1-2.1-1.7-2.7c-0.5-0.5-0.9-0.8-1.3-0.9c-0.3-0.1-0.6,0-0.9,0.1
		c-0.3,0.2-0.6,0.5-0.7,0.9c-0.2,0.6-0.1,1.4,0.2,2.3C613.6,54.1,614,55,614.4,55.9z"/>
</g>
<path fill="none" stroke="#000000" stroke-width="0.5" stroke-miterlimit="10" d="M126.4,10.7c-7.6,15.6,9.3,35,17,45.7
	c13,18-36.6,44.5-21.4,61.9c23.4,26.9,54.5,82.6,14.3,75.2c-8-1.5-51.9,0.3-59.1-2.8c-8.9-3.9-11.3-14.8-19.2-18.8
	c-12-6-37.2-1.2-50.9-1.2"/>
</svg>
