<?xml version="1.0" encoding="iso-8859-1"?>
<!-- Generator: Adobe Illustrator 29.3.1, SVG Export Plug-In . SVG Version: 9.03 Build 55982)  -->
<svg version="1.1" id="Layer_2" xmlns="http://www.w3.org/2000/svg" xmlns:xlink="http://www.w3.org/1999/xlink" x="0px" y="0px"
	 width="527.5px" height="289px" viewBox="0 0 527.5 289" enable-background="new 0 0 527.5 289" xml:space="preserve">
<g>
	<g>
		<line fill="none" stroke="#000000" stroke-width="0.5" x1="237.4" y1="21.9" x2="237.4" y2="238.3"/>
		<g>
			<polygon points="234.5,236.3 237.4,247.2 240.3,236.3 			"/>
		</g>
	</g>
</g>
<polygon fill="none" stroke="#000000" stroke-width="0.5" points="199.8,109.6 304,109.6 343.6,66.3 280.4,66.3 "/>
<path d="M289.9,88.2c0,1.7-1.3,3-3,3c-1.7,0-3-1.3-3-3c0-1.7,1.3-3,3-3C288.6,85.3,289.9,86.6,289.9,88.2z"/>
<line fill="none" stroke="#000000" stroke-width="0.5" x1="237.4" y1="255" x2="399.6" y2="207.5"/>
<g>
	<g>
		<polyline fill="none" stroke="#000000" stroke-width="0.5" points="229.3,143.5 163.1,113 150.3,113 		"/>
		<g>
			<polygon points="228.7,140 237.4,147.2 226.3,145.3 			"/>
		</g>
	</g>
</g>
<g>
	<g>
		<polyline fill="none" stroke="#000000" stroke-width="0.5" points="249.1,90.5 182.8,60 170,60 		"/>
		<g>
			<polygon points="248.5,87 257.1,94.2 246,92.3 			"/>
		</g>
	</g>
</g>
<g>
	<g>
		<polyline fill="none" stroke="#000000" stroke-width="0.5" points="329,61.5 356.9,33.6 367.2,33.6 		"/>
		<g>
			<polygon points="332.5,62.1 322.8,67.7 328.4,58 			"/>
		</g>
	</g>
</g>
<g>
	<g>
		<line fill="none" stroke="#000000" stroke-width="0.5" x1="344.5" y1="149.3" x2="362.4" y2="137.5"/>
		<g>
			<polygon points="347.8,150.6 337.1,154.2 344.6,145.8 			"/>
		</g>
	</g>
</g>
<g>
	<path d="M250.7,269h3.1l6.9,8.4v-6.5c0-0.7-0.1-1.1-0.2-1.3c-0.2-0.2-0.5-0.3-1-0.3H259V269h3.9v0.3h-0.4c-0.5,0-0.8,0.1-1,0.4
		c-0.1,0.2-0.2,0.6-0.2,1.2v9.5H261l-7.4-9.1v6.9c0,0.7,0.1,1.1,0.2,1.3c0.2,0.2,0.5,0.3,1,0.3h0.4v0.3h-3.9v-0.3h0.4
		c0.5,0,0.8-0.1,1-0.4c0.1-0.2,0.2-0.6,0.2-1.2v-7.8c-0.3-0.4-0.6-0.6-0.7-0.8c-0.2-0.1-0.4-0.2-0.7-0.3c-0.2,0-0.4-0.1-0.7-0.1V269
		z"/>
	<path d="M270.9,276.5h-4.4l-0.8,1.8c-0.2,0.4-0.3,0.8-0.3,1c0,0.2,0.1,0.3,0.2,0.5s0.5,0.2,1.1,0.3v0.3h-3.5v-0.3
		c0.5-0.1,0.8-0.2,0.9-0.3c0.3-0.3,0.6-0.8,0.9-1.6l4-9.3h0.3l3.9,9.4c0.3,0.8,0.6,1.2,0.9,1.5c0.3,0.2,0.6,0.3,1.1,0.4v0.3h-4.4
		v-0.3c0.4,0,0.8-0.1,0.9-0.2c0.2-0.1,0.2-0.3,0.2-0.5c0-0.2-0.1-0.6-0.3-1.2L270.9,276.5z M270.7,275.9l-1.9-4.5l-2,4.5H270.7z"/>
	<path d="M275.7,280.3v-0.3h0.4c0.5,0,0.8-0.2,1-0.5c0.1-0.2,0.2-0.6,0.2-1.2V271c0-0.7-0.1-1.1-0.2-1.3c-0.2-0.2-0.5-0.4-1-0.4
		h-0.4V269h4.6c1.7,0,3,0.2,3.8,0.6c0.9,0.4,1.6,1,2.1,1.9c0.5,0.9,0.8,1.9,0.8,3.1c0,1.6-0.5,2.9-1.4,3.9c-1.1,1.2-2.7,1.8-4.9,1.8
		H275.7z M279,279.4c0.7,0.2,1.3,0.2,1.8,0.2c1.3,0,2.3-0.5,3.2-1.4c0.8-0.9,1.3-2.1,1.3-3.7c0-1.6-0.4-2.8-1.3-3.7
		s-1.9-1.3-3.3-1.3c-0.5,0-1.1,0.1-1.7,0.2V279.4z"/>
	<path d="M293,279.9v0.3h-4.8v-0.3h0.4c0.5,0,0.8-0.1,1-0.4c0.1-0.2,0.2-0.6,0.2-1.3V271c0-0.6,0-0.9-0.1-1.1
		c-0.1-0.1-0.2-0.3-0.3-0.4c-0.2-0.1-0.5-0.2-0.8-0.2h-0.4V269h4.8v0.3h-0.4c-0.5,0-0.8,0.1-1,0.4c-0.1,0.2-0.2,0.6-0.2,1.3v7.3
		c0,0.6,0,0.9,0.1,1.1c0.1,0.1,0.2,0.3,0.3,0.4c0.2,0.1,0.5,0.2,0.8,0.2H293z"/>
	<path d="M304.9,280.3h-3l-3.8-5.3c-0.3,0-0.5,0-0.7,0c-0.1,0-0.1,0-0.2,0s-0.2,0-0.3,0v3.3c0,0.7,0.1,1.1,0.2,1.3
		c0.2,0.2,0.5,0.4,0.9,0.4h0.4v0.3h-4.8v-0.3h0.4c0.5,0,0.8-0.2,1-0.5c0.1-0.2,0.2-0.6,0.2-1.2V271c0-0.7-0.1-1.1-0.2-1.3
		c-0.2-0.2-0.5-0.4-1-0.4h-0.4V269h4.1c1.2,0,2.1,0.1,2.6,0.3c0.6,0.2,1,0.5,1.4,1s0.6,1,0.6,1.7c0,0.7-0.2,1.3-0.7,1.8
		s-1.2,0.9-2.1,1.1l2.3,3.2c0.5,0.7,1,1.2,1.4,1.5c0.4,0.2,0.9,0.4,1.5,0.5V280.3z M296.9,274.5c0.1,0,0.2,0,0.3,0s0.1,0,0.2,0
		c1.1,0,1.9-0.2,2.4-0.7s0.8-1.1,0.8-1.8c0-0.7-0.2-1.3-0.7-1.7c-0.4-0.4-1-0.7-1.7-0.7c-0.3,0-0.8,0.1-1.3,0.2V274.5z"/>
</g>
<line fill="none" stroke="#000000" stroke-width="0.5" x1="237.1" y1="21.3" x2="379.4" y2="211.5"/>
<path d="M240.4,102.5c0,1.7-1.3,3-3,3s-3-1.3-3-3c0-1.7,1.3-3,3-3S240.4,100.8,240.4,102.5z"/>
<line fill="none" stroke="#000000" stroke-width="0.5" x1="337.2" y1="71.5" x2="217.9" y2="109.4"/>
<line fill="none" stroke="#000000" stroke-width="0.5" x1="362.4" y1="137.5" x2="376" y2="137.5"/>
</svg>
