<?xml version="1.0" encoding="iso-8859-1"?>
<!-- Generator: Adobe Illustrator 29.3.1, SVG Export Plug-In . SVG Version: 9.03 Build 55982)  -->
<svg version="1.1" id="Layer_1" xmlns="http://www.w3.org/2000/svg" xmlns:xlink="http://www.w3.org/1999/xlink" x="0px" y="0px"
	 width="439px" height="206px" viewBox="0 0 439 206" enable-background="new 0 0 439 206" xml:space="preserve">
<line fill="none" stroke="#000000" stroke-width="0.611" stroke-linecap="round" stroke-linejoin="round" stroke-miterlimit="10" x1="341.4" y1="127.8" x2="341.4" y2="127.9"/>
<polyline fill="none" stroke="#000000" stroke-width="0.5" stroke-linecap="round" stroke-linejoin="round" stroke-miterlimit="10" points="
	341.4,127.8 346.5,127.8 346.5,134.5 341.7,134.5 341.7,127.8 "/>
<line fill="none" stroke="#000000" stroke-width="0.611" stroke-linecap="round" stroke-linejoin="round" stroke-miterlimit="10" x1="290" y1="39.9" x2="290.1" y2="40"/>
<line fill="none" stroke="#000000" stroke-width="0.611" stroke-linecap="round" stroke-linejoin="round" stroke-miterlimit="10" x1="98.2" y1="127.8" x2="98.2" y2="127.9"/>
<polyline fill="none" stroke="#000000" stroke-width="0.5" stroke-linecap="round" stroke-linejoin="round" stroke-miterlimit="10" points="
	98.2,127.8 93,127.8 93.3,127.8 93.3,134.5 98.2,134.5 98.2,127.8 "/>
<line fill="none" stroke="#000000" stroke-width="0.611" stroke-linecap="round" stroke-linejoin="round" stroke-miterlimit="10" x1="95.3" y1="20.7" x2="95.4" y2="20.8"/>
<polyline fill="none" stroke="#000000" stroke-width="0.5" stroke-linecap="round" stroke-linejoin="round" stroke-miterlimit="10" points="
	95.3,20.7 95.3,131.2 344.9,131.2 378.7,20.7 95.3,20.7 "/>
<line fill="none" stroke="#000000" stroke-width="0.611" stroke-linecap="round" stroke-linejoin="round" stroke-miterlimit="10" x1="68.2" y1="28.3" x2="68.3" y2="28.4"/>
<polyline fill="none" stroke="#000000" stroke-width="0.5" stroke-linecap="round" stroke-linejoin="round" stroke-miterlimit="10" points="
	68.2,28.3 68.2,131.2 35.7,131.2 "/>
<line fill="none" stroke="#000000" stroke-width="0.611" stroke-linecap="round" stroke-linejoin="round" stroke-miterlimit="10" x1="18" y1="173.1" x2="18.1" y2="173.2"/>
<line fill="none" stroke="#000000" stroke-width="0.5" stroke-linecap="round" stroke-linejoin="round" stroke-miterlimit="10" x1="18" y1="173.1" x2="418.9" y2="173.2"/>
<line fill="none" stroke="#000000" stroke-width="0.6018" stroke-linecap="round" stroke-linejoin="round" stroke-miterlimit="10" x1="412.7" y1="131.2" x2="412.8" y2="131.3"/>
<polyline fill="none" stroke="#000000" stroke-width="0.5" stroke-linecap="round" stroke-linejoin="round" stroke-miterlimit="10" points="
	412.7,131.2 370.8,131.2 404.7,20.7 "/>
<line fill="none" stroke="#000000" stroke-width="0.611" stroke-linecap="round" stroke-linejoin="round" stroke-miterlimit="10" x1="312.3" y1="20.7" x2="312.4" y2="20.8"/>
<line fill="none" stroke="#000000" stroke-width="0.5" stroke-linecap="round" stroke-linejoin="round" stroke-miterlimit="10" x1="312.3" y1="20.7" x2="312.4" y2="131.2"/>
<line fill="none" stroke="#000000" stroke-width="0.611" stroke-linecap="round" stroke-linejoin="round" stroke-miterlimit="10" x1="258" y1="131.2" x2="258.1" y2="131.2"/>
<line fill="none" stroke="#000000" stroke-width="0.5" stroke-linecap="round" stroke-linejoin="round" stroke-miterlimit="10" x1="258" y1="131.2" x2="258.1" y2="20.7"/>
<line fill="none" stroke="#000000" stroke-width="0.611" stroke-linecap="round" stroke-linejoin="round" stroke-miterlimit="10" x1="203.8" y1="20.7" x2="203.8" y2="20.8"/>
<line fill="none" stroke="#000000" stroke-width="0.5" stroke-linecap="round" stroke-linejoin="round" stroke-miterlimit="10" x1="203.8" y1="20.7" x2="203.8" y2="131.2"/>
<line fill="none" stroke="#000000" stroke-width="0.611" stroke-linecap="round" stroke-linejoin="round" stroke-miterlimit="10" x1="149.5" y1="131.2" x2="149.6" y2="131.2"/>
<line fill="none" stroke="#000000" stroke-width="0.5" stroke-linecap="round" stroke-linejoin="round" stroke-miterlimit="10" x1="149.5" y1="131.2" x2="149.6" y2="20.7"/>
<g>
	<path d="M120,32.3l2.7-1.3h0.3v9.5c0,0.6,0,1,0.1,1.2c0.1,0.2,0.2,0.3,0.3,0.4s0.5,0.1,1,0.1v0.3h-4.2v-0.3c0.5,0,0.9-0.1,1-0.1
		c0.2-0.1,0.3-0.2,0.3-0.3s0.1-0.5,0.1-1.2v-6.1c0-0.8,0-1.3-0.1-1.6c0-0.2-0.1-0.3-0.2-0.4c-0.1-0.1-0.2-0.1-0.4-0.1
		c-0.2,0-0.5,0.1-0.9,0.3L120,32.3z"/>
</g>
<g>
	<path d="M182.4,40.3l-0.8,2.2h-6.6v-0.3c2-1.8,3.3-3.2,4.1-4.4c0.8-1.1,1.2-2.2,1.2-3.1c0-0.7-0.2-1.3-0.7-1.8
		c-0.4-0.5-1-0.7-1.6-0.7c-0.6,0-1,0.2-1.5,0.5c-0.4,0.3-0.8,0.8-1,1.4h-0.3c0.1-1,0.5-1.8,1.1-2.4c0.6-0.5,1.3-0.8,2.1-0.8
		c0.9,0,1.7,0.3,2.3,0.9c0.6,0.6,0.9,1.3,0.9,2.1c0,0.6-0.1,1.1-0.4,1.7c-0.4,0.9-1.1,1.8-2,2.8c-1.4,1.5-2.2,2.4-2.6,2.7h2.9
		c0.6,0,1,0,1.3-0.1c0.2,0,0.5-0.1,0.7-0.3c0.2-0.1,0.4-0.3,0.5-0.6H182.4z"/>
</g>
<g>
	<path d="M229,33.4c0.3-0.8,0.7-1.3,1.2-1.8c0.5-0.4,1.1-0.6,1.8-0.6c0.9,0,1.6,0.3,2.1,0.9c0.4,0.4,0.5,0.9,0.5,1.4
		c0,0.8-0.5,1.7-1.5,2.5c0.7,0.3,1.2,0.7,1.6,1.2c0.4,0.5,0.5,1.1,0.5,1.8c0,1-0.3,1.8-0.9,2.5c-0.8,0.9-2,1.4-3.5,1.4
		c-0.8,0-1.3-0.1-1.5-0.3s-0.4-0.4-0.4-0.6c0-0.2,0.1-0.3,0.2-0.4c0.1-0.1,0.3-0.2,0.5-0.2c0.1,0,0.3,0,0.4,0.1
		c0.1,0,0.3,0.1,0.6,0.3c0.3,0.2,0.6,0.3,0.7,0.3c0.2,0.1,0.4,0.1,0.7,0.1c0.6,0,1.1-0.2,1.5-0.7c0.4-0.4,0.6-1,0.6-1.6
		c0-0.4-0.1-0.9-0.3-1.3c-0.1-0.3-0.3-0.5-0.5-0.7c-0.2-0.2-0.6-0.4-1-0.6s-0.8-0.3-1.3-0.3h-0.3v-0.2c0.4-0.1,0.9-0.2,1.3-0.5
		c0.4-0.3,0.8-0.6,1-0.9s0.3-0.8,0.3-1.2c0-0.6-0.2-1-0.5-1.4c-0.4-0.4-0.8-0.5-1.3-0.5c-0.9,0-1.6,0.5-2.1,1.4L229,33.4z"/>
</g>
<g>
	<path d="M291.8,38.3v1.2h-1.5v3h-1.4v-3h-4.8v-1.1l5.2-7.5h0.9v7.3H291.8z M288.9,38.3v-5.6l-4,5.6H288.9z"/>
</g>
<g>
	<path d="M347,31.2l-0.6,1.4H343l-0.7,1.5c1.5,0.2,2.6,0.8,3.5,1.6c0.7,0.8,1.1,1.6,1.1,2.7c0,0.6-0.1,1.1-0.4,1.6
		c-0.2,0.5-0.5,0.9-0.9,1.3c-0.4,0.4-0.8,0.6-1.2,0.9c-0.6,0.3-1.3,0.5-2,0.5c-0.7,0-1.2-0.1-1.5-0.3c-0.3-0.2-0.5-0.5-0.5-0.8
		c0-0.2,0.1-0.3,0.2-0.4c0.1-0.1,0.3-0.2,0.5-0.2c0.1,0,0.3,0,0.4,0.1c0.1,0,0.3,0.2,0.6,0.3c0.4,0.3,0.8,0.4,1.3,0.4
		c0.6,0,1.2-0.2,1.7-0.7c0.5-0.5,0.7-1.1,0.7-1.8c0-0.7-0.2-1.3-0.7-1.9c-0.4-0.6-1-1-1.8-1.4c-0.6-0.2-1.4-0.4-2.5-0.4l2.2-4.4H347
		z"/>
</g>
<g>
	<path d="M111.4,113l-0.6,1.4h-3.4l-0.7,1.5c1.5,0.2,2.6,0.8,3.5,1.6c0.7,0.8,1.1,1.6,1.1,2.7c0,0.6-0.1,1.1-0.4,1.6
		c-0.2,0.5-0.5,0.9-0.9,1.3c-0.4,0.4-0.8,0.6-1.2,0.9c-0.6,0.3-1.3,0.5-2,0.5c-0.7,0-1.2-0.1-1.5-0.3s-0.5-0.5-0.5-0.8
		c0-0.2,0.1-0.3,0.2-0.4c0.1-0.1,0.3-0.2,0.5-0.2c0.1,0,0.3,0,0.4,0.1c0.1,0,0.3,0.2,0.6,0.3c0.4,0.3,0.8,0.4,1.3,0.4
		c0.6,0,1.2-0.2,1.7-0.7c0.5-0.5,0.7-1.1,0.7-1.8c0-0.7-0.2-1.3-0.7-1.9s-1-1-1.8-1.4c-0.6-0.2-1.4-0.4-2.5-0.4l2.2-4.4H111.4z"/>
	<path d="M113.1,118.7c0-1.3,0.2-2.4,0.6-3.3c0.4-0.9,0.9-1.6,1.5-2.1c0.5-0.4,1-0.5,1.5-0.5c0.9,0,1.6,0.4,2.3,1.3
		c0.9,1.1,1.3,2.6,1.3,4.4c0,1.3-0.2,2.4-0.6,3.3c-0.4,0.9-0.9,1.6-1.4,2c-0.6,0.4-1.1,0.6-1.7,0.6c-1.1,0-2-0.6-2.7-1.9
		C113.4,121.5,113.1,120.2,113.1,118.7z M114.8,118.9c0,1.5,0.2,2.8,0.6,3.8c0.3,0.8,0.8,1.2,1.4,1.2c0.3,0,0.6-0.1,0.9-0.4
		c0.3-0.3,0.6-0.7,0.7-1.3c0.3-1,0.4-2.3,0.4-4c0-1.3-0.1-2.4-0.4-3.2c-0.2-0.6-0.5-1.1-0.8-1.4c-0.2-0.2-0.5-0.3-0.8-0.3
		c-0.4,0-0.7,0.2-1,0.5c-0.4,0.5-0.7,1.2-0.8,2.2C114.8,117,114.8,118,114.8,118.9z"/>
	<path d="M123.2,122.7c0.3,0,0.5,0.1,0.7,0.3c0.2,0.2,0.3,0.4,0.3,0.7c0,0.3-0.1,0.5-0.3,0.7s-0.4,0.3-0.7,0.3s-0.5-0.1-0.7-0.3
		c-0.2-0.2-0.3-0.4-0.3-0.7c0-0.3,0.1-0.5,0.3-0.7C122.7,122.8,122.9,122.7,123.2,122.7z"/>
	<path d="M125.9,118.7c0-1.3,0.2-2.4,0.6-3.3c0.4-0.9,0.9-1.6,1.5-2.1c0.5-0.4,1-0.5,1.5-0.5c0.9,0,1.6,0.4,2.3,1.3
		c0.9,1.1,1.3,2.6,1.3,4.4c0,1.3-0.2,2.4-0.6,3.3c-0.4,0.9-0.9,1.6-1.4,2c-0.6,0.4-1.1,0.6-1.7,0.6c-1.1,0-2-0.6-2.7-1.9
		C126.2,121.5,125.9,120.2,125.9,118.7z M127.5,118.9c0,1.5,0.2,2.8,0.6,3.8c0.3,0.8,0.8,1.2,1.4,1.2c0.3,0,0.6-0.1,0.9-0.4
		c0.3-0.3,0.6-0.7,0.7-1.3c0.3-1,0.4-2.3,0.4-4c0-1.3-0.1-2.4-0.4-3.2c-0.2-0.6-0.5-1.1-0.8-1.4c-0.2-0.2-0.5-0.3-0.8-0.3
		c-0.4,0-0.7,0.2-1,0.5c-0.4,0.5-0.7,1.2-0.8,2.2C127.6,117,127.5,118,127.5,118.9z"/>
	<path d="M134.4,118.7c0-1.3,0.2-2.4,0.6-3.3c0.4-0.9,0.9-1.6,1.5-2.1c0.5-0.4,1-0.5,1.5-0.5c0.9,0,1.6,0.4,2.3,1.3
		c0.9,1.1,1.3,2.6,1.3,4.4c0,1.3-0.2,2.4-0.6,3.3c-0.4,0.9-0.9,1.6-1.4,2c-0.6,0.4-1.1,0.6-1.7,0.6c-1.1,0-2-0.6-2.7-1.9
		C134.7,121.5,134.4,120.2,134.4,118.7z M136,118.9c0,1.5,0.2,2.8,0.6,3.8c0.3,0.8,0.8,1.2,1.4,1.2c0.3,0,0.6-0.1,0.9-0.4
		c0.3-0.3,0.6-0.7,0.7-1.3c0.3-1,0.4-2.3,0.4-4c0-1.3-0.1-2.4-0.4-3.2c-0.2-0.6-0.5-1.1-0.8-1.4c-0.2-0.2-0.5-0.3-0.8-0.3
		c-0.4,0-0.7,0.2-1,0.5c-0.4,0.5-0.7,1.2-0.8,2.2C136.1,117,136,118,136,118.9z"/>
</g>
<g>
	<path d="M164.4,113l-0.6,1.4h-3.4l-0.7,1.5c1.5,0.2,2.6,0.8,3.5,1.6c0.7,0.8,1.1,1.6,1.1,2.7c0,0.6-0.1,1.1-0.4,1.6
		c-0.2,0.5-0.5,0.9-0.9,1.3c-0.4,0.4-0.8,0.6-1.2,0.9c-0.6,0.3-1.3,0.5-2,0.5c-0.7,0-1.2-0.1-1.5-0.3s-0.5-0.5-0.5-0.8
		c0-0.2,0.1-0.3,0.2-0.4c0.1-0.1,0.3-0.2,0.5-0.2c0.1,0,0.3,0,0.4,0.1c0.1,0,0.3,0.2,0.6,0.3c0.4,0.3,0.8,0.4,1.3,0.4
		c0.6,0,1.2-0.2,1.7-0.7c0.5-0.5,0.7-1.1,0.7-1.8c0-0.7-0.2-1.3-0.7-1.9s-1-1-1.8-1.4c-0.6-0.2-1.4-0.4-2.5-0.4l2.2-4.4H164.4z"/>
	<path d="M166.1,118.7c0-1.3,0.2-2.4,0.6-3.3c0.4-0.9,0.9-1.6,1.5-2.1c0.5-0.4,1-0.5,1.5-0.5c0.9,0,1.6,0.4,2.3,1.3
		c0.9,1.1,1.3,2.6,1.3,4.4c0,1.3-0.2,2.4-0.6,3.3c-0.4,0.9-0.9,1.6-1.4,2c-0.6,0.4-1.1,0.6-1.7,0.6c-1.1,0-2-0.6-2.7-1.9
		C166.5,121.5,166.1,120.2,166.1,118.7z M167.8,118.9c0,1.5,0.2,2.8,0.6,3.8c0.3,0.8,0.8,1.2,1.4,1.2c0.3,0,0.6-0.1,0.9-0.4
		c0.3-0.3,0.6-0.7,0.7-1.3c0.3-1,0.4-2.3,0.4-4c0-1.3-0.1-2.4-0.4-3.2c-0.2-0.6-0.5-1.1-0.8-1.4c-0.2-0.2-0.5-0.3-0.8-0.3
		c-0.4,0-0.7,0.2-1,0.5c-0.4,0.5-0.7,1.2-0.8,2.2C167.8,117,167.8,118,167.8,118.9z"/>
	<path d="M176.2,122.7c0.3,0,0.5,0.1,0.7,0.3c0.2,0.2,0.3,0.4,0.3,0.7c0,0.3-0.1,0.5-0.3,0.7c-0.2,0.2-0.4,0.3-0.7,0.3
		c-0.3,0-0.5-0.1-0.7-0.3s-0.3-0.4-0.3-0.7c0-0.3,0.1-0.5,0.3-0.7C175.7,122.8,175.9,122.7,176.2,122.7z"/>
	<path d="M178.9,118.7c0-1.3,0.2-2.4,0.6-3.3c0.4-0.9,0.9-1.6,1.5-2.1c0.5-0.4,1-0.5,1.5-0.5c0.9,0,1.6,0.4,2.3,1.3
		c0.9,1.1,1.3,2.6,1.3,4.4c0,1.3-0.2,2.4-0.6,3.3c-0.4,0.9-0.9,1.6-1.4,2c-0.6,0.4-1.1,0.6-1.7,0.6c-1.1,0-2-0.6-2.7-1.9
		C179.2,121.5,178.9,120.2,178.9,118.7z M180.5,118.9c0,1.5,0.2,2.8,0.6,3.8c0.3,0.8,0.8,1.2,1.4,1.2c0.3,0,0.6-0.1,0.9-0.4
		c0.3-0.3,0.6-0.7,0.7-1.3c0.3-1,0.4-2.3,0.4-4c0-1.3-0.1-2.4-0.4-3.2c-0.2-0.6-0.5-1.1-0.8-1.4c-0.2-0.2-0.5-0.3-0.8-0.3
		c-0.4,0-0.7,0.2-1,0.5c-0.4,0.5-0.7,1.2-0.8,2.2C180.6,117,180.5,118,180.5,118.9z"/>
	<path d="M187.4,118.7c0-1.3,0.2-2.4,0.6-3.3c0.4-0.9,0.9-1.6,1.5-2.1c0.5-0.4,1-0.5,1.5-0.5c0.9,0,1.6,0.4,2.3,1.3
		c0.9,1.1,1.3,2.6,1.3,4.4c0,1.3-0.2,2.4-0.6,3.3c-0.4,0.9-0.9,1.6-1.4,2c-0.6,0.4-1.1,0.6-1.7,0.6c-1.1,0-2-0.6-2.7-1.9
		C187.7,121.5,187.4,120.2,187.4,118.7z M189,118.9c0,1.5,0.2,2.8,0.6,3.8c0.3,0.8,0.8,1.2,1.4,1.2c0.3,0,0.6-0.1,0.9-0.4
		c0.3-0.3,0.6-0.7,0.7-1.3c0.3-1,0.4-2.3,0.4-4c0-1.3-0.1-2.4-0.4-3.2c-0.2-0.6-0.5-1.1-0.8-1.4c-0.2-0.2-0.5-0.3-0.8-0.3
		c-0.4,0-0.7,0.2-1,0.5c-0.4,0.5-0.7,1.2-0.8,2.2C189.1,117,189,118,189,118.9z"/>
</g>
<g>
	<path d="M218,113l-0.6,1.4h-3.4l-0.7,1.5c1.5,0.2,2.6,0.8,3.5,1.6c0.7,0.8,1.1,1.6,1.1,2.7c0,0.6-0.1,1.1-0.4,1.6
		c-0.2,0.5-0.5,0.9-0.9,1.3c-0.4,0.4-0.8,0.6-1.2,0.9c-0.6,0.3-1.3,0.5-2,0.5c-0.7,0-1.2-0.1-1.5-0.3c-0.3-0.2-0.5-0.5-0.5-0.8
		c0-0.2,0.1-0.3,0.2-0.4c0.1-0.1,0.3-0.2,0.5-0.2c0.1,0,0.3,0,0.4,0.1c0.1,0,0.3,0.2,0.6,0.3c0.4,0.3,0.8,0.4,1.3,0.4
		c0.6,0,1.2-0.2,1.7-0.7c0.5-0.5,0.7-1.1,0.7-1.8c0-0.7-0.2-1.3-0.7-1.9c-0.4-0.6-1-1-1.8-1.4c-0.6-0.2-1.4-0.4-2.5-0.4l2.2-4.4H218
		z"/>
	<path d="M219.7,118.7c0-1.3,0.2-2.4,0.6-3.3c0.4-0.9,0.9-1.6,1.5-2.1c0.5-0.4,1-0.5,1.5-0.5c0.9,0,1.6,0.4,2.3,1.3
		c0.9,1.1,1.3,2.6,1.3,4.4c0,1.3-0.2,2.4-0.6,3.3c-0.4,0.9-0.9,1.6-1.4,2c-0.6,0.4-1.1,0.6-1.7,0.6c-1.1,0-2-0.6-2.7-1.9
		C220,121.5,219.7,120.2,219.7,118.7z M221.3,118.9c0,1.5,0.2,2.8,0.6,3.8c0.3,0.8,0.8,1.2,1.4,1.2c0.3,0,0.6-0.1,0.9-0.4
		c0.3-0.3,0.6-0.7,0.7-1.3c0.3-1,0.4-2.3,0.4-4c0-1.3-0.1-2.4-0.4-3.2c-0.2-0.6-0.5-1.1-0.8-1.4c-0.2-0.2-0.5-0.3-0.8-0.3
		c-0.4,0-0.7,0.2-1,0.5c-0.4,0.5-0.7,1.2-0.8,2.2C221.4,117,221.3,118,221.3,118.9z"/>
	<path d="M229.7,122.7c0.3,0,0.5,0.1,0.7,0.3c0.2,0.2,0.3,0.4,0.3,0.7c0,0.3-0.1,0.5-0.3,0.7c-0.2,0.2-0.4,0.3-0.7,0.3
		c-0.3,0-0.5-0.1-0.7-0.3s-0.3-0.4-0.3-0.7c0-0.3,0.1-0.5,0.3-0.7C229.2,122.8,229.4,122.7,229.7,122.7z"/>
	<path d="M232.4,118.7c0-1.3,0.2-2.4,0.6-3.3c0.4-0.9,0.9-1.6,1.5-2.1c0.5-0.4,1-0.5,1.5-0.5c0.9,0,1.6,0.4,2.3,1.3
		c0.9,1.1,1.3,2.6,1.3,4.4c0,1.3-0.2,2.4-0.6,3.3c-0.4,0.9-0.9,1.6-1.4,2c-0.6,0.4-1.1,0.6-1.7,0.6c-1.1,0-2-0.6-2.7-1.9
		C232.7,121.5,232.4,120.2,232.4,118.7z M234.1,118.9c0,1.5,0.2,2.8,0.6,3.8c0.3,0.8,0.8,1.2,1.4,1.2c0.3,0,0.6-0.1,0.9-0.4
		c0.3-0.3,0.6-0.7,0.7-1.3c0.3-1,0.4-2.3,0.4-4c0-1.3-0.1-2.4-0.4-3.2c-0.2-0.6-0.5-1.1-0.8-1.4c-0.2-0.2-0.5-0.3-0.8-0.3
		c-0.4,0-0.7,0.2-1,0.5c-0.4,0.5-0.7,1.2-0.8,2.2C234.1,117,234.1,118,234.1,118.9z"/>
	<path d="M240.9,118.7c0-1.3,0.2-2.4,0.6-3.3c0.4-0.9,0.9-1.6,1.5-2.1c0.5-0.4,1-0.5,1.5-0.5c0.9,0,1.6,0.4,2.3,1.3
		c0.9,1.1,1.3,2.6,1.3,4.4c0,1.3-0.2,2.4-0.6,3.3c-0.4,0.9-0.9,1.6-1.4,2c-0.6,0.4-1.1,0.6-1.7,0.6c-1.1,0-2-0.6-2.7-1.9
		C241.2,121.5,240.9,120.2,240.9,118.7z M242.6,118.9c0,1.5,0.2,2.8,0.6,3.8c0.3,0.8,0.8,1.2,1.4,1.2c0.3,0,0.6-0.1,0.9-0.4
		c0.3-0.3,0.6-0.7,0.7-1.3c0.3-1,0.4-2.3,0.4-4c0-1.3-0.1-2.4-0.4-3.2c-0.2-0.6-0.5-1.1-0.8-1.4c-0.2-0.2-0.5-0.3-0.8-0.3
		c-0.4,0-0.7,0.2-1,0.5c-0.4,0.5-0.7,1.2-0.8,2.2C242.6,117,242.6,118,242.6,118.9z"/>
</g>
<g>
	<path d="M272.1,113l-0.6,1.4h-3.4l-0.7,1.5c1.5,0.2,2.6,0.8,3.5,1.6c0.7,0.8,1.1,1.6,1.1,2.7c0,0.6-0.1,1.1-0.4,1.6
		c-0.2,0.5-0.5,0.9-0.9,1.3c-0.4,0.4-0.8,0.6-1.2,0.9c-0.6,0.3-1.3,0.5-2,0.5c-0.7,0-1.2-0.1-1.5-0.3c-0.3-0.2-0.5-0.5-0.5-0.8
		c0-0.2,0.1-0.3,0.2-0.4c0.1-0.1,0.3-0.2,0.5-0.2c0.1,0,0.3,0,0.4,0.1c0.1,0,0.3,0.2,0.6,0.3c0.4,0.3,0.8,0.4,1.3,0.4
		c0.6,0,1.2-0.2,1.7-0.7c0.5-0.5,0.7-1.1,0.7-1.8c0-0.7-0.2-1.3-0.7-1.9c-0.4-0.6-1-1-1.8-1.4c-0.6-0.2-1.4-0.4-2.5-0.4l2.2-4.4
		H272.1z"/>
	<path d="M273.9,118.7c0-1.3,0.2-2.4,0.6-3.3c0.4-0.9,0.9-1.6,1.5-2.1c0.5-0.4,1-0.5,1.5-0.5c0.9,0,1.6,0.4,2.3,1.3
		c0.9,1.1,1.3,2.6,1.3,4.4c0,1.3-0.2,2.4-0.6,3.3c-0.4,0.9-0.9,1.6-1.4,2c-0.6,0.4-1.1,0.6-1.7,0.6c-1.1,0-2-0.6-2.7-1.9
		C274.2,121.5,273.9,120.2,273.9,118.7z M275.5,118.9c0,1.5,0.2,2.8,0.6,3.8c0.3,0.8,0.8,1.2,1.4,1.2c0.3,0,0.6-0.1,0.9-0.4
		c0.3-0.3,0.6-0.7,0.7-1.3c0.3-1,0.4-2.3,0.4-4c0-1.3-0.1-2.4-0.4-3.2c-0.2-0.6-0.5-1.1-0.8-1.4c-0.2-0.2-0.5-0.3-0.8-0.3
		c-0.4,0-0.7,0.2-1,0.5c-0.4,0.5-0.7,1.2-0.8,2.2C275.6,117,275.5,118,275.5,118.9z"/>
	<path d="M283.9,122.7c0.3,0,0.5,0.1,0.7,0.3c0.2,0.2,0.3,0.4,0.3,0.7c0,0.3-0.1,0.5-0.3,0.7c-0.2,0.2-0.4,0.3-0.7,0.3
		c-0.3,0-0.5-0.1-0.7-0.3s-0.3-0.4-0.3-0.7c0-0.3,0.1-0.5,0.3-0.7C283.4,122.8,283.6,122.7,283.9,122.7z"/>
	<path d="M286.6,118.7c0-1.3,0.2-2.4,0.6-3.3c0.4-0.9,0.9-1.6,1.5-2.1c0.5-0.4,1-0.5,1.5-0.5c0.9,0,1.6,0.4,2.3,1.3
		c0.9,1.1,1.3,2.6,1.3,4.4c0,1.3-0.2,2.4-0.6,3.3c-0.4,0.9-0.9,1.6-1.4,2c-0.6,0.4-1.1,0.6-1.7,0.6c-1.1,0-2-0.6-2.7-1.9
		C286.9,121.5,286.6,120.2,286.6,118.7z M288.2,118.9c0,1.5,0.2,2.8,0.6,3.8c0.3,0.8,0.8,1.2,1.4,1.2c0.3,0,0.6-0.1,0.9-0.4
		c0.3-0.3,0.6-0.7,0.7-1.3c0.3-1,0.4-2.3,0.4-4c0-1.3-0.1-2.4-0.4-3.2c-0.2-0.6-0.5-1.1-0.8-1.4c-0.2-0.2-0.5-0.3-0.8-0.3
		c-0.4,0-0.7,0.2-1,0.5c-0.4,0.5-0.7,1.2-0.8,2.2C288.3,117,288.2,118,288.2,118.9z"/>
	<path d="M295.1,118.7c0-1.3,0.2-2.4,0.6-3.3c0.4-0.9,0.9-1.6,1.5-2.1c0.5-0.4,1-0.5,1.5-0.5c0.9,0,1.6,0.4,2.3,1.3
		c0.9,1.1,1.3,2.6,1.3,4.4c0,1.3-0.2,2.4-0.6,3.3c-0.4,0.9-0.9,1.6-1.4,2c-0.6,0.4-1.1,0.6-1.7,0.6c-1.1,0-2-0.6-2.7-1.9
		C295.4,121.5,295.1,120.2,295.1,118.7z M296.7,118.9c0,1.5,0.2,2.8,0.6,3.8c0.3,0.8,0.8,1.2,1.4,1.2c0.3,0,0.6-0.1,0.9-0.4
		c0.3-0.3,0.6-0.7,0.7-1.3c0.3-1,0.4-2.3,0.4-4c0-1.3-0.1-2.4-0.4-3.2c-0.2-0.6-0.5-1.1-0.8-1.4c-0.2-0.2-0.5-0.3-0.8-0.3
		c-0.4,0-0.7,0.2-1,0.5c-0.4,0.5-0.7,1.2-0.8,2.2C296.8,117,296.7,118,296.7,118.9z"/>
</g>
<g>
	<path d="M316.8,115.2c0.3-0.8,0.7-1.3,1.2-1.8c0.5-0.4,1.1-0.6,1.8-0.6c0.9,0,1.6,0.3,2.1,0.9c0.4,0.4,0.5,0.9,0.5,1.4
		c0,0.8-0.5,1.7-1.5,2.5c0.7,0.3,1.2,0.7,1.6,1.2c0.4,0.5,0.5,1.1,0.5,1.8c0,1-0.3,1.8-0.9,2.5c-0.8,0.9-2,1.4-3.5,1.4
		c-0.8,0-1.3-0.1-1.5-0.3s-0.4-0.4-0.4-0.6c0-0.2,0.1-0.3,0.2-0.4c0.1-0.1,0.3-0.2,0.5-0.2c0.1,0,0.3,0,0.4,0.1
		c0.1,0,0.3,0.1,0.6,0.3c0.3,0.2,0.6,0.3,0.7,0.3c0.2,0.1,0.4,0.1,0.7,0.1c0.6,0,1.1-0.2,1.5-0.7c0.4-0.4,0.6-1,0.6-1.6
		c0-0.4-0.1-0.9-0.3-1.3c-0.1-0.3-0.3-0.5-0.5-0.7c-0.2-0.2-0.6-0.4-1-0.6s-0.8-0.3-1.3-0.3h-0.3v-0.2c0.4-0.1,0.9-0.2,1.3-0.5
		c0.4-0.3,0.8-0.6,1-0.9s0.3-0.8,0.3-1.2c0-0.6-0.2-1-0.5-1.4c-0.4-0.4-0.8-0.5-1.3-0.5c-0.9,0-1.6,0.5-2.1,1.4L316.8,115.2z"/>
	<path d="M325.1,118.7c0-1.3,0.2-2.4,0.6-3.3c0.4-0.9,0.9-1.6,1.5-2.1c0.5-0.4,1-0.5,1.5-0.5c0.9,0,1.6,0.4,2.3,1.3
		c0.9,1.1,1.3,2.6,1.3,4.4c0,1.3-0.2,2.4-0.6,3.3c-0.4,0.9-0.9,1.6-1.4,2c-0.6,0.4-1.1,0.6-1.7,0.6c-1.1,0-2-0.6-2.7-1.9
		C325.4,121.5,325.1,120.2,325.1,118.7z M326.7,118.9c0,1.5,0.2,2.8,0.6,3.8c0.3,0.8,0.8,1.2,1.4,1.2c0.3,0,0.6-0.1,0.9-0.4
		c0.3-0.3,0.6-0.7,0.7-1.3c0.3-1,0.4-2.3,0.4-4c0-1.3-0.1-2.4-0.4-3.2c-0.2-0.6-0.5-1.1-0.8-1.4c-0.2-0.2-0.5-0.3-0.8-0.3
		c-0.4,0-0.7,0.2-1,0.5c-0.4,0.5-0.7,1.2-0.8,2.2C326.8,117,326.7,118,326.7,118.9z"/>
	<path d="M333,123.1v-0.7h4.1V119H333v-0.7h4.1v-4.1h0.7v4.1h4.1v0.7h-4.1v3.5h4.2v0.7H333z"/>
</g>
<g>
	<path d="M105,146.5h-4.4l-0.8,1.8c-0.2,0.4-0.3,0.8-0.3,1c0,0.2,0.1,0.3,0.2,0.5c0.2,0.1,0.5,0.2,1.1,0.3v0.3h-3.5V150
		c0.5-0.1,0.8-0.2,0.9-0.3c0.3-0.3,0.6-0.8,0.9-1.6l4-9.3h0.3l3.9,9.4c0.3,0.8,0.6,1.2,0.9,1.5c0.3,0.2,0.6,0.3,1.1,0.4v0.3h-4.4
		V150c0.4,0,0.8-0.1,0.9-0.2c0.2-0.1,0.2-0.3,0.2-0.5c0-0.2-0.1-0.6-0.3-1.2L105,146.5z M104.8,145.9l-1.9-4.5l-2,4.5H104.8z"/>
</g>
<g>
	<path d="M340.8,144.6c0.8,0.2,1.4,0.4,1.8,0.8c0.5,0.5,0.8,1.1,0.8,1.9c0,0.6-0.2,1.1-0.5,1.6c-0.4,0.5-0.8,0.9-1.5,1.1
		s-1.6,0.4-2.8,0.4h-5.3V150h0.4c0.5,0,0.8-0.1,1-0.4c0.1-0.2,0.2-0.6,0.2-1.2V141c0-0.7-0.1-1.1-0.2-1.3c-0.2-0.2-0.5-0.4-1-0.4
		h-0.4v-0.3h4.9c0.9,0,1.6,0.1,2.2,0.2c0.8,0.2,1.5,0.6,1.9,1.1c0.4,0.5,0.7,1.1,0.7,1.7c0,0.6-0.2,1.1-0.5,1.5
		S341.5,144.3,340.8,144.6z M336.4,144.1c0.2,0,0.4,0.1,0.7,0.1s0.6,0,0.9,0c0.8,0,1.4-0.1,1.8-0.3c0.4-0.2,0.7-0.4,0.9-0.8
		s0.3-0.8,0.3-1.2c0-0.7-0.3-1.2-0.8-1.7c-0.5-0.5-1.3-0.7-2.3-0.7c-0.6,0-1.1,0.1-1.5,0.2V144.1z M336.4,149.5
		c0.6,0.1,1.3,0.2,1.9,0.2c1,0,1.8-0.2,2.3-0.7c0.5-0.5,0.8-1,0.8-1.7c0-0.4-0.1-0.9-0.4-1.3c-0.2-0.4-0.6-0.7-1.2-1
		c-0.5-0.2-1.2-0.3-2-0.3c-0.3,0-0.6,0-0.9,0c-0.2,0-0.4,0-0.6,0.1V149.5z"/>
</g>
<g>
	<path d="M178.9,153v4.4h2c0.5,0,0.8-0.1,1-0.3c0.2-0.2,0.4-0.6,0.4-1.2h0.3v3.8h-0.3c0-0.4-0.1-0.8-0.2-1c-0.1-0.2-0.3-0.4-0.4-0.5
		c-0.2-0.1-0.5-0.2-0.9-0.2h-2v3.5c0,0.6,0,0.9,0.1,1.1c0.1,0.1,0.2,0.3,0.3,0.4c0.2,0.1,0.5,0.2,0.8,0.2h0.4v0.3h-4.8v-0.3h0.4
		c0.5,0,0.8-0.1,1-0.4c0.1-0.2,0.2-0.6,0.2-1.3v-7.3c0-0.6,0-0.9-0.1-1.1c-0.1-0.1-0.2-0.3-0.3-0.4c-0.2-0.1-0.5-0.2-0.8-0.2h-0.4
		v-0.3h8.4l0.1,2.5h-0.3c-0.1-0.5-0.3-0.9-0.5-1.2c-0.2-0.2-0.4-0.4-0.7-0.5c-0.3-0.1-0.7-0.2-1.3-0.2H178.9z"/>
	<path d="M190.1,163.4v0.3h-4.8v-0.3h0.4c0.5,0,0.8-0.1,1-0.4c0.1-0.2,0.2-0.6,0.2-1.3v-7.3c0-0.6,0-0.9-0.1-1.1
		c-0.1-0.1-0.2-0.3-0.3-0.4c-0.2-0.1-0.5-0.2-0.8-0.2h-0.4v-0.3h4.8v0.3h-0.4c-0.5,0-0.8,0.1-1,0.4c-0.1,0.2-0.2,0.6-0.2,1.3v7.3
		c0,0.6,0,0.9,0.1,1.1c0.1,0.1,0.2,0.3,0.3,0.4c0.2,0.1,0.5,0.2,0.8,0.2H190.1z"/>
	<path d="M202,163.7h-3l-3.8-5.3c-0.3,0-0.5,0-0.7,0c-0.1,0-0.1,0-0.2,0s-0.2,0-0.3,0v3.3c0,0.7,0.1,1.1,0.2,1.3
		c0.2,0.2,0.5,0.4,0.9,0.4h0.4v0.3h-4.8v-0.3h0.4c0.5,0,0.8-0.2,1-0.5c0.1-0.2,0.2-0.6,0.2-1.2v-7.3c0-0.7-0.1-1.1-0.2-1.3
		c-0.2-0.2-0.5-0.4-1-0.4h-0.4v-0.3h4.1c1.2,0,2.1,0.1,2.6,0.3c0.6,0.2,1,0.5,1.4,1s0.6,1,0.6,1.7c0,0.7-0.2,1.3-0.7,1.8
		c-0.5,0.5-1.1,0.9-2.1,1.1l2.3,3.2c0.5,0.7,1,1.2,1.4,1.5c0.4,0.2,0.9,0.4,1.5,0.5V163.7z M194,157.9c0.1,0,0.2,0,0.3,0
		s0.1,0,0.2,0c1.1,0,1.9-0.2,2.4-0.7c0.5-0.5,0.8-1.1,0.8-1.8c0-0.7-0.2-1.3-0.7-1.7c-0.4-0.4-1-0.7-1.7-0.7c-0.3,0-0.8,0.1-1.3,0.2
		V157.9z"/>
	<path d="M209.7,152.2v3.9h-0.3c-0.1-0.7-0.3-1.3-0.5-1.8c-0.3-0.4-0.6-0.8-1.1-1.1c-0.5-0.3-1-0.4-1.5-0.4c-0.6,0-1.1,0.2-1.4,0.5
		c-0.4,0.4-0.6,0.8-0.6,1.2c0,0.3,0.1,0.7,0.4,0.9c0.3,0.4,1.2,1,2.4,1.7c1.1,0.6,1.8,1,2.2,1.3c0.4,0.3,0.7,0.7,0.9,1.1
		c0.2,0.4,0.3,0.8,0.3,1.3c0,0.9-0.3,1.6-1,2.2s-1.5,0.9-2.6,0.9c-0.3,0-0.6,0-0.9-0.1c-0.2,0-0.5-0.1-1.1-0.3
		c-0.5-0.2-0.9-0.3-1-0.3c-0.1,0-0.2,0-0.3,0.1s-0.1,0.3-0.2,0.5H203v-3.9h0.3c0.1,0.8,0.3,1.4,0.6,1.8c0.2,0.4,0.6,0.7,1.1,1
		c0.5,0.3,1,0.4,1.6,0.4c0.7,0,1.2-0.2,1.6-0.5c0.4-0.4,0.6-0.8,0.6-1.3c0-0.3-0.1-0.6-0.2-0.8s-0.4-0.5-0.7-0.8
		c-0.2-0.2-0.8-0.5-1.8-1.1c-1-0.5-1.6-1-2.1-1.3c-0.4-0.3-0.7-0.7-0.9-1.1c-0.2-0.4-0.3-0.8-0.3-1.3c0-0.8,0.3-1.5,0.9-2.1
		c0.6-0.6,1.4-0.9,2.4-0.9c0.6,0,1.2,0.1,1.9,0.4c0.3,0.1,0.5,0.2,0.7,0.2c0.1,0,0.3,0,0.4-0.1c0.1-0.1,0.2-0.3,0.2-0.5H209.7z"/>
	<path d="M221.1,152.4l0.1,2.6H221c-0.1-0.5-0.1-0.8-0.2-1c-0.2-0.3-0.4-0.6-0.7-0.7c-0.3-0.2-0.7-0.2-1.1-0.2h-1.6v8.6
		c0,0.7,0.1,1.1,0.2,1.3c0.2,0.2,0.5,0.3,1,0.3h0.4v0.3h-4.8v-0.3h0.4c0.5,0,0.8-0.1,1-0.4c0.1-0.2,0.2-0.6,0.2-1.2v-8.6h-1.4
		c-0.5,0-0.9,0-1.1,0.1c-0.3,0.1-0.5,0.3-0.7,0.6c-0.2,0.3-0.3,0.7-0.4,1.2h-0.3l0.1-2.6H221.1z"/>
	<path d="M233.4,152.2v3.9h-0.3c-0.1-0.7-0.3-1.3-0.5-1.8c-0.3-0.4-0.6-0.8-1.1-1.1c-0.5-0.3-1-0.4-1.5-0.4c-0.6,0-1.1,0.2-1.4,0.5
		c-0.4,0.4-0.6,0.8-0.6,1.2c0,0.3,0.1,0.7,0.4,0.9c0.3,0.4,1.2,1,2.4,1.7c1.1,0.6,1.8,1,2.2,1.3c0.4,0.3,0.7,0.7,0.9,1.1
		c0.2,0.4,0.3,0.8,0.3,1.3c0,0.9-0.3,1.6-1,2.2s-1.5,0.9-2.6,0.9c-0.3,0-0.6,0-0.9-0.1c-0.2,0-0.5-0.1-1.1-0.3
		c-0.5-0.2-0.9-0.3-1-0.3c-0.1,0-0.2,0-0.3,0.1s-0.1,0.3-0.2,0.5h-0.3v-3.9h0.3c0.1,0.8,0.3,1.4,0.6,1.8c0.2,0.4,0.6,0.7,1.1,1
		c0.5,0.3,1,0.4,1.6,0.4c0.7,0,1.2-0.2,1.6-0.5c0.4-0.4,0.6-0.8,0.6-1.3c0-0.3-0.1-0.6-0.2-0.8s-0.4-0.5-0.7-0.8
		c-0.2-0.2-0.8-0.5-1.8-1.1c-1-0.5-1.6-1-2.1-1.3c-0.4-0.3-0.7-0.7-0.9-1.1c-0.2-0.4-0.3-0.8-0.3-1.3c0-0.8,0.3-1.5,0.9-2.1
		c0.6-0.6,1.4-0.9,2.4-0.9c0.6,0,1.2,0.1,1.9,0.4c0.3,0.1,0.5,0.2,0.7,0.2c0.1,0,0.3,0,0.4-0.1c0.1-0.1,0.2-0.3,0.2-0.5H233.4z"/>
	<path d="M244.9,152.4l0.1,2.6h-0.3c-0.1-0.5-0.1-0.8-0.2-1c-0.2-0.3-0.4-0.6-0.7-0.7c-0.3-0.2-0.7-0.2-1.1-0.2h-1.6v8.6
		c0,0.7,0.1,1.1,0.2,1.3c0.2,0.2,0.5,0.3,1,0.3h0.4v0.3h-4.8v-0.3h0.4c0.5,0,0.8-0.1,1-0.4c0.1-0.2,0.2-0.6,0.2-1.2v-8.6h-1.4
		c-0.5,0-0.9,0-1.1,0.1c-0.3,0.1-0.5,0.3-0.7,0.6c-0.2,0.3-0.3,0.7-0.4,1.2h-0.3l0.1-2.6H244.9z"/>
	<path d="M257,163.7h-3l-3.8-5.3c-0.3,0-0.5,0-0.7,0c-0.1,0-0.1,0-0.2,0s-0.2,0-0.3,0v3.3c0,0.7,0.1,1.1,0.2,1.3
		c0.2,0.2,0.5,0.4,0.9,0.4h0.4v0.3h-4.8v-0.3h0.4c0.5,0,0.8-0.2,1-0.5c0.1-0.2,0.2-0.6,0.2-1.2v-7.3c0-0.7-0.1-1.1-0.2-1.3
		c-0.2-0.2-0.5-0.4-1-0.4h-0.4v-0.3h4.1c1.2,0,2.1,0.1,2.6,0.3c0.6,0.2,1,0.5,1.4,1s0.6,1,0.6,1.7c0,0.7-0.2,1.3-0.7,1.8
		c-0.5,0.5-1.1,0.9-2.1,1.1l2.3,3.2c0.5,0.7,1,1.2,1.4,1.5c0.4,0.2,0.9,0.4,1.5,0.5V163.7z M249,157.9c0.1,0,0.2,0,0.3,0
		s0.1,0,0.2,0c1.1,0,1.9-0.2,2.4-0.7c0.5-0.5,0.8-1.1,0.8-1.8c0-0.7-0.2-1.3-0.7-1.7c-0.4-0.4-1-0.7-1.7-0.7c-0.3,0-0.8,0.1-1.3,0.2
		V157.9z"/>
	<path d="M260.4,153v4.4h2.5c0.6,0,1.1-0.1,1.3-0.3c0.3-0.3,0.4-0.7,0.5-1.3h0.3v3.9h-0.3c-0.1-0.5-0.2-0.9-0.2-1.1
		c-0.1-0.2-0.3-0.3-0.5-0.5c-0.2-0.1-0.6-0.2-1-0.2h-2.5v3.7c0,0.5,0,0.8,0.1,0.9s0.1,0.2,0.2,0.3c0.1,0.1,0.3,0.1,0.6,0.1h1.9
		c0.6,0,1.1,0,1.4-0.1c0.3-0.1,0.6-0.3,0.8-0.5c0.3-0.3,0.7-0.9,1.1-1.6h0.3l-1,2.8h-8.7v-0.3h0.4c0.3,0,0.5-0.1,0.8-0.2
		c0.2-0.1,0.3-0.2,0.4-0.4c0.1-0.2,0.1-0.5,0.1-1.1v-7.3c0-0.7-0.1-1.2-0.2-1.3c-0.2-0.2-0.5-0.3-1-0.3h-0.4v-0.3h8.7l0.1,2.5h-0.3
		c-0.1-0.6-0.2-1-0.4-1.2c-0.1-0.2-0.3-0.4-0.6-0.5c-0.2-0.1-0.6-0.1-1.2-0.1H260.4z"/>
	<path d="M270.7,153v4.4h2.5c0.6,0,1.1-0.1,1.3-0.3c0.3-0.3,0.4-0.7,0.5-1.3h0.3v3.9H275c-0.1-0.5-0.2-0.9-0.2-1.1
		c-0.1-0.2-0.3-0.3-0.5-0.5c-0.2-0.1-0.6-0.2-1-0.2h-2.5v3.7c0,0.5,0,0.8,0.1,0.9s0.1,0.2,0.2,0.3c0.1,0.1,0.3,0.1,0.6,0.1h1.9
		c0.6,0,1.1,0,1.4-0.1c0.3-0.1,0.6-0.3,0.8-0.5c0.3-0.3,0.7-0.9,1.1-1.6h0.3l-1,2.8h-8.7v-0.3h0.4c0.3,0,0.5-0.1,0.8-0.2
		c0.2-0.1,0.3-0.2,0.4-0.4c0.1-0.2,0.1-0.5,0.1-1.1v-7.3c0-0.7-0.1-1.2-0.2-1.3c-0.2-0.2-0.5-0.3-1-0.3h-0.4v-0.3h8.7l0.1,2.5H276
		c-0.1-0.6-0.2-1-0.4-1.2c-0.1-0.2-0.3-0.4-0.6-0.5c-0.2-0.1-0.6-0.1-1.2-0.1H270.7z"/>
	<path d="M287.4,152.4l0.1,2.6h-0.3c-0.1-0.5-0.1-0.8-0.2-1c-0.2-0.3-0.4-0.6-0.7-0.7c-0.3-0.2-0.7-0.2-1.1-0.2h-1.6v8.6
		c0,0.7,0.1,1.1,0.2,1.3c0.2,0.2,0.5,0.3,1,0.3h0.4v0.3h-4.8v-0.3h0.4c0.5,0,0.8-0.1,1-0.4c0.1-0.2,0.2-0.6,0.2-1.2v-8.6h-1.4
		c-0.5,0-0.9,0-1.1,0.1c-0.3,0.1-0.5,0.3-0.7,0.6c-0.2,0.3-0.3,0.7-0.4,1.2h-0.3l0.1-2.6H287.4z"/>
</g>
<g>
	<path d="M171.4,185h3.1l6.9,8.4V187c0-0.7-0.1-1.1-0.2-1.3c-0.2-0.2-0.5-0.3-1-0.3h-0.4V185h3.9v0.3h-0.4c-0.5,0-0.8,0.1-1,0.4
		c-0.1,0.2-0.2,0.6-0.2,1.2v9.5h-0.3l-7.4-9.1v6.9c0,0.7,0.1,1.1,0.2,1.3c0.2,0.2,0.5,0.3,1,0.3h0.4v0.3H172v-0.3h0.4
		c0.5,0,0.8-0.1,1-0.4c0.1-0.2,0.2-0.6,0.2-1.2v-7.8c-0.3-0.4-0.6-0.6-0.7-0.8c-0.2-0.1-0.4-0.2-0.7-0.3c-0.2,0-0.4-0.1-0.7-0.1V185
		z"/>
	<path d="M190.1,184.7c1.5,0,2.7,0.6,3.8,1.7c1.1,1.1,1.6,2.5,1.6,4.2c0,1.7-0.5,3.1-1.6,4.3c-1.1,1.1-2.4,1.7-3.9,1.7
		c-1.5,0-2.9-0.6-3.9-1.7c-1.1-1.1-1.6-2.5-1.6-4.3c0-1.8,0.6-3.2,1.8-4.4C187.4,185.2,188.6,184.7,190.1,184.7z M189.9,185.3
		c-1,0-1.8,0.4-2.4,1.1c-0.8,0.9-1.1,2.3-1.1,4.1c0,1.8,0.4,3.3,1.2,4.2c0.6,0.8,1.4,1.1,2.4,1.1c1.1,0,1.9-0.4,2.6-1.2
		c0.7-0.8,1-2.1,1-3.9c0-1.9-0.4-3.4-1.1-4.3C191.9,185.7,191,185.3,189.9,185.3z"/>
	<path d="M206,185l0.1,2.6h-0.3c-0.1-0.5-0.1-0.8-0.2-1c-0.2-0.3-0.4-0.6-0.7-0.7s-0.7-0.2-1.1-0.2h-1.6v8.6c0,0.7,0.1,1.1,0.2,1.3
		c0.2,0.2,0.5,0.3,1,0.3h0.4v0.3H199v-0.3h0.4c0.5,0,0.8-0.1,1-0.4c0.1-0.2,0.2-0.6,0.2-1.2v-8.6h-1.4c-0.5,0-0.9,0-1.1,0.1
		c-0.3,0.1-0.5,0.3-0.7,0.6s-0.3,0.7-0.4,1.2h-0.3l0.1-2.6H206z"/>
	<path d="M220,185l0.1,2.6h-0.3c-0.1-0.5-0.1-0.8-0.2-1c-0.2-0.3-0.4-0.6-0.7-0.7s-0.7-0.2-1.1-0.2h-1.6v8.6c0,0.7,0.1,1.1,0.2,1.3
		c0.2,0.2,0.5,0.3,1,0.3h0.4v0.3H213v-0.3h0.4c0.5,0,0.8-0.1,1-0.4c0.1-0.2,0.2-0.6,0.2-1.2v-8.6h-1.4c-0.5,0-0.9,0-1.1,0.1
		c-0.3,0.1-0.5,0.3-0.7,0.6s-0.3,0.7-0.4,1.2h-0.3l0.1-2.6H220z"/>
	<path d="M226.5,184.7c1.5,0,2.7,0.6,3.8,1.7c1.1,1.1,1.6,2.5,1.6,4.2c0,1.7-0.5,3.1-1.6,4.3c-1.1,1.1-2.4,1.7-3.9,1.7
		c-1.5,0-2.9-0.6-3.9-1.7c-1.1-1.1-1.6-2.5-1.6-4.3c0-1.8,0.6-3.2,1.8-4.4C223.7,185.2,225,184.7,226.5,184.7z M226.3,185.3
		c-1,0-1.8,0.4-2.4,1.1c-0.8,0.9-1.1,2.3-1.1,4.1c0,1.8,0.4,3.3,1.2,4.2c0.6,0.8,1.4,1.1,2.4,1.1c1.1,0,1.9-0.4,2.6-1.2
		c0.7-0.8,1-2.1,1-3.9c0-1.9-0.4-3.4-1.1-4.3C228.2,185.7,227.4,185.3,226.3,185.3z"/>
	<path d="M244.6,184.7v3.9h-0.3c-0.1-0.7-0.3-1.3-0.5-1.8c-0.3-0.4-0.6-0.8-1.1-1.1c-0.5-0.3-1-0.4-1.5-0.4c-0.6,0-1.1,0.2-1.4,0.5
		c-0.4,0.4-0.6,0.8-0.6,1.2c0,0.3,0.1,0.7,0.4,0.9c0.3,0.4,1.2,1,2.4,1.7c1.1,0.6,1.8,1,2.2,1.3s0.7,0.7,0.9,1.1
		c0.2,0.4,0.3,0.8,0.3,1.3c0,0.9-0.3,1.6-1,2.2s-1.5,0.9-2.6,0.9c-0.3,0-0.6,0-0.9-0.1c-0.2,0-0.5-0.1-1.1-0.3
		c-0.5-0.2-0.9-0.3-1-0.3c-0.1,0-0.2,0-0.3,0.1c-0.1,0.1-0.1,0.3-0.2,0.5H238v-3.9h0.3c0.1,0.8,0.3,1.4,0.6,1.8s0.6,0.7,1.1,1
		s1,0.4,1.6,0.4c0.7,0,1.2-0.2,1.6-0.5s0.6-0.8,0.6-1.3c0-0.3-0.1-0.6-0.2-0.8s-0.4-0.5-0.7-0.8c-0.2-0.2-0.8-0.5-1.8-1.1
		c-1-0.5-1.6-1-2.1-1.3c-0.4-0.3-0.7-0.7-0.9-1.1s-0.3-0.8-0.3-1.3c0-0.8,0.3-1.5,0.9-2.1s1.4-0.9,2.4-0.9c0.6,0,1.2,0.1,1.9,0.4
		c0.3,0.1,0.5,0.2,0.7,0.2c0.1,0,0.3,0,0.4-0.1c0.1-0.1,0.2-0.3,0.2-0.5H244.6z"/>
	<path d="M256.5,184.7l0.3,3.8h-0.3c-0.3-1.1-0.8-2-1.5-2.5s-1.4-0.8-2.3-0.8c-0.7,0-1.4,0.2-2,0.6s-1.1,1-1.4,1.8s-0.5,1.9-0.5,3.1
		c0,1,0.2,1.9,0.5,2.6c0.3,0.7,0.8,1.3,1.5,1.7c0.7,0.4,1.4,0.6,2.2,0.6c0.7,0,1.4-0.2,1.9-0.5s1.2-0.9,1.8-1.9l0.3,0.2
		c-0.6,1-1.2,1.7-2,2.2c-0.8,0.5-1.6,0.7-2.7,0.7c-1.9,0-3.3-0.7-4.3-2.1c-0.8-1-1.1-2.2-1.1-3.6c0-1.1,0.3-2.2,0.8-3.1
		c0.5-0.9,1.2-1.7,2.1-2.2s1.8-0.8,2.9-0.8c0.8,0,1.6,0.2,2.4,0.6c0.2,0.1,0.4,0.2,0.5,0.2c0.1,0,0.3-0.1,0.4-0.2
		c0.1-0.1,0.2-0.4,0.3-0.6H256.5z"/>
	<path d="M265.4,192.5H261l-0.8,1.8c-0.2,0.4-0.3,0.8-0.3,1c0,0.2,0.1,0.3,0.2,0.5s0.5,0.2,1.1,0.3v0.3h-3.5v-0.3
		c0.5-0.1,0.8-0.2,0.9-0.3c0.3-0.3,0.6-0.8,0.9-1.6l4-9.3h0.3l3.9,9.4c0.3,0.8,0.6,1.2,0.9,1.5c0.3,0.2,0.6,0.3,1.1,0.4v0.3h-4.4
		v-0.3c0.4,0,0.8-0.1,0.9-0.2c0.2-0.1,0.2-0.3,0.2-0.5c0-0.2-0.1-0.6-0.3-1.2L265.4,192.5z M265.1,191.9l-1.9-4.5l-2,4.5H265.1z"/>
	<path d="M279.6,193.1l0.3,0.1l-1,3.1h-8.7v-0.3h0.4c0.5,0,0.8-0.2,1-0.5c0.1-0.2,0.2-0.6,0.2-1.2V187c0-0.7-0.1-1.1-0.2-1.3
		c-0.2-0.2-0.5-0.4-1-0.4h-0.4V185h5.1v0.3c-0.6,0-1,0.1-1.3,0.2c-0.2,0.1-0.4,0.3-0.5,0.4s-0.1,0.6-0.1,1.3v7.1
		c0,0.5,0,0.8,0.1,0.9c0.1,0.1,0.2,0.2,0.3,0.3c0.1,0.1,0.6,0.1,1.3,0.1h0.8c0.9,0,1.5-0.1,1.8-0.2c0.3-0.1,0.7-0.4,1-0.7
		C279,194.4,279.3,193.8,279.6,193.1z"/>
	<path d="M283.8,185.6v4.4h2.5c0.6,0,1.1-0.1,1.3-0.3c0.3-0.3,0.4-0.7,0.5-1.3h0.3v3.9H288c-0.1-0.5-0.2-0.9-0.2-1.1
		c-0.1-0.2-0.3-0.3-0.5-0.5c-0.2-0.1-0.6-0.2-1-0.2h-2.5v3.7c0,0.5,0,0.8,0.1,0.9c0,0.1,0.1,0.2,0.2,0.3s0.3,0.1,0.6,0.1h1.9
		c0.6,0,1.1,0,1.4-0.1c0.3-0.1,0.6-0.3,0.8-0.5c0.3-0.3,0.7-0.9,1.1-1.6h0.3l-1,2.8h-8.7v-0.3h0.4c0.3,0,0.5-0.1,0.8-0.2
		c0.2-0.1,0.3-0.2,0.4-0.4s0.1-0.5,0.1-1.1V187c0-0.7-0.1-1.2-0.2-1.3c-0.2-0.2-0.5-0.3-1-0.3h-0.4V185h8.7l0.1,2.5h-0.3
		c-0.1-0.6-0.2-1-0.4-1.2c-0.1-0.2-0.3-0.4-0.6-0.5c-0.2-0.1-0.6-0.1-1.2-0.1H283.8z"/>
</g>
</svg>
