<?xml version="1.0" encoding="iso-8859-1"?>
<!-- Generator: Adobe Illustrator 29.3.1, SVG Export Plug-In . SVG Version: 9.03 Build 55982)  -->
<svg version="1.1" id="Layer_1" xmlns="http://www.w3.org/2000/svg" xmlns:xlink="http://www.w3.org/1999/xlink" x="0px" y="0px"
	 width="718px" height="311.3px" viewBox="0 0 718 311.3" enable-background="new 0 0 718 311.3" xml:space="preserve">
<line fill="none" stroke="#000000" stroke-width="0.5" stroke-miterlimit="10" x1="335.9" y1="26.6" x2="335.9" y2="123.6"/>
<polygon points="332.2,29.1 335.9,15.9 339.6,29.1 332.2,29.1 "/>
<path d="M179.7,142.9c0,0,0.4-0.8,1.2-2.5c2.5-4.5,7.8-15.2,12.3-23.8c2.9-5.3,5.3-11.5,7.8-16.4c0.8-2.5,2.1-4.5,3.3-5.8
	c0.8-1.2,2.1-2.1,2.9-2.1c0.4,0,0.4,0,0.4,0l0,0c2.5,0.4,8.2,1.6,14.8,1.6c5.3,0,11.5-1.2,16-4.5c9.9-7,26.3-19.3,26.3-19.3
	c0-0.4,0-0.4,0-0.4c0,0.4,0,0.4,0,0.4c0.4,0,0.4,0,0.4,0c0.8-0.8,4.9-2.9,10.3-2.9c0.8,0,1.6,0.4,2.9,0.4c0.8,0,1.2,0,2.1,0
	c7.4,0,16-4.5,18.9-7.8c1.6-1.6,8.2-7,14-12.3c3.3-2.5,6.2-5.3,8.6-7.4c2.5-2.1,4.1-3.3,4.5-3.7c1.6-1.6,16.8-17.7,16.8-17.7
	c-0.4-0.4-0.4-0.4-0.4-0.4c0.4,0.4,0.4,0.4,0.4,0.4l0,0c1.2-0.4,6.2-2.9,11.5-2.9c3.3,0,6.6,0.8,9.4,2.9c4.1,3.3,7.4,5.8,10.7,7.4
	c2.9,1.2,5.8,2.1,8.6,2.1c3.7,0,8.6-0.4,12.7-0.4c2.9,0,5.3,0,7.4,0.8c2.5,1.2,3.7,3.3,5.3,5.8c1.2,2.5,2.9,4.5,5.8,5.8
	c2.5,1.2,7,2.1,12.7,2.5c5.3,0.8,11.5,0.8,17.3,0.8c0-0.4,0-0.4,0-0.4c0,0.4,0,0.4,0,0.4s0,0,0.4,0c0.4,0.4,2.5,0.8,4.1,2.1
	c1.6,0.8,3.3,2.5,4.1,4.5c0.8,2.5,1.2,4.9,2.1,7c0.4,1.2,0.8,2.1,1.2,2.9c0.4,0.8,1.2,1.2,1.6,1.6c0.8,0.4,2.1,0.8,3.3,1.2
	c4.5,1.2,11.5,3.3,11.5,3.3c0.4,0,0.4,0,0.4,0l0,0c0,0,0,0,0.4,0c0.8,0,2.9,0.4,4.9,1.6s4.1,3.7,4.5,7.8c1.2,9.9,4.5,13.6,4.5,13.6
	l0,0l0,0c0,0,4.5,3.3,11.5,3.3c0.4,0,0.8,0,1.2,0c2.9,0,6.6-0.4,10.7-0.4c4.1,0,8.6,0.4,11.9,0.4c3.3,0,5.3,0,5.3,0
	c0-0.4,0-0.4,0-0.4c0,0.4,0,0.4,0,0.4h0.4c0.8,0,3.3,0.8,5.3,2.1c1.6,0.8,3.7,2.9,3.7,5.8c0.8,7.4,4.1,23.8,4.1,23.8
	c0.4-0.4,0.4-0.4,0.4-0.4c-0.4,0-0.4,0-0.4,0s0,6.2,2.1,12.3c1.2,3.3,2.9,6.2,5.8,8.6c2.5,2.1,6.2,3.7,11.1,3.7c0.4,0,1.2,0,1.6,0
	c6.6-0.4,13.6-0.8,20.1-0.8c6.2,0,11.5,0.4,16,0.4c2.5,0,5.3,0.4,7.4,1.2c2.1,0.4,3.7,1.2,4.5,2.1c2.1,1.6,4.1,3.3,5.3,4.1
	c1.2,0.8,3.7,1.6,6.6,2.5c2.5,0.4,5.3,0.8,7.4,0.8c3.7,0,11.9,1.6,15.2,2.9c3.3,1.2,5.3,3.3,7.4,4.9c1.2,0.4,2.1,1.6,2.9,2.5
	c1.2,0.8,2.5,1.6,3.7,1.6c0.8,0,1.2,0,1.6-0.4c-0.4-0.8-0.4-0.8-0.4-0.8c-0.4,0.4-0.8,0.4-1.2,0.4c-0.8,0-2.1-0.8-2.9-1.6
	c-1.2-0.8-2.1-1.6-2.9-2.5c-2.5-1.6-4.5-3.7-7.8-4.9c-3.7-1.2-11.5-2.9-15.6-2.9c-2.1,0-4.9-0.4-7.4-0.8c-2.5-0.8-4.9-1.6-6.2-2.1
	c-0.8-0.8-3.3-2.9-4.9-4.5c-1.2-0.8-2.9-1.6-5.3-2.1c-2.1-0.8-4.5-1.2-7.4-1.2c-4.5,0-9.9-0.4-16-0.4c-6.6,0-13.6,0.4-20.1,0.8
	c-0.8,0-1.2,0-1.6,0c-4.5,0-8.2-1.2-10.7-3.7c-3.7-3.3-5.8-8.2-6.6-12.3c-0.4-2.1-0.8-4.1-0.8-5.3c0-0.8,0-1.2,0-1.6
	c0-0.4,0-0.8,0-0.8l0,0l0,0c0,0-0.4-0.8-0.8-2.5c-0.8-4.9-2.9-15.6-3.3-21c0-3.7-2.9-6.2-5.3-7c-2.5-1.2-4.5-1.6-4.9-1.6l0,0l0,0
	c0,0-9-0.4-17.3-0.4c-4.1,0-7.8,0.4-10.7,0.4c-0.4,0-0.8,0-1.2,0c-3.3,0-6.2-0.8-8.2-1.6c-0.8-0.4-1.6-0.8-2.1-1.2
	c-0.4,0-0.4,0-0.4,0c-0.4-0.4-0.4-0.4-0.4-0.4c0,0.4,0,0.4,0,0.4c0-0.4,0-0.4,0-0.4l0,0c0-0.4-3.3-3.7-4.1-12.7
	c-0.4-4.9-3.3-7.8-5.8-9c-2.5-1.2-4.9-1.2-4.9-1.2c0,0.4,0,0.4,0,0.4c0-0.4,0-0.4,0-0.4s-3.3-0.8-6.6-1.6c-1.6-0.4-3.7-1.2-4.9-1.6
	c-1.6-0.4-2.9-0.8-3.3-1.2c-0.4,0-0.8-0.4-1.2-1.2c-1.2-2.1-2.1-6.2-3.3-9.9c-1.2-2.5-3.3-4.1-5.3-5.3c-2.1-1.2-3.7-1.6-3.7-1.6
	c-0.4,0-0.4,0-0.4,0l0,0c-5.8,0-11.9,0-17.3-0.8c-5.8-0.4-10.3-1.2-12.7-2.5c-2.1-0.8-3.7-3.3-4.9-5.3c-1.6-2.5-3.3-4.9-5.8-6.2
	c-2.1-0.8-4.9-0.8-7.8-0.8c-4.5,0-9,0.4-12.7,0.4c-2.9,0-5.3-0.8-8.2-2.1c-2.9-1.6-6.2-3.7-10.7-7c-2.9-2.5-6.6-3.3-9.9-3.3
	c-6.2,0-11.9,2.9-11.9,2.9c0,0.4,0,0.4,0,0.4l0,0c0,0-1.2,0.8-2.5,2.5c-4.5,4.5-13.6,13.6-14.8,14.8c-0.4,0.4-2.1,2.1-4.1,4.1
	c-7,6.2-20.1,17.3-22.6,19.7c-2.9,2.9-11.5,7.4-18.5,7.4c-0.8,0-1.2,0-2.1,0c-0.8,0-2.1-0.4-2.9-0.4c-6.6,0-11.1,2.9-11.1,2.9l0,0
	l0,0c0,0-0.8,0.8-2.9,2.1c-4.9,3.7-16,12.3-23.4,17.7c-4.5,2.9-10.3,4.1-15.6,4.1c-6.2,0-11.9-1.2-14.8-1.6l0,0c-0.4,0-0.4,0-0.4,0
	c-1.2,0-2.5,0.8-3.7,2.5c-1.6,2.1-3.3,5.8-5.3,9.9c-1.6,3.7-3.7,8.2-5.8,12.7c-6.2,11.5-13.6,26.3-13.6,26.3
	C179.7,142.9,179.7,142.9,179.7,142.9"/>
<path d="M88.1,173.3c68.2-51.4,153.3-81.8,245.3-81.8c107.6,0,205.4,41.5,278.6,109.7c0.4-0.8,0.4-0.8,0.4-0.8
	c-73.1-68.2-170.9-109.7-279-109.7c-92,0-177.5,30.4-245.7,82.2C88.1,173.3,88.1,173.3,88.1,173.3"/>
<path d="M6.8,135.9c0.8,0.4,3.3,0.8,7,0.8c2.1,0,4.1,0,6.2-0.8c2.5-0.8,4.5-2.1,5.8-2.9c1.6-0.4,2.5-1.2,3.7-1.2
	c0.4,0,0.8,0,1.2,0.4c1.2,0.4,2.5,1.6,3.7,2.9c1.2,0.8,2.5,2.1,4.1,2.1c0,0,0.4,0,0.4-0.4c0.8,0,2.5,0,4.1,0c2.1,0,4.1,0,6.2,0
	c1.6,0,2.9,0.4,2.9,0.4l0,0l0,0c0-0.4,2.9-1.2,7-5.3l0,0l0,0l0,0c0.4-0.4,0.8-1.2,1.6-1.6c0.8-0.8,2.1-1.2,3.3-1.2
	c0.4,0,1.2,0,1.6,0.8c1.6,1.2,3.3,2.9,4.9,4.1c1.6,1.6,3.3,2.5,5.3,2.5h0.4c0.4,0,0.8,0,1.2,0c1.6,0,3.7,0,5.8,0c2.5,0,4.9,0,7-2.1
	c1.6-2.1,3.3-4.1,4.9-5.3c1.2-1.6,2.5-2.5,2.5-2.5l0,0c0-0.4,0-0.4,0-0.4l0,0c0,0,0.4-0.8,0.8-1.2c0.8-0.4,1.2-0.8,2.1-0.8
	s1.2,0.4,2.1,0.8c2.1,1.2,4.5,3.3,6.6,4.9c2.1,1.6,3.7,3.3,3.7,3.3l0,0c0.4,0,0.4,0,0.4,0s4.1,1.6,9,1.6c2.5,0,5.8-1.2,8.2-2.1
	c2.9-1.2,4.5-2.1,4.5-2.1c0.4,0,0.4,0,0.4,0c7.8-9,7.8-9,7.8-9c-0.4-0.4-0.4-0.4-0.4-0.4c0.4,0.4,0.4,0.4,0.4,0.4c0-0.4,0-0.4,0-0.4
	c0.8-0.4,4.1-2.9,7.8-2.9c2.1,0,4.5,1.2,6.6,2.5c0.8,0.8,1.6,1.6,2.1,2.1c0.4,0,0.4,0.4,0.8,0.4c0,0.4,0,0.4,0,0.4l0,0
	c12.3,7.8,12.3,7.8,12.3,7.8l0,0c0,0,2.5,0.4,4.9,0.4c0.8,0,1.2,0,2.1,0c1.6-0.4,5.8-1.2,10.3-2.5c2.1-0.4,4.1-1.2,5.8-2.1
	c2.1-0.8,3.3-1.2,4.5-2.1c1.6-1.6,4.5-3.7,7.4-5.3c1.2-0.8,2.9-1.6,3.7-2.5c0.8-0.4,1.6-0.8,1.6-0.8c-0.4-0.4-0.4-0.4-0.4-0.4
	c0,0.4,0,0.4,0,0.4s0.4,0,1.2,0c2.1,0,7,0.4,10.3,1.6c2.1,0.8,5.3,2.1,8.2,3.3c2.9,1.2,5.8,2.1,7,2.5c0.8,0,1.6,0.4,2.5,0.4
	c1.2,0,2.9-0.4,5.8-0.8c4.9-0.8,7.8-1.2,11.5-3.3c2.1-1.2,7-2.9,11.5-4.1c2.1-0.8,4.1-1.6,5.8-2.1c1.6-0.4,2.5-0.8,2.5-0.8
	c0-0.4,0-0.4,0-0.4c0,0.4,0,0.4,0,0.4s2.9-0.4,6.2-0.4c3.7-0.4,7.8-0.8,10.7-0.8c1.6,0,2.9,0.4,3.7,0.4c1.6,0.4,7,2.1,11.5,4.1
	c2.5,0.8,4.5,1.6,6.2,2.1c1.6,0.8,2.9,1.2,2.9,1.2l0,0c10.3,4.1,10.3,4.1,10.3,4.1l0,0c0,0,15.6,2.5,23.8,2.5c0.4,0,1.2,0,1.6,0
	c7.4-0.4,18.9-3.7,23.4-6.2c2.5-1.2,9.5-4.1,16.4-7c3.3-1.2,6.6-2.5,9.5-3.7c1.2-0.4,2.1-0.8,2.9-1.2c0.8,0,1.6-0.4,1.6-0.4
	c0.4,0,2.5-0.4,4.9-0.8c4.1-0.8,9.9-1.6,15.2-2.5c4.9-0.8,9.5-1.2,10.7-1.2s4.5,0,9,0c9.9,0,24.7,0.4,34.1,4.1
	c6.6,2.5,12.7,6.6,17.7,10.3c4.9,3.3,8.2,6.6,9.5,8.2c1.2,1.2,3.7,4.1,6.2,6.6c1.2,1.2,2.9,2.5,3.7,3.3c1.2,1.2,2.5,1.6,3.3,2.1
	c2.9,0.8,16.8,4.1,23,4.1c3.3,0,7.4-2.5,10.7-4.9c3.3-2.5,5.8-4.9,5.8-4.9c-0.4-0.4-0.4-0.4-0.4-0.4c0,0.4,0,0.4,0,0.4
	c0.4,0,0.4,0,0.4,0c0.4-0.4,2.9-1.6,5.8-1.6c1.6,0,3.7,0.4,5.3,2.1c2.9,2.1,4.9,3.7,6.2,5.3c0.4,0.8,0.8,1.2,1.2,1.6
	c0,0.4,0.4,0.4,0.4,0.4c0,0.4,0,0.4,0,0.4l0,0l0,0c0,0,2.9,2.1,5.8,2.1c0.8,0,3.3,0.4,5.8,1.2c2.5,0.4,5.3,0.8,7.8,0.8
	c1.6,0,3.3,0,4.5-0.8c3.7-2.5,8.6-6.2,8.6-6.2c-0.4-0.4-0.4-0.4-0.4-0.4c0.4,0.4,0.4,0.4,0.4,0.4l0,0c0-0.4,1.6-1.2,3.3-1.2
	c0.8,0,2.1,0.4,2.9,1.2c1.6,1.2,3.7,2.9,4.9,4.1c0.4,0.8,1.2,1.2,1.6,1.6s0.4,0.8,0.4,0.8c0.4-0.4,0.4-0.4,0.4-0.4
	c-0.4,0.4-0.4,0.4-0.4,0.4s0.8,0.4,1.6,1.2c0.8,0.8,2.1,1.6,3.3,2.1c1.2,0.4,5.8,0.8,9,0.8c1.6,0,3.3,0,4.1-0.4
	c0.4-0.4,1.2-0.8,2.1-1.6c1.2-1.2,2.5-2.9,4.1-3.7c0.4-0.8,1.2-1.2,1.6-1.6c0.8-0.4,1.2-0.4,1.6-0.4l0,0c0.8,0,2.1,0.8,3.7,2.1
	c1.2,0.8,2.5,1.6,3.3,2.5c1.6,0.8,3.7,2.5,6.2,2.5c0.4,0,0.4,0,0.8,0c0.8,0,1.6,0,2.5,0c1.2,0,2.1,0,3.3,0c2.5,0,4.9,0,6.2-0.8
	c1.6-0.8,2.9-1.6,4.5-2.5c1.2-0.8,2.5-1.6,3.3-1.6c0.4,0,0.4,0,0.4,0c0.4,0,1.2,0.4,1.6,0.8c1.2,0.8,2.5,1.6,3.7,2.5
	c1.2,0.8,1.6,1.6,1.6,1.6c0.4,0,0.4,0,0.4,0c15.6,2.9,15.6,2.9,15.6,2.9c0-0.8,0-0.8,0-0.8c-15.6-2.9-15.6-2.9-15.6-2.9
	c0,0.4,0,0.4,0,0.4c0.4-0.4,0.4-0.4,0.4-0.4s-1.6-1.2-3.3-2.1c-0.4-0.8-1.6-1.2-2.5-2.1c-0.8-0.4-1.2-0.8-2.1-0.8h-0.4
	c-1.2,0-2.5,0.8-3.7,1.6c-1.6,0.8-2.9,2.1-4.1,2.5c-1.6,0.4-3.7,0.8-6.2,0.8c-1.2,0-2.1,0-3.3,0c-0.8,0-2.1,0-2.5,0
	c-0.4,0-0.4,0-0.8,0c-2.1,0-4.1-1.2-5.3-2.5c-0.8-0.4-2.5-1.6-3.7-2.5c-1.2-0.8-2.9-1.6-4.1-2.1l0,0c-0.8,0-1.6,0.4-2.5,1.2
	c-1.6,0.8-2.9,2.1-4.5,3.3c-1.2,1.2-2.5,2.5-3.3,2.9c-0.4,0.4-1.6,0.4-3.3,0.4c-3.3,0-7.4-0.4-9-0.8c-0.8,0-2.1-0.8-2.9-1.6
	c-0.4-0.4-0.8-0.8-0.8-1.2c-0.4,0-0.4-0.4-0.4-0.4l0,0l0,0c0,0-3.7-4.1-7-6.6c-1.2-0.8-2.5-1.2-3.7-1.2c-2.1,0-3.7,1.2-4.1,1.2l0,0
	l0,0c0,0-1.2,0.8-2.9,2.1s-3.7,2.9-5.8,4.1c-0.8,0.4-2.1,0.8-3.7,0.8c-2.1,0-4.9-0.4-7.4-0.8c-2.9-0.8-4.9-1.2-6.2-1.2
	c-1.2,0-2.5-0.4-3.7-0.8c-0.4-0.4-0.8-0.8-0.8-0.8c-0.4-0.4-0.4-0.4-0.4-0.4l0,0c-0.4,0.4-0.4,0.4-0.4,0.4c0.4-0.4,0.4-0.4,0.4-0.4
	s-2.5-3.7-7.8-7.8c-2.1-1.6-4.5-2.1-6.2-2.1c-3.7,0-6.2,1.6-6.2,1.6c-0.4,0-0.4,0-0.4,0l0,0c0,0,0,0.4-0.4,0.4
	c-0.8,1.2-3.3,3.3-6.2,5.3c-3.3,2.5-6.6,4.1-9,4.1c-6.2,0-20.1-3.3-23-4.1c-0.4,0-1.6-0.8-2.5-1.6c-3.7-2.9-8.2-7.8-9.9-10.3
	c-1.2-1.2-4.9-4.5-9.9-8.2s-11.1-7.4-18.1-10.3c-9.5-3.7-24.2-4.1-34.1-4.1c-4.5,0-7.8,0-9,0c-0.8,0-3.3,0.4-6.2,0.8
	c-4.5,0.4-10.3,1.2-15.2,2.1c-2.5,0.4-4.5,0.8-6.6,1.2c-1.6,0-2.5,0.4-2.9,0.4c-0.4,0-0.8,0.4-1.6,0.4c-2.9,1.2-9,3.7-15.2,6.2
	c-6.2,2.5-11.9,4.5-13.6,5.8c-4.5,2.5-16,5.8-23.4,6.2c-0.4,0-1.2,0-1.6,0c-4.1,0-9.9-0.4-14.8-1.2c-2.5-0.4-4.9-0.4-6.6-0.8
	c-1.2-0.4-2.5-0.4-2.5-0.4c0,0.4,0,0.4,0,0.4c0-0.4,0-0.4,0-0.4c-10.3-4.1-10.3-4.1-10.3-4.1l0,0c0,0-4.1-1.6-8.6-3.3
	c-4.9-1.6-9.9-3.7-11.9-4.1c-0.8,0-2.1-0.4-3.7-0.4c-6.2,0-16.8,1.2-16.8,1.2l0,0l0,0c0,0-4.1,1.2-8.6,2.9
	c-4.5,1.2-9.5,3.3-11.1,4.1c-3.7,2.1-6.6,2.5-11.5,3.3c-2.9,0.4-4.5,0.8-5.8,0.8c-0.8,0-1.2-0.4-2.5-0.4c-1.2,0-3.7-1.2-6.6-2.5
	c-2.9-1.2-6.2-2.5-8.6-3.3c-4.5-1.6-11.5-1.6-11.5-1.6l0,0c-0.4,0-0.4,0-0.4,0s-9.5,5.8-12.7,8.6c-0.4,0.8-2.1,1.6-3.7,2.1
	c-5.3,2.5-13.6,4.1-16,4.5c-0.8,0-1.2,0-2.1,0c-1.2,0-2.5,0-3.3,0c-0.4-0.4-0.8-0.4-1.2-0.4h-0.4c0,0.4,0,0.4,0,0.4
	c0.4-0.4,0.4-0.4,0.4-0.4c-11.9-7.8-11.9-7.8-11.9-7.8c-0.4,0.4-0.4,0.4-0.4,0.4c0.4-0.4,0.4-0.4,0.4-0.4s-1.6-1.2-3.3-2.5
	c-2.1-1.6-4.5-2.9-7-2.9c-4.5,0-8.6,3.3-8.6,3.3l0,0c-7.8,9-7.8,9-7.8,9c0.4,0.4,0.4,0.4,0.4,0.4c0-0.4,0-0.4,0-0.4
	s-0.8,0.4-1.6,0.8c-2.1,0.8-7.4,3.3-11.1,3.3c-2.5,0-4.5-0.4-6.2-0.8c-0.8,0-1.6-0.4-2.1-0.4c-0.4-0.4-0.8-0.4-0.8-0.4
	c0,0.4,0,0.4,0,0.4c0.4-0.4,0.4-0.4,0.4-0.4s-6.6-5.8-10.3-8.2c-1.2-0.4-2.1-0.8-2.9-0.8c-1.2,0-2.1,0.8-2.9,1.2
	c-0.4,0.8-0.8,1.2-0.8,1.6c0.4,0,0.4,0,0.4,0c-0.4-0.4-0.4-0.4-0.4-0.4s-4.1,4.1-7.4,7.8c-1.2,1.6-3.7,2.5-6.2,2.1
	c-2.1,0.4-4.1,0-5.8,0c-0.4,0-0.8,0-1.2,0h-0.4c-1.6,0-3.3-0.8-4.9-2.1s-2.9-2.9-4.5-4.5c-0.8-0.4-1.6-0.8-2.5-0.8
	c-1.6,0-2.9,0.8-4.1,1.6c-0.8,0.8-1.6,1.6-1.6,1.6c0.4,0,0.4,0,0.4,0c-0.4,0-0.4,0-0.4,0c-2.1,2.1-3.7,3.3-4.5,3.7
	c-0.8,0.4-1.2,0.8-1.2,0.8c-0.4,0.4-0.4,0.4-0.4,0.4l0,0l0,0c0,0.4,0,0.4,0,0.4c0-0.4,0-0.4,0-0.4s-4.9-0.4-9-0.4
	c-1.6,0-3.3,0-4.1,0c-0.4,0.4-0.4,0.4-0.4,0.4c-1.2,0-2.5-0.8-3.7-2.1c-1.2-0.8-2.5-2.1-4.1-2.9c-0.4,0-0.8-0.4-1.2-0.4
	c-1.6,0-2.5,0.8-4.1,1.6c-1.2,0.8-3.3,1.6-5.3,2.5c-2.1,0.8-4.5,0.8-6.2,0.8c-3.3,0-6.2-0.4-7-0.8C6.8,135.9,6.8,135.9,6.8,135.9"/>
<path fill="#D1D1D1" d="M29.8,131.8c-2.5,0.4-4.5,2.5-9,4.1c-0.4,0-0.4,0-0.8,0.4c16.8,0,16.8,0,16.8,0c-0.8-0.4-1.6-0.8-2.5-1.2
	c-1.2-1.2-2.5-2.5-3.7-2.9C30.2,132.2,29.8,131.8,29.8,131.8"/>
<path d="M30.2,131.8c-0.4,0-0.4,0-0.4,0s0.4,0.4,0.8,0.4c1.2,0.4,2.5,1.6,3.7,2.9c0.8,0.4,1.6,0.8,2.5,1.2c0.8,0,0.8,0,0.8,0
	c-2.1-0.8-4.1-3.3-6.2-4.1C31,131.8,30.6,131.8,30.2,131.8"/>
<path fill="#D1D1D1" d="M19.1,136.3c-1.6,0.4-3.3,0.4-4.9,0.4h0.4c1.6,0,3.7,0,5.3-0.4C19.1,136.3,19.1,136.3,19.1,136.3
	 M11.3,135.9c0.8,0,1.6,0,2.5,0l0,0c0.4,0,0.8,0,1.2,0C11.3,135.9,11.3,135.9,11.3,135.9"/>
<path d="M7.6,135.9c0.8,0.4,3.3,0.8,6.6,0.8c1.6,0,3.3,0,4.9-0.4c-4.1-0.4-4.1-0.4-4.1-0.4c-0.4,0-0.8,0-1.2,0l0,0
	c-0.8,0-1.6,0-2.5,0C7.6,135.9,7.6,135.9,7.6,135.9"/>
<path fill="#D1D1D1" d="M712.2,150.3L712.2,150.3c0.8,0,0.8,0,0.8,0C712.2,150.3,712.2,150.3,712.2,150.3 M582.8,147.4
	c-1.2,0-2.9,0-4.1,0c22.2,0.4,22.2,0.4,22.2,0.4c-0.8,0-1.2,0-2.1,0C594.3,147.8,589,147.4,582.8,147.4 M582.8,139.6L582.8,139.6
	L582.8,139.6L582.8,139.6 M569.3,130.6c-3.3,0.4-5.8,1.6-5.8,1.6s-7.8,7.8-14,9.5c1.6,1.6,3.3,3.3,5.3,4.9c0.4,0,1.2,0.4,2.1,0.4
	c7.8,0.4,7.8,0.4,7.8,0.4c5.8-0.4,12.3-0.8,18.1-0.8c6.2,0,11.5,0.4,16,0.4c2.5,0,4.9,0.4,7,1.2c106.4,2.1,106.4,2.1,106.4,2.1
	c-15.6-2.9-15.6-2.9-15.6-2.9c-0.4,0-0.4,0-0.4,0s-0.4-0.8-1.6-1.6c-1.2-0.8-2.5-1.6-3.7-2.5c-0.4-0.4-1.2-0.8-1.6-0.8
	c-2.1,0.4-4.9,2.9-7.4,4.1c-1.2,0.4-3.7,0.8-6.2,0.8h-0.4h-0.4c-0.8,0-2.1,0-2.9,0s-1.6,0-2.1,0s-0.4,0-0.8,0h-0.4h-0.4
	c-2.5,0-4.5-1.6-6.2-2.5c-0.8-0.8-2.1-1.6-3.3-2.5c-1.2-0.8-2.5-1.6-3.7-2.1c-2.1,0.8-7,6.2-9,7.4c-0.8,0.4-2.1,0.4-3.7,0.4
	c0,0,0,0-0.4,0c0,0,0,0-0.4,0c-3.3,0-7.8-0.4-9-0.8c-1.2-0.4-2.5-1.2-3.3-2.1c-0.8-0.4-1.6-1.2-1.6-1.2l0,0c0,0,0-0.4-0.4-0.8
	s-1.2-0.8-1.6-1.6c-1.2-1.2-3.3-2.9-4.9-4.1c-0.8-0.8-1.6-0.8-2.5-1.2c-2.1,0.4-3.3,1.2-3.3,1.2s-4.9,3.7-8.6,6.2
	c-0.8,0.8-2.5,0.8-4.1,0.8c0,0,0,0-0.4,0c0,0,0,0-0.4,0c-2.5,0-5.3-0.4-7.8-0.8c-2.5-0.8-4.9-1.2-5.8-1.2l0,0
	c-2.9,0-5.8-2.1-5.8-2.1l0,0l0,0c0-0.4,0-0.4,0-0.4s-0.4,0-0.4-0.4c-0.4-0.4-0.8-0.8-1.2-1.6c-1.2-1.6-3.3-3.3-6.2-5.3
	C572.5,131.4,570.9,130.6,569.3,130.6"/>
<path d="M582.8,146.6c-5.8,0-12.3,0.4-18.1,0.8c14,0,14,0,14,0c1.2,0,2.9,0,4.1,0c6.2,0,11.5,0.4,16,0.4c0.8,0,1.2,0,2.1,0
	c4.9,0.4,4.9,0.4,4.9,0.4c-2.1-0.8-4.5-1.2-7-1.2C594.3,147,589,146.6,582.8,146.6 M554.9,146.6l0.4,0.4c1.6,0,1.6,0,1.6,0
	C556.1,147,555.3,146.6,554.9,146.6"/>
<path d="M672.4,147.4H672c0.8,0,2.1,0,2.9,0h0.4c-0.4,0-0.8,0-1.2,0S672.8,147.4,672.4,147.4 M689.6,142.5h-0.4
	c0.4,0,1.2,0.4,1.6,0.8c1.2,0.8,2.5,1.6,3.7,2.5c1.2,0.8,1.6,1.6,1.6,1.6c0.4,0,0.4,0,0.4,0c15.6,2.9,15.6,2.9,15.6,2.9l0,0l0,0
	c-14.8-2.9-14.8-2.9-14.8-2.9s-5.3-4.5-7.4-4.9H689.6 M656,140.4c-0.4,0-0.4,0-0.8,0c1.2,0.4,2.5,1.2,3.7,2.1
	c1.2,0.8,2.5,1.6,3.3,2.5c1.6,0.8,3.7,2.5,6.2,2.5h0.4c-2.1,0-4.1-1.2-5.3-2.5C661.7,143.7,658,140.8,656,140.4L656,140.4
	 M618.6,136.3h-0.4c0.8,0.4,1.6,0.4,2.5,1.2c1.6,1.2,3.7,2.9,4.9,4.1c0.4,0.8,1.2,1.2,1.6,1.6s0.4,0.8,0.4,0.8l0,0
	c0,0,0.8,0.8,1.6,1.2c0.8,0.8,2.1,1.6,3.3,2.1c1.2,0.4,5.8,0.8,9,0.8c0.4,0,0.4,0,0.4,0c-3.3,0-7.4-0.4-8.6-0.8
	c-2.1-0.4-4.5-3.3-4.5-3.3s-3.7-4.1-7-6.6C620.6,136.7,619.8,136.3,618.6,136.3 M569.7,130.6c-0.4,0-0.4,0-0.4,0
	c1.6,0,3.3,0.8,4.9,2.1c2.9,2.1,4.9,3.7,6.2,5.3c0.4,0.8,0.8,1.2,1.2,1.6c0,0.4,0.4,0.4,0.4,0.4c0,0.4,0,0.4,0,0.4l0,0l0,0
	c0,0,2.9,2.1,5.8,2.1l0,0c0.8,0,3.3,0.4,5.8,1.2c2.5,0.4,5.3,0.8,7.8,0.8c0.4,0,0.4,0,0.4,0c-4.5,0-11.1-2.1-13.1-2.1
	c-2.9,0-5.3-2.1-5.3-2.1s0-0.4-0.4-0.8l0,0l0,0c-1.2-1.2-3.7-4.1-7.4-7C573.4,131,571.3,130.6,569.7,130.6"/>
<path fill="#D1D1D1" d="M52.4,136.7c0,0,0,0-0.4,0.4c0.4,0,0.8,0,0.8,0s0-0.4,0.4-0.4C52.4,136.7,52.4,136.7,52.4,136.7 M42.9,136.7
	c-1.6,0-3.3,0-4.1,0c0,0,0,0,0,0.4c0,0,0,0,0.4,0c0,0,0.4,0,0.4-0.4c0.8,0,2.1,0,3.7,0H42.9L42.9,136.7"/>
<path d="M37.6,136.3c0.4,0.4,0.8,0.4,1.2,0.8c0-0.4,0-0.4,0-0.4c0.8,0,2.5,0,4.1,0l0,0h0.4h0.4c3.3,0,7,0,8.2,0.4
	c0.4-0.4,0.4-0.4,0.4-0.4C37.6,136.3,37.6,136.3,37.6,136.3"/>
<path fill="#D1D1D1" d="M166.2,127.3c-7.8,3.7-15.6,7.4-23.4,11.5c17.3,0.4,17.3,0.4,17.3,0.4c4.1-2.9,8.2-5.3,11.9-8.2
	C166.2,127.3,166.2,127.3,166.2,127.3 M151.4,118.2c-4.5,0.4-7.8,3.3-7.8,3.3c-7.8,9-7.8,9-7.8,9s-7.8,4.1-12.7,4.1h-0.4h-0.4
	c-4.9,0-9-1.6-9-1.6c-0.4,0-0.4,0-0.4,0l0,0c0,0-1.6-1.6-3.7-3.3c-2.1-1.6-4.5-3.7-6.6-4.9c-0.4-0.4-0.8-0.8-1.6-0.8
	c-1.6,0.4-2.9,2.5-2.9,2.5s-4.1,4.1-7.4,7.8c-1.6,1.6-4.1,2.1-6.6,2.1h-0.4h-0.4c-2.1,0-3.7,0-5.3,0c-0.4,0-0.4,0-0.8,0h-0.4
	c-0.4,0-0.4,0-0.4,0c-0.4,0-0.4,0-0.4,0c-2.1,0-3.7-0.8-5.3-2.5c-1.6-1.2-3.3-2.9-4.9-4.1c-0.4-0.4-0.8-0.8-1.6-0.8
	c-2.5,0.4-4.5,2.9-4.5,2.9c-3.3,3.3-5.3,4.5-6.2,4.9c87.9,2.1,87.9,2.1,87.9,2.1c7.8-4.5,16-8.2,24.2-11.9c-4.9-3.3-4.9-3.3-4.9-3.3
	l0,0c0,0,0,0,0-0.4c-0.4,0-0.4-0.4-0.8-0.4c-0.4-0.4-1.2-1.2-2.1-2.1C155.5,119.5,153.5,118.2,151.4,118.2"/>
<path d="M165.4,126.9c-8.2,3.7-16.4,7.4-24.2,11.9c1.6,0,1.6,0,1.6,0c7.8-4.1,15.6-7.8,23.4-11.5
	C165.4,126.9,165.4,126.9,165.4,126.9"/>
<path d="M78.3,136.3h-0.4c1.6,0,3.3,0,5.3,0h0.4c-0.8,0-1.6,0-2.5,0C79.9,136.3,79.1,136.3,78.3,136.3 M64.7,128.9
	c-0.4,0-0.4,0-0.8,0c0.8,0,1.2,0.4,1.6,0.8c1.6,1.2,3.3,2.9,4.9,4.1c1.6,1.6,3.3,2.5,5.3,2.5c0,0,0,0,0.4,0
	c-3.3-0.4-6.6-4.1-9.5-6.6C65.9,128.9,65.1,128.9,64.7,128.9 M101.3,124c0,0,0,0-0.4,0c0.8,0,1.2,0.4,1.6,0.8
	c2.1,1.2,4.5,3.3,6.6,4.9c2.1,1.6,3.7,3.3,3.7,3.3l0,0c0.4,0,0.4,0,0.4,0s4.1,1.6,9,1.6h0.4c-4.9,0-8.6-1.6-8.6-1.6
	s-6.6-5.8-10.3-8.2C102.9,124.4,102.1,124,101.3,124 M151.8,118.2h-0.4c2.1,0,4.1,1.2,6.2,2.5c0.8,0.8,1.6,1.6,2.1,2.1
	c0.4,0,0.4,0.4,0.8,0.4c0,0.4,0,0.4,0,0.4l0,0c4.9,3.3,4.9,3.3,4.9,3.3c0.8,0.4,0.8,0.4,0.8,0.4c5.8,3.7,5.8,3.7,5.8,3.7
	c0.4,0,0.4,0,0.4-0.4c-10.7-7-10.7-7-10.7-7S156.3,118.2,151.8,118.2"/>
<path fill="none" stroke="#000000" stroke-width="0.5" stroke-miterlimit="10" d="M582.4,140c4.1-0.4,13.6,0,18.9,3.7
	c5.3,3.7,13.1,12.7,15.6,14c2.5,1.2,12.7,11.5,12.7,12.7s15.6,18.5,15.6,18.5s9.9,11.9,13.6,15.6c3.7,3.7,10.3,15.6,11.5,18.1
	c1.2,2.5,3.3,14.4-2.5,21.4"/>
<g>
	<line fill="none" stroke="#000000" stroke-width="0.5" stroke-miterlimit="10" x1="350.3" y1="26.6" x2="350.3" y2="91.9"/>
	<polygon points="346.6,29.1 350.3,15.9 353.6,29.1 346.6,29.1 	"/>
	<path d="M352.9,91.5c0,1.6-1.2,2.9-2.9,2.9s-2.9-1.2-2.9-2.9s1.2-2.9,2.9-2.9S352.9,89.9,352.9,91.5L352.9,91.5z"/>
</g>
<path d="M338.8,123.6c0,1.6-1.2,2.9-2.9,2.9s-2.9-1.2-2.9-2.9s1.2-2.9,2.9-2.9S338.8,121.9,338.8,123.6L338.8,123.6z"/>
<g>
	<path d="M172,110h-4.4l-0.8,1.8c-0.2,0.4-0.3,0.8-0.3,1c0,0.2,0.1,0.3,0.2,0.5c0.2,0.1,0.5,0.2,1.1,0.3v0.3h-3.5v-0.3
		c0.5-0.1,0.8-0.2,0.9-0.3c0.3-0.3,0.6-0.8,0.9-1.6l4-9.3h0.3l3.9,9.4c0.3,0.8,0.6,1.2,0.9,1.5c0.3,0.2,0.6,0.3,1.1,0.4v0.3h-4.4
		v-0.3c0.4,0,0.8-0.1,0.9-0.2c0.2-0.1,0.2-0.3,0.2-0.5c0-0.2-0.1-0.6-0.3-1.2L172,110z M171.7,109.4l-1.9-4.5l-2,4.5H171.7z"/>
</g>
<g>
	<path d="M320.5,104h5.2v-3.2c0-0.6,0-1-0.1-1.1c-0.1-0.1-0.2-0.3-0.3-0.4c-0.2-0.1-0.5-0.2-0.8-0.2h-0.4v-0.3h4.8v0.3h-0.4
		c-0.3,0-0.5,0.1-0.8,0.2c-0.2,0.1-0.3,0.2-0.4,0.4c-0.1,0.2-0.1,0.5-0.1,1.1v7.3c0,0.6,0,0.9,0.1,1.1c0.1,0.1,0.2,0.3,0.3,0.4
		c0.2,0.1,0.5,0.2,0.8,0.2h0.4v0.3h-4.8v-0.3h0.4c0.5,0,0.8-0.1,1-0.4c0.1-0.2,0.2-0.6,0.2-1.3v-3.4h-5.2v3.4c0,0.6,0,0.9,0.1,1.1
		c0.1,0.1,0.2,0.3,0.3,0.4c0.2,0.1,0.5,0.2,0.8,0.2h0.4v0.3h-4.8v-0.3h0.4c0.5,0,0.8-0.1,1-0.4c0.1-0.2,0.2-0.6,0.2-1.3v-7.3
		c0-0.6,0-1-0.1-1.1c-0.1-0.1-0.2-0.3-0.3-0.4c-0.2-0.1-0.5-0.2-0.8-0.2h-0.4v-0.3h4.8v0.3h-0.4c-0.3,0-0.5,0.1-0.8,0.2
		c-0.2,0.1-0.3,0.2-0.4,0.4c-0.1,0.2-0.1,0.5-0.1,1.1V104z"/>
</g>
<g>
	<path d="M362.3,53.4V59c0.6-0.7,1.1-1.1,1.5-1.3c0.4-0.2,0.7-0.3,1.1-0.3c0.4,0,0.8,0.1,1.1,0.4c0.3,0.2,0.5,0.6,0.7,1.1
		c0.1,0.4,0.2,1,0.2,1.9v2.7c0,0.5,0,0.8,0.1,1c0.1,0.1,0.2,0.2,0.3,0.3s0.4,0.1,0.7,0.1v0.3h-3.7v-0.3h0.2c0.4,0,0.6-0.1,0.7-0.2
		c0.1-0.1,0.2-0.3,0.3-0.5c0-0.1,0-0.3,0-0.8v-2.7c0-0.8,0-1.4-0.1-1.6s-0.2-0.5-0.4-0.6c-0.2-0.1-0.4-0.2-0.7-0.2
		c-0.3,0-0.6,0.1-0.8,0.2s-0.6,0.4-1.1,0.9v4c0,0.5,0,0.8,0.1,1c0.1,0.1,0.2,0.2,0.3,0.3c0.2,0.1,0.4,0.1,0.8,0.1v0.3h-3.8v-0.3
		c0.3,0,0.6-0.1,0.8-0.2c0.1-0.1,0.2-0.2,0.3-0.3s0.1-0.5,0.1-0.9v-6.9c0-0.9,0-1.4-0.1-1.6c0-0.2-0.1-0.3-0.2-0.4s-0.2-0.1-0.3-0.1
		c-0.1,0-0.3,0-0.6,0.1l-0.1-0.3l2.3-0.9H362.3z"/>
</g>
<g>
	<path d="M557.4,118.7c0.8,0.2,1.4,0.4,1.8,0.8c0.5,0.5,0.8,1.1,0.8,1.9c0,0.6-0.2,1.1-0.5,1.6s-0.8,0.9-1.5,1.1s-1.6,0.4-2.8,0.4
		h-5.3v-0.3h0.4c0.5,0,0.8-0.2,1-0.4c0.1-0.2,0.2-0.6,0.2-1.2v-7.3c0-0.7-0.1-1.1-0.2-1.3c-0.2-0.2-0.5-0.4-1-0.4h-0.4v-0.3h4.9
		c0.9,0,1.6,0.1,2.2,0.2c0.8,0.2,1.5,0.6,1.9,1.1c0.4,0.5,0.7,1.1,0.7,1.7c0,0.6-0.2,1.1-0.5,1.5
		C558.6,118.1,558.1,118.4,557.4,118.7z M553,118.2c0.2,0,0.4,0.1,0.7,0.1s0.6,0,0.9,0c0.8,0,1.4-0.1,1.8-0.3
		c0.4-0.2,0.7-0.4,0.9-0.8c0.2-0.4,0.3-0.8,0.3-1.2c0-0.7-0.3-1.2-0.8-1.7c-0.5-0.5-1.3-0.7-2.3-0.7c-0.6,0-1.1,0.1-1.5,0.2V118.2z
		 M553,123.6c0.6,0.1,1.3,0.2,1.9,0.2c1,0,1.8-0.2,2.3-0.7c0.5-0.5,0.8-1,0.8-1.7c0-0.4-0.1-0.9-0.4-1.3c-0.2-0.4-0.6-0.7-1.2-1
		c-0.5-0.2-1.2-0.3-2-0.3c-0.3,0-0.6,0-0.9,0c-0.2,0-0.4,0-0.6,0.1V123.6z"/>
</g>
<line fill="none" stroke="#000000" stroke-width="0.5" x1="343.7" y1="15.9" x2="328.1" y2="15.9"/>
<g>
	<path d="M365.1,125.2c0,1.6-1.2,2.9-2.9,2.9c-1.6,0-2.9-1.2-2.9-2.9c0-1.6,1.2-2.9,2.9-2.9C363.8,122.3,365.1,123.6,365.1,125.2
		L365.1,125.2z"/>
	<line fill="none" stroke="#000000" stroke-width="0.5" stroke-miterlimit="10" x1="362.2" y1="91.5" x2="362.2" y2="125.2"/>
	<polygon points="358.7,104.7 362.4,91.5 365.7,104.7 358.7,104.7 	"/>
</g>
<g>
	<path d="M368.7,104.6h3.1l6.9,8.4v-6.5c0-0.7-0.1-1.1-0.2-1.3c-0.2-0.2-0.5-0.3-1-0.3H377v-0.3h3.9v0.3h-0.4c-0.5,0-0.8,0.1-1,0.4
		c-0.1,0.2-0.2,0.6-0.2,1.2v9.5H379l-7.4-9.1v6.9c0,0.7,0.1,1.1,0.2,1.3c0.2,0.2,0.5,0.3,1,0.3h0.4v0.3h-3.9v-0.3h0.4
		c0.5,0,0.8-0.1,1-0.4c0.1-0.2,0.2-0.6,0.2-1.2V106c-0.3-0.4-0.6-0.6-0.7-0.8c-0.2-0.1-0.4-0.2-0.7-0.3c-0.2,0-0.4-0.1-0.7-0.1
		V104.6z"/>
</g>
<line fill="none" stroke="#000000" stroke-width="0.5" stroke-miterlimit="10" x1="343.4" y1="29.7" x2="343.4" y2="248.7"/>
<polygon points="339.7,32.1 343.4,19 346.7,32.1 339.7,32.1 "/>
<path d="M346.1,249.6c0,1.6-1.2,2.9-2.9,2.9c-1.6,0-2.9-1.2-2.9-2.9s1.2-2.9,2.9-2.9C344.9,246.7,346.1,247.9,346.1,249.6
	L346.1,249.6z"/>
<g>
	<path d="M354.3,177.6v1.7c0.6-1.1,1.3-1.7,2-1.7c0.3,0,0.6,0.1,0.8,0.3c0.2,0.2,0.3,0.4,0.3,0.6c0,0.2-0.1,0.4-0.2,0.5
		c-0.1,0.1-0.3,0.2-0.5,0.2c-0.2,0-0.4-0.1-0.7-0.3c-0.2-0.2-0.4-0.3-0.5-0.3c-0.1,0-0.2,0.1-0.3,0.2c-0.2,0.2-0.5,0.6-0.8,1.1v3.6
		c0,0.4,0.1,0.7,0.2,1c0.1,0.1,0.2,0.3,0.4,0.4c0.2,0.1,0.4,0.1,0.8,0.1v0.3h-3.9v-0.3c0.4,0,0.7-0.1,0.9-0.2
		c0.1-0.1,0.2-0.2,0.3-0.4c0-0.1,0-0.4,0-0.8v-2.9c0-0.9,0-1.4-0.1-1.6c0-0.2-0.1-0.3-0.2-0.4c-0.1-0.1-0.2-0.1-0.4-0.1
		c-0.2,0-0.4,0-0.6,0.1l-0.1-0.3l2.3-0.9H354.3z"/>
</g>
<g>
	<path d="M299.4,289.8h3.1l6.9,8.4v-6.5c0-0.7-0.1-1.1-0.2-1.3c-0.2-0.2-0.5-0.3-1-0.3h-0.4v-0.3h3.9v0.3h-0.4c-0.5,0-0.8,0.1-1,0.4
		c-0.1,0.2-0.2,0.6-0.2,1.2v9.5h-0.3l-7.4-9.1v6.9c0,0.7,0.1,1.1,0.2,1.3c0.2,0.2,0.5,0.3,1,0.3h0.4v0.3H300v-0.3h0.4
		c0.5,0,0.8-0.1,1-0.4c0.1-0.2,0.2-0.6,0.2-1.2v-7.8c-0.3-0.4-0.6-0.6-0.7-0.8c-0.2-0.1-0.4-0.2-0.7-0.3c-0.2,0-0.4-0.1-0.7-0.1
		V289.8z"/>
	<path d="M318.1,289.5c1.5,0,2.7,0.6,3.8,1.7c1.1,1.1,1.6,2.5,1.6,4.2c0,1.7-0.5,3.1-1.6,4.3c-1.1,1.1-2.4,1.7-3.9,1.7
		c-1.5,0-2.9-0.6-3.9-1.7c-1.1-1.1-1.6-2.5-1.6-4.3c0-1.8,0.6-3.2,1.8-4.4C315.4,290,316.6,289.5,318.1,289.5z M317.9,290.1
		c-1,0-1.8,0.4-2.4,1.1c-0.8,0.9-1.1,2.3-1.1,4.1c0,1.8,0.4,3.3,1.2,4.2c0.6,0.8,1.4,1.1,2.4,1.1c1.1,0,1.9-0.4,2.6-1.2
		c0.7-0.8,1-2.1,1-3.9c0-1.9-0.4-3.4-1.1-4.3C319.9,290.5,319,290.1,317.9,290.1z"/>
	<path d="M334,289.8l0.1,2.6h-0.3c-0.1-0.5-0.1-0.8-0.2-1c-0.2-0.3-0.4-0.6-0.7-0.7c-0.3-0.2-0.7-0.2-1.1-0.2h-1.6v8.6
		c0,0.7,0.1,1.1,0.2,1.3c0.2,0.2,0.5,0.3,1,0.3h0.4v0.3H327v-0.3h0.4c0.5,0,0.8-0.1,1-0.4c0.1-0.2,0.2-0.6,0.2-1.2v-8.6h-1.4
		c-0.5,0-0.9,0-1.1,0.1c-0.3,0.1-0.5,0.3-0.7,0.6s-0.3,0.7-0.4,1.2h-0.3l0.1-2.6H334z"/>
	<path d="M348,289.8l0.1,2.6h-0.3c-0.1-0.5-0.1-0.8-0.2-1c-0.2-0.3-0.4-0.6-0.7-0.7c-0.3-0.2-0.7-0.2-1.1-0.2h-1.6v8.6
		c0,0.7,0.1,1.1,0.2,1.3c0.2,0.2,0.5,0.3,1,0.3h0.4v0.3H341v-0.3h0.4c0.5,0,0.8-0.1,1-0.4c0.1-0.2,0.2-0.6,0.2-1.2v-8.6h-1.4
		c-0.5,0-0.9,0-1.1,0.1c-0.3,0.1-0.5,0.3-0.7,0.6s-0.3,0.7-0.4,1.2h-0.3l0.1-2.6H348z"/>
	<path d="M354.5,289.5c1.5,0,2.7,0.6,3.8,1.7c1.1,1.1,1.6,2.5,1.6,4.2c0,1.7-0.5,3.1-1.6,4.3c-1.1,1.1-2.4,1.7-3.9,1.7
		c-1.5,0-2.9-0.6-3.9-1.7c-1.1-1.1-1.6-2.5-1.6-4.3c0-1.8,0.6-3.2,1.8-4.4C351.7,290,353,289.5,354.5,289.5z M354.3,290.1
		c-1,0-1.8,0.4-2.4,1.1c-0.8,0.9-1.1,2.3-1.1,4.1c0,1.8,0.4,3.3,1.2,4.2c0.6,0.8,1.4,1.1,2.4,1.1c1.1,0,1.9-0.4,2.6-1.2
		c0.7-0.8,1-2.1,1-3.9c0-1.9-0.4-3.4-1.1-4.3C356.2,290.5,355.4,290.1,354.3,290.1z"/>
	<path d="M372.6,289.5v3.9h-0.3c-0.1-0.7-0.3-1.3-0.5-1.8c-0.3-0.4-0.6-0.8-1.1-1.1c-0.5-0.3-1-0.4-1.5-0.4c-0.6,0-1.1,0.2-1.4,0.5
		c-0.4,0.4-0.6,0.8-0.6,1.2c0,0.3,0.1,0.7,0.4,0.9c0.3,0.4,1.2,1,2.4,1.7c1.1,0.6,1.8,1,2.2,1.3s0.7,0.7,0.9,1.1
		c0.2,0.4,0.3,0.8,0.3,1.3c0,0.9-0.3,1.6-1,2.2s-1.5,0.9-2.6,0.9c-0.3,0-0.6,0-0.9-0.1c-0.2,0-0.5-0.1-1.1-0.3
		c-0.5-0.2-0.9-0.3-1-0.3c-0.1,0-0.2,0-0.3,0.1c-0.1,0.1-0.1,0.3-0.2,0.5H366v-3.9h0.3c0.1,0.8,0.3,1.4,0.6,1.8s0.6,0.7,1.1,1
		s1,0.4,1.6,0.4c0.7,0,1.2-0.2,1.6-0.5s0.6-0.8,0.6-1.3c0-0.3-0.1-0.6-0.2-0.8s-0.4-0.5-0.7-0.8c-0.2-0.2-0.8-0.5-1.8-1.1
		c-1-0.5-1.6-1-2.1-1.3c-0.4-0.3-0.7-0.7-0.9-1.1c-0.2-0.4-0.3-0.8-0.3-1.3c0-0.8,0.3-1.5,0.9-2.1c0.6-0.6,1.4-0.9,2.4-0.9
		c0.6,0,1.2,0.1,1.9,0.4c0.3,0.1,0.5,0.2,0.7,0.2c0.1,0,0.3,0,0.4-0.1c0.1-0.1,0.2-0.3,0.2-0.5H372.6z"/>
	<path d="M384.5,289.5l0.3,3.8h-0.3c-0.3-1.1-0.8-2-1.5-2.5c-0.6-0.5-1.4-0.8-2.3-0.8c-0.7,0-1.4,0.2-2,0.6s-1.1,1-1.4,1.8
		s-0.5,1.9-0.5,3.1c0,1,0.2,1.9,0.5,2.6c0.3,0.7,0.8,1.3,1.5,1.7c0.7,0.4,1.4,0.6,2.2,0.6c0.7,0,1.4-0.2,1.9-0.5s1.2-0.9,1.8-1.9
		l0.3,0.2c-0.6,1-1.2,1.7-2,2.2c-0.8,0.5-1.6,0.7-2.7,0.7c-1.9,0-3.3-0.7-4.3-2.1c-0.8-1-1.1-2.2-1.1-3.6c0-1.1,0.3-2.2,0.8-3.1
		c0.5-0.9,1.2-1.7,2.1-2.2c0.9-0.5,1.8-0.8,2.9-0.8c0.8,0,1.6,0.2,2.4,0.6c0.2,0.1,0.4,0.2,0.5,0.2c0.1,0,0.3-0.1,0.4-0.2
		c0.1-0.1,0.2-0.4,0.3-0.6H384.5z"/>
	<path d="M393.4,297.3H389l-0.8,1.8c-0.2,0.4-0.3,0.8-0.3,1c0,0.2,0.1,0.3,0.2,0.5s0.5,0.2,1.1,0.3v0.3h-3.5v-0.3
		c0.5-0.1,0.8-0.2,0.9-0.3c0.3-0.3,0.6-0.8,0.9-1.6l4-9.3h0.3l3.9,9.4c0.3,0.8,0.6,1.2,0.9,1.5c0.3,0.2,0.6,0.3,1.1,0.4v0.3h-4.4
		v-0.3c0.4,0,0.8-0.1,0.9-0.2c0.2-0.1,0.2-0.3,0.2-0.5c0-0.2-0.1-0.6-0.3-1.2L393.4,297.3z M393.1,296.6l-1.9-4.5l-2,4.5H393.1z"/>
	<path d="M407.6,297.9l0.3,0.1l-1,3.1h-8.7v-0.3h0.4c0.5,0,0.8-0.2,1-0.5c0.1-0.2,0.2-0.6,0.2-1.2v-7.3c0-0.7-0.1-1.1-0.2-1.3
		c-0.2-0.2-0.5-0.4-1-0.4h-0.4v-0.3h5.1v0.3c-0.6,0-1,0-1.3,0.2c-0.2,0.1-0.4,0.3-0.5,0.4c-0.1,0.2-0.1,0.6-0.1,1.3v7.1
		c0,0.5,0,0.8,0.1,0.9c0.1,0.1,0.2,0.2,0.3,0.3c0.1,0.1,0.6,0.1,1.3,0.1h0.8c0.9,0,1.5-0.1,1.8-0.2c0.3-0.1,0.7-0.4,1-0.7
		C407,299.1,407.3,298.6,407.6,297.9z"/>
	<path d="M411.8,290.4v4.4h2.5c0.6,0,1.1-0.1,1.3-0.3c0.3-0.3,0.4-0.7,0.5-1.3h0.3v3.9H416c-0.1-0.5-0.2-0.9-0.2-1.1
		c-0.1-0.2-0.3-0.3-0.5-0.5c-0.2-0.1-0.6-0.2-1-0.2h-2.5v3.7c0,0.5,0,0.8,0.1,0.9c0,0.1,0.1,0.2,0.2,0.3s0.3,0.1,0.6,0.1h1.9
		c0.6,0,1.1,0,1.4-0.1c0.3-0.1,0.6-0.3,0.8-0.5c0.3-0.3,0.7-0.9,1.1-1.6h0.3l-1,2.8h-8.7v-0.3h0.4c0.3,0,0.5-0.1,0.8-0.2
		c0.2-0.1,0.3-0.2,0.4-0.4s0.1-0.5,0.1-1.1v-7.3c0-0.7-0.1-1.2-0.2-1.3c-0.2-0.2-0.5-0.3-1-0.3h-0.4v-0.3h8.7l0.1,2.5h-0.3
		c-0.1-0.6-0.2-1-0.4-1.2c-0.1-0.2-0.3-0.4-0.6-0.5c-0.2-0.1-0.6-0.1-1.2-0.1H411.8z"/>
</g>
</svg>
