<?xml version="1.0" encoding="iso-8859-1"?>
<!-- Generator: Adobe Illustrator 29.3.1, SVG Export Plug-In . SVG Version: 9.03 Build 55982)  -->
<svg version="1.1" id="Layer_1" xmlns="http://www.w3.org/2000/svg" xmlns:xlink="http://www.w3.org/1999/xlink" x="0px" y="0px"
	 width="312.3px" height="167.6px" viewBox="0 0 312.3 167.6" enable-background="new 0 0 312.3 167.6" xml:space="preserve">
<polyline fill="none" stroke="#000000" stroke-width="0.5" stroke-miterlimit="10" points="53,13.2 65.4,13.2 268.2,13.2 
	268.2,143.1 9.6,143.1 9.6,64.1 "/>
<g>
	<path d="M283,70.3v0.3c-0.7,0.1-1.3,0.2-1.8,0.4c-0.5,0.2-0.9,0.6-1.4,1s-0.8,0.9-1.1,1.5c-0.3,0.6-0.5,1.2-0.7,2
		c0.8-0.5,1.6-0.8,2.4-0.8c0.8,0,1.4,0.3,2,0.9s0.8,1.4,0.8,2.4c0,0.9-0.3,1.8-0.9,2.6c-0.7,0.9-1.6,1.4-2.7,1.4
		c-0.8,0-1.4-0.3-2-0.8c-1.1-1-1.6-2.3-1.6-3.9c0-1,0.2-2,0.6-2.9c0.4-0.9,1-1.7,1.7-2.4s1.5-1.2,2.2-1.4c0.7-0.2,1.3-0.4,1.9-0.4
		H283z M277.8,76.1c-0.1,0.7-0.1,1.4-0.1,1.8c0,0.5,0.1,1.1,0.3,1.7c0.2,0.6,0.5,1.1,0.9,1.5c0.3,0.3,0.6,0.4,1,0.4
		c0.5,0,0.9-0.2,1.3-0.7s0.6-1.1,0.6-1.9c0-0.9-0.2-1.8-0.6-2.5c-0.4-0.7-0.9-1-1.6-1c-0.2,0-0.4,0-0.7,0.1
		C278.6,75.7,278.3,75.8,277.8,76.1z"/>
	<path d="M284.5,76.3c0-1.3,0.2-2.4,0.6-3.3c0.4-0.9,0.9-1.6,1.5-2.1c0.5-0.4,1-0.5,1.5-0.5c0.9,0,1.6,0.4,2.3,1.3
		c0.9,1.1,1.3,2.6,1.3,4.4c0,1.3-0.2,2.4-0.6,3.3c-0.4,0.9-0.9,1.6-1.4,2c-0.6,0.4-1.1,0.6-1.7,0.6c-1.1,0-2-0.6-2.7-1.9
		C284.8,79,284.5,77.8,284.5,76.3z M286.1,76.5c0,1.5,0.2,2.8,0.6,3.8c0.3,0.8,0.8,1.2,1.4,1.2c0.3,0,0.6-0.1,0.9-0.4
		c0.3-0.3,0.6-0.7,0.7-1.3c0.3-1,0.4-2.3,0.4-4c0-1.3-0.1-2.4-0.4-3.2c-0.2-0.6-0.5-1.1-0.8-1.4c-0.2-0.2-0.5-0.3-0.8-0.3
		c-0.4,0-0.7,0.2-1,0.5c-0.4,0.5-0.7,1.2-0.8,2.2S286.1,75.5,286.1,76.5z"/>
	<path d="M300.1,74.8v5c0,0.7,0.1,1.2,0.2,1.3c0.2,0.2,0.5,0.4,0.8,0.4h0.7v0.3h-4.5v-0.3h0.3c0.2,0,0.4-0.1,0.6-0.2
		c0.2-0.1,0.3-0.3,0.4-0.4s0.1-0.6,0.1-1.1v-5h-1.5v-0.6h1.5v-0.5c0-0.8,0.1-1.4,0.4-1.9c0.2-0.5,0.6-1,1.1-1.3
		c0.5-0.3,1.1-0.5,1.7-0.5c0.6,0,1.1,0.2,1.6,0.6c0.3,0.2,0.5,0.5,0.5,0.8c0,0.2-0.1,0.3-0.2,0.5c-0.1,0.1-0.3,0.2-0.5,0.2
		c-0.1,0-0.3,0-0.4-0.1c-0.1-0.1-0.3-0.3-0.5-0.6c-0.2-0.3-0.4-0.5-0.6-0.6c-0.2-0.1-0.4-0.2-0.6-0.2c-0.3,0-0.5,0.1-0.6,0.2
		c-0.2,0.1-0.3,0.3-0.4,0.6c-0.1,0.3-0.1,1-0.1,2.2v0.5h2v0.6H300.1z"/>
	<path d="M305,71.7v2.5h1.8v0.6H305v4.9c0,0.5,0.1,0.8,0.2,1c0.1,0.2,0.3,0.3,0.5,0.3c0.2,0,0.4-0.1,0.5-0.2
		c0.2-0.1,0.3-0.3,0.4-0.5h0.3c-0.2,0.5-0.5,1-0.8,1.2c-0.4,0.3-0.7,0.4-1.1,0.4c-0.3,0-0.5-0.1-0.7-0.2c-0.2-0.1-0.4-0.3-0.5-0.6
		c-0.1-0.3-0.2-0.7-0.2-1.2v-5.1h-1.2v-0.3c0.3-0.1,0.6-0.3,0.9-0.6c0.3-0.3,0.6-0.6,0.9-1c0.1-0.2,0.3-0.6,0.5-1.2H305z"/>
</g>
<g>
	<path d="M136.5,150.9l2.7-1.3h0.3v9.5c0,0.6,0,1,0.1,1.2c0.1,0.2,0.2,0.3,0.3,0.4s0.5,0.1,1,0.1v0.3h-4.2v-0.3c0.5,0,0.9-0.1,1-0.1
		c0.2-0.1,0.3-0.2,0.3-0.3c0.1-0.1,0.1-0.5,0.1-1.2V153c0-0.8,0-1.3-0.1-1.6c0-0.2-0.1-0.3-0.2-0.4c-0.1-0.1-0.2-0.1-0.4-0.1
		c-0.2,0-0.5,0.1-0.9,0.3L136.5,150.9z"/>
	<path d="M150.8,158.9L150,161h-6.6v-0.3c2-1.8,3.3-3.2,4.1-4.4s1.2-2.2,1.2-3.1c0-0.7-0.2-1.3-0.7-1.8s-1-0.7-1.6-0.7
		c-0.6,0-1.1,0.2-1.5,0.5c-0.4,0.3-0.8,0.8-1,1.4h-0.3c0.1-1,0.5-1.8,1.1-2.4c0.6-0.5,1.3-0.8,2.1-0.8c0.9,0,1.7,0.3,2.3,0.9
		c0.6,0.6,0.9,1.3,0.9,2.1c0,0.6-0.1,1.1-0.4,1.7c-0.4,0.9-1.1,1.8-2,2.8c-1.4,1.5-2.2,2.4-2.6,2.7h2.9c0.6,0,1,0,1.3-0.1
		c0.2,0,0.5-0.1,0.7-0.3c0.2-0.1,0.4-0.3,0.5-0.6H150.8z"/>
	<path d="M152.1,155.5c0-1.3,0.2-2.4,0.6-3.3c0.4-0.9,0.9-1.6,1.5-2.1c0.5-0.4,1-0.5,1.5-0.5c0.9,0,1.6,0.4,2.3,1.3
		c0.9,1.1,1.3,2.6,1.3,4.4c0,1.3-0.2,2.4-0.6,3.3s-0.9,1.6-1.4,2c-0.6,0.4-1.1,0.6-1.7,0.6c-1.1,0-2-0.6-2.7-1.9
		C152.4,158.3,152.1,157,152.1,155.5z M153.8,155.7c0,1.5,0.2,2.8,0.6,3.8c0.3,0.8,0.8,1.2,1.4,1.2c0.3,0,0.6-0.1,0.9-0.4
		c0.3-0.3,0.6-0.7,0.7-1.3c0.3-1,0.4-2.3,0.4-4c0-1.3-0.1-2.4-0.4-3.2c-0.2-0.6-0.5-1.1-0.8-1.4c-0.2-0.2-0.5-0.3-0.8-0.3
		c-0.4,0-0.7,0.2-1,0.5c-0.4,0.5-0.7,1.2-0.8,2.2S153.8,154.7,153.8,155.7z"/>
	<path d="M167.8,154v5c0,0.7,0.1,1.2,0.2,1.3c0.2,0.2,0.5,0.4,0.8,0.4h0.7v0.3H165v-0.3h0.3c0.2,0,0.4-0.1,0.6-0.2s0.3-0.3,0.4-0.4
		c0.1-0.2,0.1-0.6,0.1-1.1v-5h-1.5v-0.6h1.5v-0.5c0-0.8,0.1-1.4,0.4-1.9s0.6-1,1.1-1.3c0.5-0.3,1.1-0.5,1.7-0.5
		c0.6,0,1.1,0.2,1.6,0.6c0.3,0.2,0.5,0.5,0.5,0.8c0,0.2-0.1,0.3-0.2,0.5c-0.1,0.1-0.3,0.2-0.5,0.2c-0.1,0-0.3,0-0.4-0.1
		c-0.1-0.1-0.3-0.3-0.5-0.6c-0.2-0.3-0.4-0.5-0.6-0.6s-0.4-0.2-0.6-0.2c-0.3,0-0.5,0.1-0.6,0.2c-0.2,0.1-0.3,0.3-0.4,0.6
		c-0.1,0.3-0.1,1-0.1,2.2v0.5h2v0.6H167.8z"/>
	<path d="M172.7,150.9v2.5h1.8v0.6h-1.8v4.9c0,0.5,0.1,0.8,0.2,1c0.1,0.2,0.3,0.3,0.5,0.3c0.2,0,0.4-0.1,0.5-0.2
		c0.2-0.1,0.3-0.3,0.4-0.5h0.3c-0.2,0.5-0.5,1-0.8,1.2c-0.4,0.3-0.7,0.4-1.1,0.4c-0.3,0-0.5-0.1-0.7-0.2c-0.2-0.1-0.4-0.3-0.5-0.6
		c-0.1-0.3-0.2-0.7-0.2-1.2V154h-1.2v-0.3c0.3-0.1,0.6-0.3,0.9-0.6c0.3-0.3,0.6-0.6,0.9-1c0.1-0.2,0.3-0.6,0.5-1.2H172.7z"/>
</g>
<path fill="none" stroke="#000000" stroke-width="0.5" stroke-miterlimit="10" d="M53.5,13.2C28.8,16.5,9.7,38.1,9.5,64.4"/>
<polyline fill="none" stroke="#000000" stroke-width="0.5" stroke-miterlimit="10" points="97,13.3 97,87.6 9,87.6 "/>
<polyline fill="none" stroke="#000000" stroke-width="0.5" stroke-miterlimit="10" points="96.8,65 71.6,65 71.6,86.9 "/>
<g>
	<path d="M44.6,104.2l-0.8,2.2h-6.6v-0.3c2-1.8,3.3-3.2,4.1-4.4s1.2-2.2,1.2-3.1c0-0.7-0.2-1.3-0.7-1.8s-1-0.7-1.6-0.7
		c-0.6,0-1.1,0.2-1.5,0.5c-0.4,0.3-0.8,0.8-1,1.4h-0.3c0.1-1,0.5-1.8,1.1-2.4c0.6-0.5,1.3-0.8,2.1-0.8c0.9,0,1.7,0.3,2.3,0.9
		c0.6,0.6,0.9,1.3,0.9,2.1c0,0.6-0.1,1.1-0.4,1.7c-0.4,0.9-1.1,1.8-2,2.8c-1.4,1.5-2.2,2.4-2.6,2.7h2.9c0.6,0,1,0,1.3-0.1
		c0.2,0,0.5-0.1,0.7-0.3c0.2-0.1,0.4-0.3,0.5-0.6H44.6z"/>
	<path d="M45.9,100.9c0-1.3,0.2-2.4,0.6-3.3c0.4-0.9,0.9-1.6,1.5-2.1c0.5-0.4,1-0.5,1.5-0.5c0.9,0,1.6,0.4,2.3,1.3
		c0.9,1.1,1.3,2.6,1.3,4.4c0,1.3-0.2,2.4-0.6,3.3s-0.9,1.6-1.4,2c-0.6,0.4-1.1,0.6-1.7,0.6c-1.1,0-2-0.6-2.7-1.9
		C46.2,103.6,45.9,102.4,45.9,100.9z M47.5,101.1c0,1.5,0.2,2.8,0.6,3.8c0.3,0.8,0.8,1.2,1.4,1.2c0.3,0,0.6-0.1,0.9-0.4
		c0.3-0.3,0.6-0.7,0.7-1.3c0.3-1,0.4-2.3,0.4-4c0-1.3-0.1-2.4-0.4-3.2c-0.2-0.6-0.5-1.1-0.8-1.4c-0.2-0.2-0.5-0.3-0.8-0.3
		c-0.4,0-0.7,0.2-1,0.5c-0.4,0.5-0.7,1.2-0.8,2.2S47.5,100.1,47.5,101.1z"/>
	<path d="M61.5,99.4v5c0,0.7,0.1,1.2,0.2,1.3c0.2,0.2,0.5,0.4,0.8,0.4h0.7v0.3h-4.5v-0.3h0.3c0.2,0,0.4-0.1,0.6-0.2s0.3-0.3,0.4-0.4
		c0.1-0.2,0.1-0.6,0.1-1.1v-5h-1.5v-0.6h1.5v-0.5c0-0.8,0.1-1.4,0.4-1.9s0.6-1,1.1-1.3c0.5-0.3,1.1-0.5,1.7-0.5
		c0.6,0,1.1,0.2,1.6,0.6c0.3,0.2,0.5,0.5,0.5,0.8c0,0.2-0.1,0.3-0.2,0.5c-0.1,0.1-0.3,0.2-0.5,0.2c-0.1,0-0.3,0-0.4-0.1
		c-0.1-0.1-0.3-0.3-0.5-0.6c-0.2-0.3-0.4-0.5-0.6-0.6s-0.4-0.2-0.6-0.2c-0.3,0-0.5,0.1-0.6,0.2c-0.2,0.1-0.3,0.3-0.4,0.6
		c-0.1,0.3-0.1,1-0.1,2.2v0.5h2v0.6H61.5z"/>
	<path d="M66.4,96.3v2.5h1.8v0.6h-1.8v4.9c0,0.5,0.1,0.8,0.2,1c0.1,0.2,0.3,0.3,0.5,0.3c0.2,0,0.4-0.1,0.5-0.2
		c0.2-0.1,0.3-0.3,0.4-0.5h0.3c-0.2,0.5-0.5,1-0.8,1.2c-0.4,0.3-0.7,0.4-1.1,0.4c-0.3,0-0.5-0.1-0.7-0.2c-0.2-0.1-0.4-0.3-0.5-0.6
		c-0.1-0.3-0.2-0.7-0.2-1.2v-5.1h-1.2v-0.3c0.3-0.1,0.6-0.3,0.9-0.6c0.3-0.3,0.6-0.6,0.9-1c0.1-0.2,0.3-0.6,0.5-1.2H66.4z"/>
</g>
<g>
	<path d="M104.2,58.5v-0.3c0.7,0,1.4-0.2,2-0.5c0.6-0.3,1.2-0.9,1.8-1.7c0.6-0.8,1-1.7,1.2-2.7c-0.9,0.6-1.7,0.8-2.4,0.8
		c-0.8,0-1.5-0.3-2-0.9c-0.6-0.6-0.8-1.4-0.8-2.4c0-1,0.3-1.9,0.8-2.6c0.7-0.9,1.6-1.4,2.7-1.4c0.9,0,1.7,0.4,2.4,1.1
		c0.8,0.9,1.2,2.1,1.2,3.5c0,1.3-0.3,2.4-0.9,3.5c-0.6,1.1-1.5,2-2.6,2.7c-0.9,0.6-1.9,0.9-2.9,0.9H104.2z M109.4,52.7
		c0.1-0.7,0.1-1.3,0.1-1.7c0-0.5-0.1-1.1-0.3-1.7c-0.2-0.6-0.4-1.1-0.8-1.4c-0.3-0.3-0.7-0.5-1.1-0.5c-0.5,0-0.9,0.2-1.3,0.7
		s-0.6,1.1-0.6,2c0,1.2,0.2,2.1,0.7,2.7c0.4,0.5,0.8,0.7,1.3,0.7c0.3,0,0.6-0.1,0.9-0.2S109.1,53,109.4,52.7z"/>
	<path d="M112.4,52.7c0-1.3,0.2-2.4,0.6-3.3c0.4-0.9,0.9-1.6,1.5-2.1c0.5-0.4,1-0.5,1.5-0.5c0.9,0,1.6,0.4,2.3,1.3
		c0.9,1.1,1.3,2.6,1.3,4.4c0,1.3-0.2,2.4-0.6,3.3s-0.9,1.6-1.4,2c-0.6,0.4-1.1,0.6-1.7,0.6c-1.1,0-2-0.6-2.7-1.9
		C112.7,55.5,112.4,54.2,112.4,52.7z M114.1,52.9c0,1.5,0.2,2.8,0.6,3.8c0.3,0.8,0.8,1.2,1.4,1.2c0.3,0,0.6-0.1,0.9-0.4
		c0.3-0.3,0.6-0.7,0.7-1.3c0.3-1,0.4-2.3,0.4-4c0-1.3-0.1-2.4-0.4-3.2c-0.2-0.6-0.5-1.1-0.8-1.4c-0.2-0.2-0.5-0.3-0.8-0.3
		c-0.4,0-0.7,0.2-1,0.5c-0.4,0.5-0.7,1.2-0.8,2.2S114.1,52,114.1,52.9z"/>
	<path d="M123.7,46.8c0.7,0,1.3,0.2,1.8,0.7c0.5,0.5,0.7,1.1,0.7,1.8c0,0.7-0.2,1.3-0.7,1.8s-1.1,0.7-1.8,0.7
		c-0.7,0-1.3-0.2-1.8-0.7s-0.7-1.1-0.7-1.8c0-0.7,0.2-1.3,0.7-1.8C122.4,47,123,46.8,123.7,46.8z M123.7,47.5c-0.5,0-1,0.2-1.3,0.5
		s-0.5,0.8-0.5,1.3c0,0.5,0.2,0.9,0.5,1.3c0.4,0.4,0.8,0.5,1.3,0.5c0.5,0,0.9-0.2,1.3-0.5c0.4-0.4,0.5-0.8,0.5-1.3
		c0-0.5-0.2-1-0.5-1.3S124.2,47.5,123.7,47.5z"/>
</g>
</svg>
