<?xml version="1.0" encoding="iso-8859-1"?>
<!-- Generator: Adobe Illustrator 29.3.1, SVG Export Plug-In . SVG Version: 9.03 Build 55982)  -->
<svg version="1.1" id="Layer_2" xmlns="http://www.w3.org/2000/svg" xmlns:xlink="http://www.w3.org/1999/xlink" x="0px" y="0px"
	 width="519.1px" height="482.2px" viewBox="0 0 519.1 482.2" enable-background="new 0 0 519.1 482.2" xml:space="preserve">
<line fill="none" stroke="#000000" stroke-width="0.255" stroke-linecap="round" stroke-linejoin="round" stroke-miterlimit="10" x1="265.6" y1="440" x2="265.9" y2="188.3"/>
<polyline fill="none" stroke="#000000" stroke-width="0.2475" stroke-linecap="round" stroke-linejoin="round" stroke-miterlimit="10" points="
	265.6,302 258.8,302.1 252,302.5 245.2,303.1 238.5,304 "/>
<line fill="none" stroke="#000000" stroke-width="0.2475" stroke-linecap="round" stroke-linejoin="round" stroke-miterlimit="10" x1="350.3" y1="279.7" x2="350.5" y2="279.9"/>
<polyline fill="none" stroke="#000000" stroke-width="0.2475" stroke-linecap="round" stroke-linejoin="round" stroke-miterlimit="10" points="
	350.3,279.7 356.6,282.4 362.8,285.1 368.9,288.1 374.9,291.2 380.8,294.6 386.4,298.1 392,301.8 "/>
<polyline stroke="#000000" stroke-width="0.255" stroke-linecap="round" stroke-linejoin="round" stroke-miterlimit="10" points="
	465.8,217.7 469.4,220.2 476.1,209.7 465.8,217.7 "/>
<line fill="none" stroke="#000000" stroke-width="0.255" stroke-linecap="round" stroke-linejoin="round" stroke-miterlimit="10" x1="487.5" y1="216.7" x2="487.7" y2="216.7"/>
<line fill="none" stroke="#000000" stroke-width="0.25" stroke-linecap="round" stroke-linejoin="round" stroke-miterlimit="10" x1="487.5" y1="216.7" x2="265.6" y2="50.7"/>
<line fill="none" stroke="#000000" stroke-width="0.2475" stroke-linecap="round" stroke-linejoin="round" stroke-miterlimit="10" x1="309.7" y1="17.6" x2="309.9" y2="17.8"/>
<line fill="none" stroke="#000000" stroke-width="0.25" stroke-linecap="round" stroke-linejoin="round" stroke-miterlimit="10" x1="309.7" y1="17.6" x2="43.9" y2="216.7"/>
<line fill="none" stroke="#000000" stroke-width="0.2475" stroke-linecap="round" stroke-linejoin="round" stroke-miterlimit="10" x1="59.3" y1="216.4" x2="59.4" y2="216.7"/>
<line fill="none" stroke="#000000" stroke-width="0.2475" stroke-linecap="round" stroke-linejoin="round" stroke-miterlimit="10" x1="54.5" y1="208.9" x2="54.7" y2="209.1"/>
<polyline stroke="#000000" stroke-width="0.2475" stroke-linecap="round" stroke-linejoin="round" stroke-miterlimit="10" points="
	54.5,208.9 64.6,216.9 61.1,219.4 54.5,208.9 "/>
<line fill="none" stroke="#000000" stroke-width="0.2475" stroke-linecap="round" stroke-linejoin="round" stroke-miterlimit="10" x1="59.8" y1="217.3" x2="60" y2="217.5"/>
<line fill="none" stroke="#000000" stroke-width="0.2475" stroke-linecap="round" stroke-linejoin="round" stroke-miterlimit="10" x1="60.5" y1="213.7" x2="60.7" y2="213.8"/>
<line fill="none" stroke="#000000" stroke-width="0.2475" stroke-linecap="round" stroke-linejoin="round" stroke-miterlimit="10" x1="63" y1="215.7" x2="63.1" y2="215.8"/>
<line fill="none" stroke="#000000" stroke-width="0.2475" stroke-linecap="round" stroke-linejoin="round" stroke-miterlimit="10" x1="5.2" y1="208.9" x2="5.4" y2="209.1"/>
<line fill="none" stroke="#000000" stroke-width="0.255" stroke-linecap="round" stroke-linejoin="round" stroke-miterlimit="10" x1="5.2" y1="208.9" x2="508.9" y2="209.1"/>
<line fill="none" stroke="#000000" stroke-width="0.2475" stroke-linecap="round" stroke-linejoin="round" stroke-miterlimit="10" x1="117.5" y1="174.5" x2="117.7" y2="174.7"/>
<line fill="none" stroke="#000000" stroke-width="0.25" stroke-linecap="round" stroke-linejoin="round" stroke-miterlimit="10" x1="117.5" y1="174.5" x2="265.6" y2="440"/>
<polyline fill="none" stroke="#000000" stroke-width="0.2475" stroke-linecap="round" stroke-linejoin="round" stroke-miterlimit="10" points="
	268.1,340.4 262.8,340.4 257.5,340.7 252.3,341.1 247,341.8 241.9,342.6 236.8,343.6 231.7,344.9 226.6,346.4 221.7,348 
	216.9,349.9 212.2,351.9 207.5,354.2 203,356.6 198.6,359.2 194.4,362 194.4,362.1 203,356.7 "/>
<line fill="none" stroke="#000000" stroke-width="0.2475" stroke-linecap="round" stroke-linejoin="round" stroke-miterlimit="10" x1="194.4" y1="362.1" x2="194.6" y2="362.2"/>
<polyline stroke="#000000" stroke-width="0.2475" stroke-linecap="round" stroke-linejoin="round" stroke-miterlimit="10" points="
	187,322.1 185.3,319.3 195.7,316.2 187,322.1 "/>
<polyline stroke="#000000" stroke-width="0.2475" stroke-linecap="round" stroke-linejoin="round" stroke-miterlimit="10" points="
	205.9,310.4 196.5,315.7 207.4,313.3 205.9,310.4 "/>
<polyline fill="none" stroke="#000000" stroke-width="0.2475" stroke-linecap="round" stroke-linejoin="round" stroke-miterlimit="10" points="
	222.8,307.1 216.8,308.7 210.7,310.5 204.9,312.5 199.1,314.7 193.4,317.1 187.8,319.7 182.4,322.5 177.1,325.4 171.9,328.6 
	166.9,331.9 166.8,332 166.8,332 "/>
<polyline stroke="#000000" stroke-width="0.2475" stroke-linecap="round" stroke-linejoin="round" stroke-miterlimit="10" points="
	146.8,294.7 139.4,301.7 149,297.2 146.8,294.7 "/>
<line fill="none" stroke="#000000" stroke-width="0.2475" stroke-linecap="round" stroke-linejoin="round" stroke-miterlimit="10" x1="254.9" y1="300.4" x2="255" y2="300.5"/>
<polyline stroke="#000000" stroke-width="0.2475" stroke-linecap="round" stroke-linejoin="round" stroke-miterlimit="10" points="
	254.9,300.4 265.6,302 254.9,303.4 254.9,300.4 "/>
<line fill="none" stroke="#000000" stroke-width="0.2475" stroke-linecap="round" stroke-linejoin="round" stroke-miterlimit="10" x1="254.9" y1="301.1" x2="255" y2="301.3"/>
<line fill="none" stroke="#000000" stroke-width="0.2475" stroke-linecap="round" stroke-linejoin="round" stroke-miterlimit="10" x1="265.6" y1="263.6" x2="265.9" y2="263.8"/>
<polyline stroke="#000000" stroke-width="0.2475" stroke-linecap="round" stroke-linejoin="round" stroke-miterlimit="10" points="
	265.6,263.6 276.5,265.1 276.5,261.9 265.6,263.6 "/>
<line fill="none" stroke="#000000" stroke-width="0.2475" stroke-linecap="round" stroke-linejoin="round" stroke-miterlimit="10" x1="266.6" y1="263.4" x2="266.8" y2="263.6"/>
<line fill="none" stroke="#000000" stroke-width="0.2475" stroke-linecap="round" stroke-linejoin="round" stroke-miterlimit="10" x1="301.5" y1="266.4" x2="308.5" y2="267.6"/>
<polyline fill="none" stroke="#000000" stroke-width="0.2475" stroke-linecap="round" stroke-linejoin="round" stroke-miterlimit="10" points="
	301.5,266.4 294.6,265.4 287.6,264.7 280.6,264.1 273.5,263.8 266.4,263.6 259.4,263.7 252.4,264 245.3,264.5 238.3,265.2 
	231.3,266.1 224.5,267.2 217.6,268.6 "/>
<polyline fill="none" stroke="#000000" stroke-width="0.2475" stroke-linecap="round" stroke-linejoin="round" stroke-miterlimit="10" points="
	183.5,278.7 176.8,281.4 170.2,284.3 163.8,287.4 157.4,290.7 151.2,294.2 145.1,297.9 139.3,301.8 "/>
<line fill="none" stroke="#000000" stroke-width="0.2475" stroke-linecap="round" stroke-linejoin="round" stroke-miterlimit="10" x1="124.8" y1="187.5" x2="125" y2="187.8"/>
<line fill="none" stroke="#000000" stroke-width="0.2475" stroke-linecap="round" stroke-linejoin="round" stroke-miterlimit="10" x1="124.8" y1="187.5" x2="125" y2="187.8"/>
<line fill="none" stroke="#000000" stroke-width="0.2475" stroke-linecap="round" stroke-linejoin="round" stroke-miterlimit="10" x1="384.5" y1="294.8" x2="384.7" y2="295"/>
<polyline stroke="#000000" stroke-width="0.2475" stroke-linecap="round" stroke-linejoin="round" stroke-miterlimit="10" points="
	384.5,294.8 392,301.8 382.3,297.3 384.5,294.8 "/>
<line fill="none" stroke="#000000" stroke-width="0.2475" stroke-linecap="round" stroke-linejoin="round" stroke-miterlimit="10" x1="265.6" y1="167.6" x2="265.9" y2="112.6"/>
<polyline stroke="#000000" stroke-width="0.2475" stroke-linecap="round" stroke-linejoin="round" stroke-miterlimit="10" points="
	265.6,86.7 265.6,51.6 263.4,63.4 267.8,63.4 265.6,51.6 "/>
<polyline fill="none" stroke="#000000" stroke-width="0.2475" stroke-linecap="round" stroke-linejoin="round" stroke-miterlimit="10" points="
	303.9,52.6 303.6,55.1 303.2,57.5 302.5,59.9 301.7,62.3 "/>
<line fill="none" stroke="#000000" stroke-width="0.2475" stroke-linecap="round" stroke-linejoin="round" stroke-miterlimit="10" x1="294.7" y1="72.4" x2="294.9" y2="72.6"/>
<polyline stroke="#000000" stroke-width="0.2475" stroke-linecap="round" stroke-linejoin="round" stroke-miterlimit="10" points="
	295.1,71.8 300,60.6 304,62.6 295.1,71.8 "/>
<polyline stroke="#000000" stroke-width="0.2475" stroke-linecap="round" stroke-linejoin="round" stroke-miterlimit="10" points="
	304,38.5 295.1,29.5 300,40.5 304,38.5 "/>
<polyline fill="none" stroke="#000000" stroke-width="0.2475" stroke-linecap="round" stroke-linejoin="round" stroke-miterlimit="10" points="
	303.3,44.7 302.6,41.9 301.7,39.1 "/>
<line fill="none" stroke="#000000" stroke-width="0.2475" stroke-linecap="round" stroke-linejoin="round" stroke-miterlimit="10" x1="303.3" y1="44.7" x2="303.9" y2="47.6"/>
<line fill="none" stroke="#000000" stroke-width="0.2475" stroke-linecap="round" stroke-linejoin="round" stroke-miterlimit="10" x1="265.6" y1="145" x2="265.9" y2="145.2"/>
<polyline stroke="#000000" stroke-width="0.2475" stroke-linecap="round" stroke-linejoin="round" stroke-miterlimit="10" points="
	265.8,145.9 263.5,157.9 268,157.9 265.8,145.9 "/>
<polyline stroke="#000000" stroke-width="0.2475" stroke-linecap="round" stroke-linejoin="round" stroke-miterlimit="10" points="
	263.5,132.7 267.9,132.7 265.7,144.4 263.5,132.7 "/>
<polyline stroke="#000000" stroke-width="0.2475" stroke-linecap="round" stroke-linejoin="round" stroke-miterlimit="10" points="
	263.7,197 268.1,197 265.9,208.7 263.7,197 264.2,197 264.2,199.6 "/>
<line fill="none" stroke="#000000" stroke-width="0.2475" stroke-linecap="round" stroke-linejoin="round" stroke-miterlimit="10" x1="217.9" y1="138.6" x2="218.2" y2="138.7"/>
<polyline fill="none" stroke="#000000" stroke-width="0.2475" stroke-linecap="round" stroke-linejoin="round" stroke-miterlimit="10" points="
	217.9,138.6 224,138.7 230,139 236,139.5 242.1,140.2 248,141.1 253.9,142.2 259.8,143.6 265.6,145.2 "/>
<polyline fill="none" stroke="#000000" stroke-width="0.2475" stroke-linecap="round" stroke-linejoin="round" stroke-miterlimit="10" points="
	163,148 157.5,150.2 152.1,152.5 146.8,154.9 141.6,157.6 136.5,160.4 131.7,163.4 126.8,166.6 122.3,169.9 117.8,173.4 "/>
<line fill="none" stroke="#000000" stroke-width="0.2475" stroke-linecap="round" stroke-linejoin="round" stroke-miterlimit="10" x1="118" y1="175.4" x2="118.2" y2="175.6"/>
<polyline stroke="#000000" stroke-width="0.2475" stroke-linecap="round" stroke-linejoin="round" stroke-miterlimit="10" points="
	118,175.4 107.8,179.1 109.8,181.8 118,175.4 93.2,188.9 "/>
<polyline stroke="#000000" stroke-width="0.2475" stroke-linecap="round" stroke-linejoin="round" stroke-miterlimit="10" points="
	85.2,192.8 56.7,208.3 56.8,208.3 65.1,202 66.9,204.7 56.8,208.3 "/>
<line fill="none" stroke="#000000" stroke-width="0.2475" stroke-linecap="round" stroke-linejoin="round" stroke-miterlimit="10" x1="55.6" y1="209.1" x2="55.7" y2="209.2"/>
<polyline fill="none" stroke="#000000" stroke-width="0.2475" stroke-linecap="round" stroke-linejoin="round" stroke-miterlimit="10" points="
	55.6,209.1 68.1,209.1 68.1,209.6 59.4,209.6 63.2,210.1 68.1,210.1 "/>
<polyline stroke="#000000" stroke-width="0.2475" stroke-linecap="round" stroke-linejoin="round" stroke-miterlimit="10" points="
	68.1,210.9 54.5,208.9 68.1,206.9 68.1,210.9 "/>
<line fill="none" stroke="#000000" stroke-width="0.2475" stroke-linecap="round" stroke-linejoin="round" stroke-miterlimit="10" x1="60.9" y1="208" x2="61.1" y2="208.1"/>
<line fill="none" stroke="#000000" stroke-width="0.2475" stroke-linecap="round" stroke-linejoin="round" stroke-miterlimit="10" x1="109.4" y1="181.3" x2="109.6" y2="181.5"/>
<line fill="none" stroke="#000000" stroke-width="0.2475" stroke-linecap="round" stroke-linejoin="round" stroke-miterlimit="10" x1="108" y1="179.1" x2="108.1" y2="179.2"/>
<polyline stroke="#000000" stroke-width="0.2475" stroke-linecap="round" stroke-linejoin="round" stroke-miterlimit="10" points="
	154,153.6 163,148.1 152.4,150.8 154,153.6 "/>
<line fill="none" stroke="#000000" stroke-width="0.2475" stroke-linecap="round" stroke-linejoin="round" stroke-miterlimit="10" x1="153.5" y1="152.8" x2="153.6" y2="153"/>
<line fill="none" stroke="#000000" stroke-width="0.2475" stroke-linecap="round" stroke-linejoin="round" stroke-miterlimit="10" x1="153.3" y1="150.8" x2="153.5" y2="150.9"/>
<polyline stroke="#000000" stroke-width="0.2475" stroke-linecap="round" stroke-linejoin="round" stroke-miterlimit="10" points="
	217.9,138.6 228.7,137.4 228.6,140.5 217.9,138.6 "/>
<line fill="none" stroke="#000000" stroke-width="0.2475" stroke-linecap="round" stroke-linejoin="round" stroke-miterlimit="10" x1="221.6" y1="138.2" x2="221.8" y2="138.3"/>
<line fill="none" stroke="#000000" stroke-width="0.25" stroke-linecap="round" stroke-linejoin="round" stroke-miterlimit="10" x1="265.6" y1="440" x2="54.5" y2="208.9"/>
<line fill="none" stroke="#000000" stroke-width="0.255" stroke-linecap="round" stroke-linejoin="round" stroke-miterlimit="10" x1="458.3" y1="197.5" x2="458.5" y2="197.6"/>
<polyline fill="none" stroke="#000000" stroke-width="0.255" stroke-linecap="round" stroke-linejoin="round" stroke-miterlimit="10" points="
	458.3,197.5 460.3,197.5 461.2,198 459.3,198 460.1,198.6 462.1,198.6 463,199.1 461,199.1 461.9,199.6 463.9,199.6 464.9,200.2 
	462.8,200.2 463.7,200.7 465.7,200.7 "/>
<line fill="none" stroke="#000000" stroke-width="0.255" stroke-linecap="round" stroke-linejoin="round" stroke-miterlimit="10" x1="466.2" y1="201.2" x2="466.4" y2="201.3"/>
<polyline stroke="#000000" stroke-width="0.255" stroke-linecap="round" stroke-linejoin="round" stroke-miterlimit="10" points="
	466.3,201.2 458.8,196.6 458.2,197.4 465.7,202 466.3,201.2 465.7,202 473,206.8 473.7,206 473,206.8 480.2,211.7 480.9,211 
	480.2,211.7 487.2,216.9 488,216.2 487.2,216.9 494.2,222.1 494.9,221.4 488,216.2 480.9,211 473.7,206 466.3,201.2 466.2,201.3 
	464.6,201.3 "/>
<line fill="none" stroke="#000000" stroke-width="0.255" stroke-linecap="round" stroke-linejoin="round" stroke-miterlimit="10" x1="465.7" y1="201.8" x2="465.8" y2="202.1"/>
<line fill="none" stroke="#000000" stroke-width="0.255" stroke-linecap="round" stroke-linejoin="round" stroke-miterlimit="10" x1="473.1" y1="206.9" x2="473.2" y2="207"/>
<line fill="none" stroke="#000000" stroke-width="0.255" stroke-linecap="round" stroke-linejoin="round" stroke-miterlimit="10" x1="487.5" y1="216.7" x2="487.7" y2="216.7"/>
<line fill="none" stroke="#000000" stroke-width="0.255" stroke-linecap="round" stroke-linejoin="round" stroke-miterlimit="10" x1="487.5" y1="216.7" x2="488.4" y2="216.7"/>
<line fill="none" stroke="#000000" stroke-width="0.255" stroke-linecap="round" stroke-linejoin="round" stroke-miterlimit="10" x1="489.3" y1="217.2" x2="489.4" y2="217.3"/>
<line fill="none" stroke="#000000" stroke-width="0.255" stroke-linecap="round" stroke-linejoin="round" stroke-miterlimit="10" x1="489.3" y1="217.2" x2="489.4" y2="217.3"/>
<line fill="none" stroke="#000000" stroke-width="0.255" stroke-linecap="round" stroke-linejoin="round" stroke-miterlimit="10" x1="476.9" y1="208.8" x2="477.1" y2="209.1"/>
<line fill="none" stroke="#000000" stroke-width="0.25" stroke-linecap="round" stroke-linejoin="round" stroke-miterlimit="10" x1="476.9" y1="208.8" x2="265.6" y2="440"/>
<line fill="none" stroke="#000000" stroke-width="0.2475" stroke-linecap="round" stroke-linejoin="round" stroke-miterlimit="10" x1="410.4" y1="173.6" x2="410.6" y2="173.8"/>
<polyline fill="none" stroke="#000000" stroke-width="0.2475" stroke-linecap="round" stroke-linejoin="round" stroke-miterlimit="10" points="
	410.4,173.6 412.9,173.6 414.2,174.1 411.7,174.1 413,174.7 415.4,174.7 416.8,175.2 414.2,175.2 415.5,175.7 418.1,175.7 "/>
<line fill="none" stroke="#000000" stroke-width="0.2475" stroke-linecap="round" stroke-linejoin="round" stroke-miterlimit="10" x1="419" y1="176.2" x2="419.2" y2="176.4"/>
<polyline stroke="#000000" stroke-width="0.255" stroke-linecap="round" stroke-linejoin="round" stroke-miterlimit="10" points="
	419,176.2 410.6,172.7 410.2,173.6 418.5,177.1 419,176.2 418.5,177.1 426.6,180.8 427.1,179.9 426.6,180.8 434.7,184.7 
	435.2,183.8 434.7,184.7 442.6,188.8 443.1,187.9 442.6,188.8 450.4,193 451,192.2 450.4,193 458.1,197.5 458.7,196.7 451,192.2 
	443.1,187.9 435.2,183.8 427.1,179.9 419,176.2 418.8,176.4 416.8,176.4 "/>
<line fill="none" stroke="#000000" stroke-width="0.2475" stroke-linecap="round" stroke-linejoin="round" stroke-miterlimit="10" x1="418.7" y1="176.9" x2="418.9" y2="177.1"/>
<polyline fill="none" stroke="#000000" stroke-width="0.255" stroke-linecap="round" stroke-linejoin="round" stroke-miterlimit="10" points="
	418.7,176.9 420.6,176.9 421.8,177.4 419.4,177.4 420.6,178 423,178 424.2,178.5 421.8,178.5 423,179.1 425.3,179.1 426.5,179.6 
	424.1,179.6 425.3,180.2 427,180.2 "/>
<line fill="none" stroke="#000000" stroke-width="0.255" stroke-linecap="round" stroke-linejoin="round" stroke-miterlimit="10" x1="426.7" y1="180.8" x2="427" y2="181"/>
<line fill="none" stroke="#000000" stroke-width="0.255" stroke-linecap="round" stroke-linejoin="round" stroke-miterlimit="10" x1="443.8" y1="189.4" x2="444" y2="189.6"/>
<line fill="none" stroke="#000000" stroke-width="0.255" stroke-linecap="round" stroke-linejoin="round" stroke-miterlimit="10" x1="442.9" y1="188.8" x2="443.1" y2="189.1"/>
<line fill="none" stroke="#000000" stroke-width="0.2475" stroke-linecap="round" stroke-linejoin="round" stroke-miterlimit="10" x1="411.5" y1="173" x2="411.7" y2="173.2"/>
<polyline fill="none" stroke="#000000" stroke-width="0.2475" stroke-linecap="round" stroke-linejoin="round" stroke-miterlimit="10" points="
	411.5,173 410.4,173 408.9,173 "/>
<line fill="none" stroke="#000000" stroke-width="0.2475" stroke-linecap="round" stroke-linejoin="round" stroke-miterlimit="10" x1="408.9" y1="171.9" x2="409.1" y2="172.1"/>
<polyline stroke="#000000" stroke-width="0.2475" stroke-linecap="round" stroke-linejoin="round" stroke-miterlimit="10" points="
	408.8,172 406.1,172 407.5,172.6 410.2,172.6 410.6,172.7 402.2,169.4 401.7,170.2 410.2,173.6 410.6,172.7 "/>
<line fill="none" stroke="#000000" stroke-width="0.2475" stroke-linecap="round" stroke-linejoin="round" stroke-miterlimit="10" x1="408.9" y1="171.9" x2="409.1" y2="172.1"/>
<polyline fill="none" stroke="#000000" stroke-width="0.2475" stroke-linecap="round" stroke-linejoin="round" stroke-miterlimit="10" points="
	408.9,171.9 407.5,171.4 404.9,171.4 403.5,170.8 406.1,170.8 404.7,170.3 402.1,170.3 401.8,170.2 402.3,169.3 393.7,166.2 
	393.3,167.1 401.8,170.2 "/>
<line fill="none" stroke="#000000" stroke-width="0.2475" stroke-linecap="round" stroke-linejoin="round" stroke-miterlimit="10" x1="402" y1="169.7" x2="402.2" y2="169.9"/>
<line fill="none" stroke="#000000" stroke-width="0.2475" stroke-linecap="round" stroke-linejoin="round" stroke-miterlimit="10" x1="402" y1="169.7" x2="402.2" y2="169.9"/>
<line fill="none" stroke="#000000" stroke-width="0.2475" stroke-linecap="round" stroke-linejoin="round" stroke-miterlimit="10" x1="402" y1="169.7" x2="403.3" y2="169.9"/>
<line fill="none" stroke="#000000" stroke-width="0.2475" stroke-linecap="round" stroke-linejoin="round" stroke-miterlimit="10" x1="402" y1="169.2" x2="402.2" y2="169.4"/>
<polyline stroke="#000000" stroke-width="0.2475" stroke-linecap="round" stroke-linejoin="round" stroke-miterlimit="10" points="
	402,169.2 399.1,169.2 397.6,168.6 400.4,168.6 398.9,168.1 396.1,168.1 394.7,167.6 397.5,167.6 396,167 393.3,167 393.3,167.1 
	393.8,166.2 385.1,163.3 384.7,164.2 393.3,167.1 "/>
<line fill="none" stroke="#000000" stroke-width="0.2475" stroke-linecap="round" stroke-linejoin="round" stroke-miterlimit="10" x1="393.7" y1="166.6" x2="393.9" y2="166.8"/>
<polyline stroke="#000000" stroke-width="0.2475" stroke-linecap="round" stroke-linejoin="round" stroke-miterlimit="10" points="
	393.7,166.6 391.6,166.6 390,166.1 393.1,166.1 391.4,165.5 388.3,165.5 386.7,164.9 389.8,164.9 388.3,164.4 385.1,164.4 
	384.8,164.3 385.2,163.3 376.4,160.6 376.1,161.5 384.8,164.3 "/>
<line fill="none" stroke="#000000" stroke-width="0.2475" stroke-linecap="round" stroke-linejoin="round" stroke-miterlimit="10" x1="384.9" y1="163.8" x2="385" y2="164"/>
<line fill="none" stroke="#000000" stroke-width="0.2475" stroke-linecap="round" stroke-linejoin="round" stroke-miterlimit="10" x1="384.9" y1="163.8" x2="386.5" y2="164"/>
<line fill="none" stroke="#000000" stroke-width="0.2475" stroke-linecap="round" stroke-linejoin="round" stroke-miterlimit="10" x1="384.9" y1="163.8" x2="385" y2="164"/>
<polyline stroke="#000000" stroke-width="0.2475" stroke-linecap="round" stroke-linejoin="round" stroke-miterlimit="10" points="
	385,163.8 383.3,163.8 381.6,163.3 385,163.3 383.2,162.8 379.8,162.8 378.2,162.2 381.5,162.2 379.8,161.7 376.4,161.7 
	376.1,161.6 376.5,160.7 367.7,158.2 367.4,159.1 376.1,161.6 376.2,161.1 378.1,161.1 "/>
<line fill="none" stroke="#000000" stroke-width="0.2475" stroke-linecap="round" stroke-linejoin="round" stroke-miterlimit="10" x1="376.2" y1="161.1" x2="376.4" y2="161.3"/>
<polyline stroke="#000000" stroke-width="0.2475" stroke-linecap="round" stroke-linejoin="round" stroke-miterlimit="10" points="
	376.2,161.1 374.5,161.1 372.5,160.5 376.2,160.5 374.3,160 370.6,160 368.6,159.4 372.5,159.4 370.5,158.9 367.3,158.9 367.3,159 
	367.6,158 358.7,155.7 358.4,156.7 367.3,159 "/>
<line fill="none" stroke="#000000" stroke-width="0.2475" stroke-linecap="round" stroke-linejoin="round" stroke-miterlimit="10" x1="367.5" y1="158.4" x2="367.8" y2="158.5"/>
<line fill="none" stroke="#000000" stroke-width="0.2475" stroke-linecap="round" stroke-linejoin="round" stroke-miterlimit="10" x1="364.5" y1="157.3" x2="364.7" y2="157.4"/>
<polyline fill="none" stroke="#000000" stroke-width="0.2475" stroke-linecap="round" stroke-linejoin="round" stroke-miterlimit="10" points="
	364.4,157.3 360.4,157.3 362.4,157.8 366.5,157.8 "/>
<line fill="none" stroke="#000000" stroke-width="0.2475" stroke-linecap="round" stroke-linejoin="round" stroke-miterlimit="10" x1="364.5" y1="157.3" x2="364.7" y2="157.4"/>
<polyline fill="none" stroke="#000000" stroke-width="0.2475" stroke-linecap="round" stroke-linejoin="round" stroke-miterlimit="10" points="
	364.5,157.3 362.4,156.7 358.6,156.7 358.7,156.2 356,156.2 "/>
<line fill="none" stroke="#000000" stroke-width="0.2475" stroke-linecap="round" stroke-linejoin="round" stroke-miterlimit="10" x1="355.6" y1="155" x2="355.9" y2="155.2"/>
<polyline fill="none" stroke="#000000" stroke-width="0.2475" stroke-linecap="round" stroke-linejoin="round" stroke-miterlimit="10" points="
	355.7,155 351.4,155 353.7,155.6 358,155.6 "/>
<line fill="none" stroke="#000000" stroke-width="0.2475" stroke-linecap="round" stroke-linejoin="round" stroke-miterlimit="10" x1="358.8" y1="155.7" x2="358.9" y2="156"/>
<polyline stroke="#000000" stroke-width="0.2475" stroke-linecap="round" stroke-linejoin="round" stroke-miterlimit="10" points="
	358.8,155.8 349.8,153.8 349.6,154.7 358.5,156.8 358.8,155.8 358.6,156.2 360.2,156.2 "/>
<line fill="none" stroke="#000000" stroke-width="0.2475" stroke-linecap="round" stroke-linejoin="round" stroke-miterlimit="10" x1="355.6" y1="155" x2="355.9" y2="155.2"/>
<polyline stroke="#000000" stroke-width="0.2475" stroke-linecap="round" stroke-linejoin="round" stroke-miterlimit="10" points="
	355.6,155 353.3,154.5 349.6,154.5 349.6,154.6 349.8,153.7 340.9,151.7 340.6,152.7 349.6,154.6 "/>
<line fill="none" stroke="#000000" stroke-width="0.2475" stroke-linecap="round" stroke-linejoin="round" stroke-miterlimit="10" x1="349.7" y1="153.9" x2="350" y2="154.1"/>
<line fill="none" stroke="#000000" stroke-width="0.2475" stroke-linecap="round" stroke-linejoin="round" stroke-miterlimit="10" x1="349.7" y1="153.9" x2="346.5" y2="154.1"/>
<line fill="none" stroke="#000000" stroke-width="0.2475" stroke-linecap="round" stroke-linejoin="round" stroke-miterlimit="10" x1="345.9" y1="152.8" x2="346.1" y2="153"/>
<polyline fill="none" stroke="#000000" stroke-width="0.2475" stroke-linecap="round" stroke-linejoin="round" stroke-miterlimit="10" points="
	345.9,152.8 341.1,152.8 343.7,153.3 348.5,153.3 "/>
<line fill="none" stroke="#000000" stroke-width="0.2475" stroke-linecap="round" stroke-linejoin="round" stroke-miterlimit="10" x1="345.9" y1="152.8" x2="346.1" y2="153"/>
<polyline fill="none" stroke="#000000" stroke-width="0.2475" stroke-linecap="round" stroke-linejoin="round" stroke-miterlimit="10" points="
	345.9,152.8 343.4,152.3 340.8,152.3 338.4,152.3 "/>
<line fill="none" stroke="#000000" stroke-width="0.2475" stroke-linecap="round" stroke-linejoin="round" stroke-miterlimit="10" x1="337.8" y1="151.2" x2="338" y2="151.4"/>
<polyline stroke="#000000" stroke-width="0.2475" stroke-linecap="round" stroke-linejoin="round" stroke-miterlimit="10" points="
	337.8,151.3 332.4,151.3 335.3,151.8 341,151.8 340.8,152.4 340.7,152.8 341,151.8 331.8,150.3 331.6,151.2 340.7,152.8 "/>
<line fill="none" stroke="#000000" stroke-width="0.2475" stroke-linecap="round" stroke-linejoin="round" stroke-miterlimit="10" x1="337.8" y1="151.2" x2="338" y2="151.4"/>
<polyline stroke="#000000" stroke-width="0.2475" stroke-linecap="round" stroke-linejoin="round" stroke-miterlimit="10" points="
	337.8,151.2 334.8,150.7 331.7,150.7 329.2,150.7 325.7,150.2 331.8,150.2 322.8,148.8 322.5,149.7 331.6,151.1 331.8,150.2 "/>
<line fill="none" stroke="#000000" stroke-width="0.2475" stroke-linecap="round" stroke-linejoin="round" stroke-miterlimit="10" x1="328.4" y1="149.7" x2="328.7" y2="149.9"/>
<polyline fill="none" stroke="#000000" stroke-width="0.2475" stroke-linecap="round" stroke-linejoin="round" stroke-miterlimit="10" points="
	328.4,149.7 322.6,149.7 322.6,149.1 318.2,149.1 314.2,148.6 321.5,148.6 317.5,148 313.4,148 309.3,148 "/>
<line fill="none" stroke="#000000" stroke-width="0.2475" stroke-linecap="round" stroke-linejoin="round" stroke-miterlimit="10" x1="308.5" y1="146.9" x2="308.7" y2="147.1"/>
<polyline fill="none" stroke="#000000" stroke-width="0.2475" stroke-linecap="round" stroke-linejoin="round" stroke-miterlimit="10" points="
	308.5,146.9 304.4,146.9 298.2,146.9 "/>
<polyline stroke="#000000" stroke-width="0.2475" stroke-linecap="round" stroke-linejoin="round" stroke-miterlimit="10" points="
	295.2,146.6 304.3,147.4 304.5,146.4 304.3,147.4 313.5,148.4 313.6,147.4 313.5,148.4 322.6,149.7 322.8,148.7 313.6,147.4 
	313.5,148 "/>
<line fill="none" stroke="#000000" stroke-width="0.2475" stroke-linecap="round" stroke-linejoin="round" stroke-miterlimit="10" x1="313.6" y1="147.5" x2="313.8" y2="147.7"/>
<polyline stroke="#000000" stroke-width="0.2475" stroke-linecap="round" stroke-linejoin="round" stroke-miterlimit="10" points="
	313.6,147.5 304.5,146.5 295.3,145.7 295.2,146.7 295.3,145.7 286.1,145.1 286.1,146 295.2,146.7 295.2,146.4 303.2,146.4 "/>
<line fill="none" stroke="#000000" stroke-width="0.2475" stroke-linecap="round" stroke-linejoin="round" stroke-miterlimit="10" x1="304.4" y1="147.5" x2="313.6" y2="147.7"/>
<line fill="none" stroke="#000000" stroke-width="0.2475" stroke-linecap="round" stroke-linejoin="round" stroke-miterlimit="10" x1="322.8" y1="149.2" x2="323" y2="149.3"/>
<line fill="none" stroke="#000000" stroke-width="0.2475" stroke-linecap="round" stroke-linejoin="round" stroke-miterlimit="10" x1="322.8" y1="149.2" x2="325.2" y2="149.3"/>
<line fill="none" stroke="#000000" stroke-width="0.2475" stroke-linecap="round" stroke-linejoin="round" stroke-miterlimit="10" x1="295.2" y1="145.8" x2="295.4" y2="146"/>
<polyline stroke="#000000" stroke-width="0.2475" stroke-linecap="round" stroke-linejoin="round" stroke-miterlimit="10" points="
	295.2,145.8 286,145.8 286,146 286.1,145.1 276.9,144.7 276.9,145.7 286,146 "/>
<line fill="none" stroke="#000000" stroke-width="0.2475" stroke-linecap="round" stroke-linejoin="round" stroke-miterlimit="10" x1="286.1" y1="145.3" x2="286.2" y2="145.5"/>
<polyline fill="none" stroke="#000000" stroke-width="0.2475" stroke-linecap="round" stroke-linejoin="round" stroke-miterlimit="10" points="
	286.1,145.3 276.8,145.3 267.7,145.3 258.4,145.3 249.1,145.3 241.9,145.3 "/>
<line fill="none" stroke="#000000" stroke-width="0.2475" stroke-linecap="round" stroke-linejoin="round" stroke-miterlimit="10" x1="240" y1="145.5" x2="240.1" y2="145.7"/>
<polyline stroke="#000000" stroke-width="0.2475" stroke-linecap="round" stroke-linejoin="round" stroke-miterlimit="10" points="
	240,145.5 240.1,146.4 249.3,145.9 249.2,145 249.3,145.9 258.5,145.6 258.5,144.6 258.5,145.6 267.7,145.6 267.7,144.6 
	267.7,145.6 276.8,145.7 276.9,144.7 267.7,144.6 258.5,144.6 249.2,145 240,145.5 230.8,146.2 230.9,147.1 240.1,146.4 240,145.5 
	240,145.9 249.2,145.9 "/>
<line fill="none" stroke="#000000" stroke-width="0.2475" stroke-linecap="round" stroke-linejoin="round" stroke-miterlimit="10" x1="240" y1="145.8" x2="240.1" y2="146"/>
<line fill="none" stroke="#000000" stroke-width="0.2475" stroke-linecap="round" stroke-linejoin="round" stroke-miterlimit="10" x1="240" y1="145.8" x2="234.3" y2="146"/>
<line fill="none" stroke="#000000" stroke-width="0.2475" stroke-linecap="round" stroke-linejoin="round" stroke-miterlimit="10" x1="230.8" y1="146" x2="230.9" y2="146.2"/>
<polyline stroke="#000000" stroke-width="0.2475" stroke-linecap="round" stroke-linejoin="round" stroke-miterlimit="10" points="
	230.7,146 221.6,147 221.7,148 230.8,147.1 230.7,146 230.7,146.3 240,146.3 "/>
<line fill="none" stroke="#000000" stroke-width="0.2475" stroke-linecap="round" stroke-linejoin="round" stroke-miterlimit="10" x1="230.8" y1="146.9" x2="230.9" y2="147.1"/>
<line fill="none" stroke="#000000" stroke-width="0.2475" stroke-linecap="round" stroke-linejoin="round" stroke-miterlimit="10" x1="230.8" y1="146.9" x2="222.7" y2="147.1"/>
<line fill="none" stroke="#000000" stroke-width="0.2475" stroke-linecap="round" stroke-linejoin="round" stroke-miterlimit="10" x1="221.6" y1="146.9" x2="221.7" y2="147.1"/>
<polyline stroke="#000000" stroke-width="0.2475" stroke-linecap="round" stroke-linejoin="round" stroke-miterlimit="10" points="
	221.6,146.9 212.3,148.1 212.6,149.2 221.7,148 221.6,146.9 221.6,147.4 218,147.4 213.6,148 221.7,148 "/>
<line fill="none" stroke="#000000" stroke-width="0.2475" stroke-linecap="round" stroke-linejoin="round" stroke-miterlimit="10" x1="221.6" y1="147.5" x2="221.7" y2="147.7"/>
<polyline stroke="#000000" stroke-width="0.2475" stroke-linecap="round" stroke-linejoin="round" stroke-miterlimit="10" points="
	217.4,148.6 212.5,148.6 209.8,148.6 206.1,149.1 212.6,149.1 212.6,149.1 212.4,148.2 203.2,149.5 203.4,150.4 212.6,149.1 "/>
<line fill="none" stroke="#000000" stroke-width="0.2475" stroke-linecap="round" stroke-linejoin="round" stroke-miterlimit="10" x1="203.4" y1="150.3" x2="203.6" y2="150.4"/>
<line fill="none" stroke="#000000" stroke-width="0.2475" stroke-linecap="round" stroke-linejoin="round" stroke-miterlimit="10" x1="203.4" y1="150.3" x2="199.5" y2="150.4"/>
<polyline stroke="#000000" stroke-width="0.2475" stroke-linecap="round" stroke-linejoin="round" stroke-miterlimit="10" points="
	199,151.2 194.2,151.2 194.2,151.1 194.5,152 203.6,150.5 203.4,149.5 194.2,151.1 185.2,152.8 185.4,153.8 194.5,152 194.2,151.1 
	"/>
<line fill="none" stroke="#000000" stroke-width="0.2475" stroke-linecap="round" stroke-linejoin="round" stroke-miterlimit="10" x1="194.4" y1="151.7" x2="194.5" y2="151.9"/>
<line fill="none" stroke="#000000" stroke-width="0.2475" stroke-linecap="round" stroke-linejoin="round" stroke-miterlimit="10" x1="194.4" y1="151.7" x2="190.5" y2="151.9"/>
<polyline fill="none" stroke="#000000" stroke-width="0.2475" stroke-linecap="round" stroke-linejoin="round" stroke-miterlimit="10" points="
	190.2,152.8 187.4,153.3 185.4,153.3 182.6,153.3 "/>
<polyline stroke="#000000" stroke-width="0.2475" stroke-linecap="round" stroke-linejoin="round" stroke-miterlimit="10" points="
	182.4,154.5 180,155 176.3,155 176.3,154.8 176.6,155.8 185.6,153.8 185.3,152.8 176.3,154.8 167.3,157 167.7,157.9 176.6,155.8 
	176.3,154.8 "/>
<line fill="none" stroke="#000000" stroke-width="0.2475" stroke-linecap="round" stroke-linejoin="round" stroke-miterlimit="10" x1="176.4" y1="155.6" x2="176.6" y2="155.7"/>
<line fill="none" stroke="#000000" stroke-width="0.2475" stroke-linecap="round" stroke-linejoin="round" stroke-miterlimit="10" x1="176.4" y1="155.6" x2="173.2" y2="155.7"/>
<polyline stroke="#000000" stroke-width="0.2475" stroke-linecap="round" stroke-linejoin="round" stroke-miterlimit="10" points="
	173.1,156.7 170.8,157.2 167.4,157.2 167.4,157 158.6,159.4 159,160.3 167.8,158 167.4,157 "/>
<line fill="none" stroke="#000000" stroke-width="0.2475" stroke-linecap="round" stroke-linejoin="round" stroke-miterlimit="10" x1="167.5" y1="157.8" x2="167.8" y2="157.9"/>
<line fill="none" stroke="#000000" stroke-width="0.2475" stroke-linecap="round" stroke-linejoin="round" stroke-miterlimit="10" x1="167.5" y1="157.8" x2="164.8" y2="157.9"/>
<polyline stroke="#000000" stroke-width="0.2475" stroke-linecap="round" stroke-linejoin="round" stroke-miterlimit="10" points="
	164.5,158.9 162.5,159.4 158.8,159.4 158.6,159.5 150,162.2 150.3,163.1 159,160.4 158.6,159.5 "/>
<line fill="none" stroke="#000000" stroke-width="0.2475" stroke-linecap="round" stroke-linejoin="round" stroke-miterlimit="10" x1="158.7" y1="160" x2="158.9" y2="160.2"/>
<line fill="none" stroke="#000000" stroke-width="0.2475" stroke-linecap="round" stroke-linejoin="round" stroke-miterlimit="10" x1="160.8" y1="158.9" x2="161" y2="159"/>
<line fill="none" stroke="#000000" stroke-width="0.2475" stroke-linecap="round" stroke-linejoin="round" stroke-miterlimit="10" x1="162.7" y1="158.4" x2="163" y2="158.5"/>
<line fill="none" stroke="#000000" stroke-width="0.2475" stroke-linecap="round" stroke-linejoin="round" stroke-miterlimit="10" x1="162.7" y1="158.4" x2="160.8" y2="158.9"/>
<line fill="none" stroke="#000000" stroke-width="0.2475" stroke-linecap="round" stroke-linejoin="round" stroke-miterlimit="10" x1="162.7" y1="158.4" x2="163" y2="158.5"/>
<line fill="none" stroke="#000000" stroke-width="0.2475" stroke-linecap="round" stroke-linejoin="round" stroke-miterlimit="10" x1="169.1" y1="156.7" x2="169.2" y2="156.8"/>
<line fill="none" stroke="#000000" stroke-width="0.2475" stroke-linecap="round" stroke-linejoin="round" stroke-miterlimit="10" x1="171" y1="156.2" x2="171.3" y2="156.3"/>
<line fill="none" stroke="#000000" stroke-width="0.2475" stroke-linecap="round" stroke-linejoin="round" stroke-miterlimit="10" x1="171" y1="156.2" x2="169.1" y2="156.7"/>
<line fill="none" stroke="#000000" stroke-width="0.2475" stroke-linecap="round" stroke-linejoin="round" stroke-miterlimit="10" x1="171" y1="156.2" x2="171.3" y2="156.3"/>
<line fill="none" stroke="#000000" stroke-width="0.2475" stroke-linecap="round" stroke-linejoin="round" stroke-miterlimit="10" x1="180.1" y1="153.9" x2="180.2" y2="154.1"/>
<line fill="none" stroke="#000000" stroke-width="0.2475" stroke-linecap="round" stroke-linejoin="round" stroke-miterlimit="10" x1="185.2" y1="152.8" x2="185.4" y2="153"/>
<line fill="none" stroke="#000000" stroke-width="0.2475" stroke-linecap="round" stroke-linejoin="round" stroke-miterlimit="10" x1="187.8" y1="152.3" x2="188" y2="152.5"/>
<line fill="none" stroke="#000000" stroke-width="0.2475" stroke-linecap="round" stroke-linejoin="round" stroke-miterlimit="10" x1="196.4" y1="150.8" x2="196.6" y2="150.9"/>
<line fill="none" stroke="#000000" stroke-width="0.2475" stroke-linecap="round" stroke-linejoin="round" stroke-miterlimit="10" x1="158.7" y1="160" x2="158.9" y2="160.2"/>
<polyline stroke="#000000" stroke-width="0.2475" stroke-linecap="round" stroke-linejoin="round" stroke-miterlimit="10" points="
	158.7,160 156.8,160 155,160.5 158.5,160.5 156.7,161.1 153.3,161.1 151.4,161.6 154.9,161.6 153.1,162.2 149.8,162.2 149.8,162.1 
	141.1,164.9 141.6,165.9 150.2,163 149.8,162.1 "/>
<line fill="none" stroke="#000000" stroke-width="0.2475" stroke-linecap="round" stroke-linejoin="round" stroke-miterlimit="10" x1="150.1" y1="162.7" x2="150.3" y2="163"/>
<line fill="none" stroke="#000000" stroke-width="0.2475" stroke-linecap="round" stroke-linejoin="round" stroke-miterlimit="10" x1="150.1" y1="162.7" x2="147.9" y2="163"/>
<line fill="none" stroke="#000000" stroke-width="0.2475" stroke-linecap="round" stroke-linejoin="round" stroke-miterlimit="10" x1="132.7" y1="168.1" x2="132.8" y2="168.2"/>
<polyline stroke="#000000" stroke-width="0.2475" stroke-linecap="round" stroke-linejoin="round" stroke-miterlimit="10" points="
	132.7,168 133.1,168.9 141.7,165.9 141.2,164.9 132.7,168 124.2,171.2 124.7,172.1 133.1,168.9 132.7,168 132.8,168.2 135.2,168.2 
	"/>
<line fill="none" stroke="#000000" stroke-width="0.2475" stroke-linecap="round" stroke-linejoin="round" stroke-miterlimit="10" x1="133" y1="168.6" x2="133.2" y2="168.8"/>
<line fill="none" stroke="#000000" stroke-width="0.2475" stroke-linecap="round" stroke-linejoin="round" stroke-miterlimit="10" x1="133" y1="168.6" x2="130.8" y2="168.8"/>
<line fill="none" stroke="#000000" stroke-width="0.2475" stroke-linecap="round" stroke-linejoin="round" stroke-miterlimit="10" x1="130.6" y1="169.7" x2="130.8" y2="169.9"/>
<polyline stroke="#000000" stroke-width="0.2475" stroke-linecap="round" stroke-linejoin="round" stroke-miterlimit="10" points="
	130.6,169.7 129.2,170.3 126.4,170.3 125,170.8 127.8,170.8 126.4,171.4 124.3,171.4 124.1,171.1 115.8,174.5 116.3,175.4 
	124.7,172 124.1,171.1 "/>
<line fill="none" stroke="#000000" stroke-width="0.2475" stroke-linecap="round" stroke-linejoin="round" stroke-miterlimit="10" x1="124.6" y1="171.9" x2="124.7" y2="172.1"/>
<line fill="none" stroke="#000000" stroke-width="0.2475" stroke-linecap="round" stroke-linejoin="round" stroke-miterlimit="10" x1="124.6" y1="171.9" x2="122.2" y2="172.1"/>
<polyline stroke="#000000" stroke-width="0.2475" stroke-linecap="round" stroke-linejoin="round" stroke-miterlimit="10" points="
	122.2,173 120.9,173.6 118.3,173.6 116.9,174.1 119.5,174.1 118.2,174.7 115.7,174.7 115.7,174.6 107.5,178.2 108.1,179.1 
	116.3,175.5 115.7,174.6 "/>
<line fill="none" stroke="#000000" stroke-width="0.2475" stroke-linecap="round" stroke-linejoin="round" stroke-miterlimit="10" x1="116.1" y1="175.2" x2="116.3" y2="175.4"/>
<line fill="none" stroke="#000000" stroke-width="0.2475" stroke-linecap="round" stroke-linejoin="round" stroke-miterlimit="10" x1="116.1" y1="175.2" x2="114.5" y2="175.4"/>
<line fill="none" stroke="#000000" stroke-width="0.2475" stroke-linecap="round" stroke-linejoin="round" stroke-miterlimit="10" x1="114.5" y1="176.4" x2="114.7" y2="176.5"/>
<polyline fill="none" stroke="#000000" stroke-width="0.2475" stroke-linecap="round" stroke-linejoin="round" stroke-miterlimit="10" points="
	114.5,176.4 113.3,176.9 110.7,176.9 109.5,177.4 112,177.4 110.8,178 108.2,178 "/>
<line fill="none" stroke="#000000" stroke-width="0.2475" stroke-linecap="round" stroke-linejoin="round" stroke-miterlimit="10" x1="107.5" y1="178.1" x2="107.7" y2="178.4"/>
<polyline stroke="#000000" stroke-width="0.2475" stroke-linecap="round" stroke-linejoin="round" stroke-miterlimit="10" points="
	107.6,178.1 99.4,182.1 100,182.9 108.2,179.1 107.6,178.1 107.7,178.4 109.5,178.4 "/>
<line fill="none" stroke="#000000" stroke-width="0.2475" stroke-linecap="round" stroke-linejoin="round" stroke-miterlimit="10" x1="108" y1="179.1" x2="108.2" y2="179.2"/>
<line fill="none" stroke="#000000" stroke-width="0.2475" stroke-linecap="round" stroke-linejoin="round" stroke-miterlimit="10" x1="108" y1="179.1" x2="105.8" y2="179.2"/>
<line fill="none" stroke="#000000" stroke-width="0.2475" stroke-linecap="round" stroke-linejoin="round" stroke-miterlimit="10" x1="99.4" y1="182.1" x2="99.6" y2="182.2"/>
<polyline stroke="#000000" stroke-width="0.2475" stroke-linecap="round" stroke-linejoin="round" stroke-miterlimit="10" points="
	99.4,182.1 91.5,186.1 92,187 100,182.9 99.4,182.1 99.5,182.3 101.2,182.3 "/>
<line fill="none" stroke="#000000" stroke-width="0.2475" stroke-linecap="round" stroke-linejoin="round" stroke-miterlimit="10" x1="91.5" y1="186.1" x2="91.7" y2="186.2"/>
<polyline stroke="#000000" stroke-width="0.2475" stroke-linecap="round" stroke-linejoin="round" stroke-miterlimit="10" points="
	91.4,186.1 83.7,190.2 84.2,191 92,186.9 91.4,186.1 91.4,186.1 93.5,186.1 "/>
<line fill="none" stroke="#000000" stroke-width="0.2475" stroke-linecap="round" stroke-linejoin="round" stroke-miterlimit="10" x1="91.8" y1="186.7" x2="92.1" y2="186.8"/>
<line fill="none" stroke="#000000" stroke-width="0.2475" stroke-linecap="round" stroke-linejoin="round" stroke-miterlimit="10" x1="91.8" y1="186.7" x2="90.2" y2="186.8"/>
<polyline stroke="#000000" stroke-width="0.2475" stroke-linecap="round" stroke-linejoin="round" stroke-miterlimit="10" points="
	90.4,187.8 89.3,188.3 87.2,188.3 86.2,188.8 88.3,188.8 87.3,189.4 85.1,189.4 84.1,189.9 86.3,189.9 85.3,190.5 83.7,190.5 
	83.6,190.3 75.9,194.6 76.5,195.4 84.1,191.1 83.6,190.3 "/>
<polyline stroke="#000000" stroke-width="0.2475" stroke-linecap="round" stroke-linejoin="round" stroke-miterlimit="10" points="
	82.3,192.1 81.3,192.7 79.3,192.7 78.3,193.2 80.4,193.2 79.4,193.8 77.3,193.8 76.4,194.3 78.5,194.3 77.4,194.8 76,194.8 
	75.8,194.6 68.1,199.2 68.8,200 76.5,195.5 75.8,194.6 "/>
<line fill="none" stroke="#000000" stroke-width="0.2475" stroke-linecap="round" stroke-linejoin="round" stroke-miterlimit="10" x1="76.4" y1="195.4" x2="74.6" y2="195.6"/>
<polyline stroke="#000000" stroke-width="0.2475" stroke-linecap="round" stroke-linejoin="round" stroke-miterlimit="10" points="
	74.7,196.4 73.8,196.9 71.8,197 70.9,197.5 72.9,197.5 72,198 70,198.1 69.1,198.6 71.2,198.6 70.2,199.2 68.2,199.2 60.9,204 
	61.6,204.8 68.9,200 68.2,199.2 "/>
<line fill="none" stroke="#000000" stroke-width="0.2475" stroke-linecap="round" stroke-linejoin="round" stroke-miterlimit="10" x1="68.7" y1="199.7" x2="68.9" y2="199.9"/>
<line fill="none" stroke="#000000" stroke-width="0.2475" stroke-linecap="round" stroke-linejoin="round" stroke-miterlimit="10" x1="68.7" y1="199.7" x2="67.3" y2="199.9"/>
<line fill="none" stroke="#000000" stroke-width="0.2475" stroke-linecap="round" stroke-linejoin="round" stroke-miterlimit="10" x1="66.5" y1="200.2" x2="66.7" y2="200.4"/>
<polyline fill="none" stroke="#000000" stroke-width="0.2475" stroke-linecap="round" stroke-linejoin="round" stroke-miterlimit="10" points="
	66.5,200.2 65.6,200.8 67.6,200.8 66.7,201.3 64.8,201.3 64,201.8 65.9,201.8 65,202.4 63.1,202.4 62.3,203 64.2,203 63.3,203.5 
	61.4,203.5 "/>
<line fill="none" stroke="#000000" stroke-width="0.2475" stroke-linecap="round" stroke-linejoin="round" stroke-miterlimit="10" x1="60.8" y1="203.9" x2="61" y2="204"/>
<polyline stroke="#000000" stroke-width="0.2475" stroke-linecap="round" stroke-linejoin="round" stroke-miterlimit="10" points="
	60.9,203.9 53.5,208.8 54.3,209.6 61.6,204.7 60.9,203.9 61,204.1 62.5,204.1 "/>
<line fill="none" stroke="#000000" stroke-width="0.2475" stroke-linecap="round" stroke-linejoin="round" stroke-miterlimit="10" x1="61.4" y1="204.6" x2="61.6" y2="204.8"/>
<line fill="none" stroke="#000000" stroke-width="0.2475" stroke-linecap="round" stroke-linejoin="round" stroke-miterlimit="10" x1="61.4" y1="204.6" x2="59.7" y2="204.8"/>
<line fill="none" stroke="#000000" stroke-width="0.2475" stroke-linecap="round" stroke-linejoin="round" stroke-miterlimit="10" x1="58.9" y1="205.2" x2="59" y2="205.3"/>
<line fill="none" stroke="#000000" stroke-width="0.2475" stroke-linecap="round" stroke-linejoin="round" stroke-miterlimit="10" x1="53.5" y1="208.8" x2="53.7" y2="209.1"/>
<polyline fill="none" stroke="#000000" stroke-width="0.2475" stroke-linecap="round" stroke-linejoin="round" stroke-miterlimit="10" points="
	53.5,208.8 46.3,214 47.1,214.7 54.2,209.6 53.5,208.8 53.6,209 55.1,209 "/>
<line fill="none" stroke="#000000" stroke-width="0.2475" stroke-linecap="round" stroke-linejoin="round" stroke-miterlimit="10" x1="54.3" y1="209.6" x2="52.5" y2="209.8"/>
<line fill="none" stroke="#000000" stroke-width="0.2475" stroke-linecap="round" stroke-linejoin="round" stroke-miterlimit="10" x1="51.8" y1="210.1" x2="51.9" y2="210.4"/>
<line fill="none" stroke="#000000" stroke-width="0.2475" stroke-linecap="round" stroke-linejoin="round" stroke-miterlimit="10" x1="46.3" y1="214" x2="46.6" y2="214.2"/>
<line fill="none" stroke="#000000" stroke-width="0.2475" stroke-linecap="round" stroke-linejoin="round" stroke-miterlimit="10" x1="46.3" y1="214" x2="46.6" y2="214.2"/>
<polyline stroke="#000000" stroke-width="0.2475" stroke-linecap="round" stroke-linejoin="round" stroke-miterlimit="10" points="
	46.3,214 39.4,219.2 40.2,219.9 47.1,214.7 46.3,214 "/>
<line fill="none" stroke="#000000" stroke-width="0.2475" stroke-linecap="round" stroke-linejoin="round" stroke-miterlimit="10" x1="46.9" y1="214.4" x2="47.1" y2="214.6"/>
<line fill="none" stroke="#000000" stroke-width="0.2475" stroke-linecap="round" stroke-linejoin="round" stroke-miterlimit="10" x1="46.9" y1="214.4" x2="45.6" y2="214.6"/>
<line fill="none" stroke="#000000" stroke-width="0.2475" stroke-linecap="round" stroke-linejoin="round" stroke-miterlimit="10" x1="45" y1="214.9" x2="45.1" y2="215.1"/>
<polyline stroke="#000000" stroke-width="0.2475" stroke-linecap="round" stroke-linejoin="round" stroke-miterlimit="10" points="
	44.8,214.9 44.1,215.4 45.8,215.4 45.1,216 43.4,216 42.7,216.5 44.4,216.5 43.6,217.1 42,217.1 41.2,217.6 42.9,217.6 42.2,218.2 
	40.5,218.2 39.8,218.7 41.5,218.7 40.8,219.2 39.4,219.2 39.4,219.1 32.6,224.4 33.3,225.2 40.1,219.8 39.4,219.1 "/>
<polyline stroke="#000000" stroke-width="0.2475" stroke-linecap="round" stroke-linejoin="round" stroke-miterlimit="10" points="
	39.3,220.2 37.7,220.3 37,220.9 38.6,220.8 38,221.4 36.4,221.4 35.7,222 37.3,222 36.6,222.5 35,222.6 34.3,223.1 36,223.1 
	35.3,223.6 33.7,223.7 33,224.2 34.6,224.2 33.9,224.8 32.8,224.8 32.6,224.6 26.2,230.4 26.9,231 33.4,225.3 32.6,224.6 "/>
<line fill="none" stroke="#000000" stroke-width="0.2475" stroke-linecap="round" stroke-linejoin="round" stroke-miterlimit="10" x1="31.7" y1="225.4" x2="31.9" y2="225.6"/>
<line fill="none" stroke="#000000" stroke-width="0.2475" stroke-linecap="round" stroke-linejoin="round" stroke-miterlimit="10" x1="38.5" y1="219.9" x2="38.7" y2="220.1"/>
<line fill="none" stroke="#000000" stroke-width="0.2475" stroke-linecap="round" stroke-linejoin="round" stroke-miterlimit="10" x1="45" y1="214.9" x2="45.1" y2="215.1"/>
<line fill="none" stroke="#000000" stroke-width="0.2475" stroke-linecap="round" stroke-linejoin="round" stroke-miterlimit="10" x1="45" y1="214.9" x2="46.6" y2="215.1"/>
<line fill="none" stroke="#000000" stroke-width="0.2475" stroke-linecap="round" stroke-linejoin="round" stroke-miterlimit="10" x1="51.8" y1="210.1" x2="51.9" y2="210.4"/>
<line fill="none" stroke="#000000" stroke-width="0.2475" stroke-linecap="round" stroke-linejoin="round" stroke-miterlimit="10" x1="58.9" y1="205.2" x2="59.1" y2="205.3"/>
<line fill="none" stroke="#000000" stroke-width="0.2475" stroke-linecap="round" stroke-linejoin="round" stroke-miterlimit="10" x1="66.6" y1="200.2" x2="66.8" y2="200.5"/>
<line fill="none" stroke="#000000" stroke-width="0.2475" stroke-linecap="round" stroke-linejoin="round" stroke-miterlimit="10" x1="72.8" y1="196.6" x2="73" y2="196.8"/>
<polyline fill="none" stroke="#000000" stroke-width="0.2475" stroke-linecap="round" stroke-linejoin="round" stroke-miterlimit="10" points="
	75.7,195.9 73.8,195.9 72.8,196.6 "/>
<line fill="none" stroke="#000000" stroke-width="0.2475" stroke-linecap="round" stroke-linejoin="round" stroke-miterlimit="10" x1="80.3" y1="192.2" x2="80.6" y2="192.3"/>
<line fill="none" stroke="#000000" stroke-width="0.2475" stroke-linecap="round" stroke-linejoin="round" stroke-miterlimit="10" x1="88.3" y1="187.8" x2="88.5" y2="187.9"/>
<line fill="none" stroke="#000000" stroke-width="0.2475" stroke-linecap="round" stroke-linejoin="round" stroke-miterlimit="10" x1="95.8" y1="183.8" x2="96" y2="184"/>
<line fill="none" stroke="#000000" stroke-width="0.2475" stroke-linecap="round" stroke-linejoin="round" stroke-miterlimit="10" x1="103.7" y1="180.2" x2="103.9" y2="180.4"/>
<line fill="none" stroke="#000000" stroke-width="0.2475" stroke-linecap="round" stroke-linejoin="round" stroke-miterlimit="10" x1="112" y1="176.4" x2="112.1" y2="176.5"/>
<line fill="none" stroke="#000000" stroke-width="0.2475" stroke-linecap="round" stroke-linejoin="round" stroke-miterlimit="10" x1="112" y1="176.4" x2="114.5" y2="176.5"/>
<line fill="none" stroke="#000000" stroke-width="0.2475" stroke-linecap="round" stroke-linejoin="round" stroke-miterlimit="10" x1="119.6" y1="173" x2="119.8" y2="173.3"/>
<line fill="none" stroke="#000000" stroke-width="0.2475" stroke-linecap="round" stroke-linejoin="round" stroke-miterlimit="10" x1="121" y1="172.4" x2="121.2" y2="172.7"/>
<line fill="none" stroke="#000000" stroke-width="0.2475" stroke-linecap="round" stroke-linejoin="round" stroke-miterlimit="10" x1="121" y1="172.4" x2="119.6" y2="173"/>
<line fill="none" stroke="#000000" stroke-width="0.2475" stroke-linecap="round" stroke-linejoin="round" stroke-miterlimit="10" x1="121" y1="172.4" x2="121.2" y2="172.7"/>
<line fill="none" stroke="#000000" stroke-width="0.2475" stroke-linecap="round" stroke-linejoin="round" stroke-miterlimit="10" x1="128" y1="169.7" x2="128.1" y2="170"/>
<line fill="none" stroke="#000000" stroke-width="0.2475" stroke-linecap="round" stroke-linejoin="round" stroke-miterlimit="10" x1="129.4" y1="169.2" x2="129.6" y2="169.4"/>
<line fill="none" stroke="#000000" stroke-width="0.2475" stroke-linecap="round" stroke-linejoin="round" stroke-miterlimit="10" x1="129.4" y1="169.2" x2="128" y2="169.7"/>
<line fill="none" stroke="#000000" stroke-width="0.2475" stroke-linecap="round" stroke-linejoin="round" stroke-miterlimit="10" x1="129.4" y1="169.2" x2="129.6" y2="169.4"/>
<line fill="none" stroke="#000000" stroke-width="0.2475" stroke-linecap="round" stroke-linejoin="round" stroke-miterlimit="10" x1="144.7" y1="163.9" x2="144.8" y2="164"/>
<line fill="none" stroke="#000000" stroke-width="0.2475" stroke-linecap="round" stroke-linejoin="round" stroke-miterlimit="10" x1="146.3" y1="163.3" x2="146.5" y2="163.5"/>
<line fill="none" stroke="#000000" stroke-width="0.2475" stroke-linecap="round" stroke-linejoin="round" stroke-miterlimit="10" x1="146.3" y1="163.3" x2="144.7" y2="163.9"/>
<line fill="none" stroke="#000000" stroke-width="0.2475" stroke-linecap="round" stroke-linejoin="round" stroke-miterlimit="10" x1="146.3" y1="163.3" x2="146.5" y2="163.5"/>
<line fill="none" stroke="#000000" stroke-width="0.2475" stroke-linecap="round" stroke-linejoin="round" stroke-miterlimit="10" x1="258.6" y1="145.3" x2="258.7" y2="145.5"/>
<polyline fill="none" stroke="#000000" stroke-width="0.2475" stroke-linecap="round" stroke-linejoin="round" stroke-miterlimit="10" points="
	258.6,145.3 258.6,144.8 267.7,144.8 267.7,145.3 267.7,144.8 276.9,144.8 "/>
<g>
	<path d="M250.8,37.8v3.3c0,0.7,0.1,1.1,0.2,1.3c0.2,0.2,0.5,0.4,1,0.4h0.4v0.3h-4.8v-0.3h0.4c0.5,0,0.8-0.2,1-0.5
		c0.1-0.2,0.2-0.6,0.2-1.2v-7.3c0-0.7-0.1-1.1-0.2-1.3c-0.2-0.2-0.5-0.4-1-0.4h-0.4v-0.3h4.1c1,0,1.8,0.1,2.4,0.3
		c0.6,0.2,1.1,0.6,1.5,1c0.4,0.5,0.6,1.1,0.6,1.8c0,0.9-0.3,1.7-0.9,2.2c-0.6,0.6-1.5,0.9-2.6,0.9c-0.3,0-0.6,0-0.9-0.1
		S251.2,37.9,250.8,37.8z M250.8,37.4c0.3,0.1,0.6,0.1,0.8,0.1s0.4,0,0.6,0c0.6,0,1.1-0.2,1.5-0.7c0.4-0.4,0.6-1,0.6-1.7
		c0-0.5-0.1-0.9-0.3-1.4c-0.2-0.4-0.5-0.7-0.8-0.9c-0.4-0.2-0.8-0.3-1.2-0.3c-0.3,0-0.6,0.1-1.1,0.2V37.4z"/>
	<path d="M262.1,42.8v0.3h-4.8v-0.3h0.4c0.5,0,0.8-0.1,1-0.4c0.1-0.2,0.2-0.6,0.2-1.3v-7.3c0-0.6,0-0.9-0.1-1.1
		c-0.1-0.1-0.2-0.3-0.3-0.4c-0.2-0.1-0.5-0.2-0.8-0.2h-0.4v-0.3h4.8v0.3h-0.4c-0.5,0-0.8,0.1-1,0.4c-0.1,0.2-0.2,0.6-0.2,1.3v7.3
		c0,0.6,0,0.9,0.1,1.1c0.1,0.1,0.2,0.3,0.3,0.4c0.2,0.1,0.5,0.2,0.8,0.2H262.1z"/>
</g>
<g>
	<path d="M158.9,104.8l1.5,2.2l-0.3,0.2c-0.3-0.4-0.6-0.6-0.7-0.7c-0.3-0.2-0.6-0.3-1-0.2c-0.3,0-0.7,0.2-1.1,0.4l-1.3,0.9l4.6,7.2
		c0.4,0.6,0.7,0.9,0.9,1c0.3,0.1,0.6,0,1-0.2l0.3-0.2l0.2,0.3l-4,2.6l-0.2-0.3l0.3-0.2c0.4-0.3,0.6-0.6,0.6-0.9
		c0-0.2-0.2-0.6-0.5-1.1l-4.6-7.2l-1.1,0.7c-0.4,0.3-0.7,0.5-0.9,0.7c-0.2,0.2-0.3,0.5-0.3,0.9c0,0.4,0.1,0.8,0.3,1.2l-0.3,0.2
		l-1.3-2.3L158.9,104.8z"/>
</g>
<g>
	<path d="M18.2,198.9v3.3c0,0.7,0.1,1.1,0.2,1.3c0.2,0.2,0.5,0.4,1,0.4h0.4v0.3H15v-0.3h0.4c0.5,0,0.8-0.2,1-0.5
		c0.1-0.2,0.2-0.6,0.2-1.2v-7.3c0-0.7-0.1-1.1-0.2-1.3c-0.2-0.2-0.5-0.4-1-0.4H15v-0.3h4.1c1,0,1.8,0.1,2.4,0.3
		c0.6,0.2,1.1,0.6,1.5,1s0.6,1.1,0.6,1.8c0,0.9-0.3,1.7-0.9,2.2s-1.5,0.9-2.6,0.9c-0.3,0-0.6,0-0.9-0.1S18.5,199,18.2,198.9z
		 M18.2,198.4c0.3,0.1,0.6,0.1,0.8,0.1s0.4,0,0.6,0c0.6,0,1.1-0.2,1.5-0.7c0.4-0.4,0.6-1,0.6-1.7c0-0.5-0.1-0.9-0.3-1.4
		c-0.2-0.4-0.5-0.7-0.8-0.9c-0.4-0.2-0.8-0.3-1.2-0.3c-0.3,0-0.6,0.1-1.1,0.2V198.4z"/>
	<path d="M34.4,192.7l0.3,3.8h-0.3c-0.3-1.1-0.8-2-1.5-2.5s-1.4-0.8-2.3-0.8c-0.7,0-1.4,0.2-2,0.6c-0.6,0.4-1.1,1-1.4,1.8
		c-0.3,0.8-0.5,1.9-0.5,3.1c0,1,0.2,1.9,0.5,2.6s0.8,1.3,1.5,1.7s1.4,0.6,2.2,0.6c0.7,0,1.4-0.2,1.9-0.5c0.6-0.3,1.2-0.9,1.8-1.9
		l0.3,0.2c-0.6,1-1.2,1.7-2,2.2s-1.6,0.7-2.7,0.7c-1.9,0-3.3-0.7-4.3-2.1c-0.8-1-1.1-2.2-1.1-3.6c0-1.1,0.3-2.2,0.8-3.1
		s1.2-1.7,2.1-2.2c0.9-0.5,1.8-0.8,2.9-0.8c0.8,0,1.6,0.2,2.4,0.6c0.2,0.1,0.4,0.2,0.5,0.2c0.1,0,0.3-0.1,0.4-0.2
		c0.1-0.1,0.2-0.4,0.3-0.6H34.4z"/>
</g>
<g>
	<path d="M95.9,198.3c-0.1,0.9-0.4,1.6-0.7,2.2c-0.3,0.6-0.8,1-1.4,1.4c-0.7,0.4-1.3,0.5-1.9,0.4c-0.6-0.2-1.1-0.6-1.5-1.2
		c-0.4-0.7-0.6-1.6-0.6-2.5c0-0.9,0.2-1.8,0.6-2.7c0.4-0.8,1-1.5,1.6-1.9c0.5-0.3,1-0.4,1.4-0.4s0.7,0.3,0.9,0.6
		c0.2,0.3,0.2,0.6,0.2,0.9c0,0.2-0.2,0.4-0.4,0.5c-0.1,0.1-0.3,0.1-0.5,0.1c-0.2,0-0.3-0.1-0.4-0.3c-0.1-0.1-0.1-0.2-0.1-0.3
		c0-0.1,0-0.2,0.1-0.4c0-0.2,0.1-0.3,0.1-0.4c0-0.1,0-0.1-0.1-0.2c-0.1-0.1-0.2-0.2-0.3-0.2c-0.2,0-0.4,0.1-0.7,0.2
		c-0.5,0.3-0.8,0.7-1.1,1.3c-0.3,0.6-0.4,1.3-0.4,2.1c0,1,0.3,1.8,0.7,2.6c0.3,0.5,0.6,0.8,1.1,0.9c0.4,0.1,0.9,0,1.4-0.2
		c0.4-0.2,0.7-0.5,0.9-0.9c0.3-0.4,0.5-1,0.6-1.7L95.9,198.3z"/>
</g>
<g>
	<path d="M486.1,198.9v3.3c0,0.7,0.1,1.1,0.2,1.3c0.2,0.2,0.5,0.4,1,0.4h0.4v0.3h-4.8v-0.3h0.4c0.5,0,0.8-0.2,1-0.5
		c0.1-0.2,0.2-0.6,0.2-1.2v-7.3c0-0.7-0.1-1.1-0.2-1.3c-0.2-0.2-0.5-0.4-1-0.4h-0.4v-0.3h4.1c1,0,1.8,0.1,2.4,0.3
		c0.6,0.2,1.1,0.6,1.5,1s0.6,1.1,0.6,1.8c0,0.9-0.3,1.7-0.9,2.2c-0.6,0.6-1.5,0.9-2.6,0.9c-0.3,0-0.6,0-0.9-0.1
		S486.4,199,486.1,198.9z M486.1,198.4c0.3,0.1,0.6,0.1,0.8,0.1s0.4,0,0.6,0c0.6,0,1.1-0.2,1.5-0.7c0.4-0.4,0.6-1,0.6-1.7
		c0-0.5-0.1-0.9-0.3-1.4c-0.2-0.4-0.5-0.7-0.8-0.9c-0.4-0.2-0.8-0.3-1.2-0.3c-0.3,0-0.6,0.1-1.1,0.2V198.4z"/>
	<path d="M501.9,192.9l0.1,2.6h-0.3c-0.1-0.5-0.1-0.8-0.2-1c-0.2-0.3-0.4-0.6-0.7-0.7c-0.3-0.2-0.7-0.2-1.1-0.2H498v8.6
		c0,0.7,0.1,1.1,0.2,1.3c0.2,0.2,0.5,0.3,1,0.3h0.4v0.3h-4.8v-0.3h0.4c0.5,0,0.8-0.1,1-0.4c0.1-0.2,0.2-0.6,0.2-1.2v-8.6h-1.4
		c-0.5,0-0.9,0-1.1,0.1c-0.3,0.1-0.5,0.3-0.7,0.6s-0.3,0.7-0.4,1.2h-0.3l0.1-2.6H501.9z"/>
</g>
<g>
	<path d="M395,325.5l-2.2,2.1l-6.4-1.2c-0.2,0.2-0.4,0.4-0.5,0.5c-0.1,0-0.1,0.1-0.2,0.2c-0.1,0.1-0.1,0.1-0.2,0.2l2.2,2.4
		c0.5,0.5,0.8,0.8,1.1,0.8c0.3,0,0.6-0.1,0.9-0.4l0.3-0.3l0.2,0.2l-3.5,3.3l-0.2-0.2l0.3-0.3c0.3-0.3,0.5-0.7,0.4-1
		c0-0.2-0.3-0.5-0.7-1l-5-5.3c-0.5-0.5-0.8-0.8-1.1-0.8c-0.3,0-0.6,0.1-1,0.4l-0.3,0.3l-0.2-0.2l3-2.8c0.9-0.8,1.6-1.4,2.1-1.6
		c0.5-0.3,1.1-0.4,1.7-0.3c0.6,0.1,1.1,0.3,1.6,0.8c0.5,0.5,0.7,1.1,0.7,1.8c0,0.7-0.2,1.4-0.8,2.2l3.9,0.8c0.9,0.2,1.6,0.2,2,0.1
		c0.4-0.1,0.9-0.3,1.4-0.7L395,325.5z M385.2,326.8c0.1-0.1,0.1-0.1,0.2-0.2c0.1-0.1,0.1-0.1,0.1-0.1c0.8-0.7,1.2-1.5,1.3-2.2
		c0.1-0.7-0.1-1.3-0.6-1.9c-0.5-0.5-1-0.8-1.7-0.8c-0.6,0-1.2,0.2-1.7,0.7c-0.2,0.2-0.5,0.6-0.8,1L385.2,326.8z"/>
</g>
<g>
	<path d="M139.9,342l-2.1-2.2l1.2-6.4c-0.2-0.2-0.4-0.4-0.5-0.5c0-0.1-0.1-0.1-0.2-0.2c-0.1-0.1-0.1-0.1-0.2-0.2l-2.4,2.2
		c-0.5,0.5-0.8,0.8-0.8,1.1c0,0.3,0.1,0.6,0.4,0.9l0.3,0.3l-0.2,0.2l-3.3-3.5l0.2-0.2l0.3,0.3c0.3,0.3,0.7,0.5,1,0.4
		c0.2,0,0.5-0.3,1-0.7l5.3-5c0.5-0.5,0.8-0.8,0.8-1.1c0-0.3-0.1-0.6-0.4-1l-0.3-0.3l0.2-0.2l2.8,3c0.8,0.9,1.4,1.6,1.6,2.1
		c0.3,0.5,0.4,1.1,0.3,1.7c-0.1,0.6-0.3,1.1-0.8,1.6c-0.5,0.5-1.1,0.7-1.8,0.7c-0.7,0-1.4-0.2-2.2-0.8l-0.8,3.9
		c-0.2,0.9-0.2,1.6-0.1,2c0.1,0.4,0.3,0.9,0.7,1.4L139.9,342z M138.7,332.2c0.1,0.1,0.1,0.1,0.2,0.2c0.1,0.1,0.1,0.1,0.1,0.1
		c0.7,0.8,1.5,1.2,2.2,1.3c0.7,0.1,1.3-0.1,1.9-0.6c0.5-0.5,0.8-1,0.8-1.7c0-0.6-0.2-1.2-0.7-1.7c-0.2-0.2-0.6-0.5-1-0.8
		L138.7,332.2z"/>
</g>
<g>
	<path d="M389.5,118.6l-1.5,2.1l-0.2-0.2c0.2-0.4,0.4-0.7,0.4-0.9c0.1-0.4,0-0.7-0.1-1c-0.1-0.3-0.4-0.6-0.7-0.9l-1.2-1l-5.3,6.7
		c-0.4,0.5-0.6,0.9-0.6,1.2c0,0.3,0.2,0.6,0.5,0.9l0.3,0.2l-0.2,0.2l-3.7-3l0.2-0.2l0.3,0.2c0.4,0.3,0.7,0.4,1.1,0.3
		c0.2-0.1,0.5-0.3,0.9-0.8l5.3-6.7l-1.1-0.8c-0.4-0.3-0.7-0.5-1-0.6c-0.3-0.1-0.6-0.1-1,0c-0.3,0.1-0.7,0.3-1,0.7l-0.2-0.2l1.7-2
		L389.5,118.6z"/>
</g>
<g>
	<path d="M225.5,300.4l0-0.3l3.5-0.8c1.5-0.4,2.6-0.4,3.4-0.3c0.8,0.2,1.5,0.6,2.1,1.2c0.6,0.6,1,1.4,1.2,2.2
		c0.2,0.7,0.2,1.4,0.1,2.2s-0.2,1.3-0.4,1.8c-0.2,0.5-0.6,1-1.1,1.7c-0.5,0.6-1.1,1.2-1.8,1.6c-0.7,0.4-1.6,0.8-2.7,1l-4.6,1.1
		l0-0.3c0.4-0.1,0.7-0.2,0.8-0.3c0.2-0.1,0.3-0.3,0.4-0.5c0.1-0.3,0.2-0.8,0.2-1.5l0.4-7.1c0-0.6,0-1-0.1-1.3c0-0.2-0.2-0.4-0.3-0.4
		c-0.2-0.1-0.5-0.1-0.9,0L225.5,300.4z M228.4,300l-0.4,8.8c0,0.7,0,1.1,0,1.2c0,0.1,0.1,0.2,0.1,0.2c0.1,0.1,0.2,0.1,0.3,0.1
		c0.2,0,0.4,0,0.7-0.1c0.8-0.2,1.6-0.5,2.3-0.8c0.7-0.3,1.2-0.7,1.6-1.2c0.5-0.7,0.9-1.5,1.1-2.4c0.2-1,0.1-2-0.1-3.1
		c-0.3-1.3-0.8-2.1-1.6-2.6c-0.7-0.5-1.7-0.6-2.9-0.3C229.2,299.8,228.8,299.9,228.4,300z"/>
</g>
<g>
	<path d="M177.6,304.7l2.3,9.9c0.1,0.5,0.2,0.9,0.3,1c0,0,0.1,0.1,0.1,0.1c0.1,0,0.1,0,0.2,0c0.1,0,0.1-0.1,0.2-0.2
		c0.1-0.2,0.2-0.7,0.3-1.3l0.3,0c-0.1,0.7-0.2,1.3-0.4,1.8c-0.2,0.5-0.4,0.8-0.7,1c-0.2,0.1-0.3,0.1-0.5,0.1
		c-0.2-0.1-0.3-0.2-0.4-0.4c-0.2-0.3-0.3-0.7-0.4-1.2l-0.2-1.1c-0.1,1.5-0.3,2.6-0.6,3.3c-0.2,0.5-0.5,0.9-0.9,1.1
		c-0.4,0.2-0.8,0.2-1.2,0.1c-0.5-0.2-0.8-0.5-1.2-1.1c-0.4-0.7-0.6-1.6-0.6-2.7c0-1.1,0.2-2.1,0.7-3c0.4-0.7,0.8-1.3,1.3-1.5
		c0.3-0.1,0.5-0.2,0.8-0.2c0.2,0,0.5,0.1,0.9,0.2l-0.7-2.9c0-0.2-0.1-0.4-0.1-0.5c-0.1-0.2-0.1-0.4-0.2-0.5
		c-0.1-0.1-0.1-0.2-0.3-0.2c-0.1,0-0.3,0-0.5,0.1c-0.1,0.1-0.3,0.2-0.5,0.4l-0.2-0.3L177.6,304.7z M177.8,311.4
		c-0.2-0.3-0.4-0.5-0.7-0.6c-0.3-0.1-0.6-0.1-0.8,0.1c-0.6,0.3-1,1.2-1,2.6c-0.1,1.4,0.1,2.5,0.6,3.4c0.2,0.4,0.4,0.6,0.7,0.7
		c0.3,0.1,0.5,0.1,0.7,0c0.5-0.3,0.8-1.2,1-2.7C178.4,313.3,178.2,312.2,177.8,311.4z"/>
</g>
<g>
	<path d="M313.8,55.6l-0.1,0.3H309l0.1-0.3c0.5,0,0.8,0,0.9-0.1c0.2-0.1,0.4-0.2,0.5-0.4c0.2-0.3,0.4-0.7,0.6-1.4l2-6.8
		c0.2-0.6,0.2-1,0.2-1.3c0-0.1,0-0.3-0.1-0.4c-0.1-0.1-0.2-0.2-0.3-0.2c-0.1-0.1-0.4-0.1-0.9-0.1l0.1-0.3h4.3l-0.1,0.3
		c-0.4,0-0.6,0-0.8,0.1c-0.2,0.1-0.4,0.3-0.6,0.5s-0.3,0.7-0.5,1.4l-2,6.8c-0.2,0.6-0.3,1-0.3,1.2c0,0.1,0,0.3,0.1,0.4
		c0.1,0.1,0.2,0.2,0.3,0.2C313,55.5,313.3,55.5,313.8,55.6z"/>
	<path d="M324.8,59.2v0.3c-0.8-0.4-1.5-0.9-2.1-1.5c-0.8-0.8-1.4-1.7-1.8-2.8s-0.6-2.2-0.6-3.4c0-1.7,0.4-3.3,1.3-4.7
		c0.8-1.4,2-2.4,3.3-3v0.3c-0.7,0.4-1.2,0.9-1.7,1.5s-0.8,1.5-1,2.5s-0.3,2-0.3,3.1c0,1.2,0.1,2.3,0.3,3.2c0.1,0.8,0.3,1.4,0.5,1.8
		c0.2,0.5,0.5,0.9,0.8,1.3S324.2,58.8,324.8,59.2z"/>
	<path d="M331.4,44.4c1.5,0,2.7,0.6,3.8,1.7c1.1,1.1,1.6,2.5,1.6,4.2c0,1.7-0.5,3.1-1.6,4.3s-2.4,1.7-3.9,1.7
		c-1.5,0-2.9-0.6-3.9-1.7c-1.1-1.1-1.6-2.5-1.6-4.3c0-1.8,0.6-3.2,1.8-4.4C328.6,44.9,329.9,44.4,331.4,44.4z M331.2,45
		c-1,0-1.8,0.4-2.4,1.1c-0.8,0.9-1.1,2.3-1.1,4.1c0,1.8,0.4,3.3,1.2,4.2c0.6,0.8,1.4,1.1,2.4,1.1c1.1,0,1.9-0.4,2.6-1.2
		c0.7-0.8,1-2.1,1-3.9c0-1.9-0.4-3.4-1.1-4.3C333.1,45.4,332.3,45,331.2,45z"/>
	<path d="M348.9,55.9h-3l-3.8-5.3c-0.3,0-0.5,0-0.7,0c-0.1,0-0.1,0-0.2,0c-0.1,0-0.2,0-0.3,0v3.3c0,0.7,0.1,1.1,0.2,1.3
		c0.2,0.2,0.5,0.4,0.9,0.4h0.4v0.3h-4.8v-0.3h0.4c0.5,0,0.8-0.2,1-0.5c0.1-0.2,0.2-0.6,0.2-1.2v-7.3c0-0.7-0.1-1.1-0.2-1.3
		c-0.2-0.2-0.5-0.4-1-0.4h-0.4v-0.3h4.1c1.2,0,2.1,0.1,2.6,0.3c0.6,0.2,1,0.5,1.4,1c0.4,0.5,0.6,1,0.6,1.7c0,0.7-0.2,1.3-0.7,1.8
		s-1.2,0.9-2.1,1.1l2.3,3.2c0.5,0.7,1,1.2,1.4,1.5s0.9,0.4,1.5,0.5V55.9z M340.9,50.1c0.1,0,0.2,0,0.3,0c0.1,0,0.1,0,0.2,0
		c1.1,0,1.9-0.2,2.4-0.7s0.8-1.1,0.8-1.8c0-0.7-0.2-1.3-0.7-1.7c-0.4-0.4-1-0.7-1.7-0.7c-0.3,0-0.8,0.1-1.3,0.2V50.1z"/>
	<path d="M363.2,55.9h-10l5.2-11.5L363.2,55.9z M361.2,55.2l-3.3-8l-3.7,8H361.2z"/>
	<path d="M363.8,44.4v-0.3c0.8,0.4,1.5,0.9,2.1,1.5c0.8,0.8,1.4,1.8,1.8,2.8c0.4,1.1,0.6,2.2,0.6,3.4c0,1.7-0.4,3.3-1.3,4.7
		c-0.8,1.4-1.9,2.4-3.3,3v-0.3c0.7-0.4,1.2-0.9,1.7-1.5c0.4-0.6,0.8-1.5,1-2.5c0.2-1,0.3-2.1,0.3-3.1c0-1.2-0.1-2.3-0.3-3.2
		c-0.1-0.8-0.3-1.4-0.5-1.8c-0.2-0.5-0.5-0.9-0.8-1.3S364.4,44.8,363.8,44.4z"/>
</g>
<g>
	<path d="M199.9,462.8h3.1l6.9,8.4v-6.5c0-0.7-0.1-1.1-0.2-1.3c-0.2-0.2-0.5-0.3-1-0.3h-0.4v-0.3h3.9v0.3h-0.4c-0.5,0-0.8,0.1-1,0.4
		c-0.1,0.2-0.2,0.6-0.2,1.2v9.5h-0.3l-7.4-9.1v6.9c0,0.7,0.1,1.1,0.2,1.3c0.2,0.2,0.5,0.3,1,0.3h0.4v0.3h-3.9v-0.3h0.4
		c0.5,0,0.8-0.1,1-0.4c0.1-0.2,0.2-0.6,0.2-1.2v-7.8c-0.3-0.4-0.6-0.6-0.7-0.8c-0.2-0.1-0.4-0.2-0.7-0.3c-0.2,0-0.4-0.1-0.7-0.1
		V462.8z"/>
	<path d="M218.7,462.5c1.5,0,2.7,0.6,3.8,1.7c1.1,1.1,1.6,2.5,1.6,4.2c0,1.7-0.5,3.1-1.6,4.3s-2.4,1.7-3.9,1.7
		c-1.5,0-2.9-0.6-3.9-1.7c-1.1-1.1-1.6-2.5-1.6-4.3c0-1.8,0.6-3.2,1.8-4.4C215.9,463,217.2,462.5,218.7,462.5z M218.5,463.1
		c-1,0-1.8,0.4-2.4,1.1c-0.8,0.9-1.1,2.3-1.1,4.1c0,1.8,0.4,3.3,1.2,4.2c0.6,0.8,1.4,1.1,2.4,1.1c1.1,0,1.9-0.4,2.6-1.2
		c0.7-0.8,1-2.1,1-3.9c0-1.9-0.4-3.4-1.1-4.3C220.4,463.5,219.6,463.1,218.5,463.1z"/>
	<path d="M234.6,462.8l0.1,2.6h-0.3c-0.1-0.5-0.1-0.8-0.2-1c-0.2-0.3-0.4-0.6-0.7-0.7s-0.7-0.2-1.1-0.2h-1.6v8.6
		c0,0.7,0.1,1.1,0.2,1.3c0.2,0.2,0.5,0.3,1,0.3h0.4v0.3h-4.8v-0.3h0.4c0.5,0,0.8-0.1,1-0.4c0.1-0.2,0.2-0.6,0.2-1.2v-8.6h-1.4
		c-0.5,0-0.9,0-1.1,0.1c-0.3,0.1-0.5,0.3-0.7,0.6s-0.3,0.7-0.4,1.2h-0.3l0.1-2.6H234.6z"/>
	<path d="M248.6,462.8l0.1,2.6h-0.3c-0.1-0.5-0.1-0.8-0.2-1c-0.2-0.3-0.4-0.6-0.7-0.7s-0.7-0.2-1.1-0.2h-1.6v8.6
		c0,0.7,0.1,1.1,0.2,1.3c0.2,0.2,0.5,0.3,1,0.3h0.4v0.3h-4.8v-0.3h0.4c0.5,0,0.8-0.1,1-0.4c0.1-0.2,0.2-0.6,0.2-1.2v-8.6h-1.4
		c-0.5,0-0.9,0-1.1,0.1c-0.3,0.1-0.5,0.3-0.7,0.6s-0.3,0.7-0.4,1.2h-0.3l0.1-2.6H248.6z"/>
	<path d="M255,462.5c1.5,0,2.7,0.6,3.8,1.7c1.1,1.1,1.6,2.5,1.6,4.2c0,1.7-0.5,3.1-1.6,4.3s-2.4,1.7-3.9,1.7c-1.5,0-2.9-0.6-3.9-1.7
		c-1.1-1.1-1.6-2.5-1.6-4.3c0-1.8,0.6-3.2,1.8-4.4C252.3,463,253.6,462.5,255,462.5z M254.9,463.1c-1,0-1.8,0.4-2.4,1.1
		c-0.8,0.9-1.1,2.3-1.1,4.1c0,1.8,0.4,3.3,1.2,4.2c0.6,0.8,1.4,1.1,2.4,1.1c1.1,0,1.9-0.4,2.6-1.2c0.7-0.8,1-2.1,1-3.9
		c0-1.9-0.4-3.4-1.1-4.3C256.8,463.5,255.9,463.1,254.9,463.1z"/>
	<path d="M273.1,462.5v3.9h-0.3c-0.1-0.7-0.3-1.3-0.5-1.8c-0.3-0.4-0.6-0.8-1.1-1.1c-0.5-0.3-1-0.4-1.5-0.4c-0.6,0-1.1,0.2-1.4,0.5
		c-0.4,0.4-0.6,0.8-0.6,1.2c0,0.3,0.1,0.7,0.4,0.9c0.3,0.4,1.2,1,2.4,1.7c1.1,0.6,1.8,1,2.2,1.3s0.7,0.7,0.9,1.1
		c0.2,0.4,0.3,0.8,0.3,1.3c0,0.9-0.3,1.6-1,2.2s-1.5,0.9-2.6,0.9c-0.3,0-0.6,0-0.9-0.1c-0.2,0-0.5-0.1-1.1-0.3
		c-0.5-0.2-0.9-0.3-1-0.3c-0.1,0-0.2,0-0.3,0.1c-0.1,0.1-0.1,0.3-0.2,0.5h-0.3v-3.9h0.3c0.1,0.8,0.3,1.4,0.6,1.8s0.6,0.7,1.1,1
		s1,0.4,1.6,0.4c0.7,0,1.2-0.2,1.6-0.5s0.6-0.8,0.6-1.3c0-0.3-0.1-0.6-0.2-0.8s-0.4-0.5-0.7-0.8c-0.2-0.2-0.8-0.5-1.8-1.1
		c-1-0.5-1.6-1-2.1-1.3c-0.4-0.3-0.7-0.7-0.9-1.1s-0.3-0.8-0.3-1.3c0-0.8,0.3-1.5,0.9-2.1s1.4-0.9,2.4-0.9c0.6,0,1.2,0.1,1.9,0.4
		c0.3,0.1,0.5,0.2,0.7,0.2c0.1,0,0.3,0,0.4-0.1c0.1-0.1,0.2-0.3,0.2-0.5H273.1z"/>
	<path d="M285,462.5l0.3,3.8H285c-0.3-1.1-0.8-2-1.5-2.5s-1.4-0.8-2.3-0.8c-0.7,0-1.4,0.2-2,0.6s-1.1,1-1.4,1.8s-0.5,1.9-0.5,3.1
		c0,1,0.2,1.9,0.5,2.6c0.3,0.7,0.8,1.3,1.5,1.7c0.7,0.4,1.4,0.6,2.2,0.6c0.7,0,1.4-0.2,1.9-0.5s1.2-0.9,1.8-1.9l0.3,0.2
		c-0.6,1-1.2,1.7-2,2.2c-0.8,0.5-1.6,0.7-2.7,0.7c-1.9,0-3.3-0.7-4.3-2.1c-0.8-1-1.1-2.2-1.1-3.6c0-1.1,0.3-2.2,0.8-3.1
		c0.5-0.9,1.2-1.7,2.1-2.2s1.8-0.8,2.9-0.8c0.8,0,1.6,0.2,2.4,0.6c0.2,0.1,0.4,0.2,0.5,0.2c0.1,0,0.3-0.1,0.4-0.2
		c0.1-0.1,0.2-0.4,0.3-0.6H285z"/>
	<path d="M293.9,470.3h-4.4l-0.8,1.8c-0.2,0.4-0.3,0.8-0.3,1c0,0.2,0.1,0.3,0.2,0.5s0.5,0.2,1.1,0.3v0.3h-3.5v-0.3
		c0.5-0.1,0.8-0.2,0.9-0.3c0.3-0.3,0.6-0.8,0.9-1.6l4-9.3h0.3l3.9,9.4c0.3,0.8,0.6,1.2,0.9,1.5c0.3,0.2,0.6,0.3,1.1,0.4v0.3h-4.4
		v-0.3c0.4,0,0.8-0.1,0.9-0.2c0.2-0.1,0.2-0.3,0.2-0.5c0-0.2-0.1-0.6-0.3-1.2L293.9,470.3z M293.7,469.7l-1.9-4.5l-2,4.5H293.7z"/>
	<path d="M308.2,470.9l0.3,0.1l-1,3.1h-8.7v-0.3h0.4c0.5,0,0.8-0.2,1-0.5c0.1-0.2,0.2-0.6,0.2-1.2v-7.3c0-0.7-0.1-1.1-0.2-1.3
		c-0.2-0.2-0.5-0.4-1-0.4h-0.4v-0.3h5.1v0.3c-0.6,0-1,0.1-1.3,0.2c-0.2,0.1-0.4,0.3-0.5,0.4s-0.1,0.6-0.1,1.3v7.1
		c0,0.5,0,0.8,0.1,0.9c0.1,0.1,0.2,0.2,0.3,0.3c0.1,0.1,0.6,0.1,1.3,0.1h0.8c0.9,0,1.5-0.1,1.8-0.2c0.3-0.1,0.7-0.4,1-0.7
		C307.6,472.1,307.9,471.6,308.2,470.9z"/>
	<path d="M312.3,463.4v4.4h2.5c0.6,0,1.1-0.1,1.3-0.3c0.3-0.3,0.4-0.7,0.5-1.3h0.3v3.9h-0.3c-0.1-0.5-0.2-0.9-0.2-1.1
		c-0.1-0.2-0.3-0.3-0.5-0.5c-0.2-0.1-0.6-0.2-1-0.2h-2.5v3.7c0,0.5,0,0.8,0.1,0.9c0,0.1,0.1,0.2,0.2,0.3s0.3,0.1,0.6,0.1h1.9
		c0.6,0,1.1,0,1.4-0.1c0.3-0.1,0.6-0.3,0.8-0.5c0.3-0.3,0.7-0.9,1.1-1.6h0.3l-1,2.8h-8.7v-0.3h0.4c0.3,0,0.5-0.1,0.8-0.2
		c0.2-0.1,0.3-0.2,0.4-0.4s0.1-0.5,0.1-1.1v-7.3c0-0.7-0.1-1.2-0.2-1.3c-0.2-0.2-0.5-0.3-1-0.3h-0.4v-0.3h8.7l0.1,2.5h-0.3
		c-0.1-0.6-0.2-1-0.4-1.2c-0.1-0.2-0.3-0.4-0.6-0.5c-0.2-0.1-0.6-0.1-1.2-0.1H312.3z"/>
</g>
<g>
	<path d="M313.4,201.1l0.3,0.1l-1,3.1h-8.7v-0.3h0.4c0.5,0,0.8-0.2,1-0.5c0.1-0.2,0.2-0.6,0.2-1.2v-7.3c0-0.7-0.1-1.1-0.2-1.3
		c-0.2-0.2-0.5-0.4-1-0.4h-0.4v-0.3h5.1v0.3c-0.6,0-1,0-1.3,0.2c-0.2,0.1-0.4,0.3-0.5,0.4s-0.1,0.6-0.1,1.3v7.1c0,0.5,0,0.8,0.1,0.9
		c0.1,0.1,0.2,0.2,0.3,0.3c0.1,0.1,0.6,0.1,1.3,0.1h0.8c0.9,0,1.5-0.1,1.8-0.2s0.7-0.4,1-0.7C312.8,202.3,313.1,201.8,313.4,201.1z"
		/>
	<path d="M324.2,192.7l0.3,3.8h-0.3c-0.3-1.1-0.8-2-1.5-2.5s-1.4-0.8-2.3-0.8c-0.7,0-1.4,0.2-2,0.6c-0.6,0.4-1.1,1-1.4,1.8
		s-0.5,1.9-0.5,3.1c0,1,0.2,1.9,0.5,2.6c0.3,0.7,0.8,1.3,1.5,1.7c0.7,0.4,1.4,0.6,2.2,0.6c0.7,0,1.4-0.2,1.9-0.5
		c0.6-0.3,1.2-0.9,1.8-1.9l0.3,0.2c-0.6,1-1.2,1.7-2,2.2c-0.8,0.5-1.6,0.7-2.7,0.7c-1.9,0-3.3-0.7-4.3-2.1c-0.8-1-1.1-2.2-1.1-3.6
		c0-1.1,0.3-2.2,0.8-3.1c0.5-0.9,1.2-1.7,2.1-2.2c0.9-0.5,1.8-0.8,2.9-0.8c0.8,0,1.6,0.2,2.4,0.6c0.2,0.1,0.4,0.2,0.5,0.2
		c0.1,0,0.3-0.1,0.4-0.2c0.1-0.1,0.2-0.4,0.3-0.6H324.2z"/>
</g>
<g>
	<path d="M263.8,172.5l1,9.1l6.5-9.1h2.7v0.3c-0.6,0-0.9,0.1-1.1,0.1c-0.2,0.1-0.3,0.2-0.5,0.4s-0.3,0.6-0.5,1.2l-2.1,7.1
		c-0.1,0.4-0.2,0.7-0.2,1c0,0.2,0.1,0.4,0.2,0.5c0.2,0.2,0.5,0.2,1,0.2h0.2l-0.1,0.3h-4.7l0.1-0.3h0.2c0.4,0,0.7-0.1,1-0.2
		c0.2-0.1,0.3-0.3,0.5-0.5c0.1-0.2,0.3-0.8,0.6-1.6l1.9-6.5l-6.6,9.2h-0.3l-1.1-9.2l-2,7c-0.2,0.6-0.3,1-0.3,1.2s0.1,0.4,0.2,0.5
		c0.1,0.1,0.5,0.2,1.1,0.2l-0.1,0.3h-3.7l0.1-0.3h0.2c0.5,0,0.9-0.1,1.2-0.4c0.2-0.2,0.4-0.6,0.6-1.3l2.4-8.4
		c-0.2-0.2-0.4-0.3-0.5-0.4s-0.5-0.1-0.9-0.2l0.1-0.3H263.8z"/>
</g>
<g>
	<path d="M266.5,93.8l-1.3,4.4h1.1c0.8,0,1.3-0.1,1.6-0.3c0.3-0.2,0.6-0.7,0.9-1.3h0.3l-1.2,4.1h-0.3c0.1-0.3,0.1-0.6,0.1-0.9
		c0-0.2,0-0.4-0.1-0.6s-0.2-0.3-0.4-0.3c-0.2-0.1-0.5-0.1-1.1-0.1h-1.1l-1.1,3.7c-0.1,0.4-0.2,0.6-0.2,0.8c0,0.1,0.1,0.3,0.2,0.4
		c0.1,0.1,0.3,0.1,0.7,0.1h1c1.1,0,1.9-0.2,2.6-0.6s1.2-1,1.7-2h0.3l-1.1,3.1h-8.7l0.1-0.3c0.4,0,0.7,0,0.9-0.1
		c0.2-0.1,0.4-0.2,0.5-0.4c0.1-0.2,0.3-0.7,0.5-1.4l2-6.8c0.2-0.5,0.2-1,0.2-1.3c0-0.2-0.1-0.4-0.2-0.5c-0.1-0.1-0.4-0.2-0.9-0.2
		h-0.2l0.1-0.3h8.1l-0.7,2.7h-0.3c0-0.3,0.1-0.5,0.1-0.6c0-0.3-0.1-0.5-0.2-0.7c-0.2-0.3-0.5-0.4-0.8-0.6c-0.3-0.1-0.9-0.1-1.8-0.1
		H266.5z"/>
</g>
<g>
	<path d="M169.6,140.9l2.4-1.8l0.3-0.1l1.8,9.3c0.1,0.6,0.2,1,0.3,1.1c0.1,0.1,0.2,0.2,0.4,0.3c0.2,0,0.5,0,1-0.1l0.1,0.3l-4.2,0.8
		l-0.1-0.3c0.5-0.1,0.8-0.2,1-0.3c0.1-0.1,0.2-0.2,0.3-0.4c0-0.1,0-0.5-0.1-1.2l-1.2-6c-0.2-0.8-0.3-1.3-0.4-1.5
		c-0.1-0.2-0.2-0.3-0.3-0.3c-0.1-0.1-0.2-0.1-0.4-0.1c-0.2,0-0.5,0.2-0.8,0.4L169.6,140.9z"/>
	<path d="M177.5,144c-0.2-1.3-0.3-2.4-0.1-3.4c0.2-1,0.6-1.8,1.1-2.3c0.4-0.4,0.9-0.7,1.4-0.8c0.8-0.2,1.7,0.1,2.5,0.9
		c1,0.9,1.8,2.3,2.1,4.1c0.2,1.3,0.3,2.4,0.1,3.4c-0.2,1-0.5,1.7-1,2.2c-0.5,0.5-1,0.8-1.5,0.9c-1.1,0.2-2.1-0.2-3-1.4
		C178.3,146.7,177.7,145.5,177.5,144z M179.1,143.9c0.3,1.5,0.7,2.7,1.3,3.6c0.5,0.7,1,1.1,1.6,0.9c0.3-0.1,0.6-0.2,0.8-0.6
		s0.4-0.8,0.5-1.5c0.1-1-0.1-2.3-0.4-4c-0.2-1.3-0.6-2.3-1-3.1c-0.3-0.6-0.7-1-1-1.2c-0.3-0.1-0.5-0.2-0.9-0.1
		c-0.4,0.1-0.7,0.3-0.9,0.7c-0.3,0.5-0.4,1.3-0.4,2.3C178.8,142,178.9,143,179.1,143.9z"/>
	<path d="M185.8,142.4c-0.2-1.3-0.3-2.4-0.1-3.4c0.2-1,0.6-1.8,1.1-2.3c0.4-0.4,0.9-0.7,1.4-0.8c0.8-0.2,1.7,0.1,2.5,0.9
		c1,0.9,1.8,2.3,2.1,4.1c0.2,1.3,0.3,2.4,0.1,3.4c-0.2,1-0.5,1.7-1,2.2c-0.5,0.5-1,0.8-1.5,0.9c-1.1,0.2-2.1-0.2-3-1.4
		C186.6,145.1,186.1,143.9,185.8,142.4z M187.4,142.3c0.3,1.5,0.7,2.7,1.3,3.6c0.5,0.7,1,1.1,1.6,0.9c0.3-0.1,0.6-0.2,0.8-0.6
		c0.3-0.3,0.4-0.8,0.5-1.5c0.1-1-0.1-2.3-0.4-4c-0.2-1.3-0.6-2.3-1-3.1c-0.3-0.6-0.7-1-1-1.2c-0.3-0.1-0.5-0.2-0.9-0.1
		c-0.4,0.1-0.7,0.3-0.9,0.7c-0.3,0.5-0.4,1.3-0.4,2.3C187.1,140.4,187.3,141.3,187.4,142.3z"/>
	<path d="M196.4,144.4c0.3,0,0.5,0,0.7,0.1c0.2,0.1,0.3,0.3,0.4,0.6c0,0.2,0,0.5-0.1,0.7c-0.1,0.2-0.3,0.3-0.6,0.4
		c-0.2,0-0.5,0-0.7-0.1c-0.2-0.1-0.3-0.3-0.4-0.6c0-0.3,0-0.5,0.1-0.7C195.9,144.5,196.1,144.4,196.4,144.4z"/>
	<path d="M198.3,140c-0.2-1.3-0.3-2.4-0.1-3.4c0.2-1,0.6-1.8,1.1-2.3c0.4-0.4,0.9-0.7,1.4-0.8c0.8-0.2,1.7,0.1,2.5,0.9
		c1,0.9,1.8,2.3,2.1,4.1c0.2,1.3,0.3,2.4,0.1,3.4c-0.2,1-0.5,1.7-1,2.2c-0.5,0.5-1,0.8-1.5,0.9c-1.1,0.2-2.1-0.2-3-1.4
		C199.2,142.6,198.6,141.4,198.3,140z M200,139.9c0.3,1.5,0.7,2.7,1.3,3.6c0.5,0.8,1,1.1,1.6,0.9c0.3-0.1,0.6-0.2,0.8-0.6
		s0.4-0.8,0.5-1.5c0.1-1-0.1-2.3-0.4-4c-0.2-1.3-0.6-2.3-1-3.1c-0.3-0.6-0.7-1-1-1.2c-0.3-0.1-0.5-0.2-0.9-0.1
		c-0.4,0.1-0.7,0.3-0.9,0.7c-0.3,0.5-0.4,1.3-0.4,2.3C199.7,137.9,199.8,138.9,200,139.9z"/>
	<path d="M206.7,138.3c-0.2-1.3-0.3-2.4-0.1-3.4c0.2-1,0.6-1.8,1.1-2.3c0.4-0.4,0.9-0.7,1.4-0.8c0.8-0.2,1.7,0.1,2.5,0.9
		c1,0.9,1.8,2.3,2.1,4.1c0.2,1.3,0.3,2.4,0.1,3.4c-0.2,1-0.5,1.7-1,2.2c-0.5,0.5-1,0.8-1.5,0.9c-1.1,0.2-2.1-0.2-3-1.4
		C207.5,141,207,139.8,206.7,138.3z M208.3,138.2c0.3,1.5,0.7,2.7,1.3,3.6c0.5,0.7,1,1.1,1.6,0.9c0.3-0.1,0.6-0.2,0.8-0.6
		c0.3-0.3,0.4-0.8,0.5-1.5c0.1-1-0.1-2.3-0.4-4c-0.2-1.3-0.6-2.3-1-3.1c-0.3-0.6-0.7-1-1-1.2c-0.3-0.1-0.5-0.2-0.9-0.1
		c-0.4,0.1-0.7,0.3-0.9,0.7c-0.3,0.5-0.4,1.3-0.4,2.3C208,136.3,208.1,137.3,208.3,138.2z"/>
</g>
<g>
	<path d="M280.7,330.7l-0.2,0.3l-4.5-1.1l0.2-0.3c0.5,0.1,0.8,0.1,0.9,0.1c0.3,0,0.5-0.1,0.6-0.2c0.2-0.2,0.5-0.6,0.9-1.2l3.6-6.1
		c0.3-0.5,0.5-0.9,0.6-1.2c0-0.1,0-0.3,0-0.4c0-0.1-0.1-0.2-0.3-0.3c-0.1-0.1-0.4-0.2-0.8-0.3l0.2-0.3l4.2,1.1l-0.2,0.3
		c-0.3-0.1-0.6-0.1-0.8-0.1c-0.3,0-0.5,0.2-0.7,0.3s-0.4,0.6-0.8,1.2l-3.5,6.1c-0.3,0.6-0.5,0.9-0.5,1.1c0,0.1,0,0.3,0,0.4
		c0,0.1,0.1,0.2,0.3,0.3C279.9,330.5,280.2,330.6,280.7,330.7z"/>
	<path d="M290.4,337l-0.1,0.3c-0.7-0.6-1.3-1.3-1.7-1.9c-0.6-1-0.9-2-1.1-3.2c-0.2-1.2-0.1-2.3,0.2-3.5c0.4-1.7,1.2-3.1,2.4-4.2
		c1.2-1.2,2.5-1.9,4-2.1l-0.1,0.3c-0.8,0.2-1.4,0.6-2,1.1c-0.6,0.5-1.1,1.2-1.6,2.2c-0.5,0.9-0.8,1.9-1.1,3
		c-0.3,1.1-0.5,2.2-0.5,3.2c0,0.8,0,1.4,0.1,1.9c0.1,0.5,0.2,1,0.5,1.5C289.7,335.9,290,336.4,290.4,337z"/>
	<path d="M300.5,324.2c1.4,0.4,2.5,1.2,3.3,2.5s0.9,2.8,0.5,4.4c-0.4,1.7-1.3,2.9-2.6,3.7c-1.3,0.8-2.7,1.1-4.2,0.7
		c-1.5-0.4-2.6-1.2-3.4-2.6s-0.9-2.8-0.5-4.5c0.4-1.7,1.4-3,2.8-3.8C297.7,324,299,323.8,300.5,324.2z M300.2,324.7
		c-1-0.2-1.9-0.1-2.6,0.5c-1,0.7-1.7,1.9-2.1,3.7c-0.4,1.8-0.4,3.2,0.1,4.4c0.4,0.9,1.1,1.4,2,1.7c1,0.3,2,0.1,2.8-0.6
		c0.9-0.6,1.5-1.8,2-3.5c0.5-1.9,0.5-3.4,0-4.5C301.9,325.6,301.2,325,300.2,324.7z"/>
	<path d="M314.7,339.6l-2.9-0.7l-2.4-6c-0.3-0.1-0.5-0.1-0.7-0.2c-0.1,0-0.1,0-0.2-0.1c-0.1,0-0.2,0-0.2-0.1l-0.8,3.2
		c-0.2,0.7-0.2,1.1-0.1,1.3c0.1,0.3,0.4,0.5,0.8,0.6l0.4,0.1l-0.1,0.3l-4.7-1.2l0.1-0.3l0.4,0.1c0.5,0.1,0.8,0,1.1-0.2
		c0.2-0.1,0.3-0.5,0.5-1.1l1.8-7.1c0.2-0.7,0.2-1.1,0.1-1.3c-0.1-0.3-0.4-0.5-0.8-0.6l-0.4-0.1l0.1-0.3l4,1c1.2,0.3,2,0.6,2.5,0.9
		c0.5,0.3,0.9,0.7,1.2,1.3c0.3,0.5,0.3,1.1,0.2,1.8c-0.2,0.7-0.5,1.2-1.1,1.6c-0.6,0.4-1.3,0.6-2.3,0.5l1.5,3.7
		c0.3,0.8,0.7,1.4,1,1.8c0.3,0.3,0.8,0.6,1.3,0.8L314.7,339.6z M308.3,332.1c0.1,0,0.2,0,0.3,0.1c0.1,0,0.1,0,0.2,0.1
		c1,0.3,1.9,0.2,2.5-0.1c0.6-0.3,1.1-0.8,1.2-1.5c0.2-0.7,0.1-1.3-0.2-1.8c-0.3-0.5-0.8-0.9-1.5-1.1c-0.3-0.1-0.7-0.1-1.3-0.2
		L308.3,332.1z"/>
	<path d="M328.5,343.1l-9.7-2.4l7.9-9.9L328.5,343.1z M326.8,342l-1.3-8.6l-5.5,6.9L326.8,342z"/>
	<path d="M331.9,332.1l0.1-0.3c0.7,0.6,1.3,1.3,1.7,1.9c0.6,1,0.9,2,1.1,3.2c0.2,1.2,0.1,2.3-0.2,3.5c-0.4,1.7-1.2,3.1-2.4,4.2
		c-1.2,1.2-2.5,1.9-4,2.1l0.1-0.3c0.8-0.2,1.4-0.6,2-1.1c0.6-0.5,1.1-1.2,1.6-2.2c0.5-0.9,0.8-1.9,1.1-3c0.3-1.1,0.5-2.2,0.5-3.2
		c0.1-0.8,0-1.4-0.1-1.9c-0.1-0.5-0.2-1-0.5-1.5C332.7,333.2,332.4,332.7,331.9,332.1z"/>
</g>
<g>
	<path d="M200.7,267.6l-0.1,0.3H196l0.1-0.3c0.5,0,0.8,0,0.9-0.1c0.2-0.1,0.4-0.2,0.5-0.4c0.2-0.3,0.4-0.7,0.6-1.4l2-6.8
		c0.2-0.6,0.2-1,0.2-1.3c0-0.1,0-0.3-0.1-0.4c-0.1-0.1-0.2-0.2-0.3-0.2c-0.1-0.1-0.4-0.1-0.9-0.1l0.1-0.3h4.3l-0.1,0.3
		c-0.4,0-0.6,0-0.8,0.1c-0.2,0.1-0.4,0.3-0.6,0.5s-0.3,0.7-0.5,1.4l-2,6.8c-0.2,0.6-0.3,1-0.3,1.2c0,0.1,0,0.3,0.1,0.4
		c0.1,0.1,0.2,0.2,0.3,0.2C199.9,267.5,200.2,267.5,200.7,267.6z"/>
</g>
<line fill="none" stroke="#231F20" stroke-width="0.5" stroke-miterlimit="10" x1="189.5" y1="271.3" x2="208.5" y2="271.3"/>
<g>
	<path d="M202.6,283.6l-0.8,2.2h-6.6v-0.3c2-1.8,3.3-3.2,4.1-4.4s1.2-2.2,1.2-3.1c0-0.7-0.2-1.3-0.7-1.8s-1-0.7-1.6-0.7
		c-0.6,0-1,0.2-1.5,0.5c-0.4,0.3-0.8,0.8-1,1.4h-0.3c0.1-1,0.5-1.8,1.1-2.4c0.6-0.5,1.3-0.8,2.1-0.8c0.9,0,1.7,0.3,2.3,0.9
		s0.9,1.3,0.9,2.1c0,0.6-0.1,1.1-0.4,1.7c-0.4,0.9-1.1,1.8-2,2.8c-1.4,1.5-2.2,2.4-2.6,2.7h2.9c0.6,0,1,0,1.3-0.1
		c0.2,0,0.5-0.1,0.7-0.3c0.2-0.1,0.4-0.3,0.5-0.6H202.6z"/>
</g>
<g>
	<path d="M330.1,270.5l-0.1,0.3h-4.6l0.1-0.3c0.5,0,0.8,0,0.9-0.1c0.2-0.1,0.4-0.2,0.5-0.4c0.2-0.3,0.4-0.7,0.6-1.4l2-6.8
		c0.2-0.6,0.2-1,0.2-1.3c0-0.1,0-0.3-0.1-0.4c-0.1-0.1-0.2-0.2-0.3-0.2c-0.1-0.1-0.4-0.1-0.9-0.1l0.1-0.3h4.3l-0.1,0.3
		c-0.4,0-0.6,0-0.8,0.1c-0.2,0.1-0.4,0.3-0.6,0.5s-0.3,0.7-0.5,1.4l-2,6.8c-0.2,0.6-0.3,1-0.3,1.2c0,0.1,0,0.3,0.1,0.4
		c0.1,0.1,0.2,0.2,0.3,0.2C329.3,270.4,329.7,270.4,330.1,270.5z"/>
</g>
<line fill="none" stroke="#231F20" stroke-width="0.5" stroke-miterlimit="10" x1="318.9" y1="274.2" x2="337.9" y2="274.2"/>
<g>
	<path d="M332.9,286.5l-0.8,2.2h-6.6v-0.3c2-1.8,3.3-3.2,4.1-4.4s1.2-2.2,1.2-3.1c0-0.7-0.2-1.3-0.7-1.8s-1-0.7-1.6-0.7
		c-0.6,0-1,0.2-1.5,0.5c-0.4,0.3-0.8,0.8-1,1.4h-0.3c0.1-1,0.5-1.8,1.1-2.4c0.6-0.5,1.3-0.8,2.1-0.8c0.9,0,1.7,0.3,2.3,0.9
		s0.9,1.3,0.9,2.1c0,0.6-0.1,1.1-0.4,1.7c-0.4,0.9-1.1,1.8-2,2.8c-1.4,1.5-2.2,2.4-2.6,2.7h2.9c0.6,0,1,0,1.3-0.1
		c0.2,0,0.5-0.1,0.7-0.3c0.2-0.1,0.4-0.3,0.5-0.6H332.9z"/>
</g>
<polyline stroke="#000000" stroke-width="0.2475" stroke-linecap="round" stroke-linejoin="round" stroke-miterlimit="10" points="
	462.4,211.1 476,209.1 462.4,207 462.4,211.1 "/>
<polyline stroke="#000000" stroke-width="0.2475" stroke-linecap="round" stroke-linejoin="round" stroke-miterlimit="10" points="
	175.1,325 166.9,332 177.1,327.5 175.1,325 "/>
<polyline stroke="#000000" stroke-width="0.2475" stroke-linecap="round" stroke-linejoin="round" stroke-miterlimit="10" points="
	202.8,354.7 194.6,361.7 204.8,357.2 202.8,354.7 "/>
<polyline stroke="#000000" stroke-width="0.2475" stroke-linecap="round" stroke-linejoin="round" stroke-miterlimit="10" points="
	265.8,263.6 254.9,265 254.9,261.9 265.8,263.6 "/>
<polyline fill="none" stroke="#000000" stroke-width="0.2475" stroke-linecap="round" stroke-linejoin="round" stroke-miterlimit="10" points="
	264.7,340.4 269.9,340.4 275.2,340.7 280.5,341.1 285.8,341.8 290.9,342.6 296,343.6 301.1,344.9 306.1,346.4 311.1,348 
	315.9,349.9 320.6,351.9 325.3,354.2 329.8,356.6 334.1,359.2 337.4,361.4 329.8,356.7 "/>
<polyline stroke="#000000" stroke-width="0.2475" stroke-linecap="round" stroke-linejoin="round" stroke-miterlimit="10" points="
	328.5,353.9 336.7,360.9 326.5,356.4 328.5,353.9 "/>
</svg>
