<?xml version="1.0" encoding="iso-8859-1"?>
<!-- Generator: Adobe Illustrator 29.3.1, SVG Export Plug-In . SVG Version: 9.03 Build 55982)  -->
<svg version="1.1" id="Layer_1" xmlns="http://www.w3.org/2000/svg" xmlns:xlink="http://www.w3.org/1999/xlink" x="0px" y="0px"
	 width="531px" height="319.8px" viewBox="0 0 531 319.8" enable-background="new 0 0 531 319.8" xml:space="preserve">
<line fill="none" stroke="#000000" stroke-width="0.5" stroke-linecap="round" stroke-linejoin="round" stroke-miterlimit="10" x1="421.1" y1="205.4" x2="421.1" y2="205.4"/>
<line fill="none" stroke="#000000" stroke-width="0.5" stroke-linecap="round" stroke-linejoin="round" stroke-miterlimit="10" x1="421.1" y1="205.4" x2="409.3" y2="217.6"/>
<line fill="none" stroke="#000000" stroke-width="0.5" stroke-linecap="round" stroke-linejoin="round" stroke-miterlimit="10" x1="404" y1="203.7" x2="404.2" y2="203.7"/>
<line fill="none" stroke="#000000" stroke-width="0.5" stroke-linecap="round" stroke-linejoin="round" stroke-miterlimit="10" x1="404" y1="203.7" x2="412.8" y2="194.4"/>
<line fill="none" stroke="#000000" stroke-width="0.5" stroke-linecap="round" stroke-linejoin="round" stroke-miterlimit="10" x1="404" y1="184.3" x2="404.2" y2="184.3"/>
<line fill="none" stroke="#000000" stroke-width="0.5" stroke-linecap="round" stroke-linejoin="round" stroke-miterlimit="10" x1="404" y1="184.3" x2="411.8" y2="176.3"/>
<line fill="none" stroke="#000000" stroke-width="0.5" stroke-linecap="round" stroke-linejoin="round" stroke-miterlimit="10" x1="404" y1="164.7" x2="404.2" y2="164.9"/>
<line fill="none" stroke="#000000" stroke-width="0.5" stroke-linecap="round" stroke-linejoin="round" stroke-miterlimit="10" x1="404" y1="164.7" x2="410.5" y2="158"/>
<line fill="none" stroke="#000000" stroke-width="0.5" stroke-linecap="round" stroke-linejoin="round" stroke-miterlimit="10" x1="404" y1="145.5" x2="404.2" y2="145.7"/>
<line fill="none" stroke="#000000" stroke-width="0.5" stroke-linecap="round" stroke-linejoin="round" stroke-miterlimit="10" x1="404" y1="145.5" x2="413.3" y2="135.6"/>
<line fill="none" stroke="#000000" stroke-width="0.5" stroke-linecap="round" stroke-linejoin="round" stroke-miterlimit="10" x1="414.7" y1="134.2" x2="415" y2="134.4"/>
<line fill="none" stroke="#000000" stroke-width="0.5" stroke-linecap="round" stroke-linejoin="round" stroke-miterlimit="10" x1="414.7" y1="134.2" x2="424.9" y2="123.8"/>
<line fill="none" stroke="#000000" stroke-width="0.5" stroke-linecap="round" stroke-linejoin="round" stroke-miterlimit="10" x1="430.4" y1="137.5" x2="430.6" y2="137.5"/>
<line fill="none" stroke="#000000" stroke-width="0.5" stroke-linecap="round" stroke-linejoin="round" stroke-miterlimit="10" x1="430.4" y1="137.5" x2="443.7" y2="123.8"/>
<line fill="none" stroke="#000000" stroke-width="0.5" stroke-linecap="round" stroke-linejoin="round" stroke-miterlimit="10" x1="447" y1="139.4" x2="447.3" y2="139.6"/>
<line fill="none" stroke="#000000" stroke-width="0.5" stroke-linecap="round" stroke-linejoin="round" stroke-miterlimit="10" x1="447" y1="139.4" x2="462.2" y2="123.8"/>
<line fill="none" stroke="#000000" stroke-width="0.5" stroke-linecap="round" stroke-linejoin="round" stroke-miterlimit="10" x1="404" y1="126.1" x2="404.2" y2="126.1"/>
<line fill="none" stroke="#000000" stroke-width="0.5" stroke-linecap="round" stroke-linejoin="round" stroke-miterlimit="10" x1="404" y1="126.1" x2="406.3" y2="123.8"/>
<line fill="none" stroke="#000000" stroke-width="0.5" stroke-linecap="round" stroke-linejoin="round" stroke-miterlimit="10" x1="402.7" y1="121.9" x2="402.9" y2="121.9"/>
<polyline fill="none" stroke="#000000" stroke-width="0.5" stroke-linecap="round" stroke-linejoin="round" stroke-miterlimit="10" points="
	212.1,217.6 23.1,217.6 402.7,26.1 212.1,217.6 "/>
<line fill="none" stroke="#000000" stroke-width="0.5" stroke-linecap="round" stroke-linejoin="round" stroke-miterlimit="10" x1="84.8" y1="217.6" x2="85" y2="217.6"/>
<line fill="none" stroke="#000000" stroke-width="0.5" stroke-linecap="round" stroke-linejoin="round" stroke-miterlimit="10" x1="234" y1="217.6" x2="234" y2="217.6"/>
<line fill="none" stroke="#000000" stroke-width="0.5" stroke-linecap="round" stroke-linejoin="round" stroke-miterlimit="10" x1="212.1" y1="217.6" x2="284.9" y2="217.6"/>
<line fill="none" stroke="#000000" stroke-width="0.5" stroke-linecap="round" stroke-linejoin="round" stroke-miterlimit="10" x1="278.8" y1="217.6" x2="278.8" y2="217.6"/>
<line fill="none" stroke="#000000" stroke-width="0.5" stroke-linecap="round" stroke-linejoin="round" stroke-miterlimit="10" x1="284.9" y1="217.6" x2="284.9" y2="217.6"/>
<line fill="none" stroke="#000000" stroke-width="0.5" stroke-linecap="round" stroke-linejoin="round" stroke-miterlimit="10" x1="284.9" y1="217.6" x2="506.5" y2="217.6"/>
<line fill="none" stroke="#000000" stroke-width="0.5" stroke-linecap="round" stroke-linejoin="round" stroke-miterlimit="10" x1="317.8" y1="177.4" x2="317.8" y2="177.4"/>
<line fill="none" stroke="#000000" stroke-width="0.5" stroke-linecap="round" stroke-linejoin="round" stroke-miterlimit="10" x1="292.9" y1="136.3" x2="293.1" y2="136.3"/>
<line fill="none" stroke="#000000" stroke-width="0.5" stroke-linecap="round" stroke-linejoin="round" stroke-miterlimit="10" x1="402.7" y1="26.1" x2="402.9" y2="26.1"/>
<polyline fill="none" stroke="#000000" stroke-width="0.5" stroke-linecap="round" stroke-linejoin="round" stroke-miterlimit="10" points="
	402.7,26.1 400.6,29.4 398.7,32.6 396.8,36.2 395.1,39.5 393.6,43.3 392.4,46.9 391.1,50.7 390,54.5 389.4,58.3 388.8,62.3 
	388.1,66.1 387.9,70.1 387.9,73.9 387.9,77.9 388.1,81.9 388.8,85.7 389.4,89.7 390,93.5 391.1,97.3 392.4,101.1 393.6,104.7 
	395.1,108.4 396.8,111.8 398.7,115.4 400.6,118.8 402.7,121.9 405,118.8 406.9,115.4 408.8,111.8 410.5,108.4 412,104.7 
	413.3,101.1 414.5,97.3 415.4,93.5 416.2,89.7 416.9,85.7 417.3,81.9 417.7,77.9 417.7,73.9 417.7,70.1 417.3,66.1 416.9,62.3 
	416.2,58.3 415.4,54.5 414.5,50.7 413.3,46.9 412,43.3 410.5,39.5 408.8,36.2 406.9,32.6 405,29.4 402.7,26.1 "/>
<line fill="none" stroke="#000000" stroke-width="0.5" stroke-linecap="round" stroke-linejoin="round" stroke-miterlimit="10" x1="391.3" y1="50.1" x2="391.5" y2="50.1"/>
<polyline fill="none" stroke="#000000" stroke-width="0.5" stroke-linecap="round" stroke-linejoin="round" stroke-miterlimit="10" points="
	391.3,50.1 414.3,50.1 387.9,75.6 417.7,75.6 "/>
<line fill="none" stroke="#000000" stroke-width="0.5" stroke-linecap="round" stroke-linejoin="round" stroke-miterlimit="10" x1="418.3" y1="74.9" x2="418.3" y2="75.1"/>
<polyline fill="none" stroke="#000000" stroke-width="0.5" stroke-linecap="round" stroke-linejoin="round" stroke-miterlimit="10" points="
	418.3,74.9 391.9,100.6 413.5,100.6 "/>
<line fill="none" stroke="#000000" stroke-width="0.5" stroke-linecap="round" stroke-linejoin="round" stroke-miterlimit="10" x1="402.7" y1="121.9" x2="402.9" y2="121.9"/>
<line fill="none" stroke="#000000" stroke-width="0.5" stroke-linecap="round" stroke-linejoin="round" stroke-miterlimit="10" x1="402.7" y1="121.9" x2="475.5" y2="121.9"/>
<line fill="none" stroke="#000000" stroke-width="0.5" stroke-linecap="round" stroke-linejoin="round" stroke-miterlimit="10" x1="402.7" y1="121.9" x2="402.9" y2="121.9"/>
<line fill="none" stroke="#000000" stroke-width="0.5" stroke-linecap="round" stroke-linejoin="round" stroke-miterlimit="10" x1="402.7" y1="121.9" x2="402.9" y2="217.6"/>
<g>
	<path d="M440.4,24.4l0.1,2.6h-0.3c-0.1-0.5-0.1-0.8-0.2-1c-0.2-0.3-0.4-0.6-0.7-0.7c-0.3-0.2-0.7-0.2-1.1-0.2h-1.6v8.6
		c0,0.7,0.1,1.1,0.2,1.3c0.2,0.2,0.5,0.3,1,0.3h0.4v0.3h-4.8v-0.3h0.4c0.5,0,0.8-0.1,1-0.4c0.1-0.2,0.2-0.6,0.2-1.2v-8.6h-1.4
		c-0.5,0-0.9,0-1.1,0.1c-0.3,0.1-0.5,0.3-0.7,0.6s-0.3,0.7-0.4,1.2h-0.3l0.1-2.6H440.4z"/>
	<path d="M446.9,24.2c1.5,0,2.7,0.6,3.8,1.7c1.1,1.1,1.6,2.5,1.6,4.2c0,1.7-0.5,3.1-1.6,4.3s-2.4,1.7-3.9,1.7
		c-1.5,0-2.9-0.6-3.9-1.7c-1.1-1.1-1.6-2.5-1.6-4.3c0-1.8,0.6-3.2,1.8-4.4C444.1,24.7,445.4,24.2,446.9,24.2z M446.7,24.8
		c-1,0-1.8,0.4-2.4,1.1c-0.8,0.9-1.1,2.3-1.1,4.1c0,1.8,0.4,3.3,1.2,4.2c0.6,0.8,1.4,1.1,2.4,1.1c1.1,0,1.9-0.4,2.6-1.2
		c0.7-0.8,1-2.1,1-3.9c0-1.9-0.4-3.4-1.1-4.3C448.6,25.2,447.8,24.8,446.7,24.8z"/>
	<path d="M468.8,24.4v0.3c-0.3,0-0.5,0.1-0.7,0.2s-0.4,0.3-0.5,0.6c-0.1,0.2-0.3,0.7-0.5,1.4l-3.1,9.1h-0.3l-2.6-7.2l-2.5,7.2h-0.3
		l-3.3-9.3c-0.2-0.7-0.4-1.1-0.5-1.2c-0.1-0.2-0.3-0.4-0.5-0.5c-0.2-0.1-0.4-0.2-0.8-0.2v-0.3h4.2v0.3h-0.2c-0.3,0-0.5,0.1-0.7,0.2
		s-0.2,0.3-0.2,0.5c0,0.2,0.1,0.6,0.4,1.3l2.2,6.3l1.9-5.4l-0.3-0.9l-0.3-0.8c-0.1-0.3-0.2-0.5-0.4-0.7c-0.1-0.1-0.2-0.2-0.3-0.3
		c-0.1-0.1-0.3-0.2-0.4-0.2c-0.1,0-0.3,0-0.5,0v-0.3h4.4v0.3h-0.3c-0.3,0-0.5,0.1-0.7,0.2c-0.1,0.1-0.2,0.3-0.2,0.5
		c0,0.3,0.1,0.8,0.4,1.5l2.2,6.1l2.1-6.2c0.2-0.7,0.4-1.2,0.4-1.4c0-0.1,0-0.2-0.1-0.4c-0.1-0.1-0.2-0.2-0.3-0.2
		c-0.2-0.1-0.5-0.1-0.8-0.1v-0.3H468.8z"/>
	<path d="M472.5,25.1v4.4h2.5c0.6,0,1.1-0.1,1.3-0.3c0.3-0.3,0.4-0.7,0.5-1.3h0.3v3.9h-0.3c-0.1-0.5-0.2-0.9-0.2-1.1
		c-0.1-0.2-0.3-0.3-0.5-0.5s-0.6-0.2-1-0.2h-2.5v3.7c0,0.5,0,0.8,0.1,0.9c0,0.1,0.1,0.2,0.2,0.3c0.1,0.1,0.3,0.1,0.6,0.1h1.9
		c0.6,0,1.1,0,1.4-0.1c0.3-0.1,0.6-0.3,0.8-0.5c0.3-0.3,0.7-0.9,1.1-1.6h0.3l-1,2.8h-8.7v-0.3h0.4c0.3,0,0.5-0.1,0.8-0.2
		c0.2-0.1,0.3-0.2,0.4-0.4s0.1-0.5,0.1-1.1v-7.3c0-0.7-0.1-1.2-0.2-1.3c-0.2-0.2-0.5-0.3-1-0.3h-0.4v-0.3h8.7l0.1,2.5h-0.3
		c-0.1-0.6-0.2-1-0.4-1.2c-0.1-0.2-0.3-0.4-0.6-0.5c-0.2-0.1-0.6-0.1-1.2-0.1H472.5z"/>
	<path d="M490.9,35.7h-3l-3.8-5.3c-0.3,0-0.5,0-0.7,0c-0.1,0-0.1,0-0.2,0c-0.1,0-0.2,0-0.3,0v3.3c0,0.7,0.1,1.1,0.2,1.3
		c0.2,0.2,0.5,0.4,0.9,0.4h0.4v0.3h-4.8v-0.3h0.4c0.5,0,0.8-0.2,1-0.5c0.1-0.2,0.2-0.6,0.2-1.2v-7.3c0-0.7-0.1-1.1-0.2-1.3
		c-0.2-0.2-0.5-0.4-1-0.4h-0.4v-0.3h4.1c1.2,0,2.1,0.1,2.6,0.3c0.6,0.2,1,0.5,1.4,1c0.4,0.5,0.6,1,0.6,1.7c0,0.7-0.2,1.3-0.7,1.8
		c-0.5,0.5-1.2,0.9-2.1,1.1l2.3,3.2c0.5,0.7,1,1.2,1.4,1.5s0.9,0.4,1.5,0.5V35.7z M482.9,29.9c0.1,0,0.2,0,0.3,0c0.1,0,0.1,0,0.2,0
		c1.1,0,1.9-0.2,2.4-0.7c0.5-0.5,0.8-1.1,0.8-1.8c0-0.7-0.2-1.3-0.7-1.7c-0.4-0.4-1-0.7-1.7-0.7c-0.3,0-0.8,0.1-1.3,0.2V29.9z"/>
</g>
<g>
	<path d="M438.9,167.5c0.8,0.2,1.4,0.4,1.8,0.8c0.5,0.5,0.8,1.1,0.8,1.9c0,0.6-0.2,1.1-0.5,1.6c-0.4,0.5-0.8,0.9-1.5,1.1
		c-0.6,0.2-1.6,0.4-2.8,0.4h-5.3v-0.3h0.4c0.5,0,0.8-0.1,1-0.4c0.1-0.2,0.2-0.6,0.2-1.2V164c0-0.7-0.1-1.1-0.2-1.3
		c-0.2-0.2-0.5-0.4-1-0.4h-0.4V162h4.9c0.9,0,1.6,0.1,2.2,0.2c0.8,0.2,1.5,0.6,1.9,1.1c0.4,0.5,0.7,1.1,0.7,1.7
		c0,0.6-0.2,1.1-0.5,1.5C440.1,167,439.6,167.3,438.9,167.5z M434.6,167.1c0.2,0,0.4,0.1,0.7,0.1c0.3,0,0.6,0,0.9,0
		c0.8,0,1.4-0.1,1.8-0.3c0.4-0.2,0.7-0.4,0.9-0.8s0.3-0.8,0.3-1.2c0-0.7-0.3-1.2-0.8-1.7c-0.5-0.5-1.3-0.7-2.3-0.7
		c-0.6,0-1.1,0.1-1.5,0.2V167.1z M434.6,172.4c0.6,0.1,1.3,0.2,1.9,0.2c1,0,1.8-0.2,2.3-0.7c0.5-0.5,0.8-1,0.8-1.7
		c0-0.4-0.1-0.9-0.4-1.3c-0.2-0.4-0.6-0.7-1.2-1c-0.5-0.2-1.2-0.3-2-0.3c-0.3,0-0.6,0-0.9,0c-0.2,0-0.4,0-0.6,0.1V172.4z"/>
	<path d="M450.5,162.3V162h4v0.3h-0.4c-0.4,0-0.8,0.2-1,0.6c-0.1,0.2-0.2,0.6-0.2,1.2v4.6c0,1.1-0.1,2-0.3,2.6
		c-0.2,0.6-0.7,1.2-1.3,1.6c-0.7,0.4-1.5,0.7-2.7,0.7c-1.2,0-2.2-0.2-2.8-0.6c-0.6-0.4-1.1-1-1.4-1.7c-0.2-0.5-0.3-1.4-0.3-2.8V164
		c0-0.7-0.1-1.1-0.3-1.4c-0.2-0.2-0.5-0.3-0.9-0.3h-0.4V162h4.9v0.3H447c-0.5,0-0.8,0.1-1,0.4c-0.1,0.2-0.2,0.6-0.2,1.2v4.9
		c0,0.4,0,0.9,0.1,1.5s0.2,1,0.4,1.3c0.2,0.3,0.5,0.6,0.9,0.8s0.9,0.3,1.5,0.3c0.7,0,1.4-0.2,2-0.5s1-0.7,1.2-1.2
		c0.2-0.5,0.3-1.3,0.3-2.5V164c0-0.7-0.1-1.1-0.2-1.3c-0.2-0.2-0.5-0.4-1-0.4H450.5z"/>
	<path d="M460,172.9v0.3h-4.8v-0.3h0.4c0.5,0,0.8-0.1,1-0.4c0.1-0.2,0.2-0.6,0.2-1.3V164c0-0.6,0-0.9-0.1-1.1
		c-0.1-0.1-0.2-0.3-0.3-0.4c-0.2-0.1-0.5-0.2-0.8-0.2h-0.4V162h4.8v0.3h-0.4c-0.5,0-0.8,0.1-1,0.4c-0.1,0.2-0.2,0.6-0.2,1.3v7.3
		c0,0.6,0,0.9,0.1,1.1c0.1,0.1,0.2,0.3,0.3,0.4c0.2,0.1,0.5,0.2,0.8,0.2H460z"/>
	<path d="M470.1,170.1l0.3,0.1l-1,3.1h-8.7v-0.3h0.4c0.5,0,0.8-0.2,1-0.5c0.1-0.2,0.2-0.6,0.2-1.2V164c0-0.7-0.1-1.1-0.2-1.3
		c-0.2-0.2-0.5-0.4-1-0.4h-0.4V162h5.1v0.3c-0.6,0-1,0-1.3,0.2c-0.2,0.1-0.4,0.3-0.5,0.4s-0.1,0.6-0.1,1.3v7.1c0,0.5,0,0.8,0.1,0.9
		c0.1,0.1,0.2,0.2,0.3,0.3c0.1,0.1,0.6,0.1,1.3,0.1h0.8c0.9,0,1.5-0.1,1.8-0.2s0.7-0.4,1-0.7C469.5,171.4,469.8,170.8,470.1,170.1z"
		/>
	<path d="M471,173.3v-0.3h0.4c0.5,0,0.8-0.2,1-0.5c0.1-0.2,0.2-0.6,0.2-1.2V164c0-0.7-0.1-1.1-0.2-1.3c-0.2-0.2-0.5-0.4-1-0.4H471
		V162h4.6c1.7,0,3,0.2,3.8,0.6c0.9,0.4,1.6,1,2.1,1.9s0.8,1.9,0.8,3.1c0,1.6-0.5,2.9-1.4,3.9c-1.1,1.2-2.7,1.8-4.9,1.8H471z
		 M474.3,172.4c0.7,0.2,1.3,0.2,1.8,0.2c1.3,0,2.3-0.5,3.2-1.4s1.3-2.1,1.3-3.7c0-1.6-0.4-2.8-1.3-3.7s-1.9-1.3-3.3-1.3
		c-0.5,0-1.1,0.1-1.7,0.2V172.4z"/>
	<path d="M488.3,172.9v0.3h-4.8v-0.3h0.4c0.5,0,0.8-0.1,1-0.4c0.1-0.2,0.2-0.6,0.2-1.3V164c0-0.6,0-0.9-0.1-1.1
		c-0.1-0.1-0.2-0.3-0.3-0.4c-0.2-0.1-0.5-0.2-0.8-0.2h-0.4V162h4.8v0.3h-0.4c-0.5,0-0.8,0.1-1,0.4c-0.1,0.2-0.2,0.6-0.2,1.3v7.3
		c0,0.6,0,0.9,0.1,1.1c0.1,0.1,0.2,0.3,0.3,0.4c0.2,0.1,0.5,0.2,0.8,0.2H488.3z"/>
	<path d="M488.5,162h3.1l6.9,8.4V164c0-0.7-0.1-1.1-0.2-1.3c-0.2-0.2-0.5-0.3-1-0.3h-0.4V162h3.9v0.3h-0.4c-0.5,0-0.8,0.1-1,0.4
		c-0.1,0.2-0.2,0.6-0.2,1.2v9.5h-0.3l-7.4-9.1v6.9c0,0.7,0.1,1.1,0.2,1.3c0.2,0.2,0.5,0.3,1,0.3h0.4v0.3h-3.9v-0.3h0.4
		c0.5,0,0.8-0.1,1-0.4c0.1-0.2,0.2-0.6,0.2-1.2v-7.8c-0.3-0.4-0.6-0.6-0.7-0.8s-0.4-0.2-0.7-0.3c-0.2,0-0.4-0.1-0.7-0.1V162z"/>
	<path d="M511.4,161.7l0.3,3.6h-0.3c-0.3-0.9-0.7-1.6-1.1-2c-0.7-0.6-1.5-1-2.6-1c-1.4,0-2.5,0.6-3.3,1.7c-0.6,1-0.9,2.1-0.9,3.4
		c0,1.1,0.2,2.1,0.6,2.9s1,1.5,1.6,1.9c0.7,0.4,1.4,0.6,2.1,0.6c0.4,0,0.8-0.1,1.2-0.2c0.4-0.1,0.8-0.3,1.1-0.5v-3.3
		c0-0.6,0-0.9-0.1-1.1c-0.1-0.2-0.2-0.3-0.4-0.4c-0.2-0.1-0.5-0.1-1-0.1v-0.3h4.4v0.3h-0.2c-0.4,0-0.7,0.1-0.9,0.4
		c-0.1,0.2-0.2,0.6-0.2,1.2v3.4c-0.6,0.3-1.3,0.6-1.9,0.8c-0.6,0.2-1.3,0.2-2.1,0.2c-2.2,0-3.8-0.7-5-2.1c-0.8-1-1.3-2.3-1.3-3.6
		c0-1,0.2-1.9,0.7-2.8c0.6-1.1,1.3-1.9,2.3-2.5c0.8-0.5,1.8-0.7,2.9-0.7c0.4,0,0.8,0,1.1,0.1s0.8,0.2,1.4,0.4
		c0.3,0.1,0.5,0.2,0.6,0.2c0.1,0,0.2,0,0.3-0.1c0.1-0.1,0.1-0.3,0.1-0.6H511.4z"/>
</g>
<g>
	<path d="M91.9,203.3h-4.4l-0.8,1.8c-0.2,0.4-0.3,0.8-0.3,1c0,0.2,0.1,0.3,0.2,0.5c0.2,0.1,0.5,0.2,1.1,0.3v0.3h-3.5v-0.3
		c0.5-0.1,0.8-0.2,0.9-0.3c0.3-0.3,0.6-0.8,0.9-1.6l4-9.3h0.3l3.9,9.4c0.3,0.8,0.6,1.2,0.9,1.5c0.3,0.2,0.6,0.3,1.1,0.4v0.3h-4.4
		v-0.3c0.4,0,0.8-0.1,0.9-0.2s0.2-0.3,0.2-0.5c0-0.2-0.1-0.6-0.3-1.2L91.9,203.3z M91.7,202.7l-1.9-4.5l-2,4.5H91.7z"/>
</g>
<g>
	<path d="M332.3,174.5c0.8,0.2,1.4,0.4,1.8,0.8c0.5,0.5,0.8,1.1,0.8,1.9c0,0.6-0.2,1.1-0.5,1.6c-0.4,0.5-0.8,0.9-1.5,1.1
		c-0.6,0.2-1.6,0.4-2.8,0.4h-5.3v-0.3h0.4c0.5,0,0.8-0.1,1-0.4c0.1-0.2,0.2-0.6,0.2-1.2V171c0-0.7-0.1-1.1-0.2-1.3
		c-0.2-0.2-0.5-0.4-1-0.4h-0.4V169h4.9c0.9,0,1.6,0.1,2.2,0.2c0.8,0.2,1.5,0.6,1.9,1.1c0.4,0.5,0.7,1.1,0.7,1.7
		c0,0.6-0.2,1.1-0.5,1.5C333.4,174,332.9,174.3,332.3,174.5z M327.9,174.1c0.2,0,0.4,0.1,0.7,0.1c0.3,0,0.6,0,0.9,0
		c0.8,0,1.4-0.1,1.8-0.3c0.4-0.2,0.7-0.4,0.9-0.8s0.3-0.8,0.3-1.2c0-0.7-0.3-1.2-0.8-1.7c-0.5-0.5-1.3-0.7-2.3-0.7
		c-0.6,0-1.1,0.1-1.5,0.2V174.1z M327.9,179.4c0.6,0.1,1.3,0.2,1.9,0.2c1,0,1.8-0.2,2.3-0.7c0.5-0.5,0.8-1,0.8-1.7
		c0-0.4-0.1-0.9-0.4-1.3c-0.2-0.4-0.6-0.7-1.2-1c-0.5-0.2-1.2-0.3-2-0.3c-0.3,0-0.6,0-0.9,0c-0.2,0-0.4,0-0.6,0.1V179.4z"/>
</g>
<g>
	<path d="M11.7,212.7l2.7-1.3h0.3v9.5c0,0.6,0,1,0.1,1.2c0.1,0.2,0.2,0.3,0.3,0.4s0.5,0.1,1,0.1v0.3h-4.2v-0.3c0.5,0,0.9-0.1,1-0.1
		s0.3-0.2,0.3-0.3s0.1-0.5,0.1-1.2v-6.1c0-0.8,0-1.3-0.1-1.6c0-0.2-0.1-0.3-0.2-0.4c-0.1-0.1-0.2-0.1-0.4-0.1
		c-0.2,0-0.5,0.1-0.9,0.3L11.7,212.7z"/>
</g>
<g>
	<path d="M218.1,292.6h3.1l6.9,8.4v-6.5c0-0.7-0.1-1.1-0.2-1.3c-0.2-0.2-0.5-0.3-1-0.3h-0.4v-0.3h3.9v0.3H230c-0.5,0-0.8,0.1-1,0.4
		c-0.1,0.2-0.2,0.6-0.2,1.2v9.5h-0.3l-7.4-9.1v6.9c0,0.7,0.1,1.1,0.2,1.3c0.2,0.2,0.5,0.3,1,0.3h0.4v0.3h-3.9v-0.3h0.4
		c0.5,0,0.8-0.1,1-0.4c0.1-0.2,0.2-0.6,0.2-1.2V294c-0.3-0.4-0.6-0.6-0.7-0.8c-0.2-0.1-0.4-0.2-0.7-0.3c-0.2,0-0.4-0.1-0.7-0.1
		V292.6z"/>
	<path d="M236.8,292.3c1.5,0,2.7,0.6,3.8,1.7c1.1,1.1,1.6,2.5,1.6,4.2c0,1.7-0.5,3.1-1.6,4.3s-2.4,1.7-3.9,1.7
		c-1.5,0-2.9-0.6-3.9-1.7c-1.1-1.1-1.6-2.5-1.6-4.3c0-1.8,0.6-3.2,1.8-4.4C234.1,292.8,235.4,292.3,236.8,292.3z M236.7,292.9
		c-1,0-1.8,0.4-2.4,1.1c-0.8,0.9-1.1,2.3-1.1,4.1c0,1.8,0.4,3.3,1.2,4.2c0.6,0.8,1.4,1.1,2.4,1.1c1.1,0,1.9-0.4,2.6-1.2
		c0.7-0.8,1-2.1,1-3.9c0-1.9-0.4-3.4-1.1-4.3C238.6,293.3,237.8,292.9,236.7,292.9z"/>
	<path d="M252.7,292.6l0.1,2.6h-0.3c-0.1-0.5-0.1-0.8-0.2-1c-0.2-0.3-0.4-0.6-0.7-0.7c-0.3-0.2-0.7-0.2-1.1-0.2h-1.6v8.6
		c0,0.7,0.1,1.1,0.2,1.3c0.2,0.2,0.5,0.3,1,0.3h0.4v0.3h-4.8v-0.3h0.4c0.5,0,0.8-0.1,1-0.4c0.1-0.2,0.2-0.6,0.2-1.2v-8.6H246
		c-0.5,0-0.9,0-1.1,0.1c-0.3,0.1-0.5,0.3-0.7,0.6c-0.2,0.3-0.3,0.7-0.4,1.2h-0.3l0.1-2.6H252.7z"/>
	<path d="M266.8,292.6l0.1,2.6h-0.3c-0.1-0.5-0.1-0.8-0.2-1c-0.2-0.3-0.4-0.6-0.7-0.7c-0.3-0.2-0.7-0.2-1.1-0.2h-1.6v8.6
		c0,0.7,0.1,1.1,0.2,1.3c0.2,0.2,0.5,0.3,1,0.3h0.4v0.3h-4.8v-0.3h0.4c0.5,0,0.8-0.1,1-0.4c0.1-0.2,0.2-0.6,0.2-1.2v-8.6H260
		c-0.5,0-0.9,0-1.1,0.1c-0.3,0.1-0.5,0.3-0.7,0.6s-0.3,0.7-0.4,1.2h-0.3l0.1-2.6H266.8z"/>
	<path d="M273.2,292.3c1.5,0,2.7,0.6,3.8,1.7c1.1,1.1,1.6,2.5,1.6,4.2c0,1.7-0.5,3.1-1.6,4.3s-2.4,1.7-3.9,1.7
		c-1.5,0-2.9-0.6-3.9-1.7c-1.1-1.1-1.6-2.5-1.6-4.3c0-1.8,0.6-3.2,1.8-4.4C270.5,292.8,271.8,292.3,273.2,292.3z M273.1,292.9
		c-1,0-1.8,0.4-2.4,1.1c-0.8,0.9-1.1,2.3-1.1,4.1c0,1.8,0.4,3.3,1.2,4.2c0.6,0.8,1.4,1.1,2.4,1.1c1.1,0,1.9-0.4,2.6-1.2
		c0.7-0.8,1-2.1,1-3.9c0-1.9-0.4-3.4-1.1-4.3C275,293.3,274.1,292.9,273.1,292.9z"/>
	<path d="M291.3,292.3v3.9H291c-0.1-0.7-0.3-1.3-0.5-1.8c-0.3-0.4-0.6-0.8-1.1-1.1c-0.5-0.3-1-0.4-1.5-0.4c-0.6,0-1.1,0.2-1.4,0.5
		c-0.4,0.4-0.6,0.8-0.6,1.2c0,0.3,0.1,0.7,0.4,0.9c0.3,0.4,1.2,1,2.4,1.7c1.1,0.6,1.8,1,2.2,1.3s0.7,0.7,0.9,1.1
		c0.2,0.4,0.3,0.8,0.3,1.3c0,0.9-0.3,1.6-1,2.2c-0.7,0.6-1.5,0.9-2.6,0.9c-0.3,0-0.6,0-0.9-0.1c-0.2,0-0.5-0.1-1.1-0.3
		c-0.5-0.2-0.9-0.3-1-0.3c-0.1,0-0.2,0-0.3,0.1c-0.1,0.1-0.1,0.3-0.2,0.5h-0.3v-3.9h0.3c0.1,0.8,0.3,1.4,0.6,1.8s0.6,0.7,1.1,1
		s1,0.4,1.6,0.4c0.7,0,1.2-0.2,1.6-0.5s0.6-0.8,0.6-1.3c0-0.3-0.1-0.6-0.2-0.8c-0.2-0.3-0.4-0.5-0.7-0.8c-0.2-0.2-0.8-0.5-1.8-1.1
		c-1-0.5-1.6-1-2.1-1.3c-0.4-0.3-0.7-0.7-0.9-1.1s-0.3-0.8-0.3-1.3c0-0.8,0.3-1.5,0.9-2.1s1.4-0.9,2.4-0.9c0.6,0,1.2,0.1,1.9,0.4
		c0.3,0.1,0.5,0.2,0.7,0.2c0.1,0,0.3,0,0.4-0.1c0.1-0.1,0.2-0.3,0.2-0.5H291.3z"/>
	<path d="M303.2,292.3l0.3,3.8h-0.3c-0.3-1.1-0.8-2-1.5-2.5c-0.6-0.5-1.4-0.8-2.3-0.8c-0.7,0-1.4,0.2-2,0.6s-1.1,1-1.4,1.8
		s-0.5,1.9-0.5,3.1c0,1,0.2,1.9,0.5,2.6c0.3,0.7,0.8,1.3,1.5,1.7c0.7,0.4,1.4,0.6,2.2,0.6c0.7,0,1.4-0.2,1.9-0.5
		c0.6-0.3,1.2-0.9,1.8-1.9l0.3,0.2c-0.6,1-1.2,1.7-2,2.2c-0.8,0.5-1.6,0.7-2.7,0.7c-1.9,0-3.3-0.7-4.3-2.1c-0.8-1-1.1-2.2-1.1-3.6
		c0-1.1,0.3-2.2,0.8-3.1c0.5-0.9,1.2-1.7,2.1-2.2c0.9-0.5,1.8-0.8,2.9-0.8c0.8,0,1.6,0.2,2.4,0.6c0.2,0.1,0.4,0.2,0.5,0.2
		c0.1,0,0.3-0.1,0.4-0.2c0.1-0.1,0.2-0.4,0.3-0.6H303.2z"/>
	<path d="M312.1,300h-4.4l-0.8,1.8c-0.2,0.4-0.3,0.8-0.3,1c0,0.2,0.1,0.3,0.2,0.5s0.5,0.2,1.1,0.3v0.3h-3.5v-0.3
		c0.5-0.1,0.8-0.2,0.9-0.3c0.3-0.3,0.6-0.8,0.9-1.6l4-9.3h0.3l3.9,9.4c0.3,0.8,0.6,1.2,0.9,1.5c0.3,0.2,0.6,0.3,1.1,0.4v0.3H312
		v-0.3c0.4,0,0.8-0.1,0.9-0.2c0.2-0.1,0.2-0.3,0.2-0.5c0-0.2-0.1-0.6-0.3-1.2L312.1,300z M311.9,299.4l-1.9-4.5l-2,4.5H311.9z"/>
	<path d="M326.3,300.7l0.3,0.1l-1,3.1h-8.7v-0.3h0.4c0.5,0,0.8-0.2,1-0.5c0.1-0.2,0.2-0.6,0.2-1.2v-7.3c0-0.7-0.1-1.1-0.2-1.3
		c-0.2-0.2-0.5-0.4-1-0.4h-0.4v-0.3h5.1v0.3c-0.6,0-1,0.1-1.3,0.2c-0.2,0.1-0.4,0.3-0.5,0.4s-0.1,0.6-0.1,1.3v7.1
		c0,0.5,0,0.8,0.1,0.9c0.1,0.1,0.2,0.2,0.3,0.3c0.1,0.1,0.6,0.1,1.3,0.1h0.8c0.9,0,1.5-0.1,1.8-0.2c0.3-0.1,0.7-0.4,1-0.7
		C325.8,301.9,326.1,301.4,326.3,300.7z"/>
	<path d="M330.5,293.2v4.4h2.5c0.6,0,1.1-0.1,1.3-0.3c0.3-0.3,0.4-0.7,0.5-1.3h0.3v3.9h-0.3c-0.1-0.5-0.2-0.9-0.2-1.1
		c-0.1-0.2-0.3-0.3-0.5-0.5c-0.2-0.1-0.6-0.2-1-0.2h-2.5v3.7c0,0.5,0,0.8,0.1,0.9c0,0.1,0.1,0.2,0.2,0.3s0.3,0.1,0.6,0.1h1.9
		c0.6,0,1.1,0,1.4-0.1c0.3-0.1,0.6-0.3,0.8-0.5c0.3-0.3,0.7-0.9,1.1-1.6h0.3l-1,2.8h-8.7v-0.3h0.4c0.3,0,0.5-0.1,0.8-0.2
		c0.2-0.1,0.3-0.2,0.4-0.4s0.1-0.5,0.1-1.1v-7.3c0-0.7-0.1-1.2-0.2-1.3c-0.2-0.2-0.5-0.3-1-0.3h-0.4v-0.3h8.7l0.1,2.5h-0.3
		c-0.1-0.6-0.2-1-0.4-1.2c-0.1-0.2-0.3-0.4-0.6-0.5c-0.2-0.1-0.6-0.1-1.2-0.1H330.5z"/>
</g>
<g>
	<path d="M147.9,204.2l2.7-1.3h0.3v9.5c0,0.6,0,1,0.1,1.2c0.1,0.2,0.2,0.3,0.3,0.4s0.5,0.1,1,0.1v0.3h-4.2V214c0.5,0,0.9-0.1,1-0.1
		s0.3-0.2,0.3-0.3s0.1-0.5,0.1-1.2v-6.1c0-0.8,0-1.3-0.1-1.6c0-0.2-0.1-0.3-0.2-0.4c-0.1-0.1-0.2-0.1-0.4-0.1
		c-0.2,0-0.5,0.1-0.9,0.3L147.9,204.2z"/>
	<path d="M155,208.8c0-1.3,0.2-2.4,0.6-3.3s0.9-1.6,1.5-2.1c0.5-0.4,1-0.5,1.5-0.5c0.9,0,1.6,0.4,2.3,1.3c0.9,1.1,1.3,2.6,1.3,4.4
		c0,1.3-0.2,2.4-0.6,3.3c-0.4,0.9-0.9,1.6-1.4,2c-0.6,0.4-1.1,0.6-1.7,0.6c-1.1,0-2-0.6-2.7-1.9C155.3,211.6,155,210.3,155,208.8z
		 M156.7,209c0,1.5,0.2,2.8,0.6,3.8c0.3,0.8,0.8,1.2,1.4,1.2c0.3,0,0.6-0.1,0.9-0.4c0.3-0.3,0.6-0.7,0.7-1.3c0.3-1,0.4-2.3,0.4-4
		c0-1.3-0.1-2.4-0.4-3.2c-0.2-0.6-0.5-1.1-0.8-1.4c-0.2-0.2-0.5-0.3-0.8-0.3c-0.4,0-0.7,0.2-1,0.5c-0.4,0.5-0.7,1.2-0.8,2.2
		S156.7,208,156.7,209z"/>
	<path d="M163.5,208.8c0-1.3,0.2-2.4,0.6-3.3s0.9-1.6,1.5-2.1c0.5-0.4,1-0.5,1.5-0.5c0.9,0,1.6,0.4,2.3,1.3c0.9,1.1,1.3,2.6,1.3,4.4
		c0,1.3-0.2,2.4-0.6,3.3c-0.4,0.9-0.9,1.6-1.4,2c-0.6,0.4-1.1,0.6-1.7,0.6c-1.1,0-2-0.6-2.7-1.9
		C163.8,211.6,163.5,210.3,163.5,208.8z M165.2,209c0,1.5,0.2,2.8,0.6,3.8c0.3,0.8,0.8,1.2,1.4,1.2c0.3,0,0.6-0.1,0.9-0.4
		c0.3-0.3,0.6-0.7,0.7-1.3c0.3-1,0.4-2.3,0.4-4c0-1.3-0.1-2.4-0.4-3.2c-0.2-0.6-0.5-1.1-0.8-1.4c-0.2-0.2-0.5-0.3-0.8-0.3
		c-0.4,0-0.7,0.2-1,0.5c-0.4,0.5-0.7,1.2-0.8,2.2S165.2,208,165.2,209z"/>
	<path d="M179.2,207.3v5c0,0.7,0.1,1.2,0.2,1.3c0.2,0.2,0.5,0.4,0.8,0.4h0.7v0.3h-4.5V214h0.3c0.2,0,0.4-0.1,0.6-0.2
		s0.3-0.3,0.4-0.4c0.1-0.2,0.1-0.6,0.1-1.1v-5h-1.5v-0.6h1.5v-0.5c0-0.8,0.1-1.4,0.4-1.9s0.6-1,1.1-1.3c0.5-0.3,1.1-0.5,1.7-0.5
		c0.6,0,1.1,0.2,1.6,0.6c0.3,0.2,0.5,0.5,0.5,0.8c0,0.2-0.1,0.3-0.2,0.5c-0.1,0.1-0.3,0.2-0.5,0.2c-0.1,0-0.3,0-0.4-0.1
		c-0.1-0.1-0.3-0.3-0.5-0.6c-0.2-0.3-0.4-0.5-0.6-0.6c-0.2-0.1-0.4-0.2-0.6-0.2c-0.3,0-0.5,0.1-0.6,0.2c-0.2,0.1-0.3,0.3-0.4,0.6
		s-0.1,1-0.1,2.2v0.5h2v0.6H179.2z"/>
	<path d="M184.1,204.2v2.5h1.8v0.6h-1.8v4.9c0,0.5,0.1,0.8,0.2,1s0.3,0.3,0.5,0.3c0.2,0,0.4-0.1,0.5-0.2c0.2-0.1,0.3-0.3,0.4-0.5
		h0.3c-0.2,0.5-0.5,1-0.8,1.2c-0.4,0.3-0.7,0.4-1.1,0.4c-0.3,0-0.5-0.1-0.7-0.2c-0.2-0.1-0.4-0.3-0.5-0.6s-0.2-0.7-0.2-1.2v-5.1
		h-1.2V207c0.3-0.1,0.6-0.3,0.9-0.6c0.3-0.3,0.6-0.6,0.9-1c0.1-0.2,0.3-0.6,0.5-1.2H184.1z"/>
</g>
<g>
	<path d="M216.4,234.1l-0.8,2.2H209v-0.3c2-1.8,3.3-3.2,4.1-4.4s1.2-2.2,1.2-3.1c0-0.7-0.2-1.3-0.7-1.8s-1-0.7-1.6-0.7
		c-0.6,0-1,0.2-1.5,0.5c-0.4,0.3-0.8,0.8-1,1.4h-0.3c0.1-1,0.5-1.8,1.1-2.4c0.6-0.5,1.3-0.8,2.1-0.8c0.9,0,1.7,0.3,2.3,0.9
		c0.6,0.6,0.9,1.3,0.9,2.1c0,0.6-0.1,1.1-0.4,1.7c-0.4,0.9-1.1,1.8-2,2.8c-1.4,1.5-2.2,2.4-2.6,2.7h2.9c0.6,0,1,0,1.3-0.1
		c0.2,0,0.5-0.1,0.7-0.3c0.2-0.1,0.4-0.3,0.5-0.6H216.4z"/>
</g>
<g>
	<polygon points="87.7,231.9 87.6,217.1 80.3,229.9 	"/>
</g>
<path fill="none" stroke="#000000" stroke-width="0.5" stroke-linecap="round" stroke-linejoin="round" stroke-miterlimit="10" d="
	M86.4,222.5c-1.5,8.4-4.8,16.5-9.8,23.9"/>
<g>
	<polygon points="71.2,176.8 81.1,187.7 78,173.3 	"/>
</g>
<path fill="none" stroke="#000000" stroke-width="0.5" stroke-linecap="round" stroke-linejoin="round" stroke-miterlimit="10" d="
	M78,182.1c-3.7-7.7-9.1-14.6-15.9-20.4"/>
<g>
	<polygon points="299.2,149.4 285.3,144.3 294.8,155.7 	"/>
</g>
<g>
	<polyline points="319.1,217.8 325.8,205.3 318.3,203.7 319.1,217.8 	"/>
</g>
<circle cx="25.3" cy="216.6" r="2.2"/>
<circle cx="212.9" cy="217.1" r="2.2"/>
<circle cx="402.7" cy="26.1" r="2.2"/>
<circle cx="402.9" cy="217.1" r="2.2"/>
<path fill="none" stroke="#000000" stroke-width="0.5" stroke-miterlimit="10" d="M287.2,146.2c20.9,10.5,35,29.9,35,52.2
	c0,5.5-0.9,10.9-2.5,15.9"/>
<g>
	<path d="M115,237.6l0.3,0.1l-1,3.1h-8.7v-0.3h0.4c0.5,0,0.8-0.2,1-0.5c0.1-0.2,0.2-0.6,0.2-1.2v-7.3c0-0.7-0.1-1.1-0.2-1.3
		c-0.2-0.2-0.5-0.4-1-0.4h-0.4v-0.3h5.1v0.3c-0.6,0-1,0.1-1.3,0.2c-0.2,0.1-0.4,0.3-0.5,0.4s-0.1,0.6-0.1,1.3v7.1
		c0,0.5,0,0.8,0.1,0.9c0.1,0.1,0.2,0.2,0.3,0.3c0.1,0.1,0.6,0.1,1.3,0.1h0.8c0.9,0,1.5-0.1,1.8-0.2c0.3-0.1,0.7-0.4,1-0.7
		C114.4,238.8,114.7,238.3,115,237.6z"/>
	<path d="M119.2,230v4.4h2.5c0.6,0,1.1-0.1,1.3-0.3c0.3-0.3,0.4-0.7,0.5-1.3h0.3v3.9h-0.3c-0.1-0.5-0.2-0.9-0.2-1.1
		c-0.1-0.2-0.3-0.3-0.5-0.5c-0.2-0.1-0.6-0.2-1-0.2h-2.5v3.7c0,0.5,0,0.8,0.1,0.9c0,0.1,0.1,0.2,0.2,0.3c0.1,0.1,0.3,0.1,0.6,0.1
		h1.9c0.6,0,1.1,0,1.4-0.1c0.3-0.1,0.6-0.3,0.8-0.5c0.3-0.3,0.7-0.9,1.1-1.6h0.3l-1,2.8H116v-0.3h0.4c0.3,0,0.5-0.1,0.8-0.2
		c0.2-0.1,0.3-0.2,0.4-0.4c0.1-0.2,0.1-0.5,0.1-1.1v-7.3c0-0.7-0.1-1.2-0.2-1.3c-0.2-0.2-0.5-0.3-1-0.3H116v-0.3h8.7l0.1,2.5h-0.3
		c-0.1-0.6-0.2-1-0.4-1.2s-0.4-0.4-0.6-0.5c-0.2-0.1-0.6-0.1-1.2-0.1H119.2z"/>
	<path d="M138.1,229.4v0.3c-0.4,0.1-0.7,0.2-0.9,0.4c-0.3,0.3-0.6,0.7-0.8,1.2l-3.9,9.6h-0.3l-4.2-9.7c-0.2-0.5-0.4-0.8-0.5-0.9
		c-0.1-0.2-0.3-0.3-0.5-0.4c-0.2-0.1-0.5-0.2-0.8-0.2v-0.3h4.6v0.3c-0.5,0.1-0.9,0.1-1,0.3c-0.2,0.1-0.2,0.3-0.2,0.5
		c0,0.3,0.1,0.7,0.4,1.3l2.9,6.6l2.7-6.5c0.3-0.6,0.4-1.1,0.4-1.3c0-0.2-0.1-0.3-0.2-0.5c-0.2-0.1-0.4-0.3-0.8-0.3c0,0-0.1,0-0.1,0
		v-0.3H138.1z"/>
	<path d="M141.8,230v4.4h2.5c0.6,0,1.1-0.1,1.3-0.3c0.3-0.3,0.4-0.7,0.5-1.3h0.3v3.9h-0.3c-0.1-0.5-0.2-0.9-0.2-1.1
		c-0.1-0.2-0.3-0.3-0.5-0.5c-0.2-0.1-0.6-0.2-1-0.2h-2.5v3.7c0,0.5,0,0.8,0.1,0.9c0,0.1,0.1,0.2,0.2,0.3c0.1,0.1,0.3,0.1,0.6,0.1
		h1.9c0.6,0,1.1,0,1.4-0.1c0.3-0.1,0.6-0.3,0.8-0.5c0.3-0.3,0.7-0.9,1.1-1.6h0.3l-1,2.8h-8.7v-0.3h0.4c0.3,0,0.5-0.1,0.8-0.2
		c0.2-0.1,0.3-0.2,0.4-0.4c0.1-0.2,0.1-0.5,0.1-1.1v-7.3c0-0.7-0.1-1.2-0.2-1.3c-0.2-0.2-0.5-0.3-1-0.3h-0.4v-0.3h8.7l0.1,2.5h-0.3
		c-0.1-0.6-0.2-1-0.4-1.2s-0.4-0.4-0.6-0.5c-0.2-0.1-0.6-0.1-1.2-0.1H141.8z"/>
	<path d="M158.4,237.6l0.3,0.1l-1,3.1H149v-0.3h0.4c0.5,0,0.8-0.2,1-0.5c0.1-0.2,0.2-0.6,0.2-1.2v-7.3c0-0.7-0.1-1.1-0.2-1.3
		c-0.2-0.2-0.5-0.4-1-0.4H149v-0.3h5.1v0.3c-0.6,0-1,0.1-1.3,0.2c-0.2,0.1-0.4,0.3-0.5,0.4s-0.1,0.6-0.1,1.3v7.1
		c0,0.5,0,0.8,0.1,0.9c0.1,0.1,0.2,0.2,0.3,0.3c0.1,0.1,0.6,0.1,1.3,0.1h0.8c0.9,0,1.5-0.1,1.8-0.2c0.3-0.1,0.7-0.4,1-0.7
		C157.8,238.8,158.1,238.3,158.4,237.6z"/>
</g>
<line fill="none" stroke="#000000" stroke-width="0.5" stroke-linecap="round" stroke-linejoin="round" stroke-miterlimit="10" x1="138.1" y1="226.5" x2="145.9" y2="218.5"/>
</svg>
